<svg xmlns="http://www.w3.org/2000/svg" width="34" height="34" fill="none"  xmlns:v="https://vecta.io/nano"><circle cx="17" cy="17" r="16.59" fill="#fff" stroke="#fff" stroke-width=".821"/><path d="M19.18 13.668c0-.665-.216-1.208-.648-1.629-.42-.42-.992-.63-1.716-.63-.876 0-1.553.268-2.031.806s-.706 1.319-.683 2.347h-1.489c-.023-.677.058-1.29.245-1.839.198-.56.479-1.039.841-1.436.374-.397.823-.7 1.348-.911.525-.222 1.103-.333 1.734-.333.689 0 1.278.105 1.769.315.502.199.916.461 1.243.788a3.02 3.02 0 0 1 .718 1.121 3.69 3.69 0 0 1 .228 1.261c0 .455-.058.858-.175 1.208-.105.35-.251.665-.438.946-.175.269-.38.514-.613.736l-.683.63-.648.56-.455.403a1.33 1.33 0 0 0-.28.298 1.19 1.19 0 0 0-.158.35c-.035.128-.053.298-.053.508v.858H15.8v-1.121c0-.292.023-.531.07-.718.047-.198.123-.374.228-.525s.239-.298.403-.438l.63-.543.858-.735c.385-.315.677-.648.876-.998.21-.362.315-.788.315-1.278zM15.468 24v-2.067h2.066V24h-2.066z" fill="#001520"/></svg>