<svg xmlns="http://www.w3.org/2000/svg" width="206" height="21" fill="#001520"  fill-rule="evenodd" xmlns:v="https://vecta.io/nano"><path d="M9.284 5.404c0-1.453-1.19-2.77-3.043-2.77S3.199 3.719 3.199 5.133c0 1.588.722 2.499 2.789 3.118l2.126.6c2.516.678 4.505 2.344 4.505 5.501 0 2.77-2.126 5.675-6.241 5.675-3.608 0-6.319-2.712-6.378-5.675l.137-.271 2.379-.794.273.271c-.059 2.363 1.755 3.699 3.589 3.699 2.262 0 3.452-1.181 3.452-2.905 0-1.84-1.482-2.615-2.789-2.925l-2.126-.6C2.399 10.014.41 8.29.41 5.133.41 2.227 2.906 0 6.222 0s5.871 2.247 5.871 5.404l-.273.271H9.557l-.273-.271zM16.582.679l.273-.271h11.41l.273.271v2.092l-.273.271h-4.291v16.347l-.273.252h-2.282l-.254-.252V3.042h-4.31l-.273-.271V.679zM39.28 8.581c1.599 0 3.062-.93 3.062-2.77s-1.463-2.77-3.062-2.77h-3.452V8.58h3.452zM33.039.679l.273-.271h5.831c3.179 0 5.968 1.976 5.968 5.404 0 3.196-2.789 5.133-5.734 5.249l6.124 8.057v.523h-2.925l-.273-.271-6.105-8.309h-.39v8.309l-.273.271h-2.262L33 19.37V.659l.039.019zm16.188 0L49.5.408h11.136l.273.271v2.092l-.273.271h-8.62v5.539h8.367l.254.252v2.111l-.254.271h-8.367v5.791h8.621l.273.271v2.111l-.273.252H49.5l-.273-.252V.679zm16.193 0l.273-.271h2.262l.254.271v16.328h8.621l.273.271v2.111l-.273.252H65.693l-.273-.252V.679zM93.694.408l.117.271-7.431 9.084 7.704 9.626-.136.252h-3.043l-.273-.252-6.241-7.902v7.903l-.254.252h-2.262l-.273-.252V.679l.273-.271h2.282l.234.271V8.31L90.359.679l.273-.271h3.062zm7.549 11.853h4.505l-2.262-8.425-2.262 8.425h.019zm.8-11.873h2.925l.273.271 5.305 18.71-.136.271h-2.516l-.273-.271-1.151-4.474h-5.948l-1.151 4.474-.273.271h-2.516l-.136-.271L101.75.659l.293-.271zm40.213.017l.137.271-7.431 9.084 7.684 9.626-.117.252h-3.062l-.253-.252-6.241-7.903v7.903l-.273.252h-2.263l-.253-.252V.676l.253-.271h2.282l.254.271v7.631l5.968-7.631.273-.271h3.042zm10.226 16.599c1.599 0 3.062-.93 3.062-2.905s-1.463-2.905-3.062-2.905h-3.316v5.791h3.316v.019zM146.65.405h9.83l.273.271v2.111l-.273.271h-7.295v5.54h3.179c3.453 0 5.969 2.247 5.969 5.54s-2.516 5.539-5.969 5.539h-5.714l-.273-.271V.696l.273-.271v-.02zM176.9.388v3.176l3.179-3.176H176.9zm12.892 0L176.9 13.21v3.215L193.03.388h-3.238zm12.95 0l-19.387 19.253h3.238L205.98.388h-3.238zm-6.439 19.251h3.237l6.456-6.392v-3.215l-9.693 9.607zM183.337.388L176.9 6.78v3.215l9.655-9.607h-3.218zm12.93 0L176.9 19.641h3.218L199.505.388h-3.238zM189.83 19.64h3.238l12.93-12.822V3.602L189.83 19.64z"/><path d="M202.777 19.64h3.218v-3.177l-3.218 3.177zm.024-19.252l3.198 3.157V.388h-3.198zm-11.358 0v1.588l14.55 14.43v-3.215L193.082.388h-1.639zm0 14.45l4.857 4.803h3.237l-8.094-8.019v3.215z"/><path d="M196.326.388L206 9.975V6.78L199.564.388h-3.238zm-4.883 8.019l11.332 11.234h3.218v-.019l-14.55-14.43v3.215z"/></svg>