<svg xmlns="http://www.w3.org/2000/svg" width="38" height="38" fill="none"  xmlns:v="https://vecta.io/nano"><circle opacity=".5" cx="19" cy="19" r="19" fill="#c4c4c4"/><path d="M12.682 5.677a.46.46 0 0 0-.254.091l-2.9 2.03c-.08.056-.146.137-.192.234s-.07.207-.07.319.024.222.07.319.113.178.192.234l2.9 2.03a.46.46 0 0 0 .253.092.45.45 0 0 0 .258-.068c.08-.049.148-.122.198-.211a.73.73 0 0 0 .089-.301V8.93h7.069v1.513a.73.73 0 0 0 .089.301c.05.09.118.163.198.211a.45.45 0 0 0 .258.068.46.46 0 0 0 .253-.092l2.9-2.03c.08-.056.146-.137.192-.234s.07-.207.07-.319-.024-.222-.07-.319-.113-.178-.192-.234l-2.9-2.03a.46.46 0 0 0-.265-.091c-.094-.001-.186.028-.267.084s-.148.138-.195.236-.071.21-.07.323v1.45h-7.069V6.32a.76.76 0 0 0-.04-.251.66.66 0 0 0-.118-.211c-.051-.06-.111-.107-.177-.138s-.137-.046-.208-.043zm-.508 1.749v1.849l-.652-.462-.662-.462.662-.462.652-.462zm9.171 0l.652.462.662.462-.662.462-.652.462V7.426zM16.76 9.8a2.32 2.32 0 0 0-2.32 2.32v7.431l-.054-.127-.018-.045c-.517-.959-1.09-1.497-1.74-1.677s-1.243.044-1.668.29l-.027.018c-.469.313-.898.717-1.06 1.296s-.054 1.219.254 2.012l.009.018.87 2.03.009.018c1.651 3.477 3.238 5.886 4.722 7.667a.58.58 0 0 0 .444.208h7.83a.58.58 0 0 0 .344-.118c1.649-1.221 2.822-4.067 3.263-6.77.22-1.351.244-2.667-.082-3.752s-1.117-1.982-2.302-2.121a.61.61 0 0 0-.064 0c-.205 0-.465.009-.734.063l-.045.009c-.149-.355-.349-.659-.607-.843a2.05 2.05 0 0 0-1.233-.39c-.339.006-.659.117-.933.308-.124-.187-.255-.372-.417-.489-.43-.312-.887-.399-1.251-.399-.3 0-.591.074-.87.19v-4.83a2.32 2.32 0 0 0-2.32-2.32zm0 1.16c.684 0 1.161.462 1.16 1.151v6.099a.58.58 0 0 0 .455.566.58.58 0 0 0 .651-.321c.128-.267.611-.535.924-.535a1.1 1.1 0 0 1 .571.172c.169.123.299.275.299.698a.58.58 0 0 0 .449.555.58.58 0 0 0 .647-.301c.236-.472.362-.539.652-.544.08 0 .362.043.544.172s.317.286.317.698a.58.58 0 0 0 .351.52.58.58 0 0 0 .619-.103c-.014.013.101-.049.263-.082a2.77 2.77 0 0 1 .48-.045c.686.097 1.04.502 1.278 1.296.244.813.256 1.988.054 3.226-.391 2.404-1.628 5.017-2.71 5.918h-7.286c-1.372-1.679-2.845-3.916-4.404-7.196l-.009-.018-.852-1.994c-.003-.008-.006-.01-.009-.018-.255-.664-.278-1.044-.217-1.26s.219-.383.58-.625c.291-.167.527-.234.752-.172.234.064.594.313 1.024 1.106l1.142 2.583a.58.58 0 0 0 .655.343.58.58 0 0 0 .46-.578V12.12c0-.69.476-1.16 1.16-1.16z" fill="#fff"/></svg>