<svg width="20" height="20" viewBox="0 0 20 20" fill="none" xmlns="http://www.w3.org/2000/svg">
<path d="M16.5904 13.1803C15.6377 13.1803 14.7289 13.5804 14.0826 14.2817L6.76247 10.6218C6.80054 10.417 6.81969 10.2086 6.81969 10C6.81969 9.79117 6.80054 9.58256 6.76247 9.37774L14.0824 5.71788C14.7285 6.41917 15.6373 6.81991 16.5902 6.81991C18.4703 6.81991 20 5.28998 20 3.40985C20 1.52949 18.4703 0 16.5902 0C14.71 0 13.1808 1.52949 13.1808 3.40985C13.1808 3.61845 13.1995 3.82706 13.2377 4.03166L5.91758 7.69174C5.2715 6.99045 4.36294 6.59016 3.40984 6.59016C1.52949 6.59016 0 8.11964 0 10C0 11.8797 1.52971 13.4098 3.40984 13.4098C4.36271 13.4098 5.2715 13.0093 5.91758 12.308L13.2377 15.9679C13.1995 16.1727 13.1808 16.3818 13.1808 16.5902C13.1808 18.4703 14.71 20 16.5902 20C18.4703 20 20 18.4703 20 16.5902C20 14.71 18.4705 13.1803 16.5904 13.1803ZM16.5904 18.3501C15.6204 18.3501 14.8311 17.5604 14.8311 16.5904C14.8311 15.6199 15.6204 14.8307 16.5904 14.8307C17.5604 14.8307 18.3501 15.6199 18.3501 16.5904C18.3501 17.5604 17.5604 18.3501 16.5904 18.3501ZM16.5904 5.16954C15.6204 5.16954 14.8311 4.38008 14.8311 3.40985C14.8311 2.43961 15.6204 1.65015 16.5904 1.65015C17.5604 1.65015 18.3501 2.43939 18.3501 3.40985C18.3501 4.38008 17.5604 5.16954 16.5904 5.16954ZM3.40984 11.7595C2.43961 11.7595 1.65015 10.9702 1.65015 10.0002C1.65015 9.02999 2.43961 8.24053 3.40984 8.24053C4.3803 8.24053 5.16953 9.02977 5.16953 10.0002C5.16953 10.9702 4.3803 11.7595 3.40984 11.7595Z" fill="#001520"/>
</svg>
