<svg width="121" height="12" viewBox="0 0 121 12" fill="none" xmlns="http://www.w3.org/2000/svg">
<path fill-rule="evenodd" clip-rule="evenodd" d="M5.45301 3.17414C5.45301 2.32087 4.7542 1.54725 3.66589 1.54725C2.57758 1.54725 1.87877 2.18435 1.87877 3.01486C1.87877 3.94776 2.30264 4.48247 3.51696 4.84653L4.76566 5.19921C6.24347 5.5974 7.41198 6.57581 7.41198 8.43023C7.41198 10.0571 6.16328 11.7636 3.74608 11.7636C1.62674 11.7636 0.0343677 10.1709 0 8.43023L0.0801914 8.27096L1.47781 7.80451L1.6382 7.96378C1.60383 9.35176 2.66923 10.1368 3.74608 10.1368C5.07497 10.1368 5.77378 9.44277 5.77378 8.43023C5.77378 7.34943 4.90313 6.89436 4.13558 6.71233C3.75754 6.62132 3.27639 6.4848 2.88689 6.35965C1.40908 5.88182 0.240574 4.86928 0.240574 3.01486C0.240574 1.30834 1.70693 0 3.65444 0C5.60194 0 7.10267 1.31971 7.10267 3.17414L6.94228 3.33341H5.6134L5.45301 3.17414Z" fill="#06151F"/>
<path fill-rule="evenodd" clip-rule="evenodd" d="M9.74023 0.399022L9.90062 0.239746H16.6023L16.7627 0.399022V1.62772L16.6023 1.787H14.082V11.3891L13.9216 11.537H12.5813L12.4324 11.3891V1.787H9.90062L9.74023 1.62772V0.399022Z" fill="#06151F"/>
<path fill-rule="evenodd" clip-rule="evenodd" d="M23.0716 5.04078C24.011 5.04078 24.8702 4.49469 24.8702 3.41389C24.8702 2.33309 24.011 1.787 23.0716 1.787H21.0439V5.04078H23.0716ZM19.4057 0.399022L19.5661 0.239746H22.9914C24.8587 0.239746 26.4969 1.40019 26.4969 3.41389C26.4969 5.29107 24.8587 6.42875 23.1289 6.49702L26.726 11.2298V11.537H25.0077L24.8473 11.3777L21.2616 6.49702H21.0325V11.3777L20.8721 11.537H19.5432L19.3828 11.3777V0.387645L19.4057 0.399022Z" fill="#06151F"/>
<path fill-rule="evenodd" clip-rule="evenodd" d="M28.9121 0.399022L29.0725 0.239746H35.6138L35.7742 0.399022V1.62772L35.6138 1.787H30.5503V5.04078H35.4649L35.6138 5.18868V6.42875L35.4649 6.58803H30.5503V9.98971H35.6138L35.7742 10.149V11.3891L35.6138 11.537H29.0725L28.9121 11.3891V0.399022Z" fill="#06151F"/>
<path fill-rule="evenodd" clip-rule="evenodd" d="M38.4219 0.399022L38.5823 0.239746H39.9111L40.0601 0.399022V9.98971H45.1236L45.284 10.149V11.3891L45.1236 11.537H38.5823L38.4219 11.3891V0.399022Z" fill="#06151F"/>
<path fill-rule="evenodd" clip-rule="evenodd" d="M55.0343 0.239746L55.103 0.399022L50.7383 5.73477L55.2634 11.3891L55.1832 11.537H53.3961L53.2357 11.3891L49.5698 6.74731V11.3891L49.4209 11.537H48.092L47.9316 11.3891V0.399022L48.092 0.239746H49.4324L49.5698 0.399022V4.8815L53.0754 0.399022L53.2357 0.239746H55.0343Z" fill="#06151F"/>
<path fill-rule="evenodd" clip-rule="evenodd" d="M59.4666 7.20155H62.1129L60.784 2.25262L59.4551 7.20155H59.4666ZM59.9363 0.227539H61.6547L61.8151 0.386815L64.9311 11.3769L64.8509 11.5361H63.3731L63.2127 11.3769L62.5368 8.74881H59.0427L58.3668 11.3769L58.2064 11.5361H56.7286L56.6484 11.3769L59.7645 0.386815L59.9363 0.227539Z" fill="#06151F"/>
<path fill-rule="evenodd" clip-rule="evenodd" d="M83.56 0.238037L83.6402 0.397313L79.2755 5.73305L83.7891 11.3873L83.7203 11.5352H81.9218L81.7728 11.3873L78.1069 6.74559V11.3873L77.9466 11.5352H76.6177L76.4688 11.3873V0.397313L76.6177 0.238037H77.958L78.1069 0.397313V4.87979L81.6125 0.397313L81.7728 0.238037H83.56Z" fill="#06151F"/>
<path fill-rule="evenodd" clip-rule="evenodd" d="M89.5622 9.98801C90.5016 9.98801 91.3608 9.44193 91.3608 8.28148C91.3608 7.12104 90.5016 6.57495 89.5622 6.57495H87.6148V9.97664H89.5622V9.98801ZM86.1369 0.238037H91.9107L92.0711 0.397313V1.63739L91.9107 1.79667H87.6262V5.05045H89.4935C91.5212 5.05045 92.999 6.37017 92.999 8.30424C92.999 10.2383 91.5212 11.558 89.4935 11.558H86.1369L85.9766 11.3987V0.40869L86.1369 0.249414V0.238037Z" fill="#06151F"/>
<path fill-rule="evenodd" clip-rule="evenodd" d="M103.904 0.227539V2.09333L105.772 0.227539H103.904Z" fill="#06151F"/>
<path fill-rule="evenodd" clip-rule="evenodd" d="M111.477 0.227539L103.904 7.75901V9.64756L113.378 0.227539H111.477Z" fill="#06151F"/>
<path fill-rule="evenodd" clip-rule="evenodd" d="M119.084 0.227539L107.697 11.5361H109.599L120.986 0.227539H119.084Z" fill="#06151F"/>
<path fill-rule="evenodd" clip-rule="evenodd" d="M115.305 11.5362H117.206L120.998 7.78187V5.89331L115.305 11.5362Z" fill="#06151F"/>
<path fill-rule="evenodd" clip-rule="evenodd" d="M107.685 0.227539L103.904 3.98189V5.87045L109.575 0.227539H107.685Z" fill="#06151F"/>
<path fill-rule="evenodd" clip-rule="evenodd" d="M115.28 0.227539L103.904 11.5361H105.795L117.182 0.227539H115.28Z" fill="#06151F"/>
<path fill-rule="evenodd" clip-rule="evenodd" d="M111.5 11.5367H113.402L120.997 4.00526V2.1167L111.5 11.5367Z" fill="#06151F"/>
<path fill-rule="evenodd" clip-rule="evenodd" d="M119.105 11.5365H120.996V9.67065L119.105 11.5365Z" fill="#06151F"/>
<path fill-rule="evenodd" clip-rule="evenodd" d="M119.121 0.227539L121 2.08195V0.227539H119.121Z" fill="#06151F"/>
<path fill-rule="evenodd" clip-rule="evenodd" d="M112.451 0.227539V1.16044L120.997 9.63619V7.74763L113.413 0.227539H112.451Z" fill="#06151F"/>
<path fill-rule="evenodd" clip-rule="evenodd" d="M112.451 8.71546L115.304 11.5369H117.205L112.451 6.8269V8.71546Z" fill="#06151F"/>
<path fill-rule="evenodd" clip-rule="evenodd" d="M115.314 0.227539L120.997 5.85909V3.9819L117.216 0.227539H115.314Z" fill="#06151F"/>
<path fill-rule="evenodd" clip-rule="evenodd" d="M112.451 4.93787L119.107 11.5364H120.997V11.5251L112.451 3.04932V4.93787Z" fill="#06151F"/>
</svg>
