<svg width="372" height="372" viewBox="0 0 372 372" fill="none" xmlns="http://www.w3.org/2000/svg">
<path opacity="0.2" d="M185.54 371.08C288.011 371.08 371.08 288.011 371.08 185.54C371.08 83.0691 288.011 0 185.54 0C83.0691 0 0 83.0691 0 185.54C0 288.011 83.0691 371.08 185.54 371.08Z" fill="white"/>
<path d="M190.041 191.63L201.531 203.12" stroke="white" stroke-miterlimit="10"/>
<path d="M181.81 194.62C188.885 194.62 194.62 188.885 194.62 181.81C194.62 174.735 188.885 169 181.81 169C174.735 169 169 174.735 169 181.81C169 188.885 174.735 194.62 181.81 194.62Z" stroke="white" stroke-miterlimit="10"/>
<path d="M181.811 176.32V187.31" stroke="white" stroke-miterlimit="10"/>
<path d="M187.3 181.81H176.32" stroke="white" stroke-miterlimit="10"/>
</svg>
