<svg width="188" height="508" viewBox="0 0 188 508" fill="none" xmlns="http://www.w3.org/2000/svg">
<circle cx="93.8755" cy="57.3355" r="57.3355" fill="white"/>
<path d="M81.1297 45.0859H77.9807V53.2139H76.8756V45.0859H73.7266V44.1234H81.1297V45.0859ZM85.1742 49.4588C85.1663 49.1974 85.1346 48.9558 85.0791 48.734C85.0237 48.5042 84.9326 48.3062 84.8058 48.1398C84.687 47.9735 84.5285 47.8428 84.3305 47.7477C84.1404 47.6526 83.9106 47.6051 83.6413 47.6051C83.1422 47.6051 82.754 47.7833 82.4768 48.1398C82.1995 48.4963 82.0292 48.9598 81.9658 49.5301H85.1742V49.4588ZM86.1842 51.574C86.0733 52.1206 85.7961 52.5563 85.3524 52.8811C84.9167 53.2059 84.3622 53.3683 83.6888 53.3683C83.2135 53.3683 82.7976 53.2891 82.4411 53.1307C82.0846 52.9643 81.7875 52.7346 81.5499 52.4415C81.3201 52.1484 81.1459 51.8038 81.027 51.4077C80.9161 51.0116 80.8607 50.5798 80.8607 50.1124C80.8607 49.6529 80.9201 49.2212 81.0389 48.8172C81.1657 48.4131 81.3479 48.0606 81.5855 47.7596C81.8232 47.4585 82.1123 47.2248 82.453 47.0585C82.8016 46.8842 83.2016 46.797 83.6532 46.797C84.1206 46.797 84.5206 46.8802 84.8534 47.0466C85.1861 47.213 85.4554 47.4387 85.6614 47.7239C85.8753 48.0012 86.0298 48.322 86.1248 48.6864C86.2199 49.0509 86.2674 49.4311 86.2674 49.8272V50.3738H81.9539C81.9856 51.0234 82.1401 51.5502 82.4173 51.9543C82.7025 52.3504 83.1382 52.5484 83.7245 52.5484C83.9859 52.5484 84.1998 52.5167 84.3661 52.4534C84.5404 52.3821 84.6791 52.2989 84.7821 52.2038C84.893 52.1008 84.9761 51.9939 85.0316 51.883C85.087 51.7721 85.1267 51.6691 85.1504 51.574H86.1842ZM89.022 49.6014H89.9132L91.7788 46.9515H92.9552L90.7925 50.0173L93.1454 53.2139H91.8976L89.9013 50.4927H89.022V53.2139H87.9525V46.9515H89.022V49.6014ZM98.2972 48.8409C98.2814 48.6825 98.2378 48.532 98.1665 48.3894C98.1031 48.2389 98.012 48.1081 97.8932 47.9972C97.7743 47.8784 97.6278 47.7873 97.4535 47.7239C97.2871 47.6526 97.0931 47.617 96.8712 47.617C96.586 47.617 96.3365 47.6764 96.1226 47.7952C95.9087 47.9141 95.7305 48.0804 95.5879 48.2943C95.4453 48.5082 95.3344 48.7657 95.2552 49.0667C95.1839 49.3677 95.1482 49.7005 95.1482 50.0649C95.1482 50.4293 95.1759 50.762 95.2314 51.063C95.2948 51.3641 95.3938 51.6255 95.5285 51.8473C95.6631 52.0612 95.8374 52.2276 96.0513 52.3464C96.2652 52.4652 96.5306 52.5247 96.8475 52.5247C97.1406 52.5247 97.3822 52.4771 97.5723 52.3821C97.7704 52.287 97.9249 52.1682 98.0358 52.0256C98.1546 51.883 98.2378 51.7364 98.2853 51.5859C98.3408 51.4275 98.3725 51.2888 98.3804 51.17H99.3786C99.3389 51.5344 99.2478 51.8552 99.1052 52.1325C98.9626 52.4019 98.7804 52.6276 98.5586 52.8098C98.3368 52.9921 98.0793 53.1267 97.7862 53.2139C97.4931 53.3089 97.1762 53.3565 96.8356 53.3565C96.384 53.3565 95.984 53.2812 95.6354 53.1307C95.2948 52.9802 95.0056 52.7663 94.7679 52.489C94.5303 52.2038 94.352 51.8632 94.2332 51.4671C94.1144 51.063 94.055 50.6115 94.055 50.1124C94.055 49.6371 94.1183 49.1974 94.2451 48.7934C94.3718 48.3814 94.5541 48.0289 94.7917 47.7358C95.0373 47.4427 95.3304 47.213 95.6711 47.0466C96.0196 46.8802 96.4157 46.797 96.8594 46.797C97.1683 46.797 97.4654 46.8367 97.7506 46.9159C98.0437 46.9872 98.3012 47.106 98.523 47.2724C98.7527 47.4308 98.9389 47.6407 99.0815 47.9022C99.232 48.1636 99.3191 48.4765 99.3429 48.8409H98.2972ZM102.125 47.8428H100.105V46.9515H105.215V47.8428H103.195V53.2139H102.125V47.8428ZM107.636 49.0667H108.812C109.596 49.0667 110.194 49.2568 110.606 49.6371C111.026 50.0094 111.236 50.4966 111.236 51.0987C111.236 51.7245 111.026 52.2355 110.606 52.6316C110.194 53.0198 109.596 53.2139 108.812 53.2139H106.566V46.9515H107.636V49.0667ZM107.636 49.9579V52.3226H108.681C108.943 52.3226 109.165 52.291 109.347 52.2276C109.537 52.1563 109.691 52.0652 109.81 51.9543C109.929 51.8354 110.012 51.7047 110.06 51.5621C110.115 51.4116 110.143 51.2571 110.143 51.0987C110.143 50.766 110.028 50.4927 109.798 50.2788C109.569 50.0649 109.196 49.9579 108.681 49.9579H107.636ZM112.317 46.9515H113.399V53.2139H112.317V46.9515ZM70.3694 65.8428H68.3493V64.9515H73.459V65.8428H71.4389V71.2139H70.3694V65.8428ZM74.261 64.9515H75.3305L76.6376 68.8729C76.6851 69.0234 76.7287 69.1581 76.7683 69.2769C76.8079 69.3958 76.8396 69.4988 76.8634 69.5859C76.8951 69.681 76.9228 69.7681 76.9466 69.8473H76.9822C77.006 69.7681 77.0337 69.681 77.0654 69.5859C77.0892 69.4988 77.1169 69.3958 77.1486 69.2769C77.1882 69.1581 77.2357 69.0195 77.2912 68.861L78.5745 64.9515H79.644L77.3625 71.606C77.2357 71.9625 77.109 72.2675 76.9822 72.521C76.8634 72.7745 76.7168 72.9765 76.5425 73.127C76.3762 73.2855 76.1781 73.4003 75.9484 73.4716C75.7187 73.5429 75.4335 73.5786 75.0928 73.5786C74.974 73.5786 74.8591 73.5707 74.7482 73.5548C74.6373 73.539 74.5383 73.5231 74.4511 73.5073V72.6279C74.5541 72.6517 74.6571 72.6676 74.7601 72.6755C74.8631 72.6834 74.9423 72.6874 74.9977 72.6874C75.1958 72.6874 75.3622 72.6676 75.4968 72.6279C75.6394 72.5883 75.7583 72.521 75.8533 72.4259C75.9563 72.3388 76.0435 72.2239 76.1148 72.0813C76.186 71.9387 76.2573 71.7605 76.3286 71.5466L76.4475 71.2139L74.261 64.9515ZM82.1339 68.3144C82.1339 68.6234 82.1695 68.9125 82.2408 69.1819C82.32 69.4512 82.4349 69.6849 82.5854 69.883C82.7359 70.081 82.9221 70.2395 83.1439 70.3583C83.3657 70.4692 83.6272 70.5247 83.9282 70.5247C84.4907 70.5247 84.9066 70.3108 85.1759 69.883C85.4532 69.4473 85.5918 68.8175 85.5918 67.9936C85.5918 67.6609 85.5641 67.3519 85.5086 67.0667C85.4532 66.7815 85.3621 66.5359 85.2353 66.33C85.1086 66.1161 84.9343 65.9497 84.7125 65.8309C84.4986 65.712 84.2332 65.6526 83.9163 65.6526C83.639 65.6526 83.3895 65.7081 83.1677 65.819C82.9538 65.922 82.7676 66.0685 82.6092 66.2587C82.4587 66.4409 82.3398 66.6548 82.2527 66.9003C82.1735 67.138 82.1339 67.3875 82.1339 67.649V68.3144ZM81.1 64.9515H82.1339V65.9972H82.1576C82.3398 65.6645 82.5973 65.3833 82.93 65.1535C83.2707 64.9159 83.6787 64.797 84.154 64.797C84.4867 64.797 84.8036 64.8525 85.1046 64.9634C85.4136 65.0743 85.6829 65.2565 85.9127 65.51C86.1424 65.7556 86.3246 66.0844 86.4593 66.4963C86.6019 66.9003 86.6732 67.3994 86.6732 67.9936C86.6732 68.564 86.6019 69.063 86.4593 69.4908C86.3246 69.9107 86.1384 70.2593 85.9008 70.5365C85.671 70.8138 85.3977 71.0237 85.0808 71.1663C84.7719 71.301 84.4392 71.3683 84.0827 71.3683C83.8529 71.3683 83.6351 71.3367 83.4291 71.2733C83.2311 71.2178 83.0489 71.1426 82.8825 71.0475C82.7161 70.9445 82.5735 70.8297 82.4547 70.7029C82.3359 70.5761 82.2487 70.4415 82.1933 70.2989H82.1695V73.4479H81.1V64.9515ZM92.4047 64.9515H93.5217V71.2139H92.4641V66.2705H92.4403C92.3928 66.3814 92.3413 66.4963 92.2858 66.6151C92.2383 66.7181 92.1789 66.837 92.1076 66.9716C92.0363 67.1063 91.9571 67.2449 91.8699 67.3875L89.4815 71.2139H88.3644V64.9515H89.422V69.8949H89.4458C89.4933 69.7839 89.5448 69.6691 89.6003 69.5502C89.6478 69.4473 89.7072 69.3324 89.7785 69.2056C89.8498 69.071 89.929 68.9284 90.0162 68.7779L92.4047 64.9515ZM99.4402 66.8409C99.4244 66.6825 99.3808 66.532 99.3095 66.3894C99.2461 66.2389 99.155 66.1081 99.0362 65.9972C98.9174 65.8784 98.7708 65.7873 98.5965 65.7239C98.4302 65.6526 98.2361 65.617 98.0143 65.617C97.7291 65.617 97.4795 65.6764 97.2656 65.7952C97.0518 65.9141 96.8735 66.0804 96.7309 66.2943C96.5883 66.5082 96.4774 66.7657 96.3982 67.0667C96.3269 67.3677 96.2912 67.7005 96.2912 68.0649C96.2912 68.4293 96.319 68.762 96.3744 69.063C96.4378 69.3641 96.5368 69.6255 96.6715 69.8473C96.8062 70.0612 96.9805 70.2276 97.1944 70.3464C97.4082 70.4652 97.6736 70.5247 97.9905 70.5247C98.2836 70.5247 98.5252 70.4771 98.7154 70.3821C98.9134 70.287 99.0679 70.1682 99.1788 70.0256C99.2976 69.883 99.3808 69.7364 99.4284 69.5859C99.4838 69.4275 99.5155 69.2888 99.5234 69.17H100.522C100.482 69.5344 100.391 69.8552 100.248 70.1325C100.106 70.4019 99.9235 70.6276 99.7017 70.8098C99.4798 70.9921 99.2224 71.1267 98.9293 71.2139C98.6362 71.3089 98.3193 71.3565 97.9786 71.3565C97.5271 71.3565 97.127 71.2812 96.7784 71.1307C96.4378 70.9802 96.1486 70.7663 95.911 70.489C95.6733 70.2038 95.4951 69.8632 95.3763 69.4671C95.2574 69.063 95.198 68.6115 95.198 68.1124C95.198 67.6371 95.2614 67.1974 95.3881 66.7934C95.5149 66.3814 95.6971 66.0289 95.9348 65.7358C96.1803 65.4427 96.4734 65.213 96.8141 65.0466C97.1627 64.8802 97.5588 64.797 98.0024 64.797C98.3114 64.797 98.6084 64.8367 98.8936 64.9159C99.1867 64.9872 99.4442 65.106 99.666 65.2724C99.8958 65.4308 100.082 65.6407 100.225 65.9022C100.375 66.1636 100.462 66.4765 100.486 66.8409H99.4402ZM103.268 65.8428H101.248V64.9515H106.358V65.8428H104.338V71.2139H103.268V65.8428ZM109.827 71.3683C109.368 71.3683 108.964 71.2891 108.615 71.1307C108.266 70.9722 107.973 70.7504 107.736 70.4652C107.506 70.1721 107.332 69.8236 107.213 69.4195C107.094 69.0155 107.035 68.5679 107.035 68.0768C107.035 67.5935 107.098 67.1499 107.225 66.7459C107.359 66.3418 107.546 65.9972 107.783 65.712C108.029 65.4189 108.326 65.1931 108.674 65.0347C109.023 64.8763 109.415 64.797 109.851 64.797C110.318 64.797 110.726 64.8763 111.075 65.0347C111.423 65.1931 111.713 65.4189 111.942 65.712C112.18 65.9972 112.354 66.3418 112.465 66.7459C112.584 67.1499 112.643 67.5935 112.643 68.0768C112.643 68.5679 112.58 69.0155 112.453 69.4195C112.326 69.8236 112.14 70.1721 111.895 70.4652C111.649 70.7504 111.352 70.9722 111.004 71.1307C110.655 71.2891 110.263 71.3683 109.827 71.3683ZM109.839 65.617C109.269 65.617 108.841 65.8348 108.556 66.2705C108.278 66.7062 108.14 67.3083 108.14 68.0768C108.14 68.8452 108.274 69.4473 108.544 69.883C108.813 70.3187 109.253 70.5365 109.863 70.5365C110.449 70.5365 110.873 70.3187 111.134 69.883C111.404 69.4473 111.538 68.8452 111.538 68.0768C111.538 67.3083 111.404 66.7062 111.134 66.2705C110.873 65.8348 110.441 65.617 109.839 65.617ZM114.335 64.9515H116.95C117.583 64.9515 118.074 65.0902 118.423 65.3674C118.78 65.6368 118.958 66.017 118.958 66.5082C118.958 66.8885 118.867 67.1974 118.684 67.4351C118.51 67.6727 118.269 67.8351 117.96 67.9223V67.946C118.348 68.0094 118.665 68.1679 118.91 68.4214C119.164 68.6749 119.291 68.9957 119.291 69.3839C119.291 69.7404 119.223 70.0375 119.088 70.2751C118.962 70.5048 118.787 70.691 118.566 70.8336C118.352 70.9762 118.098 71.0752 117.805 71.1307C117.512 71.1861 117.199 71.2139 116.866 71.2139H114.335V64.9515ZM115.381 65.8071V67.5183H116.843C116.977 67.5183 117.108 67.5024 117.235 67.4707C117.369 67.439 117.484 67.3875 117.579 67.3162C117.682 67.2449 117.762 67.1538 117.817 67.0429C117.88 66.9241 117.912 66.7815 117.912 66.6151C117.912 66.322 117.821 66.1161 117.639 65.9972C117.457 65.8705 117.223 65.8071 116.938 65.8071H115.381ZM115.381 68.3857V70.3583H116.902C117.298 70.3583 117.615 70.287 117.853 70.1444C118.098 69.9939 118.221 69.7325 118.221 69.3601C118.221 68.9957 118.098 68.7422 117.853 68.5996C117.607 68.457 117.27 68.3857 116.843 68.3857H115.381Z" fill="#001520"/>
<path d="M93.4558 150.091C93.6879 150.323 94.0641 150.323 94.2961 150.091L98.0772 146.31C98.3093 146.078 98.3093 145.702 98.0772 145.47C97.8452 145.238 97.469 145.238 97.237 145.47L93.876 148.831L90.515 145.47C90.2829 145.238 89.9067 145.238 89.6747 145.47C89.4427 145.702 89.4427 146.078 89.6747 146.31L93.4558 150.091ZM93.2818 124.671L93.2818 126.233L94.4701 126.233L94.4701 124.671L93.2818 124.671ZM93.2818 129.358L93.2818 132.483L94.4701 132.483L94.4701 129.358L93.2818 129.358ZM93.2818 135.608L93.2818 138.733L94.4701 138.733L94.4701 135.608L93.2818 135.608ZM93.2818 141.858L93.2818 144.983L94.4701 144.983L94.4701 141.858L93.2818 141.858ZM93.2818 148.108L93.2818 149.671L94.4701 149.671L94.4701 148.108L93.2818 148.108Z" fill="white"/>
<circle cx="93.8757" cy="253.547" r="93.8757" fill="#001520"/>
<path d="M79.4514 231.303V223.591H79.4277C79.4039 223.647 79.3722 223.718 79.3326 223.805C79.293 223.877 79.2415 223.968 79.1781 224.079C79.1147 224.19 79.0395 224.32 78.9523 224.471L74.7933 231.303H73.4862V222.213H74.5794V229.949H74.6151C74.6467 229.87 74.6864 229.782 74.7339 229.687C74.7735 229.608 74.821 229.517 74.8765 229.414C74.9319 229.303 74.9993 229.184 75.0785 229.058L79.2375 222.213H80.5447V231.303H79.4514ZM82.8946 225.041H83.9641V227.691H86.8041V225.041H87.8736V231.303H86.8041V228.582H83.9641V231.303H82.8946V225.041ZM91.1821 228.238C91.1504 228.776 91.1029 229.216 91.0395 229.557C90.984 229.897 90.9088 230.183 90.8137 230.412H93.6775V225.932H91.3366C91.3207 226.115 91.3049 226.309 91.289 226.515C91.2811 226.713 91.2692 226.915 91.2534 227.121C91.2375 227.327 91.2217 227.529 91.2059 227.727C91.1979 227.917 91.19 228.087 91.1821 228.238ZM89.1144 232.908V230.412H89.7086C89.8433 230.198 89.9423 229.929 90.0057 229.604C90.077 229.271 90.1324 228.816 90.172 228.238C90.1879 227.984 90.2077 227.675 90.2314 227.311C90.2552 226.938 90.279 226.586 90.3027 226.253C90.3344 225.865 90.3622 225.461 90.3859 225.041H94.747V230.412H95.5788V232.908H94.6282V231.303H90.0651V232.908H89.1144ZM100.807 227.548C100.799 227.287 100.768 227.045 100.712 226.824C100.657 226.594 100.566 226.396 100.439 226.229C100.32 226.063 100.161 225.932 99.9634 225.837C99.7733 225.742 99.5436 225.695 99.2742 225.695C98.7751 225.695 98.387 225.873 98.1097 226.229C97.8324 226.586 97.6621 227.049 97.5987 227.62H100.807V227.548ZM101.817 229.664C101.706 230.21 101.429 230.646 100.985 230.971C100.55 231.296 99.9951 231.458 99.3218 231.458C98.8464 231.458 98.4305 231.379 98.074 231.22C97.7176 231.054 97.4205 230.824 97.1828 230.531C96.9531 230.238 96.7788 229.893 96.66 229.497C96.5491 229.101 96.4936 228.669 96.4936 228.202C96.4936 227.743 96.553 227.311 96.6718 226.907C96.7986 226.503 96.9808 226.15 97.2185 225.849C97.4561 225.548 97.7453 225.314 98.0859 225.148C98.4345 224.974 98.8346 224.887 99.2861 224.887C99.7535 224.887 100.154 224.97 100.486 225.136C100.819 225.303 101.088 225.528 101.294 225.814C101.508 226.091 101.663 226.412 101.758 226.776C101.853 227.14 101.9 227.521 101.9 227.917V228.463H97.5868C97.6185 229.113 97.773 229.64 98.0503 230.044C98.3355 230.44 98.7712 230.638 99.3574 230.638C99.6188 230.638 99.8327 230.606 99.9991 230.543C100.173 230.472 100.312 230.388 100.415 230.293C100.526 230.19 100.609 230.083 100.665 229.973C100.72 229.862 100.76 229.759 100.783 229.664H101.817ZM104.655 227.691H105.546L107.412 225.041H108.588L106.425 228.107L108.778 231.303H107.531L105.534 228.582H104.655V231.303H103.585V225.041H104.655V227.691ZM113.93 226.931C113.914 226.772 113.871 226.622 113.799 226.479C113.736 226.328 113.645 226.198 113.526 226.087C113.407 225.968 113.261 225.877 113.086 225.814C112.92 225.742 112.726 225.707 112.504 225.707C112.219 225.707 111.969 225.766 111.756 225.885C111.542 226.004 111.363 226.17 111.221 226.384C111.078 226.598 110.967 226.855 110.888 227.156C110.817 227.457 110.781 227.79 110.781 228.154C110.781 228.519 110.809 228.852 110.864 229.153C110.928 229.454 111.027 229.715 111.161 229.937C111.296 230.151 111.47 230.317 111.684 230.436C111.898 230.555 112.164 230.614 112.48 230.614C112.774 230.614 113.015 230.567 113.205 230.472C113.403 230.377 113.558 230.258 113.669 230.115C113.788 229.973 113.871 229.826 113.918 229.675C113.974 229.517 114.005 229.378 114.013 229.26H115.011C114.972 229.624 114.881 229.945 114.738 230.222C114.596 230.491 114.413 230.717 114.192 230.899C113.97 231.082 113.712 231.216 113.419 231.303C113.126 231.399 112.809 231.446 112.469 231.446C112.017 231.446 111.617 231.371 111.268 231.22C110.928 231.07 110.639 230.856 110.401 230.579C110.163 230.293 109.985 229.953 109.866 229.557C109.747 229.153 109.688 228.701 109.688 228.202C109.688 227.727 109.751 227.287 109.878 226.883C110.005 226.471 110.187 226.119 110.425 225.825C110.67 225.532 110.963 225.303 111.304 225.136C111.653 224.97 112.049 224.887 112.492 224.887C112.801 224.887 113.098 224.926 113.384 225.005C113.677 225.077 113.934 225.196 114.156 225.362C114.386 225.52 114.572 225.73 114.714 225.992C114.865 226.253 114.952 226.566 114.976 226.931H113.93ZM52.8831 243.932H50.863V243.041H55.9727V243.932H53.9526V249.303H52.8831V243.932ZM56.7747 243.041H57.8442L59.1513 246.963C59.1989 247.113 59.2424 247.248 59.282 247.367C59.3217 247.485 59.3533 247.588 59.3771 247.675C59.4088 247.771 59.4365 247.858 59.4603 247.937H59.4959C59.5197 247.858 59.5474 247.771 59.5791 247.675C59.6029 247.588 59.6306 247.485 59.6623 247.367C59.7019 247.248 59.7494 247.109 59.8049 246.951L61.0883 243.041H62.1577L59.8762 249.696C59.7494 250.052 59.6227 250.357 59.4959 250.611C59.3771 250.864 59.2306 251.066 59.0563 251.217C58.8899 251.375 58.6919 251.49 58.4621 251.561C58.2324 251.633 57.9472 251.668 57.6065 251.668C57.4877 251.668 57.3728 251.66 57.2619 251.644C57.151 251.629 57.052 251.613 56.9649 251.597V250.718C57.0678 250.741 57.1708 250.757 57.2738 250.765C57.3768 250.773 57.456 250.777 57.5115 250.777C57.7095 250.777 57.8759 250.757 58.0106 250.718C58.1532 250.678 58.272 250.611 58.3671 250.516C58.47 250.428 58.5572 250.314 58.6285 250.171C58.6998 250.028 58.7711 249.85 58.8424 249.636L58.9612 249.303L56.7747 243.041ZM64.6476 246.404C64.6476 246.713 64.6832 247.002 64.7545 247.271C64.8338 247.541 64.9486 247.775 65.0991 247.973C65.2497 248.171 65.4358 248.329 65.6576 248.448C65.8795 248.559 66.1409 248.614 66.4419 248.614C67.0044 248.614 67.4203 248.4 67.6896 247.973C67.9669 247.537 68.1055 246.907 68.1055 246.083C68.1055 245.75 68.0778 245.441 68.0224 245.156C67.9669 244.871 67.8758 244.626 67.7491 244.42C67.6223 244.206 67.448 244.039 67.2262 243.92C67.0123 243.802 66.7469 243.742 66.43 243.742C66.1528 243.742 65.9032 243.798 65.6814 243.909C65.4675 244.012 65.2813 244.158 65.1229 244.348C64.9724 244.53 64.8536 244.744 64.7664 244.99C64.6872 245.228 64.6476 245.477 64.6476 245.739V246.404ZM63.6138 243.041H64.6476V244.087H64.6714C64.8536 243.754 65.111 243.473 65.4438 243.243C65.7844 243.005 66.1924 242.887 66.6677 242.887C67.0004 242.887 67.3173 242.942 67.6183 243.053C67.9273 243.164 68.1966 243.346 68.4264 243.6C68.6561 243.845 68.8383 244.174 68.973 244.586C69.1156 244.99 69.1869 245.489 69.1869 246.083C69.1869 246.654 69.1156 247.153 68.973 247.58C68.8383 248 68.6522 248.349 68.4145 248.626C68.1848 248.903 67.9115 249.113 67.5946 249.256C67.2856 249.391 66.9529 249.458 66.5964 249.458C66.3667 249.458 66.1488 249.426 65.9428 249.363C65.7448 249.307 65.5626 249.232 65.3962 249.137C65.2299 249.034 65.0873 248.919 64.9684 248.792C64.8496 248.666 64.7625 248.531 64.707 248.388H64.6832V251.537H63.6138V243.041ZM74.9184 243.041H76.0354V249.303H74.9778V244.36H74.954C74.9065 244.471 74.855 244.586 74.7996 244.705C74.752 244.808 74.6926 244.927 74.6213 245.061C74.55 245.196 74.4708 245.335 74.3837 245.477L71.9952 249.303H70.8782V243.041H71.9358V247.984H71.9595C72.0071 247.874 72.0586 247.759 72.114 247.64C72.1615 247.537 72.221 247.422 72.2923 247.295C72.3636 247.161 72.4428 247.018 72.5299 246.867L74.9184 243.041ZM81.954 244.931C81.9381 244.772 81.8946 244.622 81.8233 244.479C81.7599 244.328 81.6688 244.198 81.5499 244.087C81.4311 243.968 81.2846 243.877 81.1103 243.814C80.9439 243.742 80.7498 243.707 80.528 243.707C80.2428 243.707 79.9933 243.766 79.7794 243.885C79.5655 244.004 79.3872 244.17 79.2446 244.384C79.102 244.598 78.9911 244.855 78.9119 245.156C78.8406 245.457 78.805 245.79 78.805 246.154C78.805 246.519 78.8327 246.852 78.8882 247.153C78.9515 247.454 79.0506 247.715 79.1852 247.937C79.3199 248.151 79.4942 248.317 79.7081 248.436C79.922 248.555 80.1874 248.614 80.5042 248.614C80.7974 248.614 81.039 248.567 81.2291 248.472C81.4272 248.377 81.5816 248.258 81.6925 248.115C81.8114 247.973 81.8946 247.826 81.9421 247.675C81.9975 247.517 82.0292 247.378 82.0371 247.26H83.0353C82.9957 247.624 82.9046 247.945 82.762 248.222C82.6194 248.491 82.4372 248.717 82.2154 248.899C81.9936 249.082 81.7361 249.216 81.443 249.303C81.1499 249.399 80.833 249.446 80.4924 249.446C80.0408 249.446 79.6407 249.371 79.2922 249.22C78.9515 249.07 78.6624 248.856 78.4247 248.579C78.1871 248.293 78.0088 247.953 77.89 247.557C77.7712 247.153 77.7117 246.701 77.7117 246.202C77.7117 245.727 77.7751 245.287 77.9019 244.883C78.0286 244.471 78.2108 244.119 78.4485 243.825C78.6941 243.532 78.9872 243.303 79.3278 243.136C79.6764 242.97 80.0725 242.887 80.5161 242.887C80.8251 242.887 81.1222 242.926 81.4073 243.005C81.7005 243.077 81.9579 243.196 82.1797 243.362C82.4095 243.52 82.5956 243.73 82.7382 243.992C82.8888 244.253 82.9759 244.566 82.9997 244.931H81.954ZM85.7819 243.932H83.7618V243.041H88.8715V243.932H86.8513V249.303H85.7819V243.932ZM94.2631 243.041H95.3801V249.303H94.3225V244.36H94.2987C94.2512 244.471 94.1997 244.586 94.1443 244.705C94.0967 244.808 94.0373 244.927 93.966 245.061C93.8947 245.196 93.8155 245.335 93.7283 245.477L91.3399 249.303H90.2229V243.041H91.2805V247.984H91.3042C91.3517 247.874 91.4032 247.759 91.4587 247.64C91.5062 247.537 91.5656 247.422 91.6369 247.295C91.7082 247.161 91.7875 247.018 91.8746 246.867L94.2631 243.041ZM97.4486 243.041H98.518V244.835C98.518 245.271 98.6131 245.612 98.8032 245.857C98.9934 246.095 99.3142 246.214 99.7657 246.214C99.9717 246.214 100.162 246.202 100.336 246.178C100.51 246.154 100.661 246.123 100.788 246.083C100.93 246.051 101.061 246.008 101.18 245.952V243.041H102.249V249.303H101.18V246.844C101.061 246.899 100.93 246.943 100.788 246.974C100.661 247.014 100.51 247.046 100.336 247.069C100.162 247.093 99.9717 247.105 99.7657 247.105C98.9656 247.105 98.3794 246.915 98.0071 246.535C97.6347 246.154 97.4486 245.588 97.4486 244.835V243.041ZM108.24 245.548C108.232 245.287 108.2 245.045 108.145 244.824C108.089 244.594 107.998 244.396 107.871 244.229C107.753 244.063 107.594 243.932 107.396 243.837C107.206 243.742 106.976 243.695 106.707 243.695C106.208 243.695 105.82 243.873 105.542 244.229C105.265 244.586 105.095 245.049 105.031 245.62H108.24V245.548ZM109.25 247.664C109.139 248.21 108.862 248.646 108.418 248.971C107.982 249.296 107.428 249.458 106.754 249.458C106.279 249.458 105.863 249.379 105.507 249.22C105.15 249.054 104.853 248.824 104.615 248.531C104.386 248.238 104.211 247.893 104.093 247.497C103.982 247.101 103.926 246.669 103.926 246.202C103.926 245.743 103.986 245.311 104.105 244.907C104.231 244.503 104.413 244.15 104.651 243.849C104.889 243.548 105.178 243.314 105.519 243.148C105.867 242.974 106.267 242.887 106.719 242.887C107.186 242.887 107.586 242.97 107.919 243.136C108.252 243.303 108.521 243.528 108.727 243.814C108.941 244.091 109.095 244.412 109.19 244.776C109.286 245.14 109.333 245.521 109.333 245.917V246.463H105.02C105.051 247.113 105.206 247.64 105.483 248.044C105.768 248.44 106.204 248.638 106.79 248.638C107.052 248.638 107.265 248.606 107.432 248.543C107.606 248.472 107.745 248.388 107.848 248.293C107.959 248.19 108.042 248.083 108.097 247.973C108.153 247.862 108.192 247.759 108.216 247.664H109.25ZM114.76 244.931C114.744 244.772 114.7 244.622 114.629 244.479C114.566 244.328 114.475 244.198 114.356 244.087C114.237 243.968 114.09 243.877 113.916 243.814C113.75 243.742 113.556 243.707 113.334 243.707C113.049 243.707 112.799 243.766 112.585 243.885C112.371 244.004 112.193 244.17 112.051 244.384C111.908 244.598 111.797 244.855 111.718 245.156C111.647 245.457 111.611 245.79 111.611 246.154C111.611 246.519 111.639 246.852 111.694 247.153C111.757 247.454 111.856 247.715 111.991 247.937C112.126 248.151 112.3 248.317 112.514 248.436C112.728 248.555 112.993 248.614 113.31 248.614C113.603 248.614 113.845 248.567 114.035 248.472C114.233 248.377 114.388 248.258 114.498 248.115C114.617 247.973 114.7 247.826 114.748 247.675C114.803 247.517 114.835 247.378 114.843 247.26H115.841C115.802 247.624 115.711 247.945 115.568 248.222C115.425 248.491 115.243 248.717 115.021 248.899C114.799 249.082 114.542 249.216 114.249 249.303C113.956 249.399 113.639 249.446 113.298 249.446C112.847 249.446 112.447 249.371 112.098 249.22C111.757 249.07 111.468 248.856 111.231 248.579C110.993 248.293 110.815 247.953 110.696 247.557C110.577 247.153 110.518 246.701 110.518 246.202C110.518 245.727 110.581 245.287 110.708 244.883C110.835 244.471 111.017 244.119 111.254 243.825C111.5 243.532 111.793 243.303 112.134 243.136C112.482 242.97 112.878 242.887 113.322 242.887C113.631 242.887 113.928 242.926 114.213 243.005C114.506 243.077 114.764 243.196 114.986 243.362C115.215 243.52 115.402 243.73 115.544 243.992C115.695 244.253 115.782 244.566 115.806 244.931H114.76ZM118.516 245.691H119.408L121.273 243.041H122.45L120.287 246.107L122.64 249.303H121.392L119.396 246.582H118.516V249.303H117.447V243.041H118.516V245.691ZM126.342 249.458C125.883 249.458 125.478 249.379 125.13 249.22C124.781 249.062 124.488 248.84 124.251 248.555C124.021 248.262 123.847 247.913 123.728 247.509C123.609 247.105 123.549 246.658 123.549 246.166C123.549 245.683 123.613 245.239 123.74 244.835C123.874 244.431 124.06 244.087 124.298 243.802C124.544 243.509 124.841 243.283 125.189 243.124C125.538 242.966 125.93 242.887 126.366 242.887C126.833 242.887 127.241 242.966 127.59 243.124C127.938 243.283 128.227 243.509 128.457 243.802C128.695 244.087 128.869 244.431 128.98 244.835C129.099 245.239 129.158 245.683 129.158 246.166C129.158 246.658 129.095 247.105 128.968 247.509C128.841 247.913 128.655 248.262 128.41 248.555C128.164 248.84 127.867 249.062 127.518 249.22C127.17 249.379 126.778 249.458 126.342 249.458ZM126.354 243.707C125.783 243.707 125.356 243.924 125.07 244.36C124.793 244.796 124.655 245.398 124.655 246.166C124.655 246.935 124.789 247.537 125.059 247.973C125.328 248.408 125.768 248.626 126.378 248.626C126.964 248.626 127.388 248.408 127.649 247.973C127.918 247.537 128.053 246.935 128.053 246.166C128.053 245.398 127.918 244.796 127.649 244.36C127.388 243.924 126.956 243.707 126.354 243.707ZM134.89 243.041H136.007V249.303H134.95V244.36H134.926C134.879 244.471 134.827 244.586 134.772 244.705C134.724 244.808 134.665 244.927 134.593 245.061C134.522 245.196 134.443 245.335 134.356 245.477L131.967 249.303H130.85V243.041H131.908V247.984H131.932C131.979 247.874 132.031 247.759 132.086 247.64C132.134 247.537 132.193 247.422 132.264 247.295C132.336 247.161 132.415 247.018 132.502 246.867L134.89 243.041ZM132.454 239.94C132.454 240.344 132.542 240.645 132.716 240.843C132.898 241.033 133.144 241.128 133.453 241.128C133.746 241.128 133.975 241.033 134.142 240.843C134.308 240.645 134.391 240.344 134.391 239.94H135.211C135.211 240.272 135.164 240.558 135.069 240.795C134.974 241.033 134.847 241.231 134.688 241.389C134.53 241.54 134.34 241.651 134.118 241.722C133.896 241.793 133.662 241.829 133.417 241.829C133.171 241.829 132.938 241.793 132.716 241.722C132.502 241.651 132.316 241.54 132.157 241.389C131.999 241.231 131.872 241.033 131.777 240.795C131.682 240.558 131.634 240.272 131.634 239.94H132.454ZM38.1187 261.041H43.0383V267.303H41.9688V261.932H39.1882V267.303H38.1187V261.041ZM46.3009 264.404C46.3009 264.713 46.3365 265.002 46.4078 265.271C46.4871 265.541 46.6019 265.775 46.7524 265.973C46.903 266.171 47.0891 266.329 47.3109 266.448C47.5328 266.559 47.7942 266.614 48.0952 266.614C48.6577 266.614 49.0736 266.4 49.3429 265.973C49.6202 265.537 49.7588 264.907 49.7588 264.083C49.7588 263.75 49.7311 263.441 49.6757 263.156C49.6202 262.871 49.5291 262.626 49.4024 262.42C49.2756 262.206 49.1013 262.039 48.8795 261.92C48.6656 261.802 48.4002 261.742 48.0833 261.742C47.8061 261.742 47.5565 261.798 47.3347 261.909C47.1208 262.012 46.9346 262.158 46.7762 262.348C46.6257 262.53 46.5069 262.744 46.4197 262.99C46.3405 263.228 46.3009 263.477 46.3009 263.739V264.404ZM45.2671 261.041H46.3009V262.087H46.3247C46.5069 261.754 46.7643 261.473 47.0971 261.243C47.4377 261.005 47.8457 260.887 48.321 260.887C48.6537 260.887 48.9706 260.942 49.2716 261.053C49.5806 261.164 49.8499 261.346 50.0797 261.6C50.3094 261.845 50.4916 262.174 50.6263 262.586C50.7689 262.99 50.8402 263.489 50.8402 264.083C50.8402 264.654 50.7689 265.153 50.6263 265.58C50.4916 266 50.3055 266.349 50.0678 266.626C49.8381 266.903 49.5648 267.113 49.2479 267.256C48.9389 267.391 48.6062 267.458 48.2497 267.458C48.02 267.458 47.8021 267.426 47.5961 267.363C47.3981 267.307 47.2159 267.232 47.0495 267.137C46.8832 267.034 46.7406 266.919 46.6217 266.792C46.5029 266.666 46.4158 266.531 46.3603 266.388H46.3365V269.537H45.2671V261.041ZM56.5717 261.041H57.6887V267.303H56.6311V262.36H56.6073C56.5598 262.471 56.5083 262.586 56.4529 262.705C56.4053 262.808 56.3459 262.927 56.2746 263.061C56.2033 263.196 56.1241 263.335 56.037 263.477L53.6485 267.303H52.5315V261.041H53.5891V265.984H53.6128C53.6604 265.874 53.7119 265.759 53.7673 265.64C53.8148 265.537 53.8743 265.422 53.9456 265.295C54.0169 265.161 54.0961 265.018 54.1832 264.867L56.5717 261.041ZM59.9235 261.041H62.5378C63.1716 261.041 63.6627 261.18 64.0113 261.457C64.3678 261.726 64.546 262.107 64.546 262.598C64.546 262.978 64.4549 263.287 64.2727 263.525C64.0984 263.762 63.8568 263.925 63.5479 264.012V264.036C63.936 264.099 64.2529 264.257 64.4985 264.511C64.752 264.764 64.8787 265.085 64.8787 265.473C64.8787 265.83 64.8114 266.127 64.6767 266.365C64.55 266.594 64.3757 266.781 64.1539 266.923C63.94 267.066 63.6865 267.165 63.3934 267.22C63.1003 267.276 62.7873 267.303 62.4546 267.303H59.9235V261.041ZM60.9692 261.897V263.608H62.4309C62.5655 263.608 62.6962 263.592 62.823 263.56C62.9577 263.529 63.0725 263.477 63.1676 263.406C63.2706 263.335 63.3498 263.243 63.4053 263.133C63.4686 263.014 63.5003 262.871 63.5003 262.705C63.5003 262.412 63.4092 262.206 63.227 262.087C63.0448 261.96 62.8111 261.897 62.5259 261.897H60.9692ZM60.9692 264.475V266.448H62.4903C62.8864 266.448 63.2032 266.377 63.4409 266.234C63.6865 266.083 63.8093 265.822 63.8093 265.45C63.8093 265.085 63.6865 264.832 63.4409 264.689C63.1953 264.547 62.8586 264.475 62.4309 264.475H60.9692ZM67.9745 264.654C67.9508 265.113 67.9033 265.513 67.832 265.854C67.7686 266.194 67.6696 266.48 67.5349 266.709C67.4081 266.931 67.2338 267.097 67.012 267.208C66.7981 267.319 66.5288 267.375 66.204 267.375C66.0376 267.375 65.9148 267.363 65.8356 267.339C65.7881 267.331 65.7485 267.319 65.7168 267.303V266.329C65.7485 266.345 65.7881 266.357 65.8356 266.365C65.9148 266.388 66.0337 266.4 66.1921 266.4C66.4456 266.4 66.6278 266.266 66.7387 265.996C66.8496 265.719 66.9249 265.275 66.9645 264.665C66.9803 264.325 67.0001 263.945 67.0239 263.525C67.0556 263.105 67.0794 262.709 67.0952 262.336C67.119 261.901 67.1388 261.469 67.1546 261.041H71.3969V267.303H70.3274V261.932H68.1171C68.1092 262.122 68.0973 262.332 68.0815 262.562C68.0736 262.784 68.0617 263.018 68.0458 263.263C68.0379 263.501 68.026 263.739 68.0102 263.976C67.9944 264.214 67.9825 264.44 67.9745 264.654ZM77.3835 263.548C77.3755 263.287 77.3439 263.045 77.2884 262.824C77.233 262.594 77.1418 262.396 77.0151 262.229C76.8963 262.063 76.7378 261.932 76.5398 261.837C76.3496 261.742 76.1199 261.695 75.8506 261.695C75.3515 261.695 74.9633 261.873 74.686 262.229C74.4088 262.586 74.2384 263.049 74.1751 263.62H77.3835V263.548ZM78.3935 265.664C78.2826 266.21 78.0053 266.646 77.5617 266.971C77.126 267.296 76.5715 267.458 75.8981 267.458C75.4228 267.458 75.0069 267.379 74.6504 267.22C74.2939 267.054 73.9968 266.824 73.7592 266.531C73.5294 266.238 73.3551 265.893 73.2363 265.497C73.1254 265.101 73.0699 264.669 73.0699 264.202C73.0699 263.743 73.1294 263.311 73.2482 262.907C73.3749 262.503 73.5571 262.15 73.7948 261.849C74.0325 261.548 74.3216 261.314 74.6623 261.148C75.0108 260.974 75.4109 260.887 75.8624 260.887C76.3298 260.887 76.7299 260.97 77.0626 261.136C77.3954 261.303 77.6647 261.528 77.8707 261.814C78.0846 262.091 78.239 262.412 78.3341 262.776C78.4292 263.14 78.4767 263.521 78.4767 263.917V264.463H74.1632C74.1949 265.113 74.3493 265.64 74.6266 266.044C74.9118 266.44 75.3475 266.638 75.9337 266.638C76.1952 266.638 76.4091 266.606 76.5754 266.543C76.7497 266.472 76.8883 266.388 76.9913 266.293C77.1022 266.19 77.1854 266.083 77.2409 265.973C77.2963 265.862 77.3359 265.759 77.3597 265.664H78.3935ZM81.2312 263.691H82.1225L83.9881 261.041H85.1645L83.0018 264.107L85.3546 267.303H84.1069L82.1106 264.582H81.2312V267.303H80.1618V261.041H81.2312V263.691ZM88.4388 266.543C88.6369 266.543 88.8389 266.507 89.0449 266.436C89.2588 266.365 89.4529 266.25 89.6271 266.091C89.8014 265.925 89.944 265.711 90.0549 265.45C90.1658 265.18 90.2213 264.852 90.2213 264.463V264.321C89.54 264.353 88.9973 264.4 88.5933 264.463C88.1972 264.527 87.8962 264.634 87.6902 264.784C87.4605 264.959 87.3456 265.216 87.3456 265.557C87.3456 265.881 87.4407 266.127 87.6308 266.293C87.8288 266.46 88.0982 266.543 88.4388 266.543ZM86.5851 262.752C86.6009 262.198 86.8109 261.75 87.2149 261.409C87.6189 261.061 88.1972 260.887 88.9498 260.887C89.7341 260.887 90.3163 261.065 90.6966 261.421C91.0769 261.778 91.267 262.376 91.267 263.216V265.771C91.267 266.024 91.3026 266.206 91.3739 266.317C91.4532 266.42 91.6076 266.476 91.8374 266.484V267.351H91.7067C91.2076 267.351 90.855 267.26 90.6491 267.078C90.451 266.895 90.3243 266.618 90.2688 266.246H90.2451C90.0787 266.618 89.8173 266.907 89.4608 267.113C89.1122 267.311 88.7042 267.41 88.2368 267.41C87.611 267.41 87.1238 267.252 86.7752 266.935C86.4266 266.618 86.2524 266.179 86.2524 265.616C86.2524 265.268 86.3276 264.959 86.4781 264.689C86.6287 264.412 86.8663 264.194 87.1911 264.036C87.5238 263.861 87.9358 263.739 88.427 263.667C88.9181 263.596 89.5162 263.548 90.2213 263.525V263.251C90.2213 262.681 90.1143 262.277 89.9004 262.039C89.6865 261.802 89.3578 261.683 88.9142 261.683C88.6844 261.683 88.4864 261.714 88.32 261.778C88.1616 261.833 88.0309 261.913 87.9279 262.016C87.8249 262.119 87.7457 262.233 87.6902 262.36C87.6427 262.487 87.6149 262.618 87.607 262.752H86.5851ZM94.4736 261.932H92.4535V261.041H97.5632V261.932H95.5431V267.303H94.4736V261.932ZM102.554 263.548C102.546 263.287 102.514 263.045 102.459 262.824C102.403 262.594 102.312 262.396 102.185 262.229C102.066 262.063 101.908 261.932 101.71 261.837C101.52 261.742 101.29 261.695 101.021 261.695C100.522 261.695 100.133 261.873 99.8562 262.229C99.5789 262.586 99.4086 263.049 99.3452 263.62H102.554V263.548ZM103.564 265.664C103.453 266.21 103.175 266.646 102.732 266.971C102.296 267.296 101.742 267.458 101.068 267.458C100.593 267.458 100.177 267.379 99.8205 267.22C99.464 267.054 99.167 266.824 98.9293 266.531C98.6996 266.238 98.5253 265.893 98.4064 265.497C98.2955 265.101 98.2401 264.669 98.2401 264.202C98.2401 263.743 98.2995 263.311 98.4183 262.907C98.5451 262.503 98.7273 262.15 98.9649 261.849C99.2026 261.548 99.4918 261.314 99.8324 261.148C100.181 260.974 100.581 260.887 101.033 260.887C101.5 260.887 101.9 260.97 102.233 261.136C102.565 261.303 102.835 261.528 103.041 261.814C103.255 262.091 103.409 262.412 103.504 262.776C103.599 263.14 103.647 263.521 103.647 263.917V264.463H99.3333C99.365 265.113 99.5195 265.64 99.7968 266.044C100.082 266.44 100.518 266.638 101.104 266.638C101.365 266.638 101.579 266.606 101.746 266.543C101.92 266.472 102.058 266.388 102.161 266.293C102.272 266.19 102.356 266.083 102.411 265.973C102.466 265.862 102.506 265.759 102.53 265.664H103.564ZM106.652 264.654C106.629 265.113 106.581 265.513 106.51 265.854C106.446 266.194 106.347 266.48 106.213 266.709C106.086 266.931 105.912 267.097 105.69 267.208C105.476 267.319 105.207 267.375 104.882 267.375C104.715 267.375 104.593 267.363 104.513 267.339C104.466 267.331 104.426 267.319 104.395 267.303V266.329C104.426 266.345 104.466 266.357 104.513 266.365C104.593 266.388 104.711 266.4 104.87 266.4C105.123 266.4 105.306 266.266 105.416 265.996C105.527 265.719 105.603 265.275 105.642 264.665C105.658 264.325 105.678 263.945 105.702 263.525C105.733 263.105 105.757 262.709 105.773 262.336C105.797 261.901 105.817 261.469 105.832 261.041H110.075V267.303H109.005V261.932H106.795C106.787 262.122 106.775 262.332 106.759 262.562C106.751 262.784 106.739 263.018 106.724 263.263C106.716 263.501 106.704 263.739 106.688 263.976C106.672 264.214 106.66 264.44 106.652 264.654ZM113.376 263.156H114.552C115.336 263.156 115.934 263.346 116.346 263.727C116.766 264.099 116.976 264.586 116.976 265.188C116.976 265.814 116.766 266.325 116.346 266.721C115.934 267.109 115.336 267.303 114.552 267.303H112.306V261.041H113.376V263.156ZM113.376 264.048V266.412H114.421C114.683 266.412 114.905 266.381 115.087 266.317C115.277 266.246 115.431 266.155 115.55 266.044C115.669 265.925 115.752 265.794 115.8 265.652C115.855 265.501 115.883 265.347 115.883 265.188C115.883 264.856 115.768 264.582 115.538 264.368C115.309 264.154 114.936 264.048 114.421 264.048H113.376ZM118.445 261.041H119.514V263.691H122.354V261.041H123.424V267.303H122.354V264.582H119.514V267.303H118.445V261.041ZM127.897 267.458C127.438 267.458 127.033 267.379 126.685 267.22C126.336 267.062 126.043 266.84 125.806 266.555C125.576 266.262 125.402 265.913 125.283 265.509C125.164 265.105 125.104 264.658 125.104 264.166C125.104 263.683 125.168 263.239 125.295 262.835C125.429 262.431 125.615 262.087 125.853 261.802C126.099 261.509 126.396 261.283 126.744 261.124C127.093 260.966 127.485 260.887 127.921 260.887C128.388 260.887 128.796 260.966 129.145 261.124C129.493 261.283 129.782 261.509 130.012 261.802C130.25 262.087 130.424 262.431 130.535 262.835C130.654 263.239 130.713 263.683 130.713 264.166C130.713 264.658 130.65 265.105 130.523 265.509C130.396 265.913 130.21 266.262 129.965 266.555C129.719 266.84 129.422 267.062 129.073 267.22C128.725 267.379 128.333 267.458 127.897 267.458ZM127.909 261.707C127.338 261.707 126.911 261.924 126.625 262.36C126.348 262.796 126.21 263.398 126.21 264.166C126.21 264.935 126.344 265.537 126.614 265.973C126.883 266.408 127.323 266.626 127.933 266.626C128.519 266.626 128.943 266.408 129.204 265.973C129.473 265.537 129.608 264.935 129.608 264.166C129.608 263.398 129.473 262.796 129.204 262.36C128.943 261.924 128.511 261.707 127.909 261.707ZM136.205 262.931C136.189 262.772 136.146 262.622 136.074 262.479C136.011 262.328 135.92 262.198 135.801 262.087C135.682 261.968 135.536 261.877 135.361 261.814C135.195 261.742 135.001 261.707 134.779 261.707C134.494 261.707 134.244 261.766 134.03 261.885C133.816 262.004 133.638 262.17 133.496 262.384C133.353 262.598 133.242 262.855 133.163 263.156C133.092 263.457 133.056 263.79 133.056 264.154C133.056 264.519 133.084 264.852 133.139 265.153C133.203 265.454 133.302 265.715 133.436 265.937C133.571 266.151 133.745 266.317 133.959 266.436C134.173 266.555 134.438 266.614 134.755 266.614C135.048 266.614 135.29 266.567 135.48 266.472C135.678 266.377 135.833 266.258 135.944 266.115C136.062 265.973 136.146 265.826 136.193 265.675C136.249 265.517 136.28 265.378 136.288 265.26H137.286C137.247 265.624 137.156 265.945 137.013 266.222C136.87 266.491 136.688 266.717 136.466 266.899C136.245 267.082 135.987 267.216 135.694 267.303C135.401 267.399 135.084 267.446 134.743 267.446C134.292 267.446 133.892 267.371 133.543 267.22C133.203 267.07 132.913 266.856 132.676 266.579C132.438 266.293 132.26 265.953 132.141 265.557C132.022 265.153 131.963 264.701 131.963 264.202C131.963 263.727 132.026 263.287 132.153 262.883C132.28 262.471 132.462 262.119 132.699 261.825C132.945 261.532 133.238 261.303 133.579 261.136C133.927 260.97 134.323 260.887 134.767 260.887C135.076 260.887 135.373 260.926 135.658 261.005C135.951 261.077 136.209 261.196 136.431 261.362C136.66 261.52 136.847 261.73 136.989 261.992C137.14 262.253 137.227 262.566 137.251 262.931H136.205ZM140.033 261.932H138.013V261.041H143.122V261.932H141.102V267.303H140.033V261.932ZM148.514 261.041H149.631V267.303H148.573V262.36H148.55C148.502 262.471 148.451 262.586 148.395 262.705C148.348 262.808 148.288 262.927 148.217 263.061C148.146 263.196 148.066 263.335 147.979 263.477L145.591 267.303H144.474V261.041H145.531V265.984H145.555C145.603 265.874 145.654 265.759 145.71 265.64C145.757 265.537 145.817 265.422 145.888 265.295C145.959 265.161 146.038 265.018 146.126 264.867L148.514 261.041ZM47.6012 278.768C47.6012 278.435 47.6646 278.126 47.7913 277.841C47.926 277.548 48.1122 277.294 48.3498 277.08C48.5954 276.859 48.8885 276.684 49.2292 276.558C49.5777 276.431 49.962 276.367 50.3818 276.367C50.8096 276.367 51.1938 276.431 51.5345 276.558C51.8751 276.684 52.1682 276.859 52.4138 277.08C52.6594 277.294 52.8456 277.548 52.9723 277.841C53.107 278.126 53.1743 278.435 53.1743 278.768C53.1743 279.037 53.1307 279.287 53.0436 279.516C52.9644 279.738 52.8574 279.936 52.7228 280.111C52.5881 280.277 52.4336 280.424 52.2593 280.55C52.093 280.669 51.9187 280.756 51.7365 280.812V280.835C51.9266 280.883 52.1207 280.958 52.3187 281.061C52.5168 281.164 52.699 281.303 52.8654 281.477C53.0317 281.644 53.1664 281.853 53.2694 282.107C53.3724 282.353 53.4239 282.642 53.4239 282.974C53.4239 283.331 53.3526 283.664 53.21 283.973C53.0674 284.274 52.8614 284.539 52.5921 284.769C52.3306 284.991 52.0098 285.169 51.6295 285.303C51.2572 285.43 50.8413 285.494 50.3818 285.494C49.9144 285.494 49.4946 285.43 49.1222 285.303C48.7499 285.177 48.433 285.002 48.1716 284.781C47.9102 284.551 47.7081 284.282 47.5655 283.973C47.4229 283.664 47.3517 283.331 47.3517 282.974C47.3517 282.642 47.4031 282.353 47.5061 282.107C47.617 281.853 47.7517 281.644 47.9102 281.477C48.0765 281.303 48.2587 281.164 48.4568 281.061C48.6548 280.958 48.8449 280.883 49.0272 280.835V280.812C48.8449 280.756 48.6667 280.669 48.4924 280.55C48.3261 280.424 48.1755 280.273 48.0409 280.099C47.9062 279.924 47.7992 279.726 47.72 279.505C47.6408 279.283 47.6012 279.037 47.6012 278.768ZM50.3818 277.223C50.1521 277.223 49.9342 277.255 49.7283 277.318C49.5302 277.381 49.3559 277.48 49.2054 277.615C49.0549 277.75 48.9321 277.92 48.837 278.126C48.7499 278.324 48.7063 278.558 48.7063 278.827C48.7063 279.097 48.7499 279.33 48.837 279.528C48.9321 279.726 49.0549 279.893 49.2054 280.027C49.3638 280.162 49.5421 280.265 49.7401 280.336C49.9461 280.4 50.16 280.431 50.3818 280.431C50.5957 280.431 50.8017 280.4 50.9997 280.336C51.2057 280.265 51.3839 280.162 51.5345 280.027C51.6929 279.893 51.8197 279.726 51.9147 279.528C52.0098 279.33 52.0573 279.097 52.0573 278.827C52.0573 278.558 52.0098 278.324 51.9147 278.126C51.8276 277.92 51.7048 277.75 51.5463 277.615C51.3958 277.48 51.2176 277.381 51.0116 277.318C50.8136 277.255 50.6036 277.223 50.3818 277.223ZM50.3818 284.638C50.6432 284.638 50.8928 284.606 51.1304 284.543C51.3681 284.48 51.5741 284.381 51.7484 284.246C51.9306 284.103 52.0732 283.929 52.1761 283.723C52.2791 283.509 52.3306 283.256 52.3306 282.963C52.3306 282.669 52.2752 282.42 52.1643 282.214C52.0613 282 51.9187 281.826 51.7365 281.691C51.5622 281.548 51.3562 281.445 51.1186 281.382C50.8888 281.311 50.6432 281.275 50.3818 281.275C50.1283 281.275 49.8867 281.311 49.657 281.382C49.4272 281.445 49.2212 281.548 49.039 281.691C48.8648 281.826 48.7222 282 48.6112 282.214C48.5083 282.42 48.4568 282.669 48.4568 282.963C48.4568 283.256 48.5083 283.509 48.6112 283.723C48.7222 283.929 48.8648 284.103 49.039 284.246C49.2212 284.381 49.4272 284.48 49.657 284.543C49.8867 284.606 50.1283 284.638 50.3818 284.638ZM54.794 279.196C54.794 278.752 54.8653 278.356 55.0079 278.007C55.1584 277.651 55.3605 277.354 55.614 277.116C55.8675 276.87 56.1685 276.684 56.5171 276.558C56.8656 276.431 57.238 276.367 57.6341 276.367C58.1173 276.367 58.5293 276.439 58.8699 276.581C59.2105 276.716 59.4918 276.898 59.7136 277.128C59.9354 277.35 60.0978 277.607 60.2008 277.9C60.3038 278.186 60.3553 278.475 60.3553 278.768C60.3553 279.069 60.3196 279.346 60.2483 279.6C60.1849 279.845 60.074 280.095 59.9156 280.348C59.7651 280.594 59.567 280.855 59.3215 281.133C59.0759 281.402 58.7709 281.711 58.4065 282.059L56.018 284.341V284.353H60.4147V285.303H54.5683V284.484L57.5865 281.489C57.8321 281.236 58.0539 281.002 58.252 280.788C58.458 280.566 58.6322 280.352 58.7748 280.146C58.9174 279.94 59.0283 279.734 59.1076 279.528C59.1868 279.314 59.2264 279.081 59.2264 278.827C59.2264 278.376 59.0838 278.003 58.7986 277.71C58.5213 277.409 58.1332 277.259 57.6341 277.259C57.4043 277.259 57.1825 277.294 56.9686 277.366C56.7626 277.437 56.5804 277.552 56.422 277.71C56.2636 277.861 56.1368 278.059 56.0417 278.304C55.9546 278.55 55.911 278.847 55.911 279.196H54.794ZM66.6262 282.404C66.6262 282.713 66.6618 283.002 66.7331 283.271C66.8123 283.541 66.9272 283.775 67.0777 283.973C67.2282 284.171 67.4144 284.329 67.6362 284.448C67.858 284.559 68.1194 284.614 68.4205 284.614C68.9829 284.614 69.3989 284.4 69.6682 283.973C69.9455 283.537 70.0841 282.907 70.0841 282.083C70.0841 281.75 70.0564 281.441 70.0009 281.156C69.9455 280.871 69.8544 280.626 69.7276 280.42C69.6009 280.206 69.4266 280.039 69.2048 279.92C68.9909 279.802 68.7255 279.742 68.4086 279.742C68.1313 279.742 67.8818 279.798 67.66 279.909C67.4461 280.012 67.2599 280.158 67.1015 280.348C66.951 280.53 66.8321 280.744 66.745 280.99C66.6658 281.228 66.6262 281.477 66.6262 281.739V282.404ZM65.5923 279.041H66.6262V280.087H66.6499C66.8321 279.754 67.0896 279.473 67.4223 279.243C67.763 279.005 68.1709 278.887 68.6463 278.887C68.979 278.887 69.2959 278.942 69.5969 279.053C69.9059 279.164 70.1752 279.346 70.4049 279.6C70.6347 279.845 70.8169 280.174 70.9516 280.586C71.0942 280.99 71.1655 281.489 71.1655 282.083C71.1655 282.654 71.0942 283.153 70.9516 283.58C70.8169 284 70.6307 284.349 70.3931 284.626C70.1633 284.903 69.89 285.113 69.5731 285.256C69.2642 285.391 68.9315 285.458 68.575 285.458C68.3452 285.458 68.1274 285.426 67.9214 285.363C67.7233 285.307 67.5411 285.232 67.3748 285.137C67.2084 285.034 67.0658 284.919 66.947 284.792C66.8282 284.666 66.741 284.531 66.6856 284.388H66.6618V287.537H65.5923V279.041ZM76.7278 281.548C76.7199 281.287 76.6882 281.045 76.6328 280.824C76.5773 280.594 76.4862 280.396 76.3594 280.229C76.2406 280.063 76.0822 279.932 75.8841 279.837C75.694 279.742 75.4643 279.695 75.1949 279.695C74.6958 279.695 74.3076 279.873 74.0304 280.229C73.7531 280.586 73.5828 281.049 73.5194 281.62H76.7278V281.548ZM77.7379 283.664C77.627 284.21 77.3497 284.646 76.9061 284.971C76.4703 285.296 75.9158 285.458 75.2424 285.458C74.7671 285.458 74.3512 285.379 73.9947 285.22C73.6382 285.054 73.3412 284.824 73.1035 284.531C72.8738 284.238 72.6995 283.893 72.5806 283.497C72.4697 283.101 72.4143 282.669 72.4143 282.202C72.4143 281.743 72.4737 281.311 72.5925 280.907C72.7193 280.503 72.9015 280.15 73.1391 279.849C73.3768 279.548 73.666 279.314 74.0066 279.148C74.3552 278.974 74.7552 278.887 75.2068 278.887C75.6742 278.887 76.0742 278.97 76.407 279.136C76.7397 279.303 77.009 279.528 77.215 279.814C77.4289 280.091 77.5834 280.412 77.6785 280.776C77.7735 281.14 77.8211 281.521 77.8211 281.917V282.463H73.5075C73.5392 283.113 73.6937 283.64 73.971 284.044C74.2562 284.44 74.6919 284.638 75.2781 284.638C75.5395 284.638 75.7534 284.606 75.9198 284.543C76.0941 284.472 76.2327 284.388 76.3357 284.293C76.4466 284.19 76.5298 284.083 76.5852 283.973C76.6407 283.862 76.6803 283.759 76.704 283.664H77.7379ZM79.5061 279.041H83.5939V279.932H80.5756V285.303H79.5061V279.041ZM89.1049 279.041H90.2219V285.303H89.1643V280.36H89.1405C89.093 280.471 89.0415 280.586 88.9861 280.705C88.9385 280.808 88.8791 280.927 88.8078 281.061C88.7365 281.196 88.6573 281.335 88.5701 281.477L86.1817 285.303H85.0647V279.041H86.1223V283.984H86.146C86.1935 283.874 86.245 283.759 86.3005 283.64C86.348 283.537 86.4074 283.422 86.4787 283.295C86.55 283.161 86.6293 283.018 86.7164 282.867L89.1049 279.041ZM94.6907 285.458C94.2313 285.458 93.8272 285.379 93.4787 285.22C93.1301 285.062 92.837 284.84 92.5993 284.555C92.3696 284.262 92.1953 283.913 92.0765 283.509C91.9576 283.105 91.8982 282.658 91.8982 282.166C91.8982 281.683 91.9616 281.239 92.0884 280.835C92.223 280.431 92.4092 280.087 92.6469 279.802C92.8924 279.509 93.1895 279.283 93.5381 279.124C93.8866 278.966 94.2788 278.887 94.7145 278.887C95.1819 278.887 95.5899 278.966 95.9384 279.124C96.287 279.283 96.5762 279.509 96.8059 279.802C97.0436 280.087 97.2178 280.431 97.3288 280.835C97.4476 281.239 97.507 281.683 97.507 282.166C97.507 282.658 97.4436 283.105 97.3169 283.509C97.1901 283.913 97.004 284.262 96.7584 284.555C96.5128 284.84 96.2157 285.062 95.8671 285.22C95.5186 285.379 95.1264 285.458 94.6907 285.458ZM94.7026 279.707C94.1322 279.707 93.7044 279.924 93.4192 280.36C93.142 280.796 93.0033 281.398 93.0033 282.166C93.0033 282.935 93.138 283.537 93.4074 283.973C93.6767 284.408 94.1164 284.626 94.7264 284.626C95.3126 284.626 95.7364 284.408 95.9979 283.973C96.2672 283.537 96.4019 282.935 96.4019 282.166C96.4019 281.398 96.2672 280.796 95.9979 280.36C95.7364 279.924 95.3047 279.707 94.7026 279.707ZM99.1989 279.041H100.268V281.691H103.108V279.041H104.178V285.303H103.108V282.582H100.268V285.303H99.1989V279.041ZM108.651 285.458C108.191 285.458 107.787 285.379 107.439 285.22C107.09 285.062 106.797 284.84 106.56 284.555C106.33 284.262 106.156 283.913 106.037 283.509C105.918 283.105 105.858 282.658 105.858 282.166C105.858 281.683 105.922 281.239 106.049 280.835C106.183 280.431 106.369 280.087 106.607 279.802C106.853 279.509 107.15 279.283 107.498 279.124C107.847 278.966 108.239 278.887 108.675 278.887C109.142 278.887 109.55 278.966 109.899 279.124C110.247 279.283 110.536 279.509 110.766 279.802C111.004 280.087 111.178 280.431 111.289 280.835C111.408 281.239 111.467 281.683 111.467 282.166C111.467 282.658 111.404 283.105 111.277 283.509C111.15 283.913 110.964 284.262 110.719 284.555C110.473 284.84 110.176 285.062 109.827 285.22C109.479 285.379 109.087 285.458 108.651 285.458ZM108.663 279.707C108.092 279.707 107.665 279.924 107.379 280.36C107.102 280.796 106.964 281.398 106.964 282.166C106.964 282.935 107.098 283.537 107.368 283.973C107.637 284.408 108.077 284.626 108.687 284.626C109.273 284.626 109.697 284.408 109.958 283.973C110.227 283.537 110.362 282.935 110.362 282.166C110.362 281.398 110.227 280.796 109.958 280.36C109.697 279.924 109.265 279.707 108.663 279.707ZM113.159 279.041H115.773C116.407 279.041 116.898 279.18 117.247 279.457C117.603 279.726 117.782 280.107 117.782 280.598C117.782 280.978 117.691 281.287 117.508 281.525C117.334 281.762 117.092 281.925 116.783 282.012V282.036C117.172 282.099 117.489 282.257 117.734 282.511C117.988 282.764 118.114 283.085 118.114 283.473C118.114 283.83 118.047 284.127 117.912 284.365C117.786 284.594 117.611 284.781 117.389 284.923C117.176 285.066 116.922 285.165 116.629 285.22C116.336 285.276 116.023 285.303 115.69 285.303H113.159V279.041ZM114.205 279.897V281.608H115.666C115.801 281.608 115.932 281.592 116.059 281.56C116.193 281.529 116.308 281.477 116.403 281.406C116.506 281.335 116.585 281.243 116.641 281.133C116.704 281.014 116.736 280.871 116.736 280.705C116.736 280.412 116.645 280.206 116.463 280.087C116.28 279.96 116.047 279.897 115.762 279.897H114.205ZM114.205 282.475V284.448H115.726C116.122 284.448 116.439 284.377 116.676 284.234C116.922 284.083 117.045 283.822 117.045 283.45C117.045 283.085 116.922 282.832 116.676 282.689C116.431 282.547 116.094 282.475 115.666 282.475H114.205ZM124.351 281.834V285.303H123.246V276.213H125.979C126.415 276.213 126.823 276.268 127.203 276.379C127.591 276.482 127.924 276.649 128.201 276.878C128.479 277.1 128.697 277.389 128.855 277.746C129.021 278.094 129.105 278.514 129.105 279.005C129.105 279.489 129.021 279.909 128.855 280.265C128.697 280.614 128.475 280.907 128.19 281.144C127.904 281.374 127.564 281.548 127.168 281.667C126.779 281.778 126.352 281.834 125.884 281.834H124.351ZM125.884 280.942C126.55 280.942 127.061 280.784 127.417 280.467C127.782 280.142 127.964 279.655 127.964 279.005C127.964 278.324 127.782 277.837 127.417 277.544C127.061 277.251 126.562 277.104 125.92 277.104H124.351V280.942H125.884ZM134.065 284.032C133.518 284.032 133.011 283.965 132.544 283.83C132.077 283.695 131.669 283.489 131.32 283.212C130.979 282.927 130.71 282.574 130.512 282.154C130.314 281.735 130.215 281.239 130.215 280.669C130.215 280.091 130.314 279.592 130.512 279.172C130.71 278.752 130.979 278.407 131.32 278.138C131.669 277.869 132.077 277.671 132.544 277.544C133.011 277.409 133.514 277.342 134.053 277.342H134.849V275.975H135.954V277.342H136.751C137.289 277.342 137.792 277.409 138.26 277.544C138.727 277.671 139.131 277.869 139.472 278.138C139.82 278.407 140.094 278.752 140.292 279.172C140.49 279.592 140.589 280.091 140.589 280.669C140.589 281.239 140.49 281.735 140.292 282.154C140.094 282.574 139.82 282.927 139.472 283.212C139.131 283.489 138.727 283.695 138.26 283.83C137.792 283.965 137.285 284.032 136.739 284.032H135.954V285.541H134.849V284.032H134.065ZM136.691 283.141C137.602 283.141 138.287 282.939 138.747 282.535C139.214 282.131 139.448 281.509 139.448 280.669C139.448 280.218 139.385 279.837 139.258 279.528C139.139 279.219 138.961 278.97 138.723 278.78C138.493 278.59 138.208 278.451 137.868 278.364C137.527 278.277 137.135 278.233 136.691 278.233H135.954V283.141H136.691ZM134.849 278.233H134.112C133.669 278.233 133.277 278.277 132.936 278.364C132.595 278.451 132.306 278.59 132.069 278.78C131.839 278.97 131.661 279.219 131.534 279.528C131.415 279.837 131.356 280.218 131.356 280.669C131.356 281.509 131.585 282.131 132.045 282.535C132.512 282.939 133.201 283.141 134.112 283.141H134.849V278.233Z" fill="white"/>
<path d="M94.2961 357.002C94.0641 356.77 93.6879 356.77 93.4558 357.002L89.6747 360.783C89.4427 361.015 89.4427 361.392 89.6747 361.624C89.9067 361.856 90.2829 361.856 90.515 361.624L93.876 358.263L97.237 361.624C97.469 361.856 97.8452 361.856 98.0773 361.624C98.3093 361.392 98.3093 361.015 98.0773 360.783L94.2961 357.002ZM94.4701 382.422V380.86H93.2818V382.422H94.4701ZM94.4701 377.735V374.61H93.2818V377.735H94.4701ZM94.4701 371.485V368.36H93.2818V371.485H94.4701ZM94.4701 365.235V362.11H93.2818V365.235H94.4701ZM94.4701 358.985V357.422H93.2818V358.985H94.4701Z" fill="white"/>
<circle cx="93.8755" cy="449.758" r="57.3355" fill="white"/>
<path d="M74.3619 440.526C74.3619 439.71 74.4728 439.009 74.6946 438.423C74.9165 437.829 75.2135 437.342 75.5859 436.962C75.9582 436.573 76.39 436.288 76.8811 436.106C77.3723 435.916 77.8872 435.821 78.4259 435.821C78.9804 435.821 79.5033 435.916 79.9945 436.106C80.4936 436.288 80.9293 436.573 81.3016 436.962C81.6739 437.342 81.971 437.829 82.1928 438.423C82.4146 439.009 82.5255 439.71 82.5255 440.526C82.5255 441.334 82.4146 442.036 82.1928 442.63C81.9789 443.224 81.6819 443.715 81.3016 444.103C80.9293 444.483 80.4936 444.769 79.9945 444.959C79.5033 445.141 78.9804 445.232 78.4259 445.232C77.8634 445.232 77.3366 445.141 76.8455 444.959C76.3543 444.769 75.9226 444.483 75.5502 444.103C75.1858 443.715 74.8967 443.224 74.6828 442.63C74.4689 442.036 74.3619 441.334 74.3619 440.526ZM78.4259 444.341C78.8537 444.341 79.2458 444.258 79.6023 444.091C79.9667 443.925 80.2757 443.683 80.5292 443.366C80.7906 443.042 80.9926 442.642 81.1352 442.166C81.2858 441.691 81.361 441.148 81.361 440.538C81.361 439.912 81.2897 439.362 81.1471 438.887C81.0045 438.411 80.8025 438.011 80.5411 437.686C80.2876 437.362 79.9786 437.116 79.6142 436.95C79.2577 436.783 78.8616 436.7 78.4259 436.7C77.9981 436.7 77.606 436.779 77.2495 436.938C76.9009 437.096 76.5959 437.338 76.3345 437.663C76.081 437.98 75.8829 438.38 75.7404 438.863C75.5978 439.338 75.5265 439.897 75.5265 440.538C75.5265 441.156 75.5938 441.703 75.7285 442.178C75.8711 442.654 76.0691 443.054 76.3226 443.378C76.5761 443.695 76.8811 443.937 77.2376 444.103C77.5941 444.262 77.9902 444.341 78.4259 444.341ZM87.1481 438.625C87.5521 438.625 87.9126 438.704 88.2295 438.863C88.5543 439.021 88.8236 439.247 89.0375 439.54C89.2593 439.825 89.4257 440.17 89.5366 440.574C89.6554 440.97 89.7149 441.406 89.7149 441.881C89.7149 442.372 89.6515 442.824 89.5247 443.236C89.398 443.64 89.2118 443.988 88.9662 444.281C88.7206 444.575 88.4236 444.8 88.075 444.959C87.7264 445.117 87.3343 445.196 86.8986 445.196C85.9638 445.196 85.2627 444.891 84.7953 444.281C84.3358 443.664 84.1061 442.784 84.1061 441.643C84.1061 440.843 84.1536 440.13 84.2487 439.505C84.3517 438.879 84.522 438.344 84.7596 437.9C84.9973 437.449 85.3102 437.092 85.6984 436.831C86.0866 436.561 86.5698 436.383 87.1481 436.296L88.0393 436.165C88.2612 436.142 88.4038 436.086 88.4671 435.999C88.5384 435.912 88.582 435.805 88.5978 435.678H89.4653C89.4653 435.86 89.4455 436.031 89.4059 436.189C89.3663 436.34 89.291 436.478 89.1801 436.605C89.0771 436.724 88.9345 436.827 88.7523 436.914C88.5701 437.001 88.3325 437.069 88.0393 437.116L87.1244 437.247C86.7758 437.294 86.4827 437.389 86.245 437.532C86.0153 437.675 85.8251 437.861 85.6746 438.09C85.5241 438.312 85.4092 438.578 85.33 438.887C85.2508 439.188 85.1914 439.528 85.1518 439.909H85.1755C85.2706 439.734 85.3736 439.568 85.4845 439.409C85.6033 439.251 85.742 439.116 85.9004 439.005C86.0588 438.887 86.2371 438.795 86.4351 438.732C86.6411 438.661 86.8788 438.625 87.1481 438.625ZM86.9105 439.445C86.3401 439.445 85.9123 439.663 85.6271 440.099C85.3498 440.526 85.2112 441.121 85.2112 441.881C85.2112 442.657 85.3459 443.267 85.6152 443.711C85.8846 444.147 86.3242 444.365 86.9342 444.365C87.5205 444.365 87.9443 444.147 88.2057 443.711C88.4751 443.267 88.6097 442.657 88.6097 441.881C88.6097 441.121 88.4751 440.526 88.2057 440.099C87.9443 439.663 87.5125 439.445 86.9105 439.445ZM93.2031 440.895H94.3795C95.1638 440.895 95.7619 441.085 96.1738 441.465C96.5937 441.838 96.8036 442.325 96.8036 442.927C96.8036 443.553 96.5937 444.064 96.1738 444.46C95.7619 444.848 95.1638 445.042 94.3795 445.042H92.1336V439.671H90.3511V438.78H93.2031V440.895ZM93.2031 441.786V444.151H94.2488C94.5102 444.151 94.732 444.119 94.9142 444.056C95.1043 443.984 95.2588 443.893 95.3777 443.782C95.4965 443.664 95.5797 443.533 95.6272 443.39C95.6827 443.24 95.7104 443.085 95.7104 442.927C95.7104 442.594 95.5955 442.321 95.3658 442.107C95.136 441.893 94.7637 441.786 94.2488 441.786H93.2031ZM102.145 441.287C102.138 441.026 102.106 440.784 102.05 440.562C101.995 440.332 101.904 440.134 101.777 439.968C101.658 439.802 101.5 439.671 101.302 439.576C101.112 439.481 100.882 439.433 100.613 439.433C100.113 439.433 99.7253 439.611 99.448 439.968C99.1708 440.324 99.0005 440.788 98.9371 441.358H102.145V441.287ZM103.156 443.402C103.045 443.949 102.767 444.384 102.324 444.709C101.888 445.034 101.333 445.196 100.66 445.196C100.185 445.196 99.7689 445.117 99.4124 444.959C99.0559 444.792 98.7588 444.563 98.5212 444.27C98.2914 443.976 98.1172 443.632 97.9983 443.236C97.8874 442.84 97.832 442.408 97.832 441.941C97.832 441.481 97.8914 441.049 98.0102 440.645C98.137 440.241 98.3192 439.889 98.5568 439.588C98.7945 439.287 99.0836 439.053 99.4243 438.887C99.7729 438.712 100.173 438.625 100.624 438.625C101.092 438.625 101.492 438.708 101.825 438.875C102.157 439.041 102.427 439.267 102.633 439.552C102.847 439.829 103.001 440.15 103.096 440.515C103.191 440.879 103.239 441.259 103.239 441.655V442.202H98.9252C98.9569 442.852 99.1114 443.378 99.3886 443.782C99.6738 444.178 100.11 444.377 100.696 444.377C100.957 444.377 101.171 444.345 101.337 444.281C101.512 444.21 101.65 444.127 101.753 444.032C101.864 443.929 101.947 443.822 102.003 443.711C102.058 443.6 102.098 443.497 102.122 443.402H103.156ZM104.866 438.78H106.411L107.896 442.57C107.951 442.721 108.007 442.875 108.062 443.034C108.126 443.184 108.177 443.327 108.217 443.462C108.264 443.612 108.312 443.767 108.359 443.925H108.383C108.431 443.774 108.482 443.624 108.538 443.473C108.585 443.339 108.637 443.192 108.692 443.034C108.748 442.875 108.807 442.721 108.87 442.57L110.356 438.78H111.889V445.042H110.831V439.73H110.807C110.768 439.865 110.724 440.004 110.677 440.146C110.637 440.273 110.585 440.42 110.522 440.586C110.467 440.752 110.403 440.927 110.332 441.109L108.787 445.042H107.884L106.339 441.097C106.268 440.915 106.201 440.744 106.137 440.586C106.082 440.42 106.034 440.273 105.995 440.146C105.947 440.004 105.904 439.869 105.864 439.742H105.84V445.042H104.866V438.78ZM66.3656 457.671H64.3455V456.78H69.4552V457.671H67.4351V463.042H66.3656V457.671ZM70.2572 456.78H71.3267L72.6338 460.701C72.6813 460.852 72.7249 460.986 72.7645 461.105C72.8041 461.224 72.8358 461.327 72.8596 461.414C72.8912 461.509 72.919 461.596 72.9427 461.675H72.9784C73.0022 461.596 73.0299 461.509 73.0616 461.414C73.0853 461.327 73.1131 461.224 73.1448 461.105C73.1844 460.986 73.2319 460.848 73.2873 460.689L74.5707 456.78H75.6402L73.3586 463.434C73.2319 463.791 73.1051 464.096 72.9784 464.349C72.8596 464.603 72.713 464.805 72.5387 464.955C72.3724 465.114 72.1743 465.228 71.9446 465.3C71.7148 465.371 71.4296 465.407 71.089 465.407C70.9702 465.407 70.8553 465.399 70.7444 465.383C70.6335 465.367 70.5345 465.351 70.4473 465.335V464.456C70.5503 464.48 70.6533 464.496 70.7563 464.504C70.8593 464.512 70.9385 464.515 70.9939 464.515C71.192 464.515 71.3583 464.496 71.493 464.456C71.6356 464.416 71.7544 464.349 71.8495 464.254C71.9525 464.167 72.0396 464.052 72.1109 463.909C72.1822 463.767 72.2535 463.589 72.3248 463.375L72.4437 463.042L70.2572 456.78ZM78.13 460.143C78.13 460.451 78.1657 460.741 78.237 461.01C78.3162 461.279 78.4311 461.513 78.5816 461.711C78.7321 461.909 78.9183 462.068 79.1401 462.186C79.3619 462.297 79.6233 462.353 79.9244 462.353C80.4868 462.353 80.9027 462.139 81.1721 461.711C81.4494 461.275 81.588 460.646 81.588 459.822C81.588 459.489 81.5603 459.18 81.5048 458.895C81.4494 458.61 81.3583 458.364 81.2315 458.158C81.1048 457.944 80.9305 457.778 80.7087 457.659C80.4948 457.54 80.2294 457.481 79.9125 457.481C79.6352 457.481 79.3857 457.536 79.1639 457.647C78.95 457.75 78.7638 457.897 78.6054 458.087C78.4548 458.269 78.336 458.483 78.2489 458.728C78.1697 458.966 78.13 459.216 78.13 459.477V460.143ZM77.0962 456.78H78.13V457.825H78.1538C78.336 457.493 78.5935 457.211 78.9262 456.982C79.2668 456.744 79.6748 456.625 80.1502 456.625C80.4829 456.625 80.7998 456.681 81.1008 456.792C81.4097 456.902 81.6791 457.085 81.9088 457.338C82.1386 457.584 82.3208 457.912 82.4555 458.324C82.598 458.728 82.6693 459.228 82.6693 459.822C82.6693 460.392 82.598 460.891 82.4555 461.319C82.3208 461.739 82.1346 462.087 81.897 462.365C81.6672 462.642 81.3939 462.852 81.077 462.994C80.7681 463.129 80.4353 463.196 80.0789 463.196C79.8491 463.196 79.6313 463.165 79.4253 463.101C79.2272 463.046 79.045 462.971 78.8787 462.876C78.7123 462.773 78.5697 462.658 78.4509 462.531C78.3321 462.404 78.2449 462.27 78.1895 462.127H78.1657V465.276H77.0962V456.78ZM84.3606 456.78H89.2802V463.042H88.2107V457.671H85.4301V463.042H84.3606V456.78ZM93.743 463.196C93.2835 463.196 92.8795 463.117 92.5309 462.959C92.1824 462.8 91.8893 462.579 91.6516 462.293C91.4219 462 91.2476 461.652 91.1287 461.248C91.0099 460.844 90.9505 460.396 90.9505 459.905C90.9505 459.422 91.0139 458.978 91.1406 458.574C91.2753 458.17 91.4615 457.825 91.6991 457.54C91.9447 457.247 92.2418 457.021 92.5903 456.863C92.9389 456.704 93.3311 456.625 93.7668 456.625C94.2342 456.625 94.6421 456.704 94.9907 456.863C95.3393 457.021 95.6284 457.247 95.8582 457.54C96.0958 457.825 96.2701 458.17 96.381 458.574C96.4999 458.978 96.5593 459.422 96.5593 459.905C96.5593 460.396 96.4959 460.844 96.3691 461.248C96.2424 461.652 96.0562 462 95.8106 462.293C95.5651 462.579 95.268 462.8 94.9194 462.959C94.5708 463.117 94.1787 463.196 93.743 463.196ZM93.7549 457.445C93.1845 457.445 92.7567 457.663 92.4715 458.099C92.1942 458.534 92.0556 459.136 92.0556 459.905C92.0556 460.673 92.1903 461.275 92.4596 461.711C92.729 462.147 93.1687 462.365 93.7786 462.365C94.3649 462.365 94.7887 462.147 95.0501 461.711C95.3195 461.275 95.4542 460.673 95.4542 459.905C95.4542 459.136 95.3195 458.534 95.0501 458.099C94.7887 457.663 94.357 457.445 93.7549 457.445ZM99.2759 457.671H97.2558V456.78H102.366V457.671H100.345V463.042H99.2759V457.671ZM105.835 463.196C105.375 463.196 104.971 463.117 104.623 462.959C104.274 462.8 103.981 462.579 103.743 462.293C103.514 462 103.339 461.652 103.221 461.248C103.102 460.844 103.042 460.396 103.042 459.905C103.042 459.422 103.106 458.978 103.233 458.574C103.367 458.17 103.553 457.825 103.791 457.54C104.037 457.247 104.334 457.021 104.682 456.863C105.031 456.704 105.423 456.625 105.859 456.625C106.326 456.625 106.734 456.704 107.083 456.863C107.431 457.021 107.72 457.247 107.95 457.54C108.188 457.825 108.362 458.17 108.473 458.574C108.592 458.978 108.651 459.422 108.651 459.905C108.651 460.396 108.588 460.844 108.461 461.248C108.334 461.652 108.148 462 107.903 462.293C107.657 462.579 107.36 462.8 107.011 462.959C106.663 463.117 106.271 463.196 105.835 463.196ZM105.847 457.445C105.276 457.445 104.849 457.663 104.563 458.099C104.286 458.534 104.147 459.136 104.147 459.905C104.147 460.673 104.282 461.275 104.552 461.711C104.821 462.147 105.261 462.365 105.871 462.365C106.457 462.365 106.881 462.147 107.142 461.711C107.411 461.275 107.546 460.673 107.546 459.905C107.546 459.136 107.411 458.534 107.142 458.099C106.881 457.663 106.449 457.445 105.847 457.445ZM111.413 459.43H112.304L114.169 456.78H115.346L113.183 459.845L115.536 463.042H114.288L112.292 460.321H111.413V463.042H110.343V456.78H111.413V459.43ZM118.62 462.281C118.818 462.281 119.02 462.246 119.226 462.175C119.44 462.103 119.634 461.988 119.808 461.83C119.983 461.664 120.125 461.45 120.236 461.188C120.347 460.919 120.403 460.59 120.403 460.202V460.059C119.721 460.091 119.179 460.139 118.775 460.202C118.379 460.265 118.077 460.372 117.872 460.523C117.642 460.697 117.527 460.955 117.527 461.295C117.527 461.62 117.622 461.866 117.812 462.032C118.01 462.198 118.28 462.281 118.62 462.281ZM116.766 458.491C116.782 457.936 116.992 457.489 117.396 457.148C117.8 456.799 118.379 456.625 119.131 456.625C119.915 456.625 120.498 456.803 120.878 457.16C121.258 457.516 121.448 458.115 121.448 458.954V461.509C121.448 461.763 121.484 461.945 121.555 462.056C121.634 462.159 121.789 462.214 122.019 462.222V463.09H121.888C121.389 463.09 121.036 462.998 120.83 462.816C120.632 462.634 120.506 462.357 120.45 461.984H120.426C120.26 462.357 119.999 462.646 119.642 462.852C119.294 463.05 118.886 463.149 118.418 463.149C117.792 463.149 117.305 462.99 116.957 462.674C116.608 462.357 116.434 461.917 116.434 461.355C116.434 461.006 116.509 460.697 116.659 460.428C116.81 460.15 117.048 459.933 117.372 459.774C117.705 459.6 118.117 459.477 118.608 459.406C119.099 459.334 119.698 459.287 120.403 459.263V458.99C120.403 458.42 120.296 458.015 120.082 457.778C119.868 457.54 119.539 457.421 119.095 457.421C118.866 457.421 118.668 457.453 118.501 457.516C118.343 457.572 118.212 457.651 118.109 457.754C118.006 457.857 117.927 457.972 117.872 458.099C117.824 458.225 117.796 458.356 117.788 458.491H116.766Z" fill="#001520"/>
</svg>
