<svg width="1094" height="316" viewBox="0 0 1094 316" fill="none" xmlns="http://www.w3.org/2000/svg">
<circle cx="547" cy="158" r="158" fill="#001520"/>
<circle cx="96.5" cy="158.5" r="96.5" fill="white"/>
<circle cx="997.5" cy="158.5" r="96.5" fill="white"/>
<path d="M75.2873 137.32H69.9873V151H68.1273V137.32H62.8273V135.7H75.2873V137.32ZM82.0945 144.68C82.0812 144.24 82.0279 143.833 81.9345 143.46C81.8412 143.073 81.6879 142.74 81.4745 142.46C81.2745 142.18 81.0079 141.96 80.6745 141.8C80.3545 141.64 79.9679 141.56 79.5145 141.56C78.6745 141.56 78.0212 141.86 77.5545 142.46C77.0879 143.06 76.8012 143.84 76.6945 144.8H82.0945V144.68ZM83.7945 148.24C83.6079 149.16 83.1412 149.893 82.3945 150.44C81.6612 150.987 80.7279 151.26 79.5945 151.26C78.7945 151.26 78.0945 151.127 77.4945 150.86C76.8945 150.58 76.3945 150.193 75.9945 149.7C75.6079 149.207 75.3145 148.627 75.1145 147.96C74.9279 147.293 74.8345 146.567 74.8345 145.78C74.8345 145.007 74.9345 144.28 75.1345 143.6C75.3479 142.92 75.6545 142.327 76.0545 141.82C76.4545 141.313 76.9412 140.92 77.5145 140.64C78.1012 140.347 78.7745 140.2 79.5345 140.2C80.3212 140.2 80.9945 140.34 81.5545 140.62C82.1145 140.9 82.5679 141.28 82.9145 141.76C83.2745 142.227 83.5345 142.767 83.6945 143.38C83.8545 143.993 83.9345 144.633 83.9345 145.3V146.22H76.6745C76.7279 147.313 76.9879 148.2 77.4545 148.88C77.9345 149.547 78.6679 149.88 79.6545 149.88C80.0945 149.88 80.4545 149.827 80.7345 149.72C81.0279 149.6 81.2612 149.46 81.4345 149.3C81.6212 149.127 81.7612 148.947 81.8545 148.76C81.9479 148.573 82.0145 148.4 82.0545 148.24H83.7945ZM88.5706 144.92H90.0706L93.2106 140.46H95.1906L91.5506 145.62L95.5106 151H93.4106L90.0506 146.42H88.5706V151H86.7706V140.46H88.5706V144.92ZM104.182 143.64C104.155 143.373 104.082 143.12 103.962 142.88C103.855 142.627 103.702 142.407 103.502 142.22C103.302 142.02 103.055 141.867 102.762 141.76C102.482 141.64 102.155 141.58 101.782 141.58C101.302 141.58 100.882 141.68 100.522 141.88C100.162 142.08 99.8616 142.36 99.6216 142.72C99.3816 143.08 99.1949 143.513 99.0616 144.02C98.9416 144.527 98.8816 145.087 98.8816 145.7C98.8816 146.313 98.9282 146.873 99.0216 147.38C99.1282 147.887 99.2949 148.327 99.5216 148.7C99.7482 149.06 100.042 149.34 100.402 149.54C100.762 149.74 101.208 149.84 101.742 149.84C102.235 149.84 102.642 149.76 102.962 149.6C103.295 149.44 103.555 149.24 103.742 149C103.942 148.76 104.082 148.513 104.162 148.26C104.255 147.993 104.308 147.76 104.322 147.56H106.002C105.935 148.173 105.782 148.713 105.542 149.18C105.302 149.633 104.995 150.013 104.622 150.32C104.248 150.627 103.815 150.853 103.322 151C102.828 151.16 102.295 151.24 101.722 151.24C100.962 151.24 100.288 151.113 99.7016 150.86C99.1282 150.607 98.6416 150.247 98.2416 149.78C97.8416 149.3 97.5416 148.727 97.3416 148.06C97.1416 147.38 97.0416 146.62 97.0416 145.78C97.0416 144.98 97.1482 144.24 97.3616 143.56C97.5749 142.867 97.8816 142.273 98.2816 141.78C98.6949 141.287 99.1882 140.9 99.7616 140.62C100.348 140.34 101.015 140.2 101.762 140.2C102.282 140.2 102.782 140.267 103.262 140.4C103.755 140.52 104.188 140.72 104.562 141C104.948 141.267 105.262 141.62 105.502 142.06C105.755 142.5 105.902 143.027 105.942 143.64H104.182ZM110.624 141.96H107.224V140.46H115.824V141.96H112.424V151H110.624V141.96ZM119.899 144.02H121.879C123.199 144.02 124.205 144.34 124.899 144.98C125.605 145.607 125.959 146.427 125.959 147.44C125.959 148.493 125.605 149.353 124.899 150.02C124.205 150.673 123.199 151 121.879 151H118.099V140.46H119.899V144.02ZM119.899 145.52V149.5H121.659C122.099 149.5 122.472 149.447 122.779 149.34C123.099 149.22 123.359 149.067 123.559 148.88C123.759 148.68 123.899 148.46 123.979 148.22C124.072 147.967 124.119 147.707 124.119 147.44C124.119 146.88 123.925 146.42 123.539 146.06C123.152 145.7 122.525 145.52 121.659 145.52H119.899ZM127.779 140.46H129.599V151H127.779V140.46ZM57.177 171.96H53.777V170.46H62.377V171.96H58.977V181H57.177V171.96ZM63.7268 170.46H65.5268L67.7268 177.06C67.8068 177.313 67.8801 177.54 67.9468 177.74C68.0135 177.94 68.0668 178.113 68.1068 178.26C68.1601 178.42 68.2068 178.567 68.2468 178.7H68.3068C68.3468 178.567 68.3935 178.42 68.4468 178.26C68.4868 178.113 68.5335 177.94 68.5868 177.74C68.6535 177.54 68.7335 177.307 68.8268 177.04L70.9868 170.46H72.7868L68.9468 181.66C68.7335 182.26 68.5201 182.773 68.3068 183.2C68.1068 183.627 67.8601 183.967 67.5668 184.22C67.2868 184.487 66.9535 184.68 66.5668 184.8C66.1801 184.92 65.7001 184.98 65.1268 184.98C64.9268 184.98 64.7335 184.967 64.5468 184.94C64.3601 184.913 64.1935 184.887 64.0468 184.86V183.38C64.2201 183.42 64.3935 183.447 64.5668 183.46C64.7401 183.473 64.8735 183.48 64.9668 183.48C65.3001 183.48 65.5801 183.447 65.8068 183.38C66.0468 183.313 66.2468 183.2 66.4068 183.04C66.5801 182.893 66.7268 182.7 66.8468 182.46C66.9668 182.22 67.0868 181.92 67.2068 181.56L67.4068 181L63.7268 170.46ZM76.9774 176.12C76.9774 176.64 77.0374 177.127 77.1574 177.58C77.2908 178.033 77.4841 178.427 77.7374 178.76C77.9908 179.093 78.3041 179.36 78.6774 179.56C79.0508 179.747 79.4908 179.84 79.9974 179.84C80.9441 179.84 81.6441 179.48 82.0974 178.76C82.5641 178.027 82.7974 176.967 82.7974 175.58C82.7974 175.02 82.7508 174.5 82.6574 174.02C82.5641 173.54 82.4108 173.127 82.1974 172.78C81.9841 172.42 81.6908 172.14 81.3174 171.94C80.9574 171.74 80.5108 171.64 79.9774 171.64C79.5108 171.64 79.0908 171.733 78.7174 171.92C78.3574 172.093 78.0441 172.34 77.7774 172.66C77.5241 172.967 77.3241 173.327 77.1774 173.74C77.0441 174.14 76.9774 174.56 76.9774 175V176.12ZM75.2374 170.46H76.9774V172.22H77.0174C77.3241 171.66 77.7574 171.187 78.3174 170.8C78.8908 170.4 79.5774 170.2 80.3774 170.2C80.9374 170.2 81.4708 170.293 81.9774 170.48C82.4974 170.667 82.9508 170.973 83.3374 171.4C83.7241 171.813 84.0308 172.367 84.2574 173.06C84.4974 173.74 84.6174 174.58 84.6174 175.58C84.6174 176.54 84.4974 177.38 84.2574 178.1C84.0308 178.807 83.7174 179.393 83.3174 179.86C82.9308 180.327 82.4708 180.68 81.9374 180.92C81.4174 181.147 80.8574 181.26 80.2574 181.26C79.8708 181.26 79.5041 181.207 79.1574 181.1C78.8241 181.007 78.5174 180.88 78.2374 180.72C77.9574 180.547 77.7174 180.353 77.5174 180.14C77.3174 179.927 77.1708 179.7 77.0774 179.46H77.0374V184.76H75.2374V170.46ZM94.264 170.46H96.144V181H94.364V172.68H94.324C94.244 172.867 94.1573 173.06 94.064 173.26C93.984 173.433 93.884 173.633 93.764 173.86C93.644 174.087 93.5107 174.32 93.364 174.56L89.344 181H87.464V170.46H89.244V178.78H89.284C89.364 178.593 89.4507 178.4 89.544 178.2C89.624 178.027 89.724 177.833 89.844 177.62C89.964 177.393 90.0973 177.153 90.244 176.9L94.264 170.46ZM106.105 173.64C106.079 173.373 106.005 173.12 105.885 172.88C105.779 172.627 105.625 172.407 105.425 172.22C105.225 172.02 104.979 171.867 104.685 171.76C104.405 171.64 104.079 171.58 103.705 171.58C103.225 171.58 102.805 171.68 102.445 171.88C102.085 172.08 101.785 172.36 101.545 172.72C101.305 173.08 101.119 173.513 100.985 174.02C100.865 174.527 100.805 175.087 100.805 175.7C100.805 176.313 100.852 176.873 100.945 177.38C101.052 177.887 101.219 178.327 101.445 178.7C101.672 179.06 101.965 179.34 102.325 179.54C102.685 179.74 103.132 179.84 103.665 179.84C104.159 179.84 104.565 179.76 104.885 179.6C105.219 179.44 105.479 179.24 105.665 179C105.865 178.76 106.005 178.513 106.085 178.26C106.179 177.993 106.232 177.76 106.245 177.56H107.925C107.859 178.173 107.705 178.713 107.465 179.18C107.225 179.633 106.919 180.013 106.545 180.32C106.172 180.627 105.739 180.853 105.245 181C104.752 181.16 104.219 181.24 103.645 181.24C102.885 181.24 102.212 181.113 101.625 180.86C101.052 180.607 100.565 180.247 100.165 179.78C99.7654 179.3 99.4654 178.727 99.2654 178.06C99.0654 177.38 98.9654 176.62 98.9654 175.78C98.9654 174.98 99.0721 174.24 99.2854 173.56C99.4987 172.867 99.8054 172.273 100.205 171.78C100.619 171.287 101.112 170.9 101.685 170.62C102.272 170.34 102.939 170.2 103.685 170.2C104.205 170.2 104.705 170.267 105.185 170.4C105.679 170.52 106.112 170.72 106.485 171C106.872 171.267 107.185 171.62 107.425 172.06C107.679 172.5 107.825 173.027 107.865 173.64H106.105ZM112.548 171.96H109.148V170.46H117.748V171.96H114.348V181H112.548V171.96ZM123.587 181.26C122.814 181.26 122.134 181.127 121.547 180.86C120.961 180.593 120.467 180.22 120.067 179.74C119.681 179.247 119.387 178.66 119.187 177.98C118.987 177.3 118.887 176.547 118.887 175.72C118.887 174.907 118.994 174.16 119.207 173.48C119.434 172.8 119.747 172.22 120.147 171.74C120.561 171.247 121.061 170.867 121.647 170.6C122.234 170.333 122.894 170.2 123.627 170.2C124.414 170.2 125.101 170.333 125.687 170.6C126.274 170.867 126.761 171.247 127.147 171.74C127.547 172.22 127.841 172.8 128.027 173.48C128.227 174.16 128.327 174.907 128.327 175.72C128.327 176.547 128.221 177.3 128.007 177.98C127.794 178.66 127.481 179.247 127.067 179.74C126.654 180.22 126.154 180.593 125.567 180.86C124.981 181.127 124.321 181.26 123.587 181.26ZM123.607 171.58C122.647 171.58 121.927 171.947 121.447 172.68C120.981 173.413 120.747 174.427 120.747 175.72C120.747 177.013 120.974 178.027 121.427 178.76C121.881 179.493 122.621 179.86 123.647 179.86C124.634 179.86 125.347 179.493 125.787 178.76C126.241 178.027 126.467 177.013 126.467 175.72C126.467 174.427 126.241 173.413 125.787 172.68C125.347 171.947 124.621 171.58 123.607 171.58ZM131.175 170.46H135.575C136.642 170.46 137.468 170.693 138.055 171.16C138.655 171.613 138.955 172.253 138.955 173.08C138.955 173.72 138.802 174.24 138.495 174.64C138.202 175.04 137.795 175.313 137.275 175.46V175.5C137.928 175.607 138.462 175.873 138.875 176.3C139.302 176.727 139.515 177.267 139.515 177.92C139.515 178.52 139.402 179.02 139.175 179.42C138.962 179.807 138.668 180.12 138.295 180.36C137.935 180.6 137.508 180.767 137.015 180.86C136.522 180.953 135.995 181 135.435 181H131.175V170.46ZM132.935 171.9V174.78H135.395C135.622 174.78 135.842 174.753 136.055 174.7C136.282 174.647 136.475 174.56 136.635 174.44C136.808 174.32 136.942 174.167 137.035 173.98C137.142 173.78 137.195 173.54 137.195 173.26C137.195 172.767 137.042 172.42 136.735 172.22C136.428 172.007 136.035 171.9 135.555 171.9H132.935ZM132.935 176.24V179.56H135.495C136.162 179.56 136.695 179.44 137.095 179.2C137.508 178.947 137.715 178.507 137.715 177.88C137.715 177.267 137.508 176.84 137.095 176.6C136.682 176.36 136.115 176.24 135.395 176.24H132.935Z" fill="#001520"/>
<path d="M964.657 142.4C964.657 141.027 964.844 139.847 965.217 138.86C965.59 137.86 966.09 137.04 966.717 136.4C967.344 135.747 968.07 135.267 968.897 134.96C969.724 134.64 970.59 134.48 971.497 134.48C972.43 134.48 973.31 134.64 974.137 134.96C974.977 135.267 975.71 135.747 976.337 136.4C976.964 137.04 977.464 137.86 977.837 138.86C978.21 139.847 978.397 141.027 978.397 142.4C978.397 143.76 978.21 144.94 977.837 145.94C977.477 146.94 976.977 147.767 976.337 148.42C975.71 149.06 974.977 149.54 974.137 149.86C973.31 150.167 972.43 150.32 971.497 150.32C970.55 150.32 969.664 150.167 968.837 149.86C968.01 149.54 967.284 149.06 966.657 148.42C966.044 147.767 965.557 146.94 965.197 145.94C964.837 144.94 964.657 143.76 964.657 142.4ZM971.497 148.82C972.217 148.82 972.877 148.68 973.477 148.4C974.09 148.12 974.61 147.713 975.037 147.18C975.477 146.633 975.817 145.96 976.057 145.16C976.31 144.36 976.437 143.447 976.437 142.42C976.437 141.367 976.317 140.44 976.077 139.64C975.837 138.84 975.497 138.167 975.057 137.62C974.63 137.073 974.11 136.66 973.497 136.38C972.897 136.1 972.23 135.96 971.497 135.96C970.777 135.96 970.117 136.093 969.517 136.36C968.93 136.627 968.417 137.033 967.977 137.58C967.55 138.113 967.217 138.787 966.977 139.6C966.737 140.4 966.617 141.34 966.617 142.42C966.617 143.46 966.73 144.38 966.957 145.18C967.197 145.98 967.53 146.653 967.957 147.2C968.384 147.733 968.897 148.14 969.497 148.42C970.097 148.687 970.764 148.82 971.497 148.82ZM986.177 139.2C986.857 139.2 987.464 139.333 987.997 139.6C988.544 139.867 988.997 140.247 989.357 140.74C989.73 141.22 990.01 141.8 990.197 142.48C990.397 143.147 990.497 143.88 990.497 144.68C990.497 145.507 990.39 146.267 990.177 146.96C989.964 147.64 989.65 148.227 989.237 148.72C988.824 149.213 988.324 149.593 987.737 149.86C987.15 150.127 986.49 150.26 985.757 150.26C984.184 150.26 983.004 149.747 982.217 148.72C981.444 147.68 981.057 146.2 981.057 144.28C981.057 142.933 981.137 141.733 981.297 140.68C981.47 139.627 981.757 138.727 982.157 137.98C982.557 137.22 983.084 136.62 983.737 136.18C984.39 135.727 985.204 135.427 986.177 135.28L987.677 135.06C988.05 135.02 988.29 134.927 988.397 134.78C988.517 134.633 988.59 134.453 988.617 134.24H990.077C990.077 134.547 990.044 134.833 989.977 135.1C989.91 135.353 989.784 135.587 989.597 135.8C989.424 136 989.184 136.173 988.877 136.32C988.57 136.467 988.17 136.58 987.677 136.66L986.137 136.88C985.55 136.96 985.057 137.12 984.657 137.36C984.27 137.6 983.95 137.913 983.697 138.3C983.444 138.673 983.25 139.12 983.117 139.64C982.984 140.147 982.884 140.72 982.817 141.36H982.857C983.017 141.067 983.19 140.787 983.377 140.52C983.577 140.253 983.81 140.027 984.077 139.84C984.344 139.64 984.644 139.487 984.977 139.38C985.324 139.26 985.724 139.2 986.177 139.2ZM985.777 140.58C984.817 140.58 984.097 140.947 983.617 141.68C983.15 142.4 982.917 143.4 982.917 144.68C982.917 145.987 983.144 147.013 983.597 147.76C984.05 148.493 984.79 148.86 985.817 148.86C986.804 148.86 987.517 148.493 987.957 147.76C988.41 147.013 988.637 145.987 988.637 144.68C988.637 143.4 988.41 142.4 987.957 141.68C987.517 140.947 986.79 140.58 985.777 140.58ZM996.368 143.02H998.348C999.668 143.02 1000.67 143.34 1001.37 143.98C1002.07 144.607 1002.43 145.427 1002.43 146.44C1002.43 147.493 1002.07 148.353 1001.37 149.02C1000.67 149.673 999.668 150 998.348 150H994.568V140.96H991.568V139.46H996.368V143.02ZM996.368 144.52V148.5H998.128C998.568 148.5 998.941 148.447 999.248 148.34C999.568 148.22 999.828 148.067 1000.03 147.88C1000.23 147.68 1000.37 147.46 1000.45 147.22C1000.54 146.967 1000.59 146.707 1000.59 146.44C1000.59 145.88 1000.39 145.42 1000.01 145.06C999.621 144.7 998.995 144.52 998.128 144.52H996.368ZM1011.42 143.68C1011.41 143.24 1011.35 142.833 1011.26 142.46C1011.17 142.073 1011.01 141.74 1010.8 141.46C1010.6 141.18 1010.33 140.96 1010 140.8C1009.68 140.64 1009.29 140.56 1008.84 140.56C1008 140.56 1007.35 140.86 1006.88 141.46C1006.41 142.06 1006.13 142.84 1006.02 143.8H1011.42V143.68ZM1013.12 147.24C1012.93 148.16 1012.47 148.893 1011.72 149.44C1010.99 149.987 1010.05 150.26 1008.92 150.26C1008.12 150.26 1007.42 150.127 1006.82 149.86C1006.22 149.58 1005.72 149.193 1005.32 148.7C1004.93 148.207 1004.64 147.627 1004.44 146.96C1004.25 146.293 1004.16 145.567 1004.16 144.78C1004.16 144.007 1004.26 143.28 1004.46 142.6C1004.67 141.92 1004.98 141.327 1005.38 140.82C1005.78 140.313 1006.27 139.92 1006.84 139.64C1007.43 139.347 1008.1 139.2 1008.86 139.2C1009.65 139.2 1010.32 139.34 1010.88 139.62C1011.44 139.9 1011.89 140.28 1012.24 140.76C1012.6 141.227 1012.86 141.767 1013.02 142.38C1013.18 142.993 1013.26 143.633 1013.26 144.3V145.22H1006C1006.05 146.313 1006.31 147.2 1006.78 147.88C1007.26 148.547 1007.99 148.88 1008.98 148.88C1009.42 148.88 1009.78 148.827 1010.06 148.72C1010.35 148.6 1010.59 148.46 1010.76 148.3C1010.95 148.127 1011.09 147.947 1011.18 147.76C1011.27 147.573 1011.34 147.4 1011.38 147.24H1013.12ZM1016 139.46H1018.6L1021.1 145.84C1021.19 146.093 1021.28 146.353 1021.38 146.62C1021.48 146.873 1021.57 147.113 1021.64 147.34C1021.72 147.593 1021.8 147.853 1021.88 148.12H1021.92C1022 147.867 1022.08 147.613 1022.18 147.36C1022.26 147.133 1022.34 146.887 1022.44 146.62C1022.53 146.353 1022.63 146.093 1022.74 145.84L1025.24 139.46H1027.82V150H1026.04V141.06H1026C1025.93 141.287 1025.86 141.52 1025.78 141.76C1025.71 141.973 1025.62 142.22 1025.52 142.5C1025.42 142.78 1025.32 143.073 1025.2 143.38L1022.6 150H1021.08L1018.48 143.36C1018.36 143.053 1018.24 142.767 1018.14 142.5C1018.04 142.22 1017.96 141.973 1017.9 141.76C1017.82 141.52 1017.74 141.293 1017.68 141.08H1017.64V150H1016V139.46ZM951.198 170.96H947.798V169.46H956.398V170.96H952.998V180H951.198V170.96ZM957.748 169.46H959.548L961.748 176.06C961.828 176.313 961.902 176.54 961.968 176.74C962.035 176.94 962.088 177.113 962.128 177.26C962.182 177.42 962.228 177.567 962.268 177.7H962.328C962.368 177.567 962.415 177.42 962.468 177.26C962.508 177.113 962.555 176.94 962.608 176.74C962.675 176.54 962.755 176.307 962.848 176.04L965.008 169.46H966.808L962.968 180.66C962.755 181.26 962.542 181.773 962.328 182.2C962.128 182.627 961.882 182.967 961.588 183.22C961.308 183.487 960.975 183.68 960.588 183.8C960.202 183.92 959.722 183.98 959.148 183.98C958.948 183.98 958.755 183.967 958.568 183.94C958.382 183.913 958.215 183.887 958.068 183.86V182.38C958.242 182.42 958.415 182.447 958.588 182.46C958.762 182.473 958.895 182.48 958.988 182.48C959.322 182.48 959.602 182.447 959.828 182.38C960.068 182.313 960.268 182.2 960.428 182.04C960.602 181.893 960.748 181.7 960.868 181.46C960.988 181.22 961.108 180.92 961.228 180.56L961.428 180L957.748 169.46ZM970.999 175.12C970.999 175.64 971.059 176.127 971.179 176.58C971.312 177.033 971.506 177.427 971.759 177.76C972.012 178.093 972.326 178.36 972.699 178.56C973.072 178.747 973.512 178.84 974.019 178.84C974.966 178.84 975.666 178.48 976.119 177.76C976.586 177.027 976.819 175.967 976.819 174.58C976.819 174.02 976.772 173.5 976.679 173.02C976.586 172.54 976.432 172.127 976.219 171.78C976.006 171.42 975.712 171.14 975.339 170.94C974.979 170.74 974.532 170.64 973.999 170.64C973.532 170.64 973.112 170.733 972.739 170.92C972.379 171.093 972.066 171.34 971.799 171.66C971.546 171.967 971.346 172.327 971.199 172.74C971.066 173.14 970.999 173.56 970.999 174V175.12ZM969.259 169.46H970.999V171.22H971.039C971.346 170.66 971.779 170.187 972.339 169.8C972.912 169.4 973.599 169.2 974.399 169.2C974.959 169.2 975.492 169.293 975.999 169.48C976.519 169.667 976.972 169.973 977.359 170.4C977.746 170.813 978.052 171.367 978.279 172.06C978.519 172.74 978.639 173.58 978.639 174.58C978.639 175.54 978.519 176.38 978.279 177.1C978.052 177.807 977.739 178.393 977.339 178.86C976.952 179.327 976.492 179.68 975.959 179.92C975.439 180.147 974.879 180.26 974.279 180.26C973.892 180.26 973.526 180.207 973.179 180.1C972.846 180.007 972.539 179.88 972.259 179.72C971.979 179.547 971.739 179.353 971.539 179.14C971.339 178.927 971.192 178.7 971.099 178.46H971.059V183.76H969.259V169.46ZM981.485 169.46H989.765V180H987.965V170.96H983.285V180H981.485V169.46ZM997.277 180.26C996.503 180.26 995.823 180.127 995.237 179.86C994.65 179.593 994.157 179.22 993.757 178.74C993.37 178.247 993.077 177.66 992.877 176.98C992.677 176.3 992.577 175.547 992.577 174.72C992.577 173.907 992.683 173.16 992.897 172.48C993.123 171.8 993.437 171.22 993.837 170.74C994.25 170.247 994.75 169.867 995.337 169.6C995.923 169.333 996.583 169.2 997.317 169.2C998.103 169.2 998.79 169.333 999.377 169.6C999.963 169.867 1000.45 170.247 1000.84 170.74C1001.24 171.22 1001.53 171.8 1001.72 172.48C1001.92 173.16 1002.02 173.907 1002.02 174.72C1002.02 175.547 1001.91 176.3 1001.7 176.98C1001.48 177.66 1001.17 178.247 1000.76 178.74C1000.34 179.22 999.843 179.593 999.257 179.86C998.67 180.127 998.01 180.26 997.277 180.26ZM997.297 170.58C996.337 170.58 995.617 170.947 995.137 171.68C994.67 172.413 994.437 173.427 994.437 174.72C994.437 176.013 994.663 177.027 995.117 177.76C995.57 178.493 996.31 178.86 997.337 178.86C998.323 178.86 999.037 178.493 999.477 177.76C999.93 177.027 1000.16 176.013 1000.16 174.72C1000.16 173.427 999.93 172.413 999.477 171.68C999.037 170.947 998.31 170.58 997.297 170.58ZM1006.59 170.96H1003.19V169.46H1011.79V170.96H1008.39V180H1006.59V170.96ZM1017.63 180.26C1016.85 180.26 1016.17 180.127 1015.59 179.86C1015 179.593 1014.51 179.22 1014.11 178.74C1013.72 178.247 1013.43 177.66 1013.23 176.98C1013.03 176.3 1012.93 175.547 1012.93 174.72C1012.93 173.907 1013.03 173.16 1013.25 172.48C1013.47 171.8 1013.79 171.22 1014.19 170.74C1014.6 170.247 1015.1 169.867 1015.69 169.6C1016.27 169.333 1016.93 169.2 1017.67 169.2C1018.45 169.2 1019.14 169.333 1019.73 169.6C1020.31 169.867 1020.8 170.247 1021.19 170.74C1021.59 171.22 1021.88 171.8 1022.07 172.48C1022.27 173.16 1022.37 173.907 1022.37 174.72C1022.37 175.547 1022.26 176.3 1022.05 176.98C1021.83 177.66 1021.52 178.247 1021.11 178.74C1020.69 179.22 1020.19 179.593 1019.61 179.86C1019.02 180.127 1018.36 180.26 1017.63 180.26ZM1017.65 170.58C1016.69 170.58 1015.97 170.947 1015.49 171.68C1015.02 172.413 1014.79 173.427 1014.79 174.72C1014.79 176.013 1015.01 177.027 1015.47 177.76C1015.92 178.493 1016.66 178.86 1017.69 178.86C1018.67 178.86 1019.39 178.493 1019.83 177.76C1020.28 177.027 1020.51 176.013 1020.51 174.72C1020.51 173.427 1020.28 172.413 1019.83 171.68C1019.39 170.947 1018.66 170.58 1017.65 170.58ZM1027.02 173.92H1028.52L1031.66 169.46H1033.64L1030 174.62L1033.96 180H1031.86L1028.5 175.42H1027.02V180H1025.22V169.46H1027.02V173.92ZM1039.15 178.72C1039.48 178.72 1039.82 178.66 1040.17 178.54C1040.53 178.42 1040.85 178.227 1041.15 177.96C1041.44 177.68 1041.68 177.32 1041.87 176.88C1042.05 176.427 1042.15 175.873 1042.15 175.22V174.98C1041 175.033 1040.09 175.113 1039.41 175.22C1038.74 175.327 1038.23 175.507 1037.89 175.76C1037.5 176.053 1037.31 176.487 1037.31 177.06C1037.31 177.607 1037.47 178.02 1037.79 178.3C1038.12 178.58 1038.57 178.72 1039.15 178.72ZM1036.03 172.34C1036.05 171.407 1036.41 170.653 1037.09 170.08C1037.77 169.493 1038.74 169.2 1040.01 169.2C1041.33 169.2 1042.31 169.5 1042.95 170.1C1043.59 170.7 1043.91 171.707 1043.91 173.12V177.42C1043.91 177.847 1043.97 178.153 1044.09 178.34C1044.22 178.513 1044.48 178.607 1044.87 178.62V180.08H1044.65C1043.81 180.08 1043.21 179.927 1042.87 179.62C1042.53 179.313 1042.32 178.847 1042.23 178.22H1042.19C1041.91 178.847 1041.47 179.333 1040.87 179.68C1040.28 180.013 1039.59 180.18 1038.81 180.18C1037.75 180.18 1036.93 179.913 1036.35 179.38C1035.76 178.847 1035.47 178.107 1035.47 177.16C1035.47 176.573 1035.59 176.053 1035.85 175.6C1036.1 175.133 1036.5 174.767 1037.05 174.5C1037.61 174.207 1038.3 174 1039.13 173.88C1039.95 173.76 1040.96 173.68 1042.15 173.64V173.18C1042.15 172.22 1041.97 171.54 1041.61 171.14C1041.25 170.74 1040.69 170.54 1039.95 170.54C1039.56 170.54 1039.23 170.593 1038.95 170.7C1038.68 170.793 1038.46 170.927 1038.29 171.1C1038.11 171.273 1037.98 171.467 1037.89 171.68C1037.81 171.893 1037.76 172.113 1037.75 172.34H1036.03Z" fill="#001520"/>
<path d="M522.724 120V107.02H522.684C522.644 107.113 522.59 107.233 522.524 107.38C522.457 107.5 522.37 107.653 522.264 107.84C522.157 108.027 522.03 108.247 521.884 108.5L514.884 120H512.684V104.7H514.524V117.72H514.584C514.637 117.587 514.704 117.44 514.784 117.28C514.85 117.147 514.93 116.993 515.024 116.82C515.117 116.633 515.23 116.433 515.364 116.22L522.364 104.7H524.564V120H522.724ZM528.519 109.46H530.319V113.92H535.099V109.46H536.899V120H535.099V115.42H530.319V120H528.519V109.46ZM542.467 114.84C542.414 115.747 542.334 116.487 542.227 117.06C542.134 117.633 542.007 118.113 541.847 118.5H546.667V110.96H542.727C542.7 111.267 542.674 111.593 542.647 111.94C542.634 112.273 542.614 112.613 542.587 112.96C542.56 113.307 542.534 113.647 542.507 113.98C542.494 114.3 542.48 114.587 542.467 114.84ZM538.987 122.7V118.5H539.987C540.214 118.14 540.38 117.687 540.487 117.14C540.607 116.58 540.7 115.813 540.767 114.84C540.794 114.413 540.827 113.893 540.867 113.28C540.907 112.653 540.947 112.06 540.987 111.5C541.04 110.847 541.087 110.167 541.127 109.46H548.467V118.5H549.867V122.7H548.267V120H540.587V122.7H538.987ZM558.667 113.68C558.653 113.24 558.6 112.833 558.507 112.46C558.413 112.073 558.26 111.74 558.047 111.46C557.847 111.18 557.58 110.96 557.247 110.8C556.927 110.64 556.54 110.56 556.087 110.56C555.247 110.56 554.593 110.86 554.127 111.46C553.66 112.06 553.373 112.84 553.267 113.8H558.667V113.68ZM560.367 117.24C560.18 118.16 559.713 118.893 558.967 119.44C558.233 119.987 557.3 120.26 556.167 120.26C555.367 120.26 554.667 120.127 554.067 119.86C553.467 119.58 552.967 119.193 552.567 118.7C552.18 118.207 551.887 117.627 551.687 116.96C551.5 116.293 551.407 115.567 551.407 114.78C551.407 114.007 551.507 113.28 551.707 112.6C551.92 111.92 552.227 111.327 552.627 110.82C553.027 110.313 553.513 109.92 554.087 109.64C554.673 109.347 555.347 109.2 556.107 109.2C556.893 109.2 557.567 109.34 558.127 109.62C558.687 109.9 559.14 110.28 559.487 110.76C559.847 111.227 560.107 111.767 560.267 112.38C560.427 112.993 560.507 113.633 560.507 114.3V115.22H553.247C553.3 116.313 553.56 117.2 554.027 117.88C554.507 118.547 555.24 118.88 556.227 118.88C556.667 118.88 557.027 118.827 557.307 118.72C557.6 118.6 557.833 118.46 558.007 118.3C558.193 118.127 558.333 117.947 558.427 117.76C558.52 117.573 558.587 117.4 558.627 117.24H560.367ZM565.143 113.92H566.643L569.783 109.46H571.763L568.123 114.62L572.083 120H569.983L566.623 115.42H565.143V120H563.343V109.46H565.143V113.92ZM580.754 112.64C580.727 112.373 580.654 112.12 580.534 111.88C580.427 111.627 580.274 111.407 580.074 111.22C579.874 111.02 579.627 110.867 579.334 110.76C579.054 110.64 578.727 110.58 578.354 110.58C577.874 110.58 577.454 110.68 577.094 110.88C576.734 111.08 576.434 111.36 576.194 111.72C575.954 112.08 575.767 112.513 575.634 113.02C575.514 113.527 575.454 114.087 575.454 114.7C575.454 115.313 575.5 115.873 575.594 116.38C575.7 116.887 575.867 117.327 576.094 117.7C576.32 118.06 576.614 118.34 576.974 118.54C577.334 118.74 577.78 118.84 578.314 118.84C578.807 118.84 579.214 118.76 579.534 118.6C579.867 118.44 580.127 118.24 580.314 118C580.514 117.76 580.654 117.513 580.734 117.26C580.827 116.993 580.88 116.76 580.894 116.56H582.574C582.507 117.173 582.354 117.713 582.114 118.18C581.874 118.633 581.567 119.013 581.194 119.32C580.82 119.627 580.387 119.853 579.894 120C579.4 120.16 578.867 120.24 578.294 120.24C577.534 120.24 576.86 120.113 576.274 119.86C575.7 119.607 575.214 119.247 574.814 118.78C574.414 118.3 574.114 117.727 573.914 117.06C573.714 116.38 573.614 115.62 573.614 114.78C573.614 113.98 573.72 113.24 573.934 112.56C574.147 111.867 574.454 111.273 574.854 110.78C575.267 110.287 575.76 109.9 576.334 109.62C576.92 109.34 577.587 109.2 578.334 109.2C578.854 109.2 579.354 109.267 579.834 109.4C580.327 109.52 580.76 109.72 581.134 110C581.52 110.267 581.834 110.62 582.074 111.06C582.327 111.5 582.474 112.027 582.514 112.64H580.754ZM478.007 140.96H474.607V139.46H483.207V140.96H479.807V150H478.007V140.96ZM484.557 139.46H486.357L488.557 146.06C488.637 146.313 488.71 146.54 488.777 146.74C488.844 146.94 488.897 147.113 488.937 147.26C488.99 147.42 489.037 147.567 489.077 147.7H489.137C489.177 147.567 489.224 147.42 489.277 147.26C489.317 147.113 489.364 146.94 489.417 146.74C489.484 146.54 489.564 146.307 489.657 146.04L491.817 139.46H493.617L489.777 150.66C489.564 151.26 489.35 151.773 489.137 152.2C488.937 152.627 488.69 152.967 488.397 153.22C488.117 153.487 487.784 153.68 487.397 153.8C487.01 153.92 486.53 153.98 485.957 153.98C485.757 153.98 485.564 153.967 485.377 153.94C485.19 153.913 485.024 153.887 484.877 153.86V152.38C485.05 152.42 485.224 152.447 485.397 152.46C485.57 152.473 485.704 152.48 485.797 152.48C486.13 152.48 486.41 152.447 486.637 152.38C486.877 152.313 487.077 152.2 487.237 152.04C487.41 151.893 487.557 151.7 487.677 151.46C487.797 151.22 487.917 150.92 488.037 150.56L488.237 150L484.557 139.46ZM497.808 145.12C497.808 145.64 497.868 146.127 497.988 146.58C498.121 147.033 498.314 147.427 498.568 147.76C498.821 148.093 499.134 148.36 499.508 148.56C499.881 148.747 500.321 148.84 500.828 148.84C501.774 148.84 502.474 148.48 502.928 147.76C503.394 147.027 503.628 145.967 503.628 144.58C503.628 144.02 503.581 143.5 503.488 143.02C503.394 142.54 503.241 142.127 503.028 141.78C502.814 141.42 502.521 141.14 502.148 140.94C501.788 140.74 501.341 140.64 500.808 140.64C500.341 140.64 499.921 140.733 499.548 140.92C499.188 141.093 498.874 141.34 498.608 141.66C498.354 141.967 498.154 142.327 498.008 142.74C497.874 143.14 497.808 143.56 497.808 144V145.12ZM496.068 139.46H497.808V141.22H497.848C498.154 140.66 498.588 140.187 499.148 139.8C499.721 139.4 500.408 139.2 501.208 139.2C501.768 139.2 502.301 139.293 502.808 139.48C503.328 139.667 503.781 139.973 504.168 140.4C504.554 140.813 504.861 141.367 505.088 142.06C505.328 142.74 505.448 143.58 505.448 144.58C505.448 145.54 505.328 146.38 505.088 147.1C504.861 147.807 504.548 148.393 504.148 148.86C503.761 149.327 503.301 149.68 502.768 149.92C502.248 150.147 501.688 150.26 501.088 150.26C500.701 150.26 500.334 150.207 499.988 150.1C499.654 150.007 499.348 149.88 499.068 149.72C498.788 149.547 498.548 149.353 498.348 149.14C498.148 148.927 498.001 148.7 497.908 148.46H497.868V153.76H496.068V139.46ZM515.094 139.46H516.974V150H515.194V141.68H515.154C515.074 141.867 514.987 142.06 514.894 142.26C514.814 142.433 514.714 142.633 514.594 142.86C514.474 143.087 514.341 143.32 514.194 143.56L510.174 150H508.294V139.46H510.074V147.78H510.114C510.194 147.593 510.281 147.4 510.374 147.2C510.454 147.027 510.554 146.833 510.674 146.62C510.794 146.393 510.927 146.153 511.074 145.9L515.094 139.46ZM526.935 142.64C526.909 142.373 526.835 142.12 526.715 141.88C526.609 141.627 526.455 141.407 526.255 141.22C526.055 141.02 525.809 140.867 525.515 140.76C525.235 140.64 524.909 140.58 524.535 140.58C524.055 140.58 523.635 140.68 523.275 140.88C522.915 141.08 522.615 141.36 522.375 141.72C522.135 142.08 521.949 142.513 521.815 143.02C521.695 143.527 521.635 144.087 521.635 144.7C521.635 145.313 521.682 145.873 521.775 146.38C521.882 146.887 522.049 147.327 522.275 147.7C522.502 148.06 522.795 148.34 523.155 148.54C523.515 148.74 523.962 148.84 524.495 148.84C524.989 148.84 525.395 148.76 525.715 148.6C526.049 148.44 526.309 148.24 526.495 148C526.695 147.76 526.835 147.513 526.915 147.26C527.009 146.993 527.062 146.76 527.075 146.56H528.755C528.689 147.173 528.535 147.713 528.295 148.18C528.055 148.633 527.749 149.013 527.375 149.32C527.002 149.627 526.569 149.853 526.075 150C525.582 150.16 525.049 150.24 524.475 150.24C523.715 150.24 523.042 150.113 522.455 149.86C521.882 149.607 521.395 149.247 520.995 148.78C520.595 148.3 520.295 147.727 520.095 147.06C519.895 146.38 519.795 145.62 519.795 144.78C519.795 143.98 519.902 143.24 520.115 142.56C520.329 141.867 520.635 141.273 521.035 140.78C521.449 140.287 521.942 139.9 522.515 139.62C523.102 139.34 523.769 139.2 524.515 139.2C525.035 139.2 525.535 139.267 526.015 139.4C526.509 139.52 526.942 139.72 527.315 140C527.702 140.267 528.015 140.62 528.255 141.06C528.509 141.5 528.655 142.027 528.695 142.64H526.935ZM533.378 140.96H529.978V139.46H538.578V140.96H535.178V150H533.378V140.96ZM547.653 139.46H549.533V150H547.753V141.68H547.713C547.633 141.867 547.546 142.06 547.453 142.26C547.373 142.433 547.273 142.633 547.153 142.86C547.033 143.087 546.899 143.32 546.753 143.56L542.733 150H540.853V139.46H542.633V147.78H542.673C542.753 147.593 542.839 147.4 542.933 147.2C543.013 147.027 543.113 146.833 543.233 146.62C543.353 146.393 543.486 146.153 543.633 145.9L547.653 139.46ZM553.014 139.46H554.814V142.48C554.814 143.213 554.974 143.787 555.294 144.2C555.614 144.6 556.154 144.8 556.914 144.8C557.261 144.8 557.581 144.78 557.874 144.74C558.167 144.7 558.421 144.647 558.634 144.58C558.874 144.527 559.094 144.453 559.294 144.36V139.46H561.094V150H559.294V145.86C559.094 145.953 558.874 146.027 558.634 146.08C558.421 146.147 558.167 146.2 557.874 146.24C557.581 146.28 557.261 146.3 556.914 146.3C555.567 146.3 554.581 145.98 553.954 145.34C553.327 144.7 553.014 143.747 553.014 142.48V139.46ZM571.177 143.68C571.163 143.24 571.11 142.833 571.017 142.46C570.923 142.073 570.77 141.74 570.557 141.46C570.357 141.18 570.09 140.96 569.757 140.8C569.437 140.64 569.05 140.56 568.597 140.56C567.757 140.56 567.103 140.86 566.637 141.46C566.17 142.06 565.883 142.84 565.777 143.8H571.177V143.68ZM572.877 147.24C572.69 148.16 572.223 148.893 571.477 149.44C570.743 149.987 569.81 150.26 568.677 150.26C567.877 150.26 567.177 150.127 566.577 149.86C565.977 149.58 565.477 149.193 565.077 148.7C564.69 148.207 564.397 147.627 564.197 146.96C564.01 146.293 563.917 145.567 563.917 144.78C563.917 144.007 564.017 143.28 564.217 142.6C564.43 141.92 564.737 141.327 565.137 140.82C565.537 140.313 566.023 139.92 566.597 139.64C567.183 139.347 567.857 139.2 568.617 139.2C569.403 139.2 570.077 139.34 570.637 139.62C571.197 139.9 571.65 140.28 571.997 140.76C572.357 141.227 572.617 141.767 572.777 142.38C572.937 142.993 573.017 143.633 573.017 144.3V145.22H565.757C565.81 146.313 566.07 147.2 566.537 147.88C567.017 148.547 567.75 148.88 568.737 148.88C569.177 148.88 569.537 148.827 569.817 148.72C570.11 148.6 570.343 148.46 570.517 148.3C570.703 148.127 570.843 147.947 570.937 147.76C571.03 147.573 571.097 147.4 571.137 147.24H572.877ZM582.15 142.64C582.124 142.373 582.05 142.12 581.93 141.88C581.824 141.627 581.67 141.407 581.47 141.22C581.27 141.02 581.024 140.867 580.73 140.76C580.45 140.64 580.124 140.58 579.75 140.58C579.27 140.58 578.85 140.68 578.49 140.88C578.13 141.08 577.83 141.36 577.59 141.72C577.35 142.08 577.164 142.513 577.03 143.02C576.91 143.527 576.85 144.087 576.85 144.7C576.85 145.313 576.897 145.873 576.99 146.38C577.097 146.887 577.264 147.327 577.49 147.7C577.717 148.06 578.01 148.34 578.37 148.54C578.73 148.74 579.177 148.84 579.71 148.84C580.204 148.84 580.61 148.76 580.93 148.6C581.264 148.44 581.524 148.24 581.71 148C581.91 147.76 582.05 147.513 582.13 147.26C582.224 146.993 582.277 146.76 582.29 146.56H583.97C583.904 147.173 583.75 147.713 583.51 148.18C583.27 148.633 582.964 149.013 582.59 149.32C582.217 149.627 581.784 149.853 581.29 150C580.797 150.16 580.264 150.24 579.69 150.24C578.93 150.24 578.257 150.113 577.67 149.86C577.097 149.607 576.61 149.247 576.21 148.78C575.81 148.3 575.51 147.727 575.31 147.06C575.11 146.38 575.01 145.62 575.01 144.78C575.01 143.98 575.117 143.24 575.33 142.56C575.544 141.867 575.85 141.273 576.25 140.78C576.664 140.287 577.157 139.9 577.73 139.62C578.317 139.34 578.984 139.2 579.73 139.2C580.25 139.2 580.75 139.267 581.23 139.4C581.724 139.52 582.157 139.72 582.53 140C582.917 140.267 583.23 140.62 583.47 141.06C583.724 141.5 583.87 142.027 583.91 142.64H582.15ZM588.473 143.92H589.973L593.113 139.46H595.093L591.453 144.62L595.413 150H593.313L589.953 145.42H588.473V150H586.673V139.46H588.473V143.92ZM601.644 150.26C600.871 150.26 600.191 150.127 599.604 149.86C599.017 149.593 598.524 149.22 598.124 148.74C597.737 148.247 597.444 147.66 597.244 146.98C597.044 146.3 596.944 145.547 596.944 144.72C596.944 143.907 597.051 143.16 597.264 142.48C597.491 141.8 597.804 141.22 598.204 140.74C598.617 140.247 599.117 139.867 599.704 139.6C600.291 139.333 600.951 139.2 601.684 139.2C602.471 139.2 603.157 139.333 603.744 139.6C604.331 139.867 604.817 140.247 605.204 140.74C605.604 141.22 605.897 141.8 606.084 142.48C606.284 143.16 606.384 143.907 606.384 144.72C606.384 145.547 606.277 146.3 606.064 146.98C605.851 147.66 605.537 148.247 605.124 148.74C604.711 149.22 604.211 149.593 603.624 149.86C603.037 150.127 602.377 150.26 601.644 150.26ZM601.664 140.58C600.704 140.58 599.984 140.947 599.504 141.68C599.037 142.413 598.804 143.427 598.804 144.72C598.804 146.013 599.031 147.027 599.484 147.76C599.937 148.493 600.677 148.86 601.704 148.86C602.691 148.86 603.404 148.493 603.844 147.76C604.297 147.027 604.524 146.013 604.524 144.72C604.524 143.427 604.297 142.413 603.844 141.68C603.404 140.947 602.677 140.58 601.664 140.58ZM616.032 139.46H617.912V150H616.132V141.68H616.092C616.012 141.867 615.925 142.06 615.832 142.26C615.752 142.433 615.652 142.633 615.532 142.86C615.412 143.087 615.278 143.32 615.132 143.56L611.112 150H609.232V139.46H611.012V147.78H611.052C611.132 147.593 611.218 147.4 611.312 147.2C611.392 147.027 611.492 146.833 611.612 146.62C611.732 146.393 611.865 146.153 612.012 145.9L616.032 139.46ZM611.932 134.24C611.932 134.92 612.078 135.427 612.372 135.76C612.678 136.08 613.092 136.24 613.612 136.24C614.105 136.24 614.492 136.08 614.772 135.76C615.052 135.427 615.192 134.92 615.192 134.24H616.572C616.572 134.8 616.492 135.28 616.332 135.68C616.172 136.08 615.958 136.413 615.692 136.68C615.425 136.933 615.105 137.12 614.732 137.24C614.358 137.36 613.965 137.42 613.552 137.42C613.138 137.42 612.745 137.36 612.372 137.24C612.012 137.12 611.698 136.933 611.432 136.68C611.165 136.413 610.952 136.08 610.792 135.68C610.632 135.28 610.552 134.8 610.552 134.24H611.932ZM453.157 169.46H461.437V180H459.637V170.96H454.957V180H453.157V169.46ZM466.929 175.12C466.929 175.64 466.989 176.127 467.109 176.58C467.242 177.033 467.435 177.427 467.689 177.76C467.942 178.093 468.255 178.36 468.629 178.56C469.002 178.747 469.442 178.84 469.949 178.84C470.895 178.84 471.595 178.48 472.049 177.76C472.515 177.027 472.749 175.967 472.749 174.58C472.749 174.02 472.702 173.5 472.609 173.02C472.515 172.54 472.362 172.127 472.149 171.78C471.935 171.42 471.642 171.14 471.269 170.94C470.909 170.74 470.462 170.64 469.929 170.64C469.462 170.64 469.042 170.733 468.669 170.92C468.309 171.093 467.995 171.34 467.729 171.66C467.475 171.967 467.275 172.327 467.129 172.74C466.995 173.14 466.929 173.56 466.929 174V175.12ZM465.189 169.46H466.929V171.22H466.969C467.275 170.66 467.709 170.187 468.269 169.8C468.842 169.4 469.529 169.2 470.329 169.2C470.889 169.2 471.422 169.293 471.929 169.48C472.449 169.667 472.902 169.973 473.289 170.4C473.675 170.813 473.982 171.367 474.209 172.06C474.449 172.74 474.569 173.58 474.569 174.58C474.569 175.54 474.449 176.38 474.209 177.1C473.982 177.807 473.669 178.393 473.269 178.86C472.882 179.327 472.422 179.68 471.889 179.92C471.369 180.147 470.809 180.26 470.209 180.26C469.822 180.26 469.455 180.207 469.109 180.1C468.775 180.007 468.469 179.88 468.189 179.72C467.909 179.547 467.669 179.353 467.469 179.14C467.269 178.927 467.122 178.7 467.029 178.46H466.989V183.76H465.189V169.46ZM484.215 169.46H486.095V180H484.315V171.68H484.275C484.195 171.867 484.108 172.06 484.015 172.26C483.935 172.433 483.835 172.633 483.715 172.86C483.595 173.087 483.462 173.32 483.315 173.56L479.295 180H477.415V169.46H479.195V177.78H479.235C479.315 177.593 479.402 177.4 479.495 177.2C479.575 177.027 479.675 176.833 479.795 176.62C479.915 176.393 480.048 176.153 480.195 175.9L484.215 169.46ZM489.857 169.46H494.257C495.323 169.46 496.15 169.693 496.737 170.16C497.337 170.613 497.637 171.253 497.637 172.08C497.637 172.72 497.483 173.24 497.177 173.64C496.883 174.04 496.477 174.313 495.957 174.46V174.5C496.61 174.607 497.143 174.873 497.557 175.3C497.983 175.727 498.197 176.267 498.197 176.92C498.197 177.52 498.083 178.02 497.857 178.42C497.643 178.807 497.35 179.12 496.977 179.36C496.617 179.6 496.19 179.767 495.697 179.86C495.203 179.953 494.677 180 494.117 180H489.857V169.46ZM491.617 170.9V173.78H494.077C494.303 173.78 494.523 173.753 494.737 173.7C494.963 173.647 495.157 173.56 495.317 173.44C495.49 173.32 495.623 173.167 495.717 172.98C495.823 172.78 495.877 172.54 495.877 172.26C495.877 171.767 495.723 171.42 495.417 171.22C495.11 171.007 494.717 170.9 494.237 170.9H491.617ZM491.617 175.24V178.56H494.177C494.843 178.56 495.377 178.44 495.777 178.2C496.19 177.947 496.397 177.507 496.397 176.88C496.397 176.267 496.19 175.84 495.777 175.6C495.363 175.36 494.797 175.24 494.077 175.24H491.617ZM503.407 175.54C503.367 176.313 503.287 176.987 503.167 177.56C503.06 178.133 502.894 178.613 502.667 179C502.454 179.373 502.16 179.653 501.787 179.84C501.427 180.027 500.974 180.12 500.427 180.12C500.147 180.12 499.94 180.1 499.807 180.06C499.727 180.047 499.66 180.027 499.607 180V178.36C499.66 178.387 499.727 178.407 499.807 178.42C499.94 178.46 500.14 178.48 500.407 178.48C500.834 178.48 501.14 178.253 501.327 177.8C501.514 177.333 501.64 176.587 501.707 175.56C501.734 174.987 501.767 174.347 501.807 173.64C501.86 172.933 501.9 172.267 501.927 171.64C501.967 170.907 502 170.18 502.027 169.46H509.167V180H507.367V170.96H503.647C503.634 171.28 503.614 171.633 503.587 172.02C503.574 172.393 503.554 172.787 503.527 173.2C503.514 173.6 503.494 174 503.467 174.4C503.44 174.8 503.42 175.18 503.407 175.54ZM519.243 173.68C519.23 173.24 519.176 172.833 519.083 172.46C518.99 172.073 518.836 171.74 518.623 171.46C518.423 171.18 518.156 170.96 517.823 170.8C517.503 170.64 517.116 170.56 516.663 170.56C515.823 170.56 515.17 170.86 514.703 171.46C514.236 172.06 513.95 172.84 513.843 173.8H519.243V173.68ZM520.943 177.24C520.756 178.16 520.29 178.893 519.543 179.44C518.81 179.987 517.876 180.26 516.743 180.26C515.943 180.26 515.243 180.127 514.643 179.86C514.043 179.58 513.543 179.193 513.143 178.7C512.756 178.207 512.463 177.627 512.263 176.96C512.076 176.293 511.983 175.567 511.983 174.78C511.983 174.007 512.083 173.28 512.283 172.6C512.496 171.92 512.803 171.327 513.203 170.82C513.603 170.313 514.09 169.92 514.663 169.64C515.25 169.347 515.923 169.2 516.683 169.2C517.47 169.2 518.143 169.34 518.703 169.62C519.263 169.9 519.716 170.28 520.063 170.76C520.423 171.227 520.683 171.767 520.843 172.38C521.003 172.993 521.083 173.633 521.083 174.3V175.22H513.823C513.876 176.313 514.136 177.2 514.603 177.88C515.083 178.547 515.816 178.88 516.803 178.88C517.243 178.88 517.603 178.827 517.883 178.72C518.176 178.6 518.41 178.46 518.583 178.3C518.77 178.127 518.91 177.947 519.003 177.76C519.096 177.573 519.163 177.4 519.203 177.24H520.943ZM525.719 173.92H527.219L530.359 169.46H532.339L528.699 174.62L532.659 180H530.559L527.199 175.42H525.719V180H523.919V169.46H525.719V173.92ZM537.85 178.72C538.183 178.72 538.523 178.66 538.87 178.54C539.23 178.42 539.557 178.227 539.85 177.96C540.143 177.68 540.383 177.32 540.57 176.88C540.757 176.427 540.85 175.873 540.85 175.22V174.98C539.703 175.033 538.79 175.113 538.11 175.22C537.443 175.327 536.937 175.507 536.59 175.76C536.203 176.053 536.01 176.487 536.01 177.06C536.01 177.607 536.17 178.02 536.49 178.3C536.823 178.58 537.277 178.72 537.85 178.72ZM534.73 172.34C534.757 171.407 535.11 170.653 535.79 170.08C536.47 169.493 537.443 169.2 538.71 169.2C540.03 169.2 541.01 169.5 541.65 170.1C542.29 170.7 542.61 171.707 542.61 173.12V177.42C542.61 177.847 542.67 178.153 542.79 178.34C542.923 178.513 543.183 178.607 543.57 178.62V180.08H543.35C542.51 180.08 541.917 179.927 541.57 179.62C541.237 179.313 541.023 178.847 540.93 178.22H540.89C540.61 178.847 540.17 179.333 539.57 179.68C538.983 180.013 538.297 180.18 537.51 180.18C536.457 180.18 535.637 179.913 535.05 179.38C534.463 178.847 534.17 178.107 534.17 177.16C534.17 176.573 534.297 176.053 534.55 175.6C534.803 175.133 535.203 174.767 535.75 174.5C536.31 174.207 537.003 174 537.83 173.88C538.657 173.76 539.663 173.68 540.85 173.64V173.18C540.85 172.22 540.67 171.54 540.31 171.14C539.95 170.74 539.397 170.54 538.65 170.54C538.263 170.54 537.93 170.593 537.65 170.7C537.383 170.793 537.163 170.927 536.99 171.1C536.817 171.273 536.683 171.467 536.59 171.68C536.51 171.893 536.463 172.113 536.45 172.34H534.73ZM548.007 170.96H544.607V169.46H553.207V170.96H549.807V180H548.007V170.96ZM561.606 173.68C561.593 173.24 561.54 172.833 561.446 172.46C561.353 172.073 561.2 171.74 560.986 171.46C560.786 171.18 560.52 170.96 560.186 170.8C559.866 170.64 559.48 170.56 559.026 170.56C558.186 170.56 557.533 170.86 557.066 171.46C556.6 172.06 556.313 172.84 556.206 173.8H561.606V173.68ZM563.306 177.24C563.12 178.16 562.653 178.893 561.906 179.44C561.173 179.987 560.24 180.26 559.106 180.26C558.306 180.26 557.606 180.127 557.006 179.86C556.406 179.58 555.906 179.193 555.506 178.7C555.12 178.207 554.826 177.627 554.626 176.96C554.44 176.293 554.346 175.567 554.346 174.78C554.346 174.007 554.446 173.28 554.646 172.6C554.86 171.92 555.166 171.327 555.566 170.82C555.966 170.313 556.453 169.92 557.026 169.64C557.613 169.347 558.286 169.2 559.046 169.2C559.833 169.2 560.506 169.34 561.066 169.62C561.626 169.9 562.08 170.28 562.426 170.76C562.786 171.227 563.046 171.767 563.206 172.38C563.366 172.993 563.446 173.633 563.446 174.3V175.22H556.186C556.24 176.313 556.5 177.2 556.966 177.88C557.446 178.547 558.18 178.88 559.166 178.88C559.606 178.88 559.966 178.827 560.246 178.72C560.54 178.6 560.773 178.46 560.946 178.3C561.133 178.127 561.273 177.947 561.366 177.76C561.46 177.573 561.526 177.4 561.566 177.24H563.306ZM568.505 175.54C568.465 176.313 568.385 176.987 568.265 177.56C568.158 178.133 567.991 178.613 567.765 179C567.551 179.373 567.258 179.653 566.885 179.84C566.525 180.027 566.071 180.12 565.525 180.12C565.245 180.12 565.038 180.1 564.905 180.06C564.825 180.047 564.758 180.027 564.705 180V178.36C564.758 178.387 564.825 178.407 564.905 178.42C565.038 178.46 565.238 178.48 565.505 178.48C565.931 178.48 566.238 178.253 566.425 177.8C566.611 177.333 566.738 176.587 566.805 175.56C566.831 174.987 566.865 174.347 566.905 173.64C566.958 172.933 566.998 172.267 567.025 171.64C567.065 170.907 567.098 170.18 567.125 169.46H574.265V180H572.465V170.96H568.745C568.731 171.28 568.711 171.633 568.685 172.02C568.671 172.393 568.651 172.787 568.625 173.2C568.611 173.6 568.591 174 568.565 174.4C568.538 174.8 568.518 175.18 568.505 175.54ZM579.821 173.02H581.801C583.121 173.02 584.127 173.34 584.821 173.98C585.527 174.607 585.881 175.427 585.881 176.44C585.881 177.493 585.527 178.353 584.821 179.02C584.127 179.673 583.121 180 581.801 180H578.021V169.46H579.821V173.02ZM579.821 174.52V178.5H581.581C582.021 178.5 582.394 178.447 582.701 178.34C583.021 178.22 583.281 178.067 583.481 177.88C583.681 177.68 583.821 177.46 583.901 177.22C583.994 176.967 584.041 176.707 584.041 176.44C584.041 175.88 583.847 175.42 583.461 175.06C583.074 174.7 582.447 174.52 581.581 174.52H579.821ZM588.353 169.46H590.153V173.92H594.933V169.46H596.733V180H594.933V175.42H590.153V180H588.353V169.46ZM604.261 180.26C603.488 180.26 602.808 180.127 602.221 179.86C601.634 179.593 601.141 179.22 600.741 178.74C600.354 178.247 600.061 177.66 599.861 176.98C599.661 176.3 599.561 175.547 599.561 174.72C599.561 173.907 599.668 173.16 599.881 172.48C600.108 171.8 600.421 171.22 600.821 170.74C601.234 170.247 601.734 169.867 602.321 169.6C602.908 169.333 603.568 169.2 604.301 169.2C605.088 169.2 605.774 169.333 606.361 169.6C606.948 169.867 607.434 170.247 607.821 170.74C608.221 171.22 608.514 171.8 608.701 172.48C608.901 173.16 609.001 173.907 609.001 174.72C609.001 175.547 608.894 176.3 608.681 176.98C608.468 177.66 608.154 178.247 607.741 178.74C607.328 179.22 606.828 179.593 606.241 179.86C605.654 180.127 604.994 180.26 604.261 180.26ZM604.281 170.58C603.321 170.58 602.601 170.947 602.121 171.68C601.654 172.413 601.421 173.427 601.421 174.72C601.421 176.013 601.648 177.027 602.101 177.76C602.554 178.493 603.294 178.86 604.321 178.86C605.308 178.86 606.021 178.493 606.461 177.76C606.914 177.027 607.141 176.013 607.141 174.72C607.141 173.427 606.914 172.413 606.461 171.68C606.021 170.947 605.294 170.58 604.281 170.58ZM618.244 172.64C618.217 172.373 618.144 172.12 618.024 171.88C617.917 171.627 617.764 171.407 617.564 171.22C617.364 171.02 617.117 170.867 616.824 170.76C616.544 170.64 616.217 170.58 615.844 170.58C615.364 170.58 614.944 170.68 614.584 170.88C614.224 171.08 613.924 171.36 613.684 171.72C613.444 172.08 613.257 172.513 613.124 173.02C613.004 173.527 612.944 174.087 612.944 174.7C612.944 175.313 612.991 175.873 613.084 176.38C613.191 176.887 613.357 177.327 613.584 177.7C613.811 178.06 614.104 178.34 614.464 178.54C614.824 178.74 615.271 178.84 615.804 178.84C616.297 178.84 616.704 178.76 617.024 178.6C617.357 178.44 617.617 178.24 617.804 178C618.004 177.76 618.144 177.513 618.224 177.26C618.317 176.993 618.371 176.76 618.384 176.56H620.064C619.997 177.173 619.844 177.713 619.604 178.18C619.364 178.633 619.057 179.013 618.684 179.32C618.311 179.627 617.877 179.853 617.384 180C616.891 180.16 616.357 180.24 615.784 180.24C615.024 180.24 614.351 180.113 613.764 179.86C613.191 179.607 612.704 179.247 612.304 178.78C611.904 178.3 611.604 177.727 611.404 177.06C611.204 176.38 611.104 175.62 611.104 174.78C611.104 173.98 611.211 173.24 611.424 172.56C611.637 171.867 611.944 171.273 612.344 170.78C612.757 170.287 613.251 169.9 613.824 169.62C614.411 169.34 615.077 169.2 615.824 169.2C616.344 169.2 616.844 169.267 617.324 169.4C617.817 169.52 618.251 169.72 618.624 170C619.011 170.267 619.324 170.62 619.564 171.06C619.817 171.5 619.964 172.027 620.004 172.64H618.244ZM624.687 170.96H621.287V169.46H629.887V170.96H626.487V180H624.687V170.96ZM638.961 169.46H640.841V180H639.061V171.68H639.021C638.941 171.867 638.855 172.06 638.761 172.26C638.681 172.433 638.581 172.633 638.461 172.86C638.341 173.087 638.208 173.32 638.061 173.56L634.041 180H632.161V169.46H633.941V177.78H633.981C634.061 177.593 634.148 177.4 634.241 177.2C634.321 177.027 634.421 176.833 634.541 176.62C634.661 176.393 634.795 176.153 634.941 175.9L638.961 169.46ZM469.117 199C469.117 198.44 469.224 197.92 469.437 197.44C469.664 196.947 469.977 196.52 470.377 196.16C470.79 195.787 471.284 195.493 471.857 195.28C472.444 195.067 473.09 194.96 473.797 194.96C474.517 194.96 475.164 195.067 475.737 195.28C476.31 195.493 476.804 195.787 477.217 196.16C477.63 196.52 477.944 196.947 478.157 197.44C478.384 197.92 478.497 198.44 478.497 199C478.497 199.453 478.424 199.873 478.277 200.26C478.144 200.633 477.964 200.967 477.737 201.26C477.51 201.54 477.25 201.787 476.957 202C476.677 202.2 476.384 202.347 476.077 202.44V202.48C476.397 202.56 476.724 202.687 477.057 202.86C477.39 203.033 477.697 203.267 477.977 203.56C478.257 203.84 478.484 204.193 478.657 204.62C478.83 205.033 478.917 205.52 478.917 206.08C478.917 206.68 478.797 207.24 478.557 207.76C478.317 208.267 477.97 208.713 477.517 209.1C477.077 209.473 476.537 209.773 475.897 210C475.27 210.213 474.57 210.32 473.797 210.32C473.01 210.32 472.304 210.213 471.677 210C471.05 209.787 470.517 209.493 470.077 209.12C469.637 208.733 469.297 208.28 469.057 207.76C468.817 207.24 468.697 206.68 468.697 206.08C468.697 205.52 468.784 205.033 468.957 204.62C469.144 204.193 469.37 203.84 469.637 203.56C469.917 203.267 470.224 203.033 470.557 202.86C470.89 202.687 471.21 202.56 471.517 202.48V202.44C471.21 202.347 470.91 202.2 470.617 202C470.337 201.787 470.084 201.533 469.857 201.24C469.63 200.947 469.45 200.613 469.317 200.24C469.184 199.867 469.117 199.453 469.117 199ZM473.797 196.4C473.41 196.4 473.044 196.453 472.697 196.56C472.364 196.667 472.07 196.833 471.817 197.06C471.564 197.287 471.357 197.573 471.197 197.92C471.05 198.253 470.977 198.647 470.977 199.1C470.977 199.553 471.05 199.947 471.197 200.28C471.357 200.613 471.564 200.893 471.817 201.12C472.084 201.347 472.384 201.52 472.717 201.64C473.064 201.747 473.424 201.8 473.797 201.8C474.157 201.8 474.504 201.747 474.837 201.64C475.184 201.52 475.484 201.347 475.737 201.12C476.004 200.893 476.217 200.613 476.377 200.28C476.537 199.947 476.617 199.553 476.617 199.1C476.617 198.647 476.537 198.253 476.377 197.92C476.23 197.573 476.024 197.287 475.757 197.06C475.504 196.833 475.204 196.667 474.857 196.56C474.524 196.453 474.17 196.4 473.797 196.4ZM473.797 208.88C474.237 208.88 474.657 208.827 475.057 208.72C475.457 208.613 475.804 208.447 476.097 208.22C476.404 207.98 476.644 207.687 476.817 207.34C476.99 206.98 477.077 206.553 477.077 206.06C477.077 205.567 476.984 205.147 476.797 204.8C476.624 204.44 476.384 204.147 476.077 203.92C475.784 203.68 475.437 203.507 475.037 203.4C474.65 203.28 474.237 203.22 473.797 203.22C473.37 203.22 472.964 203.28 472.577 203.4C472.19 203.507 471.844 203.68 471.537 203.92C471.244 204.147 471.004 204.44 470.817 204.8C470.644 205.147 470.557 205.567 470.557 206.06C470.557 206.553 470.644 206.98 470.817 207.34C471.004 207.687 471.244 207.98 471.537 208.22C471.844 208.447 472.19 208.613 472.577 208.72C472.964 208.827 473.37 208.88 473.797 208.88ZM481.223 199.72C481.223 198.973 481.343 198.307 481.583 197.72C481.837 197.12 482.177 196.62 482.603 196.22C483.03 195.807 483.537 195.493 484.123 195.28C484.71 195.067 485.337 194.96 486.003 194.96C486.817 194.96 487.51 195.08 488.083 195.32C488.657 195.547 489.13 195.853 489.503 196.24C489.877 196.613 490.15 197.047 490.323 197.54C490.497 198.02 490.583 198.507 490.583 199C490.583 199.507 490.523 199.973 490.403 200.4C490.297 200.813 490.11 201.233 489.843 201.66C489.59 202.073 489.257 202.513 488.843 202.98C488.43 203.433 487.917 203.953 487.303 204.54L483.283 208.38V208.4H490.683V210H480.843V208.62L485.923 203.58C486.337 203.153 486.71 202.76 487.043 202.4C487.39 202.027 487.683 201.667 487.923 201.32C488.163 200.973 488.35 200.627 488.483 200.28C488.617 199.92 488.683 199.527 488.683 199.1C488.683 198.34 488.443 197.713 487.963 197.22C487.497 196.713 486.843 196.46 486.003 196.46C485.617 196.46 485.243 196.52 484.883 196.64C484.537 196.76 484.23 196.953 483.963 197.22C483.697 197.473 483.483 197.807 483.323 198.22C483.177 198.633 483.103 199.133 483.103 199.72H481.223ZM501.138 205.12C501.138 205.64 501.198 206.127 501.318 206.58C501.451 207.033 501.644 207.427 501.898 207.76C502.151 208.093 502.464 208.36 502.838 208.56C503.211 208.747 503.651 208.84 504.158 208.84C505.104 208.84 505.804 208.48 506.258 207.76C506.724 207.027 506.958 205.967 506.958 204.58C506.958 204.02 506.911 203.5 506.818 203.02C506.724 202.54 506.571 202.127 506.358 201.78C506.144 201.42 505.851 201.14 505.478 200.94C505.118 200.74 504.671 200.64 504.138 200.64C503.671 200.64 503.251 200.733 502.878 200.92C502.518 201.093 502.204 201.34 501.938 201.66C501.684 201.967 501.484 202.327 501.338 202.74C501.204 203.14 501.138 203.56 501.138 204V205.12ZM499.398 199.46H501.138V201.22H501.178C501.484 200.66 501.918 200.187 502.478 199.8C503.051 199.4 503.738 199.2 504.538 199.2C505.098 199.2 505.631 199.293 506.138 199.48C506.658 199.667 507.111 199.973 507.498 200.4C507.884 200.813 508.191 201.367 508.418 202.06C508.658 202.74 508.778 203.58 508.778 204.58C508.778 205.54 508.658 206.38 508.418 207.1C508.191 207.807 507.878 208.393 507.478 208.86C507.091 209.327 506.631 209.68 506.098 209.92C505.578 210.147 505.018 210.26 504.418 210.26C504.031 210.26 503.664 210.207 503.318 210.1C502.984 210.007 502.678 209.88 502.398 209.72C502.118 209.547 501.878 209.353 501.678 209.14C501.478 208.927 501.331 208.7 501.238 208.46H501.198V213.76H499.398V199.46ZM518.139 203.68C518.126 203.24 518.073 202.833 517.979 202.46C517.886 202.073 517.733 201.74 517.519 201.46C517.319 201.18 517.053 200.96 516.719 200.8C516.399 200.64 516.013 200.56 515.559 200.56C514.719 200.56 514.066 200.86 513.599 201.46C513.133 202.06 512.846 202.84 512.739 203.8H518.139V203.68ZM519.839 207.24C519.653 208.16 519.186 208.893 518.439 209.44C517.706 209.987 516.773 210.26 515.639 210.26C514.839 210.26 514.139 210.127 513.539 209.86C512.939 209.58 512.439 209.193 512.039 208.7C511.653 208.207 511.359 207.627 511.159 206.96C510.973 206.293 510.879 205.567 510.879 204.78C510.879 204.007 510.979 203.28 511.179 202.6C511.393 201.92 511.699 201.327 512.099 200.82C512.499 200.313 512.986 199.92 513.559 199.64C514.146 199.347 514.819 199.2 515.579 199.2C516.366 199.2 517.039 199.34 517.599 199.62C518.159 199.9 518.613 200.28 518.959 200.76C519.319 201.227 519.579 201.767 519.739 202.38C519.899 202.993 519.979 203.633 519.979 204.3V205.22H512.719C512.773 206.313 513.033 207.2 513.499 207.88C513.979 208.547 514.713 208.88 515.699 208.88C516.139 208.88 516.499 208.827 516.779 208.72C517.073 208.6 517.306 208.46 517.479 208.3C517.666 208.127 517.806 207.947 517.899 207.76C517.993 207.573 518.059 207.4 518.099 207.24H519.839ZM522.816 199.46H529.696V200.96H524.616V210H522.816V199.46ZM538.971 199.46H540.851V210H539.071V201.68H539.031C538.951 201.867 538.864 202.06 538.771 202.26C538.691 202.433 538.591 202.633 538.471 202.86C538.351 203.087 538.218 203.32 538.071 203.56L534.051 210H532.171V199.46H533.951V207.78H533.991C534.071 207.593 534.158 207.4 534.251 207.2C534.331 207.027 534.431 206.833 534.551 206.62C534.671 206.393 534.804 206.153 534.951 205.9L538.971 199.46ZM548.372 210.26C547.599 210.26 546.919 210.127 546.332 209.86C545.746 209.593 545.252 209.22 544.852 208.74C544.466 208.247 544.172 207.66 543.972 206.98C543.772 206.3 543.672 205.547 543.672 204.72C543.672 203.907 543.779 203.16 543.992 202.48C544.219 201.8 544.532 201.22 544.932 200.74C545.346 200.247 545.846 199.867 546.432 199.6C547.019 199.333 547.679 199.2 548.412 199.2C549.199 199.2 549.886 199.333 550.472 199.6C551.059 199.867 551.546 200.247 551.932 200.74C552.332 201.22 552.626 201.8 552.812 202.48C553.012 203.16 553.112 203.907 553.112 204.72C553.112 205.547 553.006 206.3 552.792 206.98C552.579 207.66 552.266 208.247 551.852 208.74C551.439 209.22 550.939 209.593 550.352 209.86C549.766 210.127 549.106 210.26 548.372 210.26ZM548.392 200.58C547.432 200.58 546.712 200.947 546.232 201.68C545.766 202.413 545.532 203.427 545.532 204.72C545.532 206.013 545.759 207.027 546.212 207.76C546.666 208.493 547.406 208.86 548.432 208.86C549.419 208.86 550.132 208.493 550.572 207.76C551.026 207.027 551.252 206.013 551.252 204.72C551.252 203.427 551.026 202.413 550.572 201.68C550.132 200.947 549.406 200.58 548.392 200.58ZM555.96 199.46H557.76V203.92H562.54V199.46H564.34V210H562.54V205.42H557.76V210H555.96V199.46ZM571.869 210.26C571.095 210.26 570.415 210.127 569.829 209.86C569.242 209.593 568.749 209.22 568.349 208.74C567.962 208.247 567.669 207.66 567.469 206.98C567.269 206.3 567.169 205.547 567.169 204.72C567.169 203.907 567.275 203.16 567.489 202.48C567.715 201.8 568.029 201.22 568.429 200.74C568.842 200.247 569.342 199.867 569.929 199.6C570.515 199.333 571.175 199.2 571.909 199.2C572.695 199.2 573.382 199.333 573.969 199.6C574.555 199.867 575.042 200.247 575.429 200.74C575.829 201.22 576.122 201.8 576.309 202.48C576.509 203.16 576.609 203.907 576.609 204.72C576.609 205.547 576.502 206.3 576.289 206.98C576.075 207.66 575.762 208.247 575.349 208.74C574.935 209.22 574.435 209.593 573.849 209.86C573.262 210.127 572.602 210.26 571.869 210.26ZM571.889 200.58C570.929 200.58 570.209 200.947 569.729 201.68C569.262 202.413 569.029 203.427 569.029 204.72C569.029 206.013 569.255 207.027 569.709 207.76C570.162 208.493 570.902 208.86 571.929 208.86C572.915 208.86 573.629 208.493 574.069 207.76C574.522 207.027 574.749 206.013 574.749 204.72C574.749 203.427 574.522 202.413 574.069 201.68C573.629 200.947 572.902 200.58 571.889 200.58ZM579.456 199.46H583.856C584.923 199.46 585.75 199.693 586.336 200.16C586.936 200.613 587.236 201.253 587.236 202.08C587.236 202.72 587.083 203.24 586.776 203.64C586.483 204.04 586.076 204.313 585.556 204.46V204.5C586.21 204.607 586.743 204.873 587.156 205.3C587.583 205.727 587.796 206.267 587.796 206.92C587.796 207.52 587.683 208.02 587.456 208.42C587.243 208.807 586.95 209.12 586.576 209.36C586.216 209.6 585.79 209.767 585.296 209.86C584.803 209.953 584.276 210 583.716 210H579.456V199.46ZM581.216 200.9V203.78H583.676C583.903 203.78 584.123 203.753 584.336 203.7C584.563 203.647 584.756 203.56 584.916 203.44C585.09 203.32 585.223 203.167 585.316 202.98C585.423 202.78 585.476 202.54 585.476 202.26C585.476 201.767 585.323 201.42 585.016 201.22C584.71 201.007 584.316 200.9 583.836 200.9H581.216ZM581.216 205.24V208.56H583.776C584.443 208.56 584.976 208.44 585.376 208.2C585.79 207.947 585.996 207.507 585.996 206.88C585.996 206.267 585.79 205.84 585.376 205.6C584.963 205.36 584.396 205.24 583.676 205.24H581.216ZM598.294 204.16V210H596.434V194.7H601.034C601.767 194.7 602.454 194.793 603.094 194.98C603.747 195.153 604.307 195.433 604.774 195.82C605.24 196.193 605.607 196.68 605.874 197.28C606.154 197.867 606.294 198.573 606.294 199.4C606.294 200.213 606.154 200.92 605.874 201.52C605.607 202.107 605.234 202.6 604.754 203C604.274 203.387 603.7 203.68 603.034 203.88C602.38 204.067 601.66 204.16 600.874 204.16H598.294ZM600.874 202.66C601.994 202.66 602.854 202.393 603.454 201.86C604.067 201.313 604.374 200.493 604.374 199.4C604.374 198.253 604.067 197.433 603.454 196.94C602.854 196.447 602.014 196.2 600.934 196.2H598.294V202.66H600.874ZM614.642 207.86C613.722 207.86 612.869 207.747 612.082 207.52C611.296 207.293 610.609 206.947 610.022 206.48C609.449 206 608.996 205.407 608.662 204.7C608.329 203.993 608.162 203.16 608.162 202.2C608.162 201.227 608.329 200.387 608.662 199.68C608.996 198.973 609.449 198.393 610.022 197.94C610.609 197.487 611.296 197.153 612.082 196.94C612.869 196.713 613.716 196.6 614.622 196.6H615.962V194.3H617.822V196.6H619.162C620.069 196.6 620.916 196.713 621.702 196.94C622.489 197.153 623.169 197.487 623.742 197.94C624.329 198.393 624.789 198.973 625.122 199.68C625.456 200.387 625.622 201.227 625.622 202.2C625.622 203.16 625.456 203.993 625.122 204.7C624.789 205.407 624.329 206 623.742 206.48C623.169 206.947 622.489 207.293 621.702 207.52C620.916 207.747 620.062 207.86 619.142 207.86H617.822V210.4H615.962V207.86H614.642ZM619.062 206.36C620.596 206.36 621.749 206.02 622.522 205.34C623.309 204.66 623.702 203.613 623.702 202.2C623.702 201.44 623.596 200.8 623.382 200.28C623.182 199.76 622.882 199.34 622.482 199.02C622.096 198.7 621.616 198.467 621.042 198.32C620.469 198.173 619.809 198.1 619.062 198.1H617.822V206.36H619.062ZM615.962 198.1H614.722C613.976 198.1 613.316 198.173 612.742 198.32C612.169 198.467 611.682 198.7 611.282 199.02C610.896 199.34 610.596 199.76 610.382 200.28C610.182 200.8 610.082 201.44 610.082 202.2C610.082 203.613 610.469 204.66 611.242 205.34C612.029 206.02 613.189 206.36 614.722 206.36H615.962V198.1Z" fill="white"/>
<path d="M347.707 157.707C348.098 157.317 348.098 156.683 347.707 156.293L341.343 149.929C340.953 149.538 340.319 149.538 339.929 149.929C339.538 150.319 339.538 150.953 339.929 151.343L345.586 157L339.929 162.657C339.538 163.047 339.538 163.681 339.929 164.071C340.319 164.462 340.953 164.462 341.343 164.071L347.707 157.707ZM222 158L224.404 158L224.404 156L222 156L222 158ZM229.212 158L234.019 158L234.019 156L229.212 156L229.212 158ZM238.827 158L243.635 158L243.635 156L238.827 156L238.827 158ZM248.442 158L253.25 158L253.25 156L248.442 156L248.442 158ZM258.058 158L262.865 158L262.865 156L258.058 156L258.058 158ZM267.673 158L272.481 158L272.481 156L267.673 156L267.673 158ZM277.288 158L282.096 158L282.096 156L277.288 156L277.288 158ZM286.904 158L291.712 158L291.712 156L286.904 156L286.904 158ZM296.519 158L301.327 158L301.327 156L296.519 156L296.519 158ZM306.135 158L310.942 158L310.942 156L306.135 156L306.135 158ZM315.75 158L320.558 158L320.558 156L315.75 156L315.75 158ZM325.365 158L330.173 158L330.173 156L325.365 156L325.365 158ZM334.981 158L339.788 158L339.788 156L334.981 156L334.981 158ZM344.596 158L347 158L347 156L344.596 156L344.596 158Z" fill="white"/>
<path d="M744.293 156.293C743.902 156.683 743.902 157.317 744.293 157.707L750.657 164.071C751.047 164.462 751.681 164.462 752.071 164.071C752.462 163.681 752.462 163.047 752.071 162.657L746.414 157L752.071 151.343C752.462 150.953 752.462 150.319 752.071 149.929C751.681 149.538 751.047 149.538 750.657 149.929L744.293 156.293ZM870 156H867.596V158H870V156ZM862.788 156H857.981V158H862.788V156ZM853.173 156H848.365V158H853.173V156ZM843.558 156H838.75V158H843.558V156ZM833.942 156H829.135V158H833.942V156ZM824.327 156H819.519V158H824.327V156ZM814.712 156H809.904V158H814.712V156ZM805.096 156H800.288V158H805.096V156ZM795.481 156H790.673V158H795.481V156ZM785.865 156H781.058V158H785.865V156ZM776.25 156H771.442V158H776.25V156ZM766.635 156H761.827V158H766.635V156ZM757.019 156L752.212 156V158L757.019 158V156ZM747.404 156H745V158H747.404V156Z" fill="white"/>
</svg>
