<svg width="140" height="140" viewBox="0 0 140 140" fill="none" xmlns="http://www.w3.org/2000/svg">
<path d="M70 140C108.66 140 140 108.66 140 70C140 31.3401 108.66 0 70 0C31.3401 0 0 31.3401 0 70C0 108.66 31.3401 140 70 140Z" fill="#0D2B40"/>
<path d="M47.6998 73.5L66.3998 82.1L97.2998 79.9L121.8 87.2L97.8998 123.4L76.7998 115.4L48.3998 118L23.2998 109.8L47.6998 73.5Z" fill="white"/>
<path d="M93.1998 33.9C93.1998 21.1 82.7998 10.7 69.9998 10.7C57.1998 10.7 46.7998 21.1 46.7998 33.9C46.7998 44.1 53.3998 52.8 62.5998 55.9V96.6L69.9998 101.8L74.6998 98.3V89.7L72.5998 88.1L77.2998 84.7L73.2998 81.3L77.2998 78.6V73.0999L73.4998 69.6999L77.2998 66.5999V55.9C86.4998 52.9 93.1998 44.2 93.1998 33.9Z" fill="#35A2B7"/>
<path d="M70.8 33.7999C75.1078 33.7999 78.6 30.3078 78.6 26C78.6 21.6921 75.1078 18.2 70.8 18.2C66.4922 18.2 63 21.6921 63 26C63 30.3078 66.4922 33.7999 70.8 33.7999Z" fill="white"/>
</svg>
