<svg width="79" height="68" viewBox="0 0 79 68" fill="none" xmlns="http://www.w3.org/2000/svg">
<g clip-path="url(#clip0)">
<path d="M20.9678 19.1519L13.9785 0H60.9973L54.8552 19.1519H20.9678Z" fill="#35A2B7"/>
<path d="M39.3936 67.5696L78.5759 19.1519H54.8547L39.3936 67.5696Z" fill="#35A2B7"/>
<path d="M61.4211 0H60.9975H44.2656L54.8554 19.1519H78.5766L79.0002 18.7215L61.4211 0Z" fill="white"/>
<path d="M54.8561 19.1519H20.9688L39.1832 67.7848L39.395 67.5696L54.8561 19.1519Z" fill="#001520"/>
<path d="M13.9786 0L13.7668 0.21519L0 18.7215L0.211796 19.1519H20.9678L31.5576 0H13.9786Z" fill="white"/>
<path d="M0.211914 19.1519L38.9706 68L39.1824 67.7848L20.9679 19.1519H0.211914Z" fill="#35A2B7"/>
</g>
<defs>
<clipPath id="clip0">
<rect width="79" height="68" fill="white"/>
</clipPath>
</defs>
</svg>
