<svg width="75" height="75" viewBox="0 0 75 75" fill="none" xmlns="http://www.w3.org/2000/svg">
<path d="M67.7551 74.787L41.7607 48.1535L48.3659 41.7615L74.7863 68.8211L68.6073 74.787C68.6073 75.0001 67.9681 75.0001 67.7551 74.787Z" fill="white"/>
<path d="M29.4034 58.8068C45.6425 58.8068 58.8068 45.6425 58.8068 29.4034C58.8068 13.1644 45.6425 0 29.4034 0C13.1644 0 0 13.1644 0 29.4034C0 45.6425 13.1644 58.8068 29.4034 58.8068Z" fill="#35A2B7"/>
<path d="M29.4038 45.1703C38.1117 45.1703 45.1708 38.1112 45.1708 29.4033C45.1708 20.6954 38.1117 13.6362 29.4038 13.6362C20.6959 13.6362 13.6367 20.6954 13.6367 29.4033C13.6367 38.1112 20.6959 45.1703 29.4038 45.1703Z" fill="#001520"/>
</svg>
