<svg width="75" height="75" viewBox="0 0 75 75" fill="none" xmlns="http://www.w3.org/2000/svg">
<path d="M37.5 75C58.2107 75 75 58.2107 75 37.5C75 16.7893 58.2107 0 37.5 0C16.7893 0 0 16.7893 0 37.5C0 58.2107 16.7893 75 37.5 75Z" fill="#0D2B40"/>
<path d="M57.2318 17.0898H17.5977V57.9096H57.2318V17.0898Z" fill="#4A92A5"/>
<path d="M52.6597 27.7612H22.1719V52.9984H52.6597V27.7612Z" fill="white"/>
<path d="M26.9375 23.3033V15.3426H22.5337V23.3033H26.9375Z" fill="white"/>
<path d="M39.6875 23.2557V15.295H35.2837V23.2557H39.6875Z" fill="white"/>
<path d="M52.4375 23.2089V15.2482H48.0337V23.2089H52.4375Z" fill="white"/>
<path d="M37.4149 29.6236L40.8024 36.2293L48.0856 37.2456L42.8349 42.4962L44.0206 49.9488L37.4149 46.3919L30.8092 49.9488L32.1642 42.4962L26.7441 37.2456L34.1967 36.2293L37.4149 29.6236Z" fill="#4A92A5"/>
</svg>
