<svg width="75" height="75" viewBox="0 0 75 75" fill="none" xmlns="http://www.w3.org/2000/svg">
<path d="M37.5 75C58.2107 75 75 58.2107 75 37.5C75 16.7893 58.2107 0 37.5 0C16.7893 0 0 16.7893 0 37.5C0 58.2107 16.7893 75 37.5 75Z" fill="#0D2B40"/>
<path d="M58.9265 41.4804V33.0116H53.1677C52.829 31.6566 52.1515 30.4709 51.4739 29.2853L55.7084 25.0509L49.7802 19.1227L45.5458 23.3571C44.3601 22.6796 43.0051 22.0021 41.8195 21.6633V15.9045H33.3506V21.494C31.8262 21.8327 30.4712 22.3409 29.1162 23.0184L25.3899 19.2921L19.4618 25.2203L22.8493 28.6078C22.0024 29.9628 21.1555 31.4872 20.8168 33.0116H16.0742V41.4804H20.478C20.8168 43.1742 21.4943 44.868 22.3412 46.3923L19.2924 49.4411L25.2206 55.3693L28.2693 52.3205C29.7937 53.1674 31.4875 53.8449 33.1813 54.1837V58.7568H41.6501V54.0143C43.1745 53.5062 44.6989 52.8287 46.0539 51.9818L49.4414 55.3693L55.3696 49.4411L51.9821 45.7148C52.6596 44.3598 53.1677 43.0048 53.5065 41.4804H58.9265Z" fill="#4A92A5"/>
<path d="M36.9089 47.4085C42.1474 47.4085 46.394 43.1619 46.394 37.9234C46.394 32.6849 42.1474 28.4383 36.9089 28.4383C31.6704 28.4383 27.4238 32.6849 27.4238 37.9234C27.4238 43.1619 31.6704 47.4085 36.9089 47.4085Z" fill="white"/>
</svg>
