<svg width="75" height="75" viewBox="0 0 75 75" fill="none" xmlns="http://www.w3.org/2000/svg">
<path d="M37.5 75C58.2107 75 75 58.2107 75 37.5C75 16.7893 58.2107 0 37.5 0C16.7893 0 0 16.7893 0 37.5C0 58.2107 16.7893 75 37.5 75Z" fill="#0D2B40"/>
<path d="M56.2179 34.0277H18.9551V26.2364C18.9551 23.1876 21.4957 20.647 24.5445 20.647H50.6285C53.6773 20.647 56.2179 23.1876 56.2179 26.2364V34.0277Z" fill="#4A92A5"/>
<path d="M32.8434 36.7387H25.7296C24.2052 36.7387 23.0195 35.5531 23.0195 34.0287V26.9149C23.0195 25.3905 24.2052 24.2048 25.7296 24.2048H32.8434C34.3678 24.2048 35.5534 25.3905 35.5534 26.9149V34.0287C35.5534 35.3837 34.3678 36.7387 32.8434 36.7387Z" fill="white"/>
<path d="M49.2731 36.7382H42.1592C40.6349 36.7382 39.4492 35.5526 39.4492 34.0282V26.9144C39.4492 25.39 40.6349 24.2043 42.1592 24.2043H49.2731C50.7975 24.2043 51.9831 25.39 51.9831 26.9144V34.0282C51.9831 35.3832 50.7975 36.7382 49.2731 36.7382Z" fill="white"/>
<path d="M61.6376 44.6989H13.3652V37.4157C13.3652 34.3669 15.9059 31.8262 18.9547 31.8262H56.0482C59.0969 31.8262 61.6376 34.3669 61.6376 37.4157V44.6989Z" fill="#4A92A5"/>
<path d="M18.4465 44.6987H13.3652V51.4738H18.4465V44.6987Z" fill="white"/>
<path d="M61.6379 44.6987H56.5566V51.4738H61.6379V44.6987Z" fill="white"/>
</svg>
