<svg width="75" height="75" viewBox="0 0 75 75" fill="none" xmlns="http://www.w3.org/2000/svg">
<path d="M37.5 75C58.2107 75 75 58.2107 75 37.5C75 16.7893 58.2107 0 37.5 0C16.7893 0 0 16.7893 0 37.5C0 58.2107 16.7893 75 37.5 75Z" fill="#0D2B40"/>
<path d="M26.5746 20.9858C26.2359 18.7839 24.3727 17.2595 22.1708 17.2595C19.6302 17.2595 17.5977 19.292 17.5977 21.8327C17.5977 24.3733 19.6302 26.4059 22.1708 26.4059H33.8578V20.9858H26.5746Z" fill="#4A92A5"/>
<path d="M22.002 17.0903H47.7472C50.6266 17.0903 52.9979 19.4615 52.9979 22.3409V58.0794H30.8095C27.9301 58.0794 25.5589 55.7081 25.5589 52.8287C25.5589 52.8287 25.5589 29.6241 25.5589 21.8328C25.7282 20.4778 25.8976 17.0903 22.002 17.0903Z" fill="white"/>
<path d="M33.8584 52.998H61.4668V53.1674C61.4668 55.8775 59.2649 58.2487 56.3855 58.2487H29.624C29.624 58.0793 33.8584 58.0793 33.8584 52.998Z" fill="#4A92A5"/>
<path d="M49.9492 25.2205H29.624V28.9468H49.9492V25.2205Z" fill="#4A92A5"/>
<path d="M49.9492 33.0111H29.624V36.7373H49.9492V33.0111Z" fill="#4A92A5"/>
<path d="M43.1742 40.8024H29.624V44.5287H43.1742V40.8024Z" fill="#4A92A5"/>
</svg>
