<svg width="35" height="35" viewBox="0 0 35 35" fill="none" xmlns="http://www.w3.org/2000/svg">
<path d="M9.52953 8.00014H24.9495C25.3841 7.99617 25.8151 8.07833 26.2178 8.2419C26.6204 8.40546 26.9866 8.64718 27.2953 8.95308C27.604 9.25898 27.849 9.62299 28.0163 10.0241C28.1835 10.4253 28.2695 10.8555 28.2695 11.2901V15.8501H6.26953V11.2901C6.2695 10.4227 6.612 9.5904 7.22252 8.97426C7.83304 8.35812 8.66218 8.00805 9.52953 8.00014V8.00014Z" fill="#4A92A5"/>
<path d="M14.4884 9.98047H10.2684C9.37374 9.98047 8.64844 10.7058 8.64844 11.6005V15.7605C8.64844 16.6552 9.37374 17.3805 10.2684 17.3805H14.4884C15.3831 17.3805 16.1084 16.6552 16.1084 15.7605V11.6005C16.1084 10.7058 15.3831 9.98047 14.4884 9.98047Z" fill="white"/>
<path d="M24.2091 9.98047H19.9891C19.0944 9.98047 18.3691 10.7058 18.3691 11.6005V15.7605C18.3691 16.6552 19.0944 17.3805 19.9891 17.3805H24.2091C25.1038 17.3805 25.8291 16.6552 25.8291 15.7605V11.6005C25.8291 10.7058 25.1038 9.98047 24.2091 9.98047Z" fill="white"/>
<path d="M6.27 14.6104H28.17C29.0426 14.6104 29.8794 14.957 30.4964 15.574C31.1134 16.191 31.46 17.0278 31.46 17.9003V22.1703H3V17.9003C2.99998 17.0312 3.34386 16.1974 3.95654 15.581C4.56921 14.9646 5.40091 14.6156 6.27 14.6104V14.6104Z" fill="#4A92A5"/>
<path d="M5.96 22.1704H3V26.1304H5.96V22.1704Z" fill="white"/>
<path d="M31.4795 22.1704H28.5195V26.1304H31.4795V22.1704Z" fill="white"/>
</svg>
