<svg width="35" height="35" viewBox="0 0 35 35" fill="none" xmlns="http://www.w3.org/2000/svg">
<path d="M10.3185 8.22024C10.229 7.71784 9.99788 7.25145 9.65239 6.87588C9.3069 6.5003 8.86138 6.23116 8.36818 6.10012C7.87498 5.96908 7.35461 5.98157 6.86827 6.13613C6.38193 6.2907 5.94985 6.58089 5.62279 6.97262C5.29573 7.36435 5.08729 7.84132 5.02202 8.34744C4.95674 8.85356 5.03732 9.36778 5.25429 9.82967C5.47125 10.2916 5.81557 10.682 6.24678 10.9549C6.67799 11.2278 7.17815 11.3719 7.68846 11.3703H14.5685V8.22024H10.3185Z" fill="#4A92A5"/>
<path d="M7.6582 6H22.8782C23.6924 6 24.4733 6.32343 25.049 6.89917C25.6247 7.47491 25.9482 8.25573 25.9482 9.06995V30.2H12.8782C12.4755 30.2013 12.0765 30.1231 11.7041 29.9699C11.3317 29.8167 10.9932 29.5915 10.708 29.3073C10.4228 29.023 10.1965 28.6852 10.0421 28.3133C9.88768 27.9414 9.80819 27.5426 9.8082 27.14V8.87994C9.8082 7.96994 9.9582 6 7.6582 6Z" fill="white"/>
<path d="M14.6479 27.1401H30.8979V27.2302C30.8979 28.0258 30.5819 28.7889 30.0193 29.3515C29.4567 29.9141 28.6936 30.2302 27.8979 30.2302H12.168C12.168 30.2302 14.6479 30.2001 14.6479 27.1401Z" fill="#4A92A5"/>
<path d="M24.1479 10.75H12.168V12.99H24.1479V10.75Z" fill="#4A92A5"/>
<path d="M24.1479 15.3604H12.168V17.6003H24.1479V15.3604Z" fill="#4A92A5"/>
<path d="M20.198 19.96H12.168V22.2H20.198V19.96Z" fill="#4A92A5"/>
</svg>
