<svg width="35" height="35" viewBox="0 0 35 35" fill="none" xmlns="http://www.w3.org/2000/svg">
<path d="M30.36 20.19V15.19H26.94C26.6983 14.412 26.3625 13.6665 25.94 12.97L28.4 10.51L24.87 6.97003L22.4 9.43005C21.7039 9.00674 20.9583 8.67087 20.18 8.43005V5H15.18V8.26001C14.3199 8.44748 13.4891 8.75024 12.71 9.16003L10.51 6.97003L6.97998 10.51L8.97998 12.51C8.44684 13.3259 8.03586 14.2153 7.76001 15.15H5V20.15H7.59003C7.82098 21.1657 8.20535 22.1402 8.72998 23.04L6.94 24.84L10.47 28.3701L12.27 26.58C13.1681 27.1083 14.1432 27.4929 15.16 27.72V30.32H20.16V27.56C21.0935 27.2761 21.9822 26.8621 22.8 26.33L24.8 28.33L28.33 24.8L26.11 22.58C26.5214 21.8016 26.8242 20.9706 27.01 20.11L30.36 20.19Z" fill="#4A92A5"/>
<path d="M17.3695 23.6296C20.4623 23.6296 22.9695 21.1225 22.9695 18.0297C22.9695 14.9369 20.4623 12.4297 17.3695 12.4297C14.2767 12.4297 11.7695 14.9369 11.7695 18.0297C11.7695 21.1225 14.2767 23.6296 17.3695 23.6296Z" fill="white"/>
</svg>
