<svg width="100" height="100" viewBox="0 0 100 100" fill="none" xmlns="http://www.w3.org/2000/svg">
<path d="M50 100C77.6142 100 100 77.6142 100 50C100 22.3858 77.6142 0 50 0C22.3858 0 0 22.3858 0 50C0 77.6142 22.3858 100 50 100Z" fill="#0D2B40"/>
<path d="M35.4322 27.9811C34.9805 25.0452 32.4963 23.0127 29.5605 23.0127C26.1729 23.0127 23.4629 25.7227 23.4629 29.1103C23.4629 32.4978 26.1729 35.2078 29.5605 35.2078H45.1431V27.9811H35.4322Z" fill="#4A92A5"/>
<path d="M29.3359 22.787H63.6629C67.5021 22.787 70.6638 25.9487 70.6638 29.7879V77.4392H41.0794C37.2402 77.4392 34.0785 74.2775 34.0785 70.4383C34.0785 70.4383 34.0785 39.4988 34.0785 29.1104C34.3043 27.3037 34.5302 22.787 29.3359 22.787Z" fill="white"/>
<path d="M45.1439 70.6641H81.9551V70.8899C81.9551 74.5033 79.0193 77.665 75.1801 77.665H39.498C39.498 77.4391 45.1439 77.4391 45.1439 70.6641Z" fill="#4A92A5"/>
<path d="M66.5983 33.6274H39.498V38.5958H66.5983V33.6274Z" fill="#4A92A5"/>
<path d="M66.5983 44.0148H39.498V48.9832H66.5983V44.0148Z" fill="#4A92A5"/>
<path d="M57.5649 54.4032H39.498V59.3716H57.5649V54.4032Z" fill="#4A92A5"/>
</svg>
