<svg width="100" height="100" viewBox="0 0 100 100" fill="none" xmlns="http://www.w3.org/2000/svg">
<path d="M50 100C77.6142 100 100 77.6142 100 50C100 22.3858 77.6142 0 50 0C22.3858 0 0 22.3858 0 50C0 77.6142 22.3858 100 50 100Z" fill="#0D2B40"/>
<path d="M76.3084 22.7864H23.4629V77.2128H76.3084V22.7864Z" fill="#4A92A5"/>
<path d="M70.2129 37.0149H29.5625V70.6644H70.2129V37.0149Z" fill="white"/>
<path d="M35.916 31.0711V20.4568H30.0443V31.0711H35.916Z" fill="white"/>
<path d="M52.916 31.0076V20.3933H47.0443V31.0076H52.916Z" fill="white"/>
<path d="M69.918 30.9452V20.3309H64.0462V30.9452H69.918Z" fill="white"/>
<path d="M49.8878 39.4982L54.4045 48.3058L64.1154 49.6608L57.1145 56.6617L58.6954 66.5984L49.8878 61.8559L41.0802 66.5984L42.8869 56.6617L35.6602 49.6608L45.5969 48.3058L49.8878 39.4982Z" fill="#4A92A5"/>
</svg>
