<svg width="100" height="100" viewBox="0 0 100 100" fill="none" xmlns="http://www.w3.org/2000/svg">
<path d="M50 100C77.6142 100 100 77.6142 100 50C100 22.3858 77.6142 0 50 0C22.3858 0 0 22.3858 0 50C0 77.6142 22.3858 100 50 100Z" fill="#0D2B40"/>
<path d="M78.568 55.3072V44.0154H70.8896C70.438 42.2088 69.5346 40.6279 68.6313 39.0471L74.2772 33.4012L66.3729 25.4969L60.727 31.1428C59.1462 30.2395 57.3395 29.3361 55.7586 28.8845V21.2061H44.4669V28.6586C42.4343 29.1103 40.6277 29.7878 38.821 30.6911L33.8526 25.7228L25.9484 33.627L30.4651 38.1437C29.3359 39.9504 28.2067 41.9829 27.755 44.0154H21.4316V55.3072H27.3034C27.755 57.5656 28.6584 59.8239 29.7876 61.8565L25.7225 65.9215L33.6268 73.8257L37.6918 69.7607C39.7243 70.8899 41.9827 71.7932 44.241 72.2449V78.3425H55.5328V72.0191C57.5653 71.3416 59.5979 70.4382 61.4045 69.309L65.9212 73.8257L73.8255 65.9215L69.3088 60.9531C70.2121 59.1464 70.8896 57.3397 71.3413 55.3072H78.568Z" fill="#4A92A5"/>
<path d="M49.2112 63.2113C56.1959 63.2113 61.858 57.5492 61.858 50.5645C61.858 43.5799 56.1959 37.9177 49.2112 37.9177C42.2266 37.9177 36.5645 43.5799 36.5645 50.5645C36.5645 57.5492 42.2266 63.2113 49.2112 63.2113Z" fill="white"/>
</svg>
