<svg width="100" height="100" viewBox="0 0 100 100" fill="none" xmlns="http://www.w3.org/2000/svg">
<path d="M50 100C77.6142 100 100 77.6142 100 50C100 22.3858 77.6142 0 50 0C22.3858 0 0 22.3858 0 50C0 77.6142 22.3858 100 50 100Z" fill="#0D2B40"/>
<path d="M74.9573 45.3703H25.2734V34.9819C25.2734 30.9168 28.661 27.5293 32.726 27.5293H67.5047C71.5697 27.5293 74.9573 30.9168 74.9573 34.9819V45.3703Z" fill="#4A92A5"/>
<path d="M43.7918 48.9848H34.3067C32.2742 48.9848 30.6934 47.4039 30.6934 45.3714V35.8863C30.6934 33.8538 32.2742 32.2729 34.3067 32.2729H43.7918C45.8243 32.2729 47.4052 33.8538 47.4052 35.8863V45.3714C47.4052 47.1781 45.8243 48.9848 43.7918 48.9848Z" fill="white"/>
<path d="M65.6981 48.9843H56.213C54.1805 48.9843 52.5996 47.4034 52.5996 45.3709V35.8858C52.5996 33.8533 54.1805 32.2725 56.213 32.2725H65.6981C67.7306 32.2725 69.3114 33.8533 69.3114 35.8858V45.3709C69.3114 47.1776 67.7306 48.9843 65.6981 48.9843Z" fill="white"/>
<path d="M82.1834 59.5986H17.8203V49.8876C17.8203 45.8226 21.2078 42.4351 25.2729 42.4351H74.7309C78.7959 42.4351 82.1834 45.8226 82.1834 49.8876V59.5986Z" fill="#4A92A5"/>
<path d="M24.5954 59.5983H17.8203V68.6317H24.5954V59.5983Z" fill="white"/>
<path d="M82.1833 59.5983H75.4082V68.6317H82.1833V59.5983Z" fill="white"/>
</svg>
