<?xml version="1.0" encoding="utf-8"?>
<!-- Generator: Adobe Illustrator 25.0.0, SVG Export Plug-In . SVG Version: 6.00 Build 0)  -->
<svg version="1.1" id="Layer_1" xmlns:v="https://vecta.io/nano"
	 xmlns="http://www.w3.org/2000/svg" xmlns:xlink="http://www.w3.org/1999/xlink" x="0px" y="0px" viewBox="0 0 800 365"
	 style="enable-background:new 0 0 800 365;" xml:space="preserve">
<style type="text/css">

	.st0{fill:#D9D9D9;}
	.st1{fill:none;stroke:#D9D9D9;stroke-width:2;stroke-linecap:square;stroke-linejoin:round;stroke-miterlimit:10;}
	
		.st2{clip-path:url(#SVGID_2_);fill:none;stroke:#D9D9D9;stroke-width:2;stroke-linecap:square;stroke-linejoin:round;stroke-miterlimit:10;}
	.st3{fill:none;stroke:#D9D9D9;stroke-width:2;stroke-miterlimit:10;}
	
		.st4{clip-path:url(#SVGID_4_);fill:none;stroke:#D9D9D9;stroke-width:2;stroke-linecap:square;stroke-linejoin:round;stroke-miterlimit:10;}
	
		.st5{clip-path:url(#SVGID_6_);fill:none;stroke:#D9D9D9;stroke-width:2;stroke-linecap:square;stroke-linejoin:round;stroke-miterlimit:10;}
	
		.st6{clip-path:url(#SVGID_8_);fill:none;stroke:#D9D9D9;stroke-width:2;stroke-linecap:square;stroke-linejoin:round;stroke-miterlimit:10;}
	
		.st7{clip-path:url(#SVGID_10_);fill:none;stroke:#D9D9D9;stroke-width:2;stroke-linecap:square;stroke-linejoin:round;stroke-miterlimit:10;}
	
		.st8{clip-path:url(#SVGID_12_);fill:none;stroke:#D9D9D9;stroke-width:2;stroke-linecap:square;stroke-linejoin:round;stroke-miterlimit:10;}
	
		.st9{clip-path:url(#SVGID_14_);fill:none;stroke:#D9D9D9;stroke-width:2;stroke-linecap:square;stroke-linejoin:round;stroke-miterlimit:10;}
	.st10{fill:#FFFFFF;stroke:#D9D9D9;stroke-width:2;stroke-miterlimit:10;}
	
		.st11{clip-path:url(#SVGID_16_);fill:none;stroke:#D9D9D9;stroke-width:2;stroke-linecap:square;stroke-linejoin:round;stroke-miterlimit:10;}
	
		.st12{clip-path:url(#SVGID_18_);fill:none;stroke:#D9D9D9;stroke-width:2;stroke-linecap:square;stroke-linejoin:round;stroke-miterlimit:10;}
	
		.st13{clip-path:url(#SVGID_20_);fill:none;stroke:#D9D9D9;stroke-width:2;stroke-linecap:square;stroke-linejoin:round;stroke-miterlimit:10;}
	
		.st14{clip-path:url(#SVGID_22_);fill:none;stroke:#D9D9D9;stroke-width:2;stroke-linecap:square;stroke-linejoin:round;stroke-miterlimit:10;}
	
		.st15{clip-path:url(#SVGID_24_);fill:none;stroke:#D9D9D9;stroke-width:2;stroke-linecap:square;stroke-linejoin:round;stroke-miterlimit:10;}
	
		.st16{clip-path:url(#SVGID_26_);fill:none;stroke:#D9D9D9;stroke-width:2;stroke-linecap:square;stroke-linejoin:round;stroke-miterlimit:10;}
	
		.st17{clip-path:url(#SVGID_28_);fill:none;stroke:#D9D9D9;stroke-width:2;stroke-linecap:square;stroke-linejoin:round;stroke-miterlimit:10;}
	.st18{fill:#0D2B40;}
	.st19{fill:#FFFFFF;}
	.st20{fill:#4A92A5;}
	.st21{font-family:Atlas Grotesk,Helvetica,Arial,sans-serif;}
	.st22{font-size:12.859px;}
	.st23{opacity:0.7;fill:#4A92A5;enable-background:new    ;}
	.st24{opacity:0.7;fill:#5E88C1;enable-background:new    ;}
	.st25{opacity:0.7;fill:#ED715D;enable-background:new    ;}
	.st26{fill:#FFFFFF;stroke:#D9D9D9;stroke-miterlimit:10;}
	.st27{font-size:13px;}
	.st28{fill:#ED715D;}
	.st29{fill:#5E88C1;}
</style>
<path class="st0" d="M-0.5,0.1h800v365h-800V0.1z"/>
<g>
	<path class="st1" d="M200.3,183.4V288"/>
</g>
<g>
	<g>
		<g>
			<defs>
				<path id="SVGID_1_" d="M600.2,183L600.2,183 M705.2,183c0-13.8-2.7-27.4-8-40.2c-5.3-12.7-13-24.3-22.8-34.1
					c-9.8-9.7-21.3-17.5-34.1-22.8c-12.7-5.3-26.4-8-40.2-8s-27.4,2.7-40.2,8c-12.7,5.3-24.3,13-34.1,22.8
					c-9.7,9.8-17.5,21.3-22.8,34.1c-5.3,12.7-8,26.4-8,40.2s2.7,27.4,8,40.2c5.3,12.7,13,24.3,22.8,34.1
					c9.8,9.7,21.3,17.5,34.1,22.8c12.7,5.3,26.4,8,40.2,8s27.4-2.7,40.2-8s24.3-13,34.1-22.8c9.7-9.8,17.5-21.3,22.8-34.1
					C702.4,210.4,705.2,196.8,705.2,183"/>
			</defs>
			<clipPath id="SVGID_2_">
				<use xlink:href="#SVGID_1_"  style="overflow:visible;"/>
			</clipPath>
			<path class="st2" d="M600.2,183V78"/>
		</g>
	</g>
	<g>
		<path id="A" class="st3" d="M600.2,183L600.2,183 M705.2,183c0-13.8-2.7-27.4-8-40.2c-5.3-12.7-13-24.3-22.8-34.1
			c-9.8-9.7-21.3-17.5-34.1-22.8c-12.7-5.3-26.4-8-40.2-8s-27.4,2.7-40.2,8c-12.7,5.3-24.3,13-34.1,22.8
			c-9.7,9.8-17.5,21.3-22.8,34.1c-5.3,12.7-8,26.4-8,40.2s2.7,27.4,8,40.2c5.3,12.7,13,24.3,22.8,34.1c9.8,9.7,21.3,17.5,34.1,22.8
			c12.7,5.3,26.4,8,40.2,8s27.4-2.7,40.2-8s24.3-13,34.1-22.8c9.7-9.8,17.5-21.3,22.8-34.1C702.4,210.4,705.2,196.8,705.2,183"/>
	</g>
</g>
<g>
	<g>
		<g>
			<defs>
				<path id="SVGID_3_" d="M600.2,183L600.2,183 M705.2,183c0-13.8-2.7-27.4-8-40.2c-5.3-12.7-13-24.3-22.8-34.1
					c-9.8-9.7-21.3-17.5-34.1-22.8c-12.7-5.3-26.4-8-40.2-8s-27.4,2.7-40.2,8c-12.7,5.3-24.3,13-34.1,22.8
					c-9.7,9.8-17.5,21.3-22.8,34.1c-5.3,12.7-8,26.4-8,40.2s2.7,27.4,8,40.2c5.3,12.7,13,24.3,22.8,34.1
					c9.8,9.7,21.3,17.5,34.1,22.8c12.7,5.3,26.4,8,40.2,8s27.4-2.7,40.2-8s24.3-13,34.1-22.8c9.7-9.8,17.5-21.3,22.8-34.1
					C702.4,210.4,705.2,196.8,705.2,183"/>
			</defs>
			<clipPath id="SVGID_4_">
				<use xlink:href="#SVGID_3_"  style="overflow:visible;"/>
			</clipPath>
			<path class="st4" d="M600.2,183l90.9-52.5"/>
		</g>
	</g>
	<g>
		<path id="N" class="st3" d="M600.2,183L600.2,183 M705.2,183c0-13.8-2.7-27.4-8-40.2c-5.3-12.7-13-24.3-22.8-34.1
			c-9.8-9.7-21.3-17.5-34.1-22.8c-12.7-5.3-26.4-8-40.2-8s-27.4,2.7-40.2,8c-12.7,5.3-24.3,13-34.1,22.8
			c-9.7,9.8-17.5,21.3-22.8,34.1c-5.3,12.7-8,26.4-8,40.2s2.7,27.4,8,40.2c5.3,12.7,13,24.3,22.8,34.1c9.8,9.7,21.3,17.5,34.1,22.8
			c12.7,5.3,26.4,8,40.2,8s27.4-2.7,40.2-8s24.3-13,34.1-22.8c9.7-9.8,17.5-21.3,22.8-34.1C702.4,210.4,705.2,196.8,705.2,183"/>
	</g>
</g>
<g>
	<g>
		<g>
			<defs>
				<path id="SVGID_5_" d="M600.2,183L600.2,183 M705.2,183c0-13.8-2.7-27.4-8-40.2c-5.3-12.7-13-24.3-22.8-34.1
					c-9.8-9.7-21.3-17.5-34.1-22.8c-12.7-5.3-26.4-8-40.2-8s-27.4,2.7-40.2,8c-12.7,5.3-24.3,13-34.1,22.8
					c-9.7,9.8-17.5,21.3-22.8,34.1c-5.3,12.7-8,26.4-8,40.2s2.7,27.4,8,40.2c5.3,12.7,13,24.3,22.8,34.1
					c9.8,9.7,21.3,17.5,34.1,22.8c12.7,5.3,26.4,8,40.2,8s27.4-2.7,40.2-8s24.3-13,34.1-22.8c9.7-9.8,17.5-21.3,22.8-34.1
					C702.4,210.4,705.2,196.8,705.2,183"/>
			</defs>
			<clipPath id="SVGID_6_">
				<use xlink:href="#SVGID_5_"  style="overflow:visible;"/>
			</clipPath>
			<path class="st5" d="M600.2,183l90.9,52.5"/>
		</g>
	</g>
	<g>
		<path id="P" class="st3" d="M600.2,183L600.2,183 M705.2,183c0-13.8-2.7-27.4-8-40.2c-5.3-12.7-13-24.3-22.8-34.1
			c-9.8-9.7-21.3-17.5-34.1-22.8c-12.7-5.3-26.4-8-40.2-8s-27.4,2.7-40.2,8c-12.7,5.3-24.3,13-34.1,22.8
			c-9.7,9.8-17.5,21.3-22.8,34.1c-5.3,12.7-8,26.4-8,40.2s2.7,27.4,8,40.2c5.3,12.7,13,24.3,22.8,34.1c9.8,9.7,21.3,17.5,34.1,22.8
			c12.7,5.3,26.4,8,40.2,8s27.4-2.7,40.2-8s24.3-13,34.1-22.8c9.7-9.8,17.5-21.3,22.8-34.1C702.4,210.4,705.2,196.8,705.2,183"/>
	</g>
</g>
<g>
	<g>
		<g>
			<defs>
				<path id="SVGID_7_" d="M600.2,183L600.2,183 M705.2,183c0-13.8-2.7-27.4-8-40.2c-5.3-12.7-13-24.3-22.8-34.1
					c-9.8-9.7-21.3-17.5-34.1-22.8c-12.7-5.3-26.4-8-40.2-8s-27.4,2.7-40.2,8c-12.7,5.3-24.3,13-34.1,22.8
					c-9.7,9.8-17.5,21.3-22.8,34.1c-5.3,12.7-8,26.4-8,40.2s2.7,27.4,8,40.2c5.3,12.7,13,24.3,22.8,34.1
					c9.8,9.7,21.3,17.5,34.1,22.8c12.7,5.3,26.4,8,40.2,8s27.4-2.7,40.2-8s24.3-13,34.1-22.8c9.7-9.8,17.5-21.3,22.8-34.1
					C702.4,210.4,705.2,196.8,705.2,183"/>
			</defs>
			<clipPath id="SVGID_8_">
				<use xlink:href="#SVGID_7_"  style="overflow:visible;"/>
			</clipPath>
			<path class="st6" d="M600.2,183v105"/>
		</g>
	</g>
	<g>
		<path id="R" class="st3" d="M600.2,183L600.2,183 M705.2,183c0-13.8-2.7-27.4-8-40.2c-5.3-12.7-13-24.3-22.8-34.1
			c-9.8-9.7-21.3-17.5-34.1-22.8c-12.7-5.3-26.4-8-40.2-8s-27.4,2.7-40.2,8c-12.7,5.3-24.3,13-34.1,22.8
			c-9.7,9.8-17.5,21.3-22.8,34.1c-5.3,12.7-8,26.4-8,40.2s2.7,27.4,8,40.2c5.3,12.7,13,24.3,22.8,34.1c9.8,9.7,21.3,17.5,34.1,22.8
			c12.7,5.3,26.4,8,40.2,8s27.4-2.7,40.2-8s24.3-13,34.1-22.8c9.7-9.8,17.5-21.3,22.8-34.1C702.4,210.4,705.2,196.8,705.2,183"/>
	</g>
</g>
<g>
	<g>
		<g>
			<defs>
				<path id="SVGID_9_" d="M600.2,183L600.2,183 M705.2,183c0-13.8-2.7-27.4-8-40.2c-5.3-12.7-13-24.3-22.8-34.1
					c-9.8-9.7-21.3-17.5-34.1-22.8c-12.7-5.3-26.4-8-40.2-8s-27.4,2.7-40.2,8c-12.7,5.3-24.3,13-34.1,22.8
					c-9.7,9.8-17.5,21.3-22.8,34.1c-5.3,12.7-8,26.4-8,40.2s2.7,27.4,8,40.2c5.3,12.7,13,24.3,22.8,34.1
					c9.8,9.7,21.3,17.5,34.1,22.8c12.7,5.3,26.4,8,40.2,8s27.4-2.7,40.2-8s24.3-13,34.1-22.8c9.7-9.8,17.5-21.3,22.8-34.1
					C702.4,210.4,705.2,196.8,705.2,183"/>
			</defs>
			<clipPath id="SVGID_10_">
				<use xlink:href="#SVGID_9_"  style="overflow:visible;"/>
			</clipPath>
			<path class="st7" d="M600.2,183l-90.9,52.5"/>
		</g>
	</g>
	<g>
		<path id="T" class="st3" d="M600.2,183L600.2,183 M705.2,183c0-13.8-2.7-27.4-8-40.2c-5.3-12.7-13-24.3-22.8-34.1
			c-9.8-9.7-21.3-17.5-34.1-22.8c-12.7-5.3-26.4-8-40.2-8s-27.4,2.7-40.2,8c-12.7,5.3-24.3,13-34.1,22.8
			c-9.7,9.8-17.5,21.3-22.8,34.1c-5.3,12.7-8,26.4-8,40.2s2.7,27.4,8,40.2c5.3,12.7,13,24.3,22.8,34.1c9.8,9.7,21.3,17.5,34.1,22.8
			c12.7,5.3,26.4,8,40.2,8s27.4-2.7,40.2-8s24.3-13,34.1-22.8c9.7-9.8,17.5-21.3,22.8-34.1C702.4,210.4,705.2,196.8,705.2,183"/>
	</g>
</g>
<g>
	<g>
		<g>
			<defs>
				<path id="SVGID_11_" d="M600.2,183L600.2,183 M705.2,183c0-13.8-2.7-27.4-8-40.2c-5.3-12.7-13-24.3-22.8-34.1
					c-9.8-9.7-21.3-17.5-34.1-22.8c-12.7-5.3-26.4-8-40.2-8s-27.4,2.7-40.2,8c-12.7,5.3-24.3,13-34.1,22.8
					c-9.7,9.8-17.5,21.3-22.8,34.1c-5.3,12.7-8,26.4-8,40.2s2.7,27.4,8,40.2c5.3,12.7,13,24.3,22.8,34.1
					c9.8,9.7,21.3,17.5,34.1,22.8c12.7,5.3,26.4,8,40.2,8s27.4-2.7,40.2-8s24.3-13,34.1-22.8c9.7-9.8,17.5-21.3,22.8-34.1
					C702.4,210.4,705.2,196.8,705.2,183"/>
			</defs>
			<clipPath id="SVGID_12_">
				<use xlink:href="#SVGID_11_"  style="overflow:visible;"/>
			</clipPath>
			<path class="st8" d="M600.2,183l-90.9-52.5"/>
		</g>
	</g>
	<g>
		<path id="V" class="st3" d="M600.2,183L600.2,183 M705.2,183c0-13.8-2.7-27.4-8-40.2c-5.3-12.7-13-24.3-22.8-34.1
			c-9.8-9.7-21.3-17.5-34.1-22.8c-12.7-5.3-26.4-8-40.2-8s-27.4,2.7-40.2,8c-12.7,5.3-24.3,13-34.1,22.8
			c-9.7,9.8-17.5,21.3-22.8,34.1c-5.3,12.7-8,26.4-8,40.2s2.7,27.4,8,40.2c5.3,12.7,13,24.3,22.8,34.1c9.8,9.7,21.3,17.5,34.1,22.8
			c12.7,5.3,26.4,8,40.2,8s27.4-2.7,40.2-8s24.3-13,34.1-22.8c9.7-9.8,17.5-21.3,22.8-34.1C702.4,210.4,705.2,196.8,705.2,183"/>
	</g>
</g>
<g>
	<g>
		<g>
			<defs>
				<path id="SVGID_13_" d="M600.2,183L600.2,183 M705.2,183c0-13.8-2.7-27.4-8-40.2c-5.3-12.7-13-24.3-22.8-34.1
					c-9.8-9.7-21.3-17.5-34.1-22.8c-12.7-5.3-26.4-8-40.2-8s-27.4,2.7-40.2,8c-12.7,5.3-24.3,13-34.1,22.8
					c-9.7,9.8-17.5,21.3-22.8,34.1c-5.3,12.7-8,26.4-8,40.2s2.7,27.4,8,40.2c5.3,12.7,13,24.3,22.8,34.1
					c9.8,9.7,21.3,17.5,34.1,22.8c12.7,5.3,26.4,8,40.2,8s27.4-2.7,40.2-8s24.3-13,34.1-22.8c9.7-9.8,17.5-21.3,22.8-34.1
					C702.4,210.4,705.2,196.8,705.2,183"/>
			</defs>
			<clipPath id="SVGID_14_">
				<use xlink:href="#SVGID_13_"  style="overflow:visible;"/>
			</clipPath>
			<path class="st9" d="M600.2,162l1.5,0.1l1.5,0.1l1.5,0.3l1.4,0.4l1.4,0.5l1.4,0.5l1.3,0.6l1.3,0.7l1.2,0.8l1.2,0.9l1.1,1l1,1.1
				l1,1.1l0.9,1.2l0.8,1.2l0.7,1.3l0.6,1.3l0.5,1.4l0.4,1.4l0.3,1.4l0.2,1.4l0.1,1.5v1.5l-0.1,1.5l-0.2,1.4l-0.3,1.4l-0.4,1.4
				l-0.5,1.4l-0.6,1.3l-0.7,1.3l-0.8,1.2l-0.9,1.2l-1,1.1l-1,1.1l-1.1,1l-1.2,0.9l-1.2,0.8l-1.3,0.7l-1.3,0.6l-1.4,0.6l-1.4,0.5
				l-1.4,0.4l-1.5,0.2l-1.5,0.2l-1.5,0.1l-1.5-0.1l-1.5-0.2l-1.4-0.2l-1.4-0.4l-1.4-0.5l-1.4-0.6l-1.3-0.6l-1.3-0.7l-1.2-0.8
				l-1.2-0.9l-1.1-1l-1-1.1l-0.9-1.1l-0.9-1.2l-0.8-1.2l-0.7-1.3l-0.6-1.3l-0.5-1.4l-0.4-1.4l-0.3-1.4l-0.2-1.4l-0.1-1.5v-1.5
				l0.1-1.5l0.2-1.4l0.3-1.4l0.4-1.4l0.5-1.4l0.6-1.3l0.7-1.3l0.8-1.2l0.9-1.2l0.9-1.1l1-1.1l1.1-1l1.2-0.9l1.2-0.8l1.3-0.7l1.3-0.6
				l1.4-0.5l1.4-0.5l1.4-0.4l1.4-0.3l1.5-0.1L600.2,162"/>
		</g>
	</g>
	<g>
		<path id="X" class="st3" d="M600.2,183L600.2,183 M705.2,183c0-13.8-2.7-27.4-8-40.2c-5.3-12.7-13-24.3-22.8-34.1
			c-9.8-9.7-21.3-17.5-34.1-22.8c-12.7-5.3-26.4-8-40.2-8s-27.4,2.7-40.2,8c-12.7,5.3-24.3,13-34.1,22.8
			c-9.7,9.8-17.5,21.3-22.8,34.1c-5.3,12.7-8,26.4-8,40.2s2.7,27.4,8,40.2c5.3,12.7,13,24.3,22.8,34.1c9.8,9.7,21.3,17.5,34.1,22.8
			c12.7,5.3,26.4,8,40.2,8s27.4-2.7,40.2-8s24.3-13,34.1-22.8c9.7-9.8,17.5-21.3,22.8-34.1C702.4,210.4,705.2,196.8,705.2,183"/>
	</g>
</g>
<g>
	<path id="Z" class="st3" d="M600.2,183L600.2,183 M705.2,183c0-13.8-2.7-27.4-8-40.2c-5.3-12.7-13-24.3-22.8-34.1
		c-9.8-9.7-21.3-17.5-34.1-22.8c-12.7-5.3-26.4-8-40.2-8s-27.4,2.7-40.2,8c-12.7,5.3-24.3,13-34.1,22.8
		c-9.7,9.8-17.5,21.3-22.8,34.1c-5.3,12.7-8,26.4-8,40.2s2.7,27.4,8,40.2c5.3,12.7,13,24.3,22.8,34.1c9.8,9.7,21.3,17.5,34.1,22.8
		c12.7,5.3,26.4,8,40.2,8s27.4-2.7,40.2-8s24.3-13,34.1-22.8c9.7-9.8,17.5-21.3,22.8-34.1C702.4,210.4,705.2,196.8,705.2,183"/>
</g>
<g>
	<path id="b" class="st3" d="M600.2,183L600.2,183 M705.2,183c0-13.8-2.7-27.4-8-40.2c-5.3-12.7-13-24.3-22.8-34.1
		c-9.8-9.7-21.3-17.5-34.1-22.8c-12.7-5.3-26.4-8-40.2-8s-27.4,2.7-40.2,8c-12.7,5.3-24.3,13-34.1,22.8
		c-9.7,9.8-17.5,21.3-22.8,34.1c-5.3,12.7-8,26.4-8,40.2s2.7,27.4,8,40.2c5.3,12.7,13,24.3,22.8,34.1c9.8,9.7,21.3,17.5,34.1,22.8
		c12.7,5.3,26.4,8,40.2,8s27.4-2.7,40.2-8s24.3-13,34.1-22.8c9.7-9.8,17.5-21.3,22.8-34.1C702.4,210.4,705.2,196.8,705.2,183"/>
</g>
<g>
	<g>
		<path id="d" class="st10" d="M600.2,183L600.2,183 M674.4,108.8c-9.8-9.7-21.3-17.5-34.1-22.8c-12.7-5.3-26.4-8-40.2-8
			s-27.4,2.7-40.2,8c-12.7,5.3-24.3,13-34.1,22.8c-9.7,9.8-17.5,21.3-22.8,34.1c-5.3,12.7-8,26.4-8,40.2s2.7,27.4,8,40.2
			c5.3,12.7,13,24.3,22.8,34.1c9.8,9.7,21.3,17.5,34.1,22.8c12.7,5.3,26.4,8,40.2,8s27.4-2.7,40.2-8s24.3-13,34.1-22.8
			c9.7-9.8,17.5-21.3,22.8-34.1c5.3-12.7,8-26.4,8-40.2C705.1,183,708.9,147.1,674.4,108.8z"/>
	</g>
	<g>
		<path id="B" class="st10" d="M200.2,183L200.2,183 M305.2,183c0-13.8-2.7-27.4-8-40.2c-5.3-12.7-13-24.3-22.8-34.1
			c-9.8-9.7-21.3-17.5-34.1-22.8c-12.7-5.3-26.4-8-40.2-8s-27.4,2.7-40.2,8c-12.7,5.3-24.3,13-34.1,22.8
			c-9.7,9.8-17.5,21.3-22.8,34.1c-5.3,12.7-8,26.4-8,40.2s2.7,27.4,8,40.2c5.3,12.7,13,24.3,22.8,34.1c9.8,9.7,21.3,17.5,34.1,22.8
			c12.7,5.3,26.4,8,40.2,8s27.4-2.7,40.2-8s24.3-13,34.1-22.8c9.7-9.8,17.5-21.3,22.8-34.1C302.4,210.4,305.2,196.8,305.2,183"/>
	</g>
	<g>
		<path id="B_1_" class="st3" d="M200.2,183L200.2,183 M305.2,183c0-13.8-2.7-27.4-8-40.2c-5.3-12.7-13-24.3-22.8-34.1
			c-9.8-9.7-21.3-17.5-34.1-22.8c-12.7-5.3-26.4-8-40.2-8s-27.4,2.7-40.2,8c-12.7,5.3-24.3,13-34.1,22.8
			c-9.7,9.8-17.5,21.3-22.8,34.1c-5.3,12.7-8,26.4-8,40.2s2.7,27.4,8,40.2c5.3,12.7,13,24.3,22.8,34.1c9.8,9.7,21.3,17.5,34.1,22.8
			c12.7,5.3,26.4,8,40.2,8s27.4-2.7,40.2-8s24.3-13,34.1-22.8c9.7-9.8,17.5-21.3,22.8-34.1C302.4,210.4,305.2,196.8,305.2,183"/>
	</g>
</g>
<g>
	<g>
		<g>
			<defs>
				<path id="SVGID_15_" d="M200.2,183L200.2,183 M305.2,183c0-13.8-2.7-27.4-8-40.2c-5.3-12.7-13-24.3-22.8-34.1
					c-9.8-9.7-21.3-17.5-34.1-22.8c-12.7-5.3-26.4-8-40.2-8s-27.4,2.7-40.2,8c-12.7,5.3-24.3,13-34.1,22.8
					c-9.7,9.8-17.5,21.3-22.8,34.1c-5.3,12.7-8,26.4-8,40.2s2.7,27.4,8,40.2c5.3,12.7,13,24.3,22.8,34.1
					c9.8,9.7,21.3,17.5,34.1,22.8c12.7,5.3,26.4,8,40.2,8s27.4-2.7,40.2-8s24.3-13,34.1-22.8c9.7-9.8,17.5-21.3,22.8-34.1
					C302.4,210.4,305.2,196.8,305.2,183"/>
			</defs>
			<clipPath id="SVGID_16_">
				<use xlink:href="#SVGID_15_"  style="overflow:visible;"/>
			</clipPath>
			<path class="st11" d="M200.2,183V78"/>
		</g>
	</g>
	<g>
		<path id="f" class="st3" d="M200.2,183L200.2,183 M305.2,183c0-13.8-2.7-27.4-8-40.2c-5.3-12.7-13-24.3-22.8-34.1
			c-9.8-9.7-21.3-17.5-34.1-22.8c-12.7-5.3-26.4-8-40.2-8s-27.4,2.7-40.2,8c-12.7,5.3-24.3,13-34.1,22.8
			c-9.7,9.8-17.5,21.3-22.8,34.1c-5.3,12.7-8,26.4-8,40.2s2.7,27.4,8,40.2c5.3,12.7,13,24.3,22.8,34.1c9.8,9.7,21.3,17.5,34.1,22.8
			c12.7,5.3,26.4,8,40.2,8s27.4-2.7,40.2-8s24.3-13,34.1-22.8c9.7-9.8,17.5-21.3,22.8-34.1C302.4,210.4,305.2,196.8,305.2,183"/>
	</g>
</g>
<g>
	<g>
		<g>
			<defs>
				<path id="SVGID_17_" d="M200.2,183L200.2,183 M305.2,183c0-13.8-2.7-27.4-8-40.2c-5.3-12.7-13-24.3-22.8-34.1
					c-9.8-9.7-21.3-17.5-34.1-22.8c-12.7-5.3-26.4-8-40.2-8s-27.4,2.7-40.2,8c-12.7,5.3-24.3,13-34.1,22.8
					c-9.7,9.8-17.5,21.3-22.8,34.1c-5.3,12.7-8,26.4-8,40.2s2.7,27.4,8,40.2c5.3,12.7,13,24.3,22.8,34.1
					c9.8,9.7,21.3,17.5,34.1,22.8c12.7,5.3,26.4,8,40.2,8s27.4-2.7,40.2-8s24.3-13,34.1-22.8c9.7-9.8,17.5-21.3,22.8-34.1
					C302.4,210.4,305.2,196.8,305.2,183"/>
			</defs>
			<clipPath id="SVGID_18_">
				<use xlink:href="#SVGID_17_"  style="overflow:visible;"/>
			</clipPath>
			<path class="st12" d="M200.2,183l90.9-52.5"/>
		</g>
	</g>
	<g>
		<path id="h" class="st3" d="M200.2,183L200.2,183 M305.2,183c0-13.8-2.7-27.4-8-40.2c-5.3-12.7-13-24.3-22.8-34.1
			c-9.8-9.7-21.3-17.5-34.1-22.8c-12.7-5.3-26.4-8-40.2-8s-27.4,2.7-40.2,8c-12.7,5.3-24.3,13-34.1,22.8
			c-9.7,9.8-17.5,21.3-22.8,34.1c-5.3,12.7-8,26.4-8,40.2s2.7,27.4,8,40.2c5.3,12.7,13,24.3,22.8,34.1c9.8,9.7,21.3,17.5,34.1,22.8
			c12.7,5.3,26.4,8,40.2,8s27.4-2.7,40.2-8s24.3-13,34.1-22.8c9.7-9.8,17.5-21.3,22.8-34.1C302.4,210.4,305.2,196.8,305.2,183"/>
	</g>
</g>
<g>
	<g>
		<g>
			<defs>
				<path id="SVGID_19_" d="M200.2,183L200.2,183 M305.2,183c0-13.8-2.7-27.4-8-40.2c-5.3-12.7-13-24.3-22.8-34.1
					c-9.8-9.7-21.3-17.5-34.1-22.8c-12.7-5.3-26.4-8-40.2-8s-27.4,2.7-40.2,8c-12.7,5.3-24.3,13-34.1,22.8
					c-9.7,9.8-17.5,21.3-22.8,34.1c-5.3,12.7-8,26.4-8,40.2s2.7,27.4,8,40.2c5.3,12.7,13,24.3,22.8,34.1
					c9.8,9.7,21.3,17.5,34.1,22.8c12.7,5.3,26.4,8,40.2,8s27.4-2.7,40.2-8s24.3-13,34.1-22.8c9.7-9.8,17.5-21.3,22.8-34.1
					C302.4,210.4,305.2,196.8,305.2,183"/>
			</defs>
			<clipPath id="SVGID_20_">
				<use xlink:href="#SVGID_19_"  style="overflow:visible;"/>
			</clipPath>
			<path class="st13" d="M200.2,183l90.9,52.5"/>
		</g>
	</g>
	<g>
		<path id="j" class="st3" d="M200.2,183L200.2,183 M305.2,183c0-13.8-2.7-27.4-8-40.2c-5.3-12.7-13-24.3-22.8-34.1
			c-9.8-9.7-21.3-17.5-34.1-22.8c-12.7-5.3-26.4-8-40.2-8s-27.4,2.7-40.2,8c-12.7,5.3-24.3,13-34.1,22.8
			c-9.7,9.8-17.5,21.3-22.8,34.1c-5.3,12.7-8,26.4-8,40.2s2.7,27.4,8,40.2c5.3,12.7,13,24.3,22.8,34.1c9.8,9.7,21.3,17.5,34.1,22.8
			c12.7,5.3,26.4,8,40.2,8s27.4-2.7,40.2-8s24.3-13,34.1-22.8c9.7-9.8,17.5-21.3,22.8-34.1C302.4,210.4,305.2,196.8,305.2,183"/>
	</g>
</g>
<g>
	<g>
		<g>
			<defs>
				<path id="SVGID_21_" d="M200.2,183L200.2,183 M305.2,183c0-13.8-2.7-27.4-8-40.2c-5.3-12.7-13-24.3-22.8-34.1
					c-9.8-9.7-21.3-17.5-34.1-22.8c-12.7-5.3-26.4-8-40.2-8s-27.4,2.7-40.2,8c-12.7,5.3-24.3,13-34.1,22.8
					c-9.7,9.8-17.5,21.3-22.8,34.1c-5.3,12.7-8,26.4-8,40.2s2.7,27.4,8,40.2c5.3,12.7,13,24.3,22.8,34.1
					c9.8,9.7,21.3,17.5,34.1,22.8c12.7,5.3,26.4,8,40.2,8s27.4-2.7,40.2-8s24.3-13,34.1-22.8c9.7-9.8,17.5-21.3,22.8-34.1
					C302.4,210.4,305.2,196.8,305.2,183"/>
			</defs>
			<clipPath id="SVGID_22_">
				<use xlink:href="#SVGID_21_"  style="overflow:visible;"/>
			</clipPath>
			<path class="st14" d="M200.2,183v105"/>
		</g>
	</g>
	<g>
		<path id="l" class="st3" d="M200.2,183L200.2,183 M305.2,183c0-13.8-2.7-27.4-8-40.2c-5.3-12.7-13-24.3-22.8-34.1
			c-9.8-9.7-21.3-17.5-34.1-22.8c-12.7-5.3-26.4-8-40.2-8s-27.4,2.7-40.2,8c-12.7,5.3-24.3,13-34.1,22.8
			c-9.7,9.8-17.5,21.3-22.8,34.1c-5.3,12.7-8,26.4-8,40.2s2.7,27.4,8,40.2c5.3,12.7,13,24.3,22.8,34.1c9.8,9.7,21.3,17.5,34.1,22.8
			c12.7,5.3,26.4,8,40.2,8s27.4-2.7,40.2-8s24.3-13,34.1-22.8c9.7-9.8,17.5-21.3,22.8-34.1C302.4,210.4,305.2,196.8,305.2,183"/>
	</g>
</g>
<g>
	<g>
		<g>
			<defs>
				<path id="SVGID_23_" d="M200.2,183L200.2,183 M305.2,183c0-13.8-2.7-27.4-8-40.2c-5.3-12.7-13-24.3-22.8-34.1
					c-9.8-9.7-21.3-17.5-34.1-22.8c-12.7-5.3-26.4-8-40.2-8s-27.4,2.7-40.2,8c-12.7,5.3-24.3,13-34.1,22.8
					c-9.7,9.8-17.5,21.3-22.8,34.1c-5.3,12.7-8,26.4-8,40.2s2.7,27.4,8,40.2c5.3,12.7,13,24.3,22.8,34.1
					c9.8,9.7,21.3,17.5,34.1,22.8c12.7,5.3,26.4,8,40.2,8s27.4-2.7,40.2-8s24.3-13,34.1-22.8c9.7-9.8,17.5-21.3,22.8-34.1
					C302.4,210.4,305.2,196.8,305.2,183"/>
			</defs>
			<clipPath id="SVGID_24_">
				<use xlink:href="#SVGID_23_"  style="overflow:visible;"/>
			</clipPath>
			<path class="st15" d="M200.2,183l-90.9,52.5"/>
		</g>
	</g>
	<g>
		<path id="n" class="st3" d="M200.2,183L200.2,183 M305.2,183c0-13.8-2.7-27.4-8-40.2c-5.3-12.7-13-24.3-22.8-34.1
			c-9.8-9.7-21.3-17.5-34.1-22.8c-12.7-5.3-26.4-8-40.2-8s-27.4,2.7-40.2,8c-12.7,5.3-24.3,13-34.1,22.8
			c-9.7,9.8-17.5,21.3-22.8,34.1c-5.3,12.7-8,26.4-8,40.2s2.7,27.4,8,40.2c5.3,12.7,13,24.3,22.8,34.1c9.8,9.7,21.3,17.5,34.1,22.8
			c12.7,5.3,26.4,8,40.2,8s27.4-2.7,40.2-8s24.3-13,34.1-22.8c9.7-9.8,17.5-21.3,22.8-34.1C302.4,210.4,305.2,196.8,305.2,183"/>
	</g>
</g>
<g>
	<g>
		<g>
			<defs>
				<path id="SVGID_25_" d="M200.2,183L200.2,183 M305.2,183c0-13.8-2.7-27.4-8-40.2c-5.3-12.7-13-24.3-22.8-34.1
					c-9.8-9.7-21.3-17.5-34.1-22.8c-12.7-5.3-26.4-8-40.2-8s-27.4,2.7-40.2,8c-12.7,5.3-24.3,13-34.1,22.8
					c-9.7,9.8-17.5,21.3-22.8,34.1c-5.3,12.7-8,26.4-8,40.2s2.7,27.4,8,40.2c5.3,12.7,13,24.3,22.8,34.1
					c9.8,9.7,21.3,17.5,34.1,22.8c12.7,5.3,26.4,8,40.2,8s27.4-2.7,40.2-8s24.3-13,34.1-22.8c9.7-9.8,17.5-21.3,22.8-34.1
					C302.4,210.4,305.2,196.8,305.2,183"/>
			</defs>
			<clipPath id="SVGID_26_">
				<use xlink:href="#SVGID_25_"  style="overflow:visible;"/>
			</clipPath>
			<path class="st16" d="M200.2,183l-90.9-52.5"/>
		</g>
	</g>
	<g>
		<path id="p" class="st3" d="M200.2,183L200.2,183 M305.2,183c0-13.8-2.7-27.4-8-40.2c-5.3-12.7-13-24.3-22.8-34.1
			c-9.8-9.7-21.3-17.5-34.1-22.8c-12.7-5.3-26.4-8-40.2-8s-27.4,2.7-40.2,8c-12.7,5.3-24.3,13-34.1,22.8
			c-9.7,9.8-17.5,21.3-22.8,34.1c-5.3,12.7-8,26.4-8,40.2s2.7,27.4,8,40.2c5.3,12.7,13,24.3,22.8,34.1c9.8,9.7,21.3,17.5,34.1,22.8
			c12.7,5.3,26.4,8,40.2,8s27.4-2.7,40.2-8s24.3-13,34.1-22.8c9.7-9.8,17.5-21.3,22.8-34.1C302.4,210.4,305.2,196.8,305.2,183"/>
	</g>
</g>
<g>
	<g>
		<g>
			<defs>
				<path id="SVGID_27_" d="M200.2,183L200.2,183 M305.2,183c0-13.8-2.7-27.4-8-40.2c-5.3-12.7-13-24.3-22.8-34.1
					c-9.8-9.7-21.3-17.5-34.1-22.8c-12.7-5.3-26.4-8-40.2-8s-27.4,2.7-40.2,8c-12.7,5.3-24.3,13-34.1,22.8
					c-9.7,9.8-17.5,21.3-22.8,34.1c-5.3,12.7-8,26.4-8,40.2s2.7,27.4,8,40.2c5.3,12.7,13,24.3,22.8,34.1
					c9.8,9.7,21.3,17.5,34.1,22.8c12.7,5.3,26.4,8,40.2,8s27.4-2.7,40.2-8s24.3-13,34.1-22.8c9.7-9.8,17.5-21.3,22.8-34.1
					C302.4,210.4,305.2,196.8,305.2,183"/>
			</defs>
			<clipPath id="SVGID_28_">
				<use xlink:href="#SVGID_27_"  style="overflow:visible;"/>
			</clipPath>
			<path class="st17" d="M200.2,162l1.5,0.1l1.4,0.1l1.4,0.3l1.4,0.4l1.4,0.5l1.4,0.5l1.3,0.6l1.3,0.7l1.2,0.8l1.2,0.9l1.1,1l1,1.1
				l0.9,1.1l0.9,1.2l0.8,1.2l0.7,1.3l0.6,1.3l0.5,1.4l0.4,1.4l0.3,1.4l0.2,1.4l0.1,1.5v1.5l-0.1,1.5l-0.2,1.4l-0.3,1.4l-0.4,1.4
				l-0.5,1.4l-0.6,1.3l-0.7,1.3l-0.8,1.2l-0.9,1.2l-0.9,1.1l-1,1.1l-1.1,1l-1.2,0.9l-1.2,0.8l-1.3,0.7l-1.3,0.6l-1.4,0.6l-1.4,0.5
				l-1.4,0.4l-1.4,0.2l-1.4,0.2l-1.5,0.1l-1.5-0.1l-1.4-0.2l-1.4-0.2l-1.4-0.4l-1.4-0.5l-1.4-0.6l-1.3-0.6l-1.3-0.7l-1.2-0.8
				l-1.1-0.9l-1.1-1l-1-1.1l-0.9-1.1l-0.9-1.2l-0.8-1.2l-0.7-1.3l-0.6-1.3l-0.5-1.4l-0.4-1.4l-0.3-1.4l-0.2-1.4l-0.1-1.5v-1.5
				l0.1-1.5l0.2-1.4l0.3-1.4l0.4-1.4l0.5-1.4l0.6-1.3l0.7-1.3l0.8-1.2l0.9-1.2l0.9-1.1l1-1.1l1.1-1l1.1-0.9l1.2-0.8l1.3-0.7l1.3-0.6
				l1.4-0.5l1.4-0.5l1.4-0.4l1.4-0.3l1.4-0.1L200.2,162"/>
		</g>
	</g>
	<g>
		<path id="r" class="st3" d="M200.2,183L200.2,183 M305.2,183c0-13.8-2.7-27.4-8-40.2c-5.3-12.7-13-24.3-22.8-34.1
			c-9.8-9.7-21.3-17.5-34.1-22.8c-12.7-5.3-26.4-8-40.2-8s-27.4,2.7-40.2,8c-12.7,5.3-24.3,13-34.1,22.8
			c-9.7,9.8-17.5,21.3-22.8,34.1c-5.3,12.7-8,26.4-8,40.2s2.7,27.4,8,40.2c5.3,12.7,13,24.3,22.8,34.1c9.8,9.7,21.3,17.5,34.1,22.8
			c12.7,5.3,26.4,8,40.2,8s27.4-2.7,40.2-8s24.3-13,34.1-22.8c9.7-9.8,17.5-21.3,22.8-34.1C302.4,210.4,305.2,196.8,305.2,183"/>
	</g>
</g>
<g>
	<path id="t" class="st3" d="M200.2,183L200.2,183 M305.2,183c0-13.8-2.7-27.4-8-40.2c-5.3-12.7-13-24.3-22.8-34.1
		c-9.8-9.7-21.3-17.5-34.1-22.8c-12.7-5.3-26.4-8-40.2-8s-27.4,2.7-40.2,8c-12.7,5.3-24.3,13-34.1,22.8
		c-9.7,9.8-17.5,21.3-22.8,34.1c-5.3,12.7-8,26.4-8,40.2s2.7,27.4,8,40.2c5.3,12.7,13,24.3,22.8,34.1c9.8,9.7,21.3,17.5,34.1,22.8
		c12.7,5.3,26.4,8,40.2,8s27.4-2.7,40.2-8s24.3-13,34.1-22.8c9.7-9.8,17.5-21.3,22.8-34.1C302.4,210.4,305.2,196.8,305.2,183"/>
</g>
<g>
	<path id="v" class="st3" d="M200.2,183L200.2,183 M305.2,183c0-13.8-2.7-27.4-8-40.2c-5.3-12.7-13-24.3-22.8-34.1
		c-9.8-9.7-21.3-17.5-34.1-22.8c-12.7-5.3-26.4-8-40.2-8s-27.4,2.7-40.2,8c-12.7,5.3-24.3,13-34.1,22.8
		c-9.7,9.8-17.5,21.3-22.8,34.1c-5.3,12.7-8,26.4-8,40.2s2.7,27.4,8,40.2c5.3,12.7,13,24.3,22.8,34.1c9.8,9.7,21.3,17.5,34.1,22.8
		c12.7,5.3,26.4,8,40.2,8s27.4-2.7,40.2-8s24.3-13,34.1-22.8c9.7-9.8,17.5-21.3,22.8-34.1C302.4,210.4,305.2,196.8,305.2,183"/>
</g>
<g>
	<path id="x" class="st3" d="M200.2,183L200.2,183 M274.4,108.8c-9.8-9.7-21.3-17.5-34.1-22.8c-12.7-5.3-26.4-8-40.2-8
		s-27.4,2.7-40.2,8c-12.7,5.3-24.3,13-34.1,22.8c-9.7,9.8-17.5,21.3-22.8,34.1c-5.3,12.7-8,26.4-8,40.2s2.7,27.4,8,40.2
		c5.3,12.7,13,24.3,22.8,34.1c9.8,9.7,21.3,17.5,34.1,22.8c12.7,5.3,26.4,8,40.2,8s27.4-2.7,40.2-8s24.3-13,34.1-22.8
		c9.7-9.8,17.5-21.3,22.8-34.1c5.3-12.7,8-26.4,8-40.2"/>
</g>
<circle class="st18" cx="486.1" cy="248" r="18.5"/>
<path class="st19" d="M486.1,234.9c-4.1,4.1-17.3,16.6,0,26.2"/>
<path class="st20" d="M486.1,234.9c4.1,4.1,17.3,16.6,0,26.2"/>
<circle class="st18" cx="714.4" cy="248" r="18.5"/>
<path class="st19" d="M705.8,241.6h3.7v14.8h-3.7V241.6z M712.6,241.6h3.7v14.8h-3.7V241.6z M719.5,241.6h3.7v14.8h-3.7V241.6z"/>
<path class="st20" d="M714.5,234.4l-12.6,7.1H727L714.5,234.4z M701.9,255.7H727v3.9h-25.1V255.7z"/>
<circle class="st18" cx="600.2" cy="51.4" r="18.5"/>
<path class="st20" d="M588.5,39.4h23.4v24.1h-23.4V39.4z"/>
<path class="st19" d="M591.2,45.7h18v14.9h-18V45.7z M594,38.3V43h-2.6v-4.7H594z M601.5,38.3V43h-2.6v-4.7H601.5z M609,38.3V43
	h-2.6v-4.7H609z"/>
<g>
	<path id="C" class="st20" d="M600.2,46.7l2,4l4.4,0.6l-3.2,3.1l0.8,4.3l-3.9-2l-3.9,2l0.8-4.3l-3.2-3.1l4.4-0.6L600.2,46.7z"/>
</g>
<circle class="st18" cx="486.1" cy="117.7" r="18.5"/>
<g>
	<path id="D" class="st20" d="M498.8,120.1v-5h-3.4c-0.2-0.8-0.6-1.5-1-2.2l2.5-2.5l-3.5-3.5l-2.5,2.5c-0.7-0.4-1.5-0.8-2.2-1V105
		h-5v3.3c-0.9,0.2-1.7,0.5-2.5,0.9L479,107l-3.5,3.5l2,2c-0.5,0.8-0.9,1.7-1.2,2.6h-2.8v5h2.6c0.2,1,0.6,2,1.1,2.9l-1.8,1.8l3.5,3.5
		l1.8-1.8c0.9,0.5,1.9,0.9,2.9,1.1v2.6h5v-2.8c0.9-0.3,1.8-0.7,2.6-1.2l2,2l3.5-3.5l-2.2-2.2c0.4-0.8,0.7-1.6,0.9-2.5L498.8,120.1
		L498.8,120.1z"/>
</g>
<circle class="st19" cx="485.8" cy="118" r="5.6"/>
<circle class="st18" cx="600.2" cy="314.6" r="18.5"/>
<g>
	<path id="E" class="st20" d="M593.7,304.8c-0.2-1.3-1.3-2.2-2.6-2.2c-1.5,0-2.7,1.2-2.7,2.7s1.2,2.7,2.7,2.7l0,0h6.9v-3.1
		L593.7,304.8L593.7,304.8z"/>
</g>
<g>
	<path id="F" class="st19" d="M591,302.6h15.2c1.7,0,3.1,1.4,3.1,3.1l0,0v21.1h-13.1c-1.7,0-3.1-1.4-3.1-3.1l0,0v-18.3
		C593.2,304.5,593.3,302.6,591,302.6L591,302.6z"/>
</g>
<g>
	<g>
		<path id="G" class="st20" d="M598,323.7h16.2v0.1c0,1.6-1.3,3-3,3h-15.8C595.5,326.8,598,326.8,598,323.7z"/>
	</g>
	<g>
		<path id="H" class="st20" d="M595.5,307.3h12v2.2h-12V307.3z"/>
	</g>
	<g>
		<path id="H_1_" class="st20" d="M595.5,311.9h12v2.2h-12V311.9z"/>
	</g>
	<path class="st20" d="M595.5,316.5h8v2.2h-8V316.5z"/>
</g>
<circle class="st18" cx="714.4" cy="117.2" r="18.5"/>
<g>
	<path id="I" class="st20" d="M725.4,115.2h-22v-4.6c0-1.8,1.5-3.3,3.3-3.3h15.4c1.8,0,3.3,1.5,3.3,3.3V115.2L725.4,115.2z"/>
</g>
<g>
	<g>
		<path id="J" class="st19" d="M711.6,116.7h-4.2c-0.9,0-1.6-0.7-1.6-1.6v-4.2c0-0.9,0.7-1.6,1.6-1.6h4.2c0.9,0,1.6,0.7,1.6,1.6v4.2
			C713.2,116,712.5,116.7,711.6,116.7z"/>
	</g>
	<g>
		<path id="J_1_" class="st19" d="M721.3,116.7h-4.2c-0.9,0-1.6-0.7-1.6-1.6v-4.2c0-0.9,0.7-1.6,1.6-1.6h4.2c0.9,0,1.6,0.7,1.6,1.6
			v4.2C723,116,722.2,116.7,721.3,116.7z"/>
	</g>
</g>
<g>
	<path id="K" class="st20" d="M728.6,121.5h-28.5v-4.3c0-1.8,1.5-3.3,3.3-3.3h21.9c1.8,0,3.3,1.5,3.3,3.3V121.5L728.6,121.5z"/>
</g>
<g>
	<g>
		<path id="L" class="st19" d="M700.1,121.5h3v4h-3V121.5z"/>
	</g>
	<g>
		<path id="L_1_" class="st19" d="M725.6,121.5h3v4h-3V121.5z"/>
	</g>
</g>
<circle class="st18" cx="86.1" cy="248" r="18.4"/>
<path class="st19" d="M86.1,234.9c-4.1,4.1-17.3,16.6,0,26.2"/>
<path class="st20" d="M86.1,234.9c4.1,4.1,17.3,16.6,0,26.2"/>
<circle class="st18" cx="314.4" cy="248" r="18.5"/>
<path class="st19" d="M305.8,241.6h3.7v14.8h-3.7V241.6z M312.6,241.6h3.7v14.8h-3.7V241.6z M319.5,241.6h3.7v14.8h-3.7V241.6z"/>
<path class="st20" d="M314.5,234.4l-12.6,7.1H327L314.5,234.4z M301.9,255.7H327v3.9h-25.1V255.7z"/>
<circle class="st18" cx="200.2" cy="51.4" r="18.4"/>
<path class="st20" d="M188.5,39.4h23.4v24.1h-23.4V39.4z"/>
<path class="st19" d="M191.2,45.7h18v14.9h-18V45.7z M194,38.3V43h-2.6v-4.7H194z M201.5,38.3V43h-2.6v-4.7H201.5z M209,38.3V43
	h-2.6v-4.7H209z"/>
<g>
	<path id="C_1_" class="st20" d="M200.2,46.7l2,4l4.4,0.6l-3.2,3.1l0.8,4.3l-3.9-2l-3.9,2l0.8-4.3l-3.2-3.1l4.4-0.6L200.2,46.7z"/>
</g>
<circle class="st18" cx="86.1" cy="117.7" r="18.5"/>
<g>
	<path id="D_1_" class="st20" d="M98.8,120.1v-5h-3.4c-0.2-0.8-0.6-1.5-1-2.2l2.5-2.5l-3.5-3.5l-2.5,2.5c-0.7-0.4-1.5-0.8-2.2-1V105
		h-5v3.3c-0.9,0.2-1.7,0.5-2.5,0.9L79,107l-3.5,3.5l2,2c-0.5,0.8-0.9,1.7-1.2,2.6h-2.8v5H76c0.2,1,0.6,2,1.1,2.9l-1.8,1.8l3.5,3.5
		l1.8-1.8c0.9,0.5,1.9,0.9,2.9,1.1v2.6h5v-2.8c0.9-0.3,1.8-0.7,2.6-1.2l2,2l3.5-3.5l-2.2-2.2c0.4-0.8,0.7-1.6,0.9-2.5L98.8,120.1
		L98.8,120.1z"/>
</g>
<circle class="st19" cx="85.8" cy="118" r="5.6"/>
<circle class="st18" cx="200.2" cy="314.6" r="18.5"/>
<g>
	<path id="E_1_" class="st20" d="M193.7,304.8c-0.2-1.3-1.3-2.2-2.6-2.2c-1.5,0-2.7,1.2-2.7,2.7s1.2,2.7,2.7,2.7l0,0h6.9v-3.1
		L193.7,304.8L193.7,304.8z"/>
</g>
<g>
	<path id="F_1_" class="st19" d="M191,302.6h15.2c1.7,0,3.1,1.4,3.1,3.1l0,0v21.1h-13.1c-1.7,0-3.1-1.4-3.1-3.1l0,0v-18.3
		C193.2,304.5,193.3,302.6,191,302.6L191,302.6z"/>
</g>
<g>
	<g>
		<path id="G_1_" class="st20" d="M198,323.7h16.2v0.1c0,1.6-1.3,3-3,3h-15.8C195.5,326.8,198,326.8,198,323.7z"/>
	</g>
	<g>
		<path id="H_2_" class="st20" d="M195.5,307.3h12v2.2h-12V307.3z"/>
	</g>
	<g>
		<path id="H_3_" class="st20" d="M195.5,311.9h12v2.2h-12V311.9z"/>
	</g>
	<path class="st20" d="M195.5,316.5h8v2.2h-8V316.5z"/>
</g>
<circle class="st18" cx="314.4" cy="117.2" r="18.5"/>
<g>
	<path id="I_1_" class="st20" d="M325.4,115.2h-22v-4.6c0-1.8,1.5-3.3,3.3-3.3h15.4c1.8,0,3.3,1.5,3.3,3.3L325.4,115.2L325.4,115.2z
		"/>
</g>
<g>
	<g>
		<path id="J_2_" class="st19" d="M311.6,116.7h-4.2c-0.9,0-1.6-0.7-1.6-1.6v-4.2c0-0.9,0.7-1.6,1.6-1.6h4.2c0.9,0,1.6,0.7,1.6,1.6
			v4.2C313.2,116,312.5,116.7,311.6,116.7z"/>
	</g>
	<g>
		<path id="J_3_" class="st19" d="M321.3,116.7h-4.2c-0.9,0-1.6-0.7-1.6-1.6v-4.2c0-0.9,0.7-1.6,1.6-1.6h4.2c0.9,0,1.6,0.7,1.6,1.6
			v4.2C323,116,322.2,116.7,321.3,116.7z"/>
	</g>
</g>
<g>
	<path id="K_1_" class="st20" d="M328.6,121.5h-28.5v-4.3c0-1.8,1.5-3.3,3.3-3.3h21.9c1.8,0,3.3,1.5,3.3,3.3L328.6,121.5
		L328.6,121.5z"/>
</g>
<g>
	<g>
		<path id="L_2_" class="st19" d="M300.1,121.5h3v4h-3V121.5z"/>
	</g>
	<g>
		<path id="L_3_" class="st19" d="M325.6,121.5h3v4h-3V121.5z"/>
	</g>
</g>
<g>
	<path class="st1" d="M200.6,136.2l3.5,0.1l3.5,0.4l3.4,0.6l3.4,0.8l3.3,1.1l3.2,1.3l3.1,1.5l3,1.8l2.9,1.9l2.8,2.2l2.6,2.3l2.4,2.5
		l2.2,2.7l2.1,2.8l1.9,2.9l1.6,3.1l1.4,3.2l1.2,3.3l1,3.4l0.7,3.4l0.5,3.4l0.2,3.5v3.5l-0.2,3.5l-0.5,3.5l-0.7,3.4l-1,3.4l-1.2,3.3
		l-1.4,3.2l-1.6,3.1l-1.9,3l-2,2.7l-2.2,2.7l-2.4,2.5l-2.6,2.3l-2.8,2.1l-2.9,1.9l-3,1.8l-3.1,1.5l-3.2,1.3l-3.3,1.1l-3.4,0.8
		l-3.4,0.6l-3.5,0.4l-3.5,0.1l-3.5-0.1l-3.5-0.4l-3.4-0.6l-3.4-0.8l-3.3-1.1l-3.2-1.3l-3.1-1.5l-3-1.8l-2.9-1.9l-2.7-2.1l-2.6-2.3
		l-2.4-2.5l-2.2-2.7l-2-2.8l-1.9-3l-1.6-3.1l-1.4-3.2l-1.2-3.3l-1-3.4l-0.7-3.4l-0.5-3.5l-0.2-3.5v-3.5l0.2-3.5l0.5-3.4l0.7-3.4
		l1-3.4l1.2-3.3l1.4-3.2l1.6-3.1l1.9-2.9l2-2.8l2.2-2.7l2.4-2.5l2.6-2.3l2.7-2.2l2.9-1.9l3-1.8l3.1-1.5l3.2-1.3l3.3-1.1l3.4-0.8
		l3.4-0.6l3.5-0.4L200.6,136.2"/>
	<path class="st1" d="M200.6,107.4l2.8,0.1l2.8,0.1l2.7,0.2l2.7,0.3l2.7,0.4l2.7,0.5l2.7,0.6l2.7,0.7l2.6,0.8l2.6,0.9l2.6,1l2.5,1.1
		l2.5,1.2l2.4,1.2l2.4,1.3l2.4,1.4l2.3,1.5l2.3,1.6l2.2,1.7l2.1,1.7l2.1,1.8l2,1.9l1.9,1.9l1.9,2l1.8,2.1l1.7,2.1l1.7,2.2l1.6,2.2
		l1.5,2.3l1.4,2.4l1.3,2.4l1.2,2.5l1.2,2.5l1.1,2.5l1,2.6l0.9,2.6l0.8,2.6l0.7,2.7l0.6,2.7l0.5,2.7l0.4,2.7l0.3,2.7l0.2,2.8l0.1,2.8
		v2.8v2.8l-0.1,2.8l-0.2,2.7l-0.3,2.7l-0.4,2.7l-0.5,2.7l-0.6,2.7l-0.7,2.7l-0.8,2.6l-0.9,2.6l-1,2.6l-1.1,2.5l-1.2,2.5l-1.2,2.4
		l-1.3,2.4l-1.4,2.4l-1.5,2.3l-1.6,2.3l-1.7,2.2l-1.7,2.1l-1.8,2.1l-1.9,2l-1.9,1.9l-2,1.9l-2.1,1.8l-2.1,1.7l-2.2,1.6l-2.3,1.6
		l-2.3,1.5l-2.4,1.4l-2.4,1.3l-2.4,1.2l-2.5,1.2l-2.5,1.1l-2.6,1l-2.6,0.9l-2.6,0.8l-2.7,0.7l-2.7,0.6l-2.7,0.5l-2.7,0.4l-2.7,0.3
		l-2.7,0.2l-2.8,0.1h-2.8h-2.8l-2.7-0.1l-2.7-0.2l-2.7-0.3l-2.7-0.4l-2.7-0.5l-2.7-0.6l-2.6-0.7l-2.6-0.8l-2.6-0.9l-2.6-1l-2.5-1.1
		l-2.5-1.2l-2.4-1.2l-2.4-1.3L159,253l-2.3-1.5l-2.3-1.6l-2.2-1.6l-2.1-1.7l-2.1-1.8l-2-1.9l-1.9-1.9l-1.9-2l-1.8-2.1l-1.7-2.1
		l-1.6-2.2l-1.6-2.3L134,228l-1.4-2.4l-1.3-2.4l-1.2-2.4l-1.2-2.5l-1.1-2.5l-1-2.6l-0.9-2.6l-0.8-2.6l-0.7-2.7l-0.6-2.7l-0.5-2.7
		l-0.4-2.7l-0.3-2.7l-0.2-2.7l-0.2-2.8v-2.8v-2.8l0.2-2.8l0.2-2.8l0.3-2.7l0.4-2.7l0.5-2.7l0.6-2.7l0.7-2.7l0.8-2.6l0.9-2.6l1-2.6
		l1.1-2.5l1.2-2.5l1.2-2.5l1.3-2.4l1.4-2.4l1.5-2.3l1.6-2.2l1.6-2.2l1.7-2.1l1.8-2.1l1.9-2l1.9-1.9l2-1.9l2.1-1.8l2.1-1.7l2.2-1.7
		l2.3-1.6l2.3-1.5l2.4-1.4l2.4-1.3l2.4-1.2l2.5-1.2l2.5-1.1l2.6-1l2.6-0.9l2.6-0.8l2.6-0.7l2.7-0.6l2.7-0.5l2.7-0.4l2.7-0.3l2.7-0.2
		l2.7-0.1L200.6,107.4"/>
</g>
<text transform="matrix(1 0 0 1 204.896 99.268)" class="st18 st21 st22">12000</text>
<text transform="matrix(1 0 0 1 204.896 130.268)" class="st18 st21 st22">8000</text>
<text transform="matrix(1 0 0 1 204.896 161.268)" class="st18 st21 st22">4000</text>
<g>
	<path class="st1" d="M600.6,136.2l3.5,0.1l3.5,0.4l3.4,0.6l3.4,0.8l3.3,1.1l3.2,1.3l3.1,1.5l3,1.8l2.9,1.9l2.8,2.1l2.6,2.3l2.4,2.5
		l2.2,2.7l2,2.8l1.8,3l1.6,3.1l1.4,3.2l1.2,3.3l1,3.4l0.7,3.4l0.5,3.5l0.2,3.5v3.5l-0.2,3.5l-0.5,3.4l-0.7,3.4l-1,3.4l-1.2,3.3
		l-1.4,3.2l-1.6,3.1l-1.8,2.9l-2,2.8l-2.2,2.7l-2.4,2.5l-2.6,2.3l-2.8,2.2l-2.9,1.9l-3,1.8l-3.1,1.5l-3.2,1.3l-3.3,1.1l-3.4,0.9
		l-3.4,0.6l-3.5,0.4l-3.5,0.1l-3.5-0.1l-3.5-0.4l-3.4-0.6l-3.4-0.9l-3.3-1.1l-3.2-1.3l-3.1-1.5l-3-1.8l-2.9-1.9l-2.7-2.2l-2.6-2.3
		l-2.4-2.5l-2.2-2.7l-2-2.8l-1.8-2.9l-1.7-3.1l-1.4-3.2l-1.2-3.3l-1-3.4l-0.7-3.4l-0.5-3.4l-0.2-3.5v-3.5l0.2-3.5l0.5-3.5l0.7-3.4
		l1-3.4l1.2-3.3l1.4-3.2l1.7-3.1l1.8-3l2-2.8l2.2-2.7l2.4-2.5l2.6-2.3l2.7-2.1l2.9-1.9l3-1.8l3.1-1.5l3.2-1.3l3.3-1.1l3.4-0.8
		l3.4-0.6l3.5-0.4L600.6,136.2"/>
	<path class="st1" d="M600.6,107.3l2.8,0.1l2.8,0.1l2.7,0.2l2.7,0.3l2.7,0.4l2.7,0.5l2.7,0.6l2.7,0.7l2.6,0.8l2.6,0.9l2.6,1l2.5,1.1
		l2.5,1.2l2.5,1.2l2.4,1.3l2.4,1.4l2.3,1.5l2.3,1.6l2.2,1.7l2.1,1.7l2.1,1.8l2,1.9l2,1.9l1.9,2l1.8,2.1l1.7,2.1l1.7,2.2l1.6,2.2
		l1.5,2.3l1.4,2.4l1.3,2.4l1.2,2.4l1.2,2.5l1.1,2.5l1,2.6l0.9,2.6l0.8,2.6l0.7,2.7l0.6,2.7l0.5,2.7l0.4,2.7l0.3,2.7l0.2,2.7l0.1,2.8
		l0.1,2.8l-0.1,2.8l-0.1,2.8l-0.2,2.7l-0.3,2.7l-0.4,2.7l-0.5,2.7l-0.6,2.7l-0.7,2.7l-0.8,2.6l-0.9,2.6l-1,2.6l-1.1,2.5l-1.2,2.5
		l-1.2,2.4l-1.3,2.4l-1.4,2.4l-1.5,2.3l-1.6,2.2l-1.7,2.2l-1.7,2.1l-1.8,2.1l-1.9,2l-2,1.9l-2,1.9l-2.1,1.8l-2.1,1.7l-2.2,1.6
		l-2.3,1.6l-2.3,1.5l-2.4,1.4l-2.4,1.3l-2.5,1.2l-2.5,1.2l-2.5,1.1l-2.6,1l-2.6,0.9l-2.6,0.8l-2.7,0.7l-2.7,0.6l-2.7,0.5l-2.7,0.4
		l-2.7,0.3l-2.7,0.2l-2.8,0.1h-2.8h-2.8l-2.7-0.1l-2.7-0.2l-2.7-0.3l-2.7-0.4l-2.7-0.5l-2.7-0.6l-2.7-0.7l-2.6-0.8l-2.6-0.9l-2.6-1
		l-2.5-1.1l-2.5-1.2l-2.4-1.2l-2.4-1.3l-2.4-1.4l-2.3-1.5l-2.3-1.6l-2.2-1.6l-2.1-1.7l-2.1-1.8l-2-1.9l-1.9-1.9l-1.9-2l-1.8-2.1
		l-1.7-2.1l-1.7-2.2l-1.6-2.2l-1.5-2.3l-1.4-2.4l-1.3-2.4l-1.2-2.4l-1.2-2.5l-1.1-2.5l-1-2.6l-0.9-2.6l-0.8-2.6l-0.7-2.7l-0.6-2.7
		l-0.5-2.7l-0.4-2.7l-0.3-2.7l-0.2-2.7l-0.2-2.8v-2.8v-2.8l0.2-2.8l0.2-2.7l0.3-2.7l0.4-2.7l0.5-2.7l0.6-2.7l0.7-2.7l0.8-2.6
		l0.9-2.6l1-2.6l1.1-2.5l1.2-2.5l1.2-2.4l1.3-2.4l1.4-2.4l1.5-2.3l1.6-2.2l1.7-2.2l1.7-2.1l1.8-2.1l1.9-2l1.9-1.9l2-1.9l2.1-1.8
		l2.1-1.7l2.2-1.7l2.3-1.6l2.3-1.5l2.4-1.4l2.4-1.3l2.4-1.2l2.5-1.2l2.5-1.1l2.6-1l2.6-0.9l2.6-0.8l2.7-0.7l2.7-0.6l2.7-0.5l2.7-0.4
		l2.7-0.3l2.7-0.2l2.7-0.1L600.6,107.3"/>
</g>
<text transform="matrix(1 0 0 1 604.965 99.221)" class="st18 st21 st22">0,3</text>
<text transform="matrix(1 0 0 1 604.965 130.221)" class="st18 st21 st22">0,2</text>
<text transform="matrix(1 0 0 1 604.965 161.221)" class="st18 st21 st22">0,1</text>
<path class="st23" d="M200,165.4l14.4,8.6l13.4,24.4L200,288.9l-37.8-84.7l37.8-21.9V165.4z"/>
<path class="st24" d="M600.3,124.7l77.4,13.9l-33.6,70l-43.8,30.6l-69.2-16l69.2-39.9L600.3,124.7L600.3,124.7z"/>
<path class="st25" d="M600.3,156.7l53.4-4.2l25,76.1l-78.4,37.3l-60-47.9l60-34.6V156.7z"/>
<path class="st19" d="M390.8,337.6H250.3c-10.4,0-18.9-8.5-18.9-18.9v-4.1c0-10.5,8.5-18.9,18.9-18.9h140.4
	c10.5,0,18.9,8.5,18.9,18.9v4.1C409.7,329.1,401.2,337.6,390.8,337.6L390.8,337.6z"/>
<path class="st26" d="M495.8,217.4H358.4c-10.2,0-18.5-8.5-18.5-18.9v-4.1c0-10.5,8.3-18.9,18.5-18.9h137.3
	c10.3,0,18.5,8.5,18.5,18.9v4.1C514.3,208.9,506,217.4,495.8,217.4L495.8,217.4z"/>
<text transform="matrix(1 0 0 1 243.399 313.175)" class="st20 st21 st27">Забайкальский краевой </text>
<text transform="matrix(1 0 0 1 243.399 327.175)" class="st20 st21 st27">драматический театр</text>
<path class="st19" d="M220.4,316.2l12.2,7.1v-14.1L220.4,316.2z M551.8,337.6h-37.6c-10.5,0-18.9-8.5-18.9-18.9v-4.1
	c0-10.5,8.5-18.9,18.9-18.9h37.6c10.5,0,18.9,8.5,18.9,18.9v4.1C570.8,329.1,562.3,337.6,551.8,337.6z"/>
<text transform="matrix(1 0 0 1 506.346 313.175)" class="st28 st21 st27">Военная </text>
<text transform="matrix(1 0 0 1 506.346 327.175)" class="st28 st21 st27">история</text>
<g>
	<path class="st19" d="M581.7,316.2l-12.2,7.1v-14.1L581.7,316.2z"/>
	<path class="st26" d="M757,344.4h-85c-10.5,0-18.9-8.5-18.9-18.9v-28.8c0-10.5,8.5-18.9,18.9-18.9h85c10.5,0,18.9,8.5,18.9,18.9
		v28.8C776,335.9,767.5,344.4,757,344.4L757,344.4z"/>
</g>
<text transform="matrix(1 0 0 1 663.666 295.109)" class="st28 st21 st27">Читинский </text>
<text transform="matrix(1 0 0 1 663.666 309.109)" class="st28 st21 st27">областной </text>
<text transform="matrix(1 0 0 1 663.666 323.109)" class="st28 st21 st27">художественный </text>
<text transform="matrix(1 0 0 1 663.666 337.109)" class="st28 st21 st27">музей</text>
<path class="st19" d="M714.4,266.5l7.1,12.2h-14.1L714.4,266.5z M765.6,86.4H663.1c-10.5,0-18.9-8.5-18.9-18.9v-4.2
	c0-10.5,8.5-18.9,18.9-18.9h102.5c10.5,0,18.9,8.5,18.9,18.9v4.2C784.5,77.9,776.1,86.4,765.6,86.4z"/>
<text transform="matrix(1 0 0 1 652.218 62.72)" class="st29 st21 st27">Железнодорожный </text>
<text transform="matrix(1 0 0 1 652.218 76.72)" class="st29 st21 st27">транспорт</text>
<g>
	<path class="st19" d="M714.4,98.4l7.1-12.2h-14.1L714.4,98.4z"/>
</g>
<text transform="matrix(1 0 0 1 360.6476 193.9943)" class="st29 st21 st27">Алханай и Чикой </text>
<text transform="matrix(1 0 0 1 358.6476 207.7498)" class="st29 st21 st27">(национальные парки)</text>
<text transform="matrix(1 0 0 1 360.6476 228.6679)" class="st29 st21 st27"> </text>
<path class="st19" d="M346.6,72.4h-93.4c-10.4,0-18.9-8.5-18.9-18.9v-4.2c0-10.5,8.5-18.9,18.9-18.9h93.4c10.5,0,18.9,8.5,18.9,18.9
	v4.2C365.5,64,357,72.4,346.6,72.4L346.6,72.4z M486.2,229.6l-7.1-12.2h14.1L486.2,229.6z"/>
<text transform="matrix(1 0 0 1 246.284 48.041)" class="st20 st21 st27">Фестиваль </text>
<text transform="matrix(1 0 0 1 246.284 62.041)" class="st20 st21 st27">авторской песни</text>
<path class="st19" d="M223.2,51.1l12.2,7.1V44L223.2,51.1z"/>
</svg>
