<?xml version="1.0" encoding="utf-8"?>
<!-- Generator: Adobe Illustrator 25.0.0, SVG Export Plug-In . SVG Version: 6.00 Build 0)  -->
<svg version="1.1" id="Layer_1" xmlns="http://www.w3.org/2000/svg" xmlns:xlink="http://www.w3.org/1999/xlink" x="0px" y="0px"
	 viewBox="0 0 800 365" style="enable-background:new 0 0 800 365;" xml:space="preserve">
<style type="text/css">
	.st0{fill:#D9D9D9;}
	.st1{fill:#FFFFFF;}
	.st2{fill:#FFFFFF;stroke:#D9D9D9;stroke-width:2;stroke-miterlimit:10;}
	.st3{fill:none;stroke:#D9D9D9;stroke-width:2;stroke-miterlimit:10;}
	
		.st4{clip-path:url(#SVGID_2_);fill:none;stroke:#D9D9D9;stroke-width:2;stroke-linecap:square;stroke-linejoin:round;stroke-miterlimit:10;}
	
		.st5{clip-path:url(#SVGID_4_);fill:none;stroke:#D9D9D9;stroke-width:2;stroke-linecap:square;stroke-linejoin:round;stroke-miterlimit:10;}
	
		.st6{clip-path:url(#SVGID_6_);fill:none;stroke:#D9D9D9;stroke-width:2;stroke-linecap:square;stroke-linejoin:round;stroke-miterlimit:10;}
	
		.st7{clip-path:url(#SVGID_8_);fill:none;stroke:#D9D9D9;stroke-width:2;stroke-linecap:square;stroke-linejoin:round;stroke-miterlimit:10;}
	
		.st8{clip-path:url(#SVGID_10_);fill:none;stroke:#D9D9D9;stroke-width:2;stroke-linecap:square;stroke-linejoin:round;stroke-miterlimit:10;}
	
		.st9{clip-path:url(#SVGID_12_);fill:none;stroke:#D9D9D9;stroke-width:2;stroke-linecap:square;stroke-linejoin:round;stroke-miterlimit:10;}
	
		.st10{clip-path:url(#SVGID_14_);fill:none;stroke:#D9D9D9;stroke-width:2;stroke-linecap:square;stroke-linejoin:round;stroke-miterlimit:10;}
	
		.st11{clip-path:url(#SVGID_16_);fill:none;stroke:#D9D9D9;stroke-width:2;stroke-linecap:square;stroke-linejoin:round;stroke-miterlimit:10;}
	
		.st12{clip-path:url(#SVGID_18_);fill:none;stroke:#D9D9D9;stroke-width:2;stroke-linecap:square;stroke-linejoin:round;stroke-miterlimit:10;}
	
		.st13{clip-path:url(#SVGID_20_);fill:none;stroke:#D9D9D9;stroke-width:2;stroke-linecap:square;stroke-linejoin:round;stroke-miterlimit:10;}
	.st14{fill:#0D2B40;}
	.st15{fill:#4A92A5;}
	.st16{font-family:'AtlasGroteskLC-Regular', Helvetica,Arial,sans-serif;}
	.st17{font-size:12.8587px;}
	.st18{opacity:0.7;fill:#ED715D;enable-background:new    ;}
	.st19{fill:none;stroke:#D9D9D9;stroke-width:2;stroke-linecap:square;stroke-linejoin:round;stroke-miterlimit:10;}
	
		.st20{clip-path:url(#SVGID_22_);fill:none;stroke:#D9D9D9;stroke-width:2;stroke-linecap:square;stroke-linejoin:round;stroke-miterlimit:10;}
	
		.st21{clip-path:url(#SVGID_24_);fill:none;stroke:#D9D9D9;stroke-width:2;stroke-linecap:square;stroke-linejoin:round;stroke-miterlimit:10;}
	
		.st22{clip-path:url(#SVGID_26_);fill:none;stroke:#D9D9D9;stroke-width:2;stroke-linecap:square;stroke-linejoin:round;stroke-miterlimit:10;}
	
		.st23{clip-path:url(#SVGID_28_);fill:none;stroke:#D9D9D9;stroke-width:2;stroke-linecap:square;stroke-linejoin:round;stroke-miterlimit:10;}
	
		.st24{clip-path:url(#SVGID_30_);fill:none;stroke:#D9D9D9;stroke-width:2;stroke-linecap:square;stroke-linejoin:round;stroke-miterlimit:10;}
	
		.st25{clip-path:url(#SVGID_32_);fill:none;stroke:#D9D9D9;stroke-width:2;stroke-linecap:square;stroke-linejoin:round;stroke-miterlimit:10;}
	
		.st26{clip-path:url(#SVGID_34_);fill:none;stroke:#D9D9D9;stroke-width:2;stroke-linecap:square;stroke-linejoin:round;stroke-miterlimit:10;}
	.st27{opacity:0.7;fill:#4A92A5;enable-background:new    ;}
	.st28{opacity:0.7;fill:#5E88C1;enable-background:new    ;}
	.st29{font-size:13px;}
	.st30{fill:#FFFFFF;stroke:#D9D9D9;stroke-miterlimit:10;}
	.st31{font-family:'Atlas-Regular',Helvetica,Arial,sans-serif;}
	.st32{fill:#ED715D;}
</style>
<rect x="0" class="st0" width="800" height="365"/>
<path class="st1" d="M486.6,267.8l-7.1,12.2h14.1L486.6,267.8z M362.3,72.4h-109c-10.4,0-18.9-8.5-18.9-18.9v-4.2
	c0-10.5,8.5-18.9,18.9-18.9h109.1c10.5,0,18.9,8.5,18.9,18.9v4.2C381.2,63.9,372.7,72.4,362.3,72.4L362.3,72.4z"/>
<path class="st2" d="M600.6,182.9L600.6,182.9 M705.6,182.9c0-13.8-2.7-27.4-8-40.2c-5.3-12.7-13-24.3-22.8-34.1
	c-9.7-9.7-21.3-17.5-34.1-22.8c-12.7-5.3-26.4-8-40.2-8c-13.8,0-27.4,2.7-40.2,8c-12.7,5.3-24.3,13-34.1,22.8
	c-9.7,9.7-17.5,21.3-22.8,34.1c-5.3,12.7-8,26.4-8,40.2s2.7,27.4,8,40.2c5.3,12.7,13,24.3,22.8,34.1c9.7,9.7,21.3,17.5,34.1,22.8
	c12.7,5.3,26.4,8,40.2,8c13.8,0,27.4-2.7,40.2-8c12.7-5.3,24.3-13,34.1-22.8c9.7-9.7,17.5-21.3,22.8-34.1
	C702.9,210.3,705.6,196.7,705.6,182.9"/>
<path class="st3" d="M600.6,182.9L600.6,182.9 M705.6,182.9c0-13.8-2.7-27.4-8-40.2c-5.3-12.7-13-24.3-22.8-34.1
	c-9.7-9.7-21.3-17.5-34.1-22.8c-12.7-5.3-26.4-8-40.2-8c-13.8,0-27.4,2.7-40.2,8c-12.7,5.3-24.3,13-34.1,22.8
	c-9.7,9.7-17.5,21.3-22.8,34.1c-5.3,12.7-8,26.4-8,40.2s2.7,27.4,8,40.2c5.3,12.7,13,24.3,22.8,34.1c9.7,9.7,21.3,17.5,34.1,22.8
	c12.7,5.3,26.4,8,40.2,8c13.8,0,27.4-2.7,40.2-8c12.7-5.3,24.3-13,34.1-22.8c9.7-9.7,17.5-21.3,22.8-34.1
	C702.9,210.3,705.6,196.7,705.6,182.9"/>
<g>
	<defs>
		<path id="SVGID_1_" d="M600.6,182.9L600.6,182.9 M705.6,182.9c0-13.8-2.7-27.4-8-40.2c-5.3-12.7-13-24.3-22.8-34.1
			c-9.7-9.7-21.3-17.5-34.1-22.8c-12.7-5.3-26.4-8-40.2-8c-13.8,0-27.4,2.7-40.2,8c-12.7,5.3-24.3,13-34.1,22.8
			c-9.7,9.7-17.5,21.3-22.8,34.1c-5.3,12.7-8,26.4-8,40.2s2.7,27.4,8,40.2c5.3,12.7,13,24.3,22.8,34.1c9.7,9.7,21.3,17.5,34.1,22.8
			c12.7,5.3,26.4,8,40.2,8c13.8,0,27.4-2.7,40.2-8c12.7-5.3,24.3-13,34.1-22.8c9.7-9.7,17.5-21.3,22.8-34.1
			C702.9,210.3,705.6,196.7,705.6,182.9"/>
	</defs>
	<clipPath id="SVGID_2_">
		<use xlink:href="#SVGID_1_"  style="overflow:visible;"/>
	</clipPath>
	<line class="st4" x1="600.6" y1="182.9" x2="600.6" y2="77.9"/>
	<use xlink:href="#SVGID_1_"  style="overflow:visible;fill:none;stroke:#D9D9D9;stroke-width:2;stroke-miterlimit:10;"/>
</g>
<g>
	<defs>
		<path id="SVGID_3_" d="M600.6,182.9L600.6,182.9 M705.6,182.9c0-13.8-2.7-27.4-8-40.2c-5.3-12.7-13-24.3-22.8-34.1
			c-9.7-9.7-21.3-17.5-34.1-22.8c-12.7-5.3-26.4-8-40.2-8c-13.8,0-27.4,2.7-40.2,8c-12.7,5.3-24.3,13-34.1,22.8
			c-9.7,9.7-17.5,21.3-22.8,34.1c-5.3,12.7-8,26.4-8,40.2s2.7,27.4,8,40.2c5.3,12.7,13,24.3,22.8,34.1c9.7,9.7,21.3,17.5,34.1,22.8
			c12.7,5.3,26.4,8,40.2,8c13.8,0,27.4-2.7,40.2-8c12.7-5.3,24.3-13,34.1-22.8c9.7-9.7,17.5-21.3,22.8-34.1
			C702.9,210.3,705.6,196.7,705.6,182.9"/>
	</defs>
	<clipPath id="SVGID_4_">
		<use xlink:href="#SVGID_3_"  style="overflow:visible;"/>
	</clipPath>
	<line class="st5" x1="600.6" y1="182.9" x2="691.6" y2="130.4"/>
	<use xlink:href="#SVGID_3_"  style="overflow:visible;fill:none;stroke:#D9D9D9;stroke-width:2;stroke-miterlimit:10;"/>
</g>
<g>
	<defs>
		<path id="SVGID_5_" d="M600.6,182.9L600.6,182.9 M705.6,182.9c0-13.8-2.7-27.4-8-40.2c-5.3-12.7-13-24.3-22.8-34.1
			c-9.7-9.7-21.3-17.5-34.1-22.8c-12.7-5.3-26.4-8-40.2-8c-13.8,0-27.4,2.7-40.2,8c-12.7,5.3-24.3,13-34.1,22.8
			c-9.7,9.7-17.5,21.3-22.8,34.1c-5.3,12.7-8,26.4-8,40.2s2.7,27.4,8,40.2c5.3,12.7,13,24.3,22.8,34.1c9.7,9.7,21.3,17.5,34.1,22.8
			c12.7,5.3,26.4,8,40.2,8c13.8,0,27.4-2.7,40.2-8c12.7-5.3,24.3-13,34.1-22.8c9.7-9.7,17.5-21.3,22.8-34.1
			C702.9,210.3,705.6,196.7,705.6,182.9"/>
	</defs>
	<clipPath id="SVGID_6_">
		<use xlink:href="#SVGID_5_"  style="overflow:visible;"/>
	</clipPath>
	<line class="st6" x1="600.6" y1="182.9" x2="691.6" y2="235.4"/>
	<use xlink:href="#SVGID_5_"  style="overflow:visible;fill:none;stroke:#D9D9D9;stroke-width:2;stroke-miterlimit:10;"/>
</g>
<g>
	<defs>
		<path id="SVGID_7_" d="M600.6,182.9L600.6,182.9 M705.6,182.9c0-13.8-2.7-27.4-8-40.2c-5.3-12.7-13-24.3-22.8-34.1
			c-9.7-9.7-21.3-17.5-34.1-22.8c-12.7-5.3-26.4-8-40.2-8c-13.8,0-27.4,2.7-40.2,8c-12.7,5.3-24.3,13-34.1,22.8
			c-9.7,9.7-17.5,21.3-22.8,34.1c-5.3,12.7-8,26.4-8,40.2s2.7,27.4,8,40.2c5.3,12.7,13,24.3,22.8,34.1c9.7,9.7,21.3,17.5,34.1,22.8
			c12.7,5.3,26.4,8,40.2,8c13.8,0,27.4-2.7,40.2-8c12.7-5.3,24.3-13,34.1-22.8c9.7-9.7,17.5-21.3,22.8-34.1
			C702.9,210.3,705.6,196.7,705.6,182.9"/>
	</defs>
	<clipPath id="SVGID_8_">
		<use xlink:href="#SVGID_7_"  style="overflow:visible;"/>
	</clipPath>
	<line class="st7" x1="600.6" y1="182.9" x2="600.6" y2="287.9"/>
	<use xlink:href="#SVGID_7_"  style="overflow:visible;fill:none;stroke:#D9D9D9;stroke-width:2;stroke-miterlimit:10;"/>
</g>
<g>
	<defs>
		<path id="SVGID_9_" d="M600.6,182.9L600.6,182.9 M705.6,182.9c0-13.8-2.7-27.4-8-40.2c-5.3-12.7-13-24.3-22.8-34.1
			c-9.7-9.7-21.3-17.5-34.1-22.8c-12.7-5.3-26.4-8-40.2-8c-13.8,0-27.4,2.7-40.2,8c-12.7,5.3-24.3,13-34.1,22.8
			c-9.7,9.7-17.5,21.3-22.8,34.1c-5.3,12.7-8,26.4-8,40.2s2.7,27.4,8,40.2c5.3,12.7,13,24.3,22.8,34.1c9.7,9.7,21.3,17.5,34.1,22.8
			c12.7,5.3,26.4,8,40.2,8c13.8,0,27.4-2.7,40.2-8c12.7-5.3,24.3-13,34.1-22.8c9.7-9.7,17.5-21.3,22.8-34.1
			C702.9,210.3,705.6,196.7,705.6,182.9"/>
	</defs>
	<clipPath id="SVGID_10_">
		<use xlink:href="#SVGID_9_"  style="overflow:visible;"/>
	</clipPath>
	<line class="st8" x1="600.6" y1="182.9" x2="509.7" y2="235.4"/>
	<use xlink:href="#SVGID_9_"  style="overflow:visible;fill:none;stroke:#D9D9D9;stroke-width:2;stroke-miterlimit:10;"/>
</g>
<g>
	<defs>
		<path id="SVGID_11_" d="M600.6,182.9L600.6,182.9 M705.6,182.9c0-13.8-2.7-27.4-8-40.2c-5.3-12.7-13-24.3-22.8-34.1
			c-9.7-9.7-21.3-17.5-34.1-22.8c-12.7-5.3-26.4-8-40.2-8c-13.8,0-27.4,2.7-40.2,8c-12.7,5.3-24.3,13-34.1,22.8
			c-9.7,9.7-17.5,21.3-22.8,34.1c-5.3,12.7-8,26.4-8,40.2s2.7,27.4,8,40.2c5.3,12.7,13,24.3,22.8,34.1c9.7,9.7,21.3,17.5,34.1,22.8
			c12.7,5.3,26.4,8,40.2,8c13.8,0,27.4-2.7,40.2-8c12.7-5.3,24.3-13,34.1-22.8c9.7-9.7,17.5-21.3,22.8-34.1
			C702.9,210.3,705.6,196.7,705.6,182.9"/>
	</defs>
	<clipPath id="SVGID_12_">
		<use xlink:href="#SVGID_11_"  style="overflow:visible;"/>
	</clipPath>
	<line class="st9" x1="600.6" y1="182.9" x2="509.7" y2="130.4"/>
	<use xlink:href="#SVGID_11_"  style="overflow:visible;fill:none;stroke:#D9D9D9;stroke-width:2;stroke-miterlimit:10;"/>
</g>
<g>
	<defs>
		<path id="SVGID_13_" d="M600.6,182.9L600.6,182.9 M705.6,182.9c0-13.8-2.7-27.4-8-40.2c-5.3-12.7-13-24.3-22.8-34.1
			c-9.7-9.7-21.3-17.5-34.1-22.8c-12.7-5.3-26.4-8-40.2-8c-13.8,0-27.4,2.7-40.2,8c-12.7,5.3-24.3,13-34.1,22.8
			c-9.7,9.7-17.5,21.3-22.8,34.1c-5.3,12.7-8,26.4-8,40.2s2.7,27.4,8,40.2c5.3,12.7,13,24.3,22.8,34.1c9.7,9.7,21.3,17.5,34.1,22.8
			c12.7,5.3,26.4,8,40.2,8c13.8,0,27.4-2.7,40.2-8c12.7-5.3,24.3-13,34.1-22.8c9.7-9.7,17.5-21.3,22.8-34.1
			C702.9,210.3,705.6,196.7,705.6,182.9"/>
	</defs>
	<clipPath id="SVGID_14_">
		<use xlink:href="#SVGID_13_"  style="overflow:visible;"/>
	</clipPath>
	<polyline class="st10" points="600.6,161.9 602.1,161.9 603.6,162.1 605,162.3 606.4,162.7 607.8,163.2 609.2,163.7 610.5,164.3 
		611.8,165.1 613,165.9 614.1,166.8 615.2,167.8 616.2,168.8 617.2,170 618,171.1 618.8,172.4 619.5,173.7 620.1,175 620.6,176.4 
		621,177.8 621.3,179.2 621.5,180.7 621.6,182.2 621.6,183.6 621.5,185.1 621.3,186.5 621,188 620.6,189.4 620.1,190.8 619.5,192.1 
		618.8,193.4 618,194.6 617.2,195.8 616.2,196.9 615.2,198 614.1,199 613,199.9 611.8,200.7 610.5,201.4 609.2,202.1 607.8,202.6 
		606.4,203.1 605,203.4 603.6,203.7 602.1,203.8 600.6,203.9 599.2,203.8 597.7,203.7 596.3,203.4 594.8,203.1 593.4,202.6 
		592.1,202.1 590.8,201.4 589.5,200.7 588.3,199.9 587.1,199 586,198 585,196.9 584.1,195.8 583.2,194.6 582.4,193.4 581.8,192.1 
		581.2,190.8 580.7,189.4 580.3,188 579.9,186.5 579.7,185.1 579.6,183.6 579.6,182.2 579.7,180.7 579.9,179.2 580.3,177.8 
		580.7,176.4 581.2,175 581.8,173.7 582.4,172.4 583.2,171.1 584.1,170 585,168.8 586,167.8 587.1,166.8 588.3,165.9 589.5,165.1 
		590.8,164.3 592.1,163.7 593.4,163.2 594.8,162.7 596.3,162.3 597.7,162.1 599.2,161.9 600.6,161.9 	"/>
	<use xlink:href="#SVGID_13_"  style="overflow:visible;fill:none;stroke:#D9D9D9;stroke-width:2;stroke-miterlimit:10;"/>
</g>
<g>
	<defs>
		<path id="SVGID_15_" d="M600.6,182.9L600.6,182.9 M705.6,182.9c0-13.8-2.7-27.4-8-40.2c-5.3-12.7-13-24.3-22.8-34.1
			c-9.7-9.7-21.3-17.5-34.1-22.8c-12.7-5.3-26.4-8-40.2-8c-13.8,0-27.4,2.7-40.2,8c-12.7,5.3-24.3,13-34.1,22.8
			c-9.7,9.7-17.5,21.3-22.8,34.1c-5.3,12.7-8,26.4-8,40.2s2.7,27.4,8,40.2c5.3,12.7,13,24.3,22.8,34.1c9.7,9.7,21.3,17.5,34.1,22.8
			c12.7,5.3,26.4,8,40.2,8c13.8,0,27.4-2.7,40.2-8c12.7-5.3,24.3-13,34.1-22.8c9.7-9.7,17.5-21.3,22.8-34.1
			C702.9,210.3,705.6,196.7,705.6,182.9"/>
	</defs>
	<clipPath id="SVGID_16_">
		<use xlink:href="#SVGID_15_"  style="overflow:visible;"/>
	</clipPath>
	<polyline class="st11" points="600.6,140.9 603.6,141 606.5,141.3 609.4,141.8 612.2,142.5 615,143.4 617.7,144.5 620.3,145.8 
		622.9,147.3 625.3,148.9 627.6,150.7 629.8,152.7 631.8,154.8 633.7,157 635.4,159.4 637,161.9 638.4,164.5 639.6,167.2 
		640.6,169.9 641.4,172.7 642,175.6 642.4,178.5 642.6,181.4 642.6,184.4 642.4,187.3 642,190.2 641.4,193.1 640.6,195.9 
		639.6,198.6 638.4,201.3 637,203.9 635.4,206.4 633.7,208.7 631.8,211 629.8,213.1 627.6,215.1 625.3,216.9 622.9,218.5 620.3,220 
		617.7,221.3 615,222.4 612.2,223.3 609.4,224 606.5,224.5 603.6,224.8 600.6,224.9 597.7,224.8 594.8,224.5 591.9,224 589,223.3 
		586.3,222.4 583.5,221.3 580.9,220 578.4,218.5 575.9,216.9 573.6,215.1 571.5,213.1 569.4,211 567.5,208.7 565.8,206.4 
		564.3,203.9 562.9,201.3 561.7,198.6 560.7,195.9 559.9,193.1 559.3,190.2 558.9,187.3 558.7,184.4 558.7,181.4 558.9,178.5 
		559.3,175.6 559.9,172.7 560.7,169.9 561.7,167.2 562.9,164.5 564.3,161.9 565.8,159.4 567.5,157 569.4,154.8 571.5,152.7 
		573.6,150.7 575.9,148.9 578.4,147.3 580.9,145.8 583.5,144.5 586.3,143.4 589,142.5 591.9,141.8 594.8,141.3 597.7,141 
		600.6,140.9 	"/>
	<use xlink:href="#SVGID_15_"  style="overflow:visible;fill:none;stroke:#D9D9D9;stroke-width:2;stroke-miterlimit:10;"/>
</g>
<g>
	<defs>
		<path id="SVGID_17_" d="M600.6,182.9L600.6,182.9 M705.6,182.9c0-13.8-2.7-27.4-8-40.2c-5.3-12.7-13-24.3-22.8-34.1
			c-9.7-9.7-21.3-17.5-34.1-22.8c-12.7-5.3-26.4-8-40.2-8c-13.8,0-27.4,2.7-40.2,8c-12.7,5.3-24.3,13-34.1,22.8
			c-9.7,9.7-17.5,21.3-22.8,34.1c-5.3,12.7-8,26.4-8,40.2s2.7,27.4,8,40.2c5.3,12.7,13,24.3,22.8,34.1c9.7,9.7,21.3,17.5,34.1,22.8
			c12.7,5.3,26.4,8,40.2,8c13.8,0,27.4-2.7,40.2-8c12.7-5.3,24.3-13,34.1-22.8c9.7-9.7,17.5-21.3,22.8-34.1
			C702.9,210.3,705.6,196.7,705.6,182.9"/>
	</defs>
	<clipPath id="SVGID_18_">
		<use xlink:href="#SVGID_17_"  style="overflow:visible;"/>
	</clipPath>
	<polyline class="st12" points="600.6,119.9 602.8,119.9 605,120 607.2,120.2 609.4,120.5 611.6,120.8 613.7,121.3 615.9,121.8 
		618,122.3 620.1,123 622.2,123.7 624.2,124.5 626.3,125.3 628.2,126.3 630.2,127.3 632.1,128.3 634,129.5 635.9,130.7 637.7,131.9 
		639.4,133.2 641.1,134.6 642.8,136.1 644.4,137.6 646,139.1 647.4,140.7 648.9,142.4 650.3,144.1 651.6,145.9 652.9,147.7 
		654.1,149.5 655.2,151.4 656.3,153.3 657.3,155.3 658.2,157.3 659,159.3 659.8,161.3 660.5,163.4 661.2,165.5 661.8,167.6 
		662.3,169.8 662.7,171.9 663,174.1 663.3,176.3 663.5,178.5 663.6,180.7 663.6,182.9 663.6,185.1 663.5,187.3 663.3,189.5 
		663,191.7 662.7,193.8 662.3,196 661.8,198.1 661.2,200.3 660.5,202.4 659.8,204.4 659,206.5 658.2,208.5 657.3,210.5 656.3,212.5 
		655.2,214.4 654.1,216.3 652.9,218.1 651.6,219.9 650.3,221.7 648.9,223.4 647.4,225 646,226.7 644.4,228.2 642.8,229.7 
		641.1,231.2 639.4,232.5 637.7,233.9 635.9,235.1 634,236.3 632.1,237.4 630.2,238.5 628.2,239.5 626.3,240.4 624.2,241.3 
		622.2,242.1 620.1,242.8 618,243.4 615.9,244 613.7,244.5 611.6,244.9 609.4,245.3 607.2,245.5 605,245.7 602.8,245.8 600.6,245.9 
		598.4,245.8 596.2,245.7 594,245.5 591.9,245.3 589.7,244.9 587.5,244.5 585.4,244 583.3,243.4 581.2,242.8 579.1,242.1 577,241.3 
		575,240.4 573,239.5 571.1,238.5 569.1,237.4 567.2,236.3 565.4,235.1 563.6,233.9 561.8,232.5 560.1,231.2 558.5,229.7 
		556.9,228.2 555.3,226.7 553.8,225 552.4,223.4 551,221.7 549.7,219.9 548.4,218.1 547.2,216.3 546.1,214.4 545,212.5 544,210.5 
		543.1,208.5 542.2,206.5 541.4,204.4 540.7,202.4 540.1,200.3 539.5,198.1 539,196 538.6,193.8 538.2,191.7 538,189.5 537.8,187.3 
		537.7,185.1 537.6,182.9 537.7,180.7 537.8,178.5 538,176.3 538.2,174.1 538.6,171.9 539,169.8 539.5,167.6 540.1,165.5 
		540.7,163.4 541.4,161.3 542.2,159.3 543.1,157.3 544,155.3 545,153.3 546.1,151.4 547.2,149.5 548.4,147.7 549.7,145.9 551,144.1 
		552.4,142.4 553.8,140.7 555.3,139.1 556.9,137.6 558.5,136.1 560.1,134.6 561.8,133.2 563.6,131.9 565.4,130.7 567.2,129.5 
		569.1,128.3 571.1,127.3 573,126.3 575,125.3 577,124.5 579.1,123.7 581.2,123 583.3,122.3 585.4,121.8 587.5,121.3 589.7,120.8 
		591.9,120.5 594,120.2 596.2,120 598.4,119.9 600.6,119.9 	"/>
	<use xlink:href="#SVGID_17_"  style="overflow:visible;fill:none;stroke:#D9D9D9;stroke-width:2;stroke-miterlimit:10;"/>
</g>
<g>
	<defs>
		<path id="SVGID_19_" d="M600.6,182.9L600.6,182.9 M674.9,108.6c-9.7-9.7-21.3-17.5-34.1-22.8c-12.7-5.3-26.4-8-40.2-8
			c-13.8,0-27.4,2.7-40.2,8c-12.7,5.3-24.3,13-34.1,22.8c-9.7,9.7-17.5,21.3-22.8,34.1c-5.3,12.7-8,26.4-8,40.2s2.7,27.4,8,40.2
			c5.3,12.7,13,24.3,22.8,34.1c9.7,9.7,21.3,17.5,34.1,22.8c12.7,5.3,26.4,8,40.2,8c13.8,0,27.4-2.7,40.2-8
			c12.7-5.3,24.3-13,34.1-22.8c9.7-9.7,17.5-21.3,22.8-34.1c5.3-12.7,8-26.4,8-40.2 M705.6,182.9"/>
	</defs>
	<clipPath id="SVGID_20_">
		<use xlink:href="#SVGID_19_"  style="overflow:visible;"/>
	</clipPath>
	<polyline class="st13" points="600.6,98.9 603.6,98.9 606.5,99.1 609.4,99.3 612.3,99.7 615.2,100.2 618.1,100.7 621,101.4 
		623.8,102.1 626.6,103 629.4,104 632.1,105 634.8,106.2 637.4,107.4 640.1,108.7 642.6,110.1 645.1,111.6 647.6,113.3 650,114.9 
		652.3,116.7 654.6,118.5 656.8,120.5 659,122.5 661.1,124.5 663.1,126.7 665,128.9 666.8,131.2 668.6,133.5 670.3,135.9 
		671.9,138.4 673.4,140.9 674.8,143.5 676.1,146.1 677.4,148.7 678.5,151.4 679.6,154.2 680.5,156.9 681.4,159.7 682.1,162.6 
		682.8,165.4 683.4,168.3 683.8,171.2 684.2,174.1 684.4,177 684.6,180 684.6,182.9 684.6,185.8 684.4,188.7 684.2,191.7 
		683.8,194.6 683.4,197.5 682.8,200.4 682.1,203.2 681.4,206 680.5,208.8 679.6,211.6 678.5,214.4 677.4,217.1 676.1,219.7 
		674.8,222.3 673.4,224.9 671.9,227.4 670.3,229.9 668.6,232.3 666.8,234.6 665,236.9 663.1,239.1 661.1,241.2 659,243.3 
		656.8,245.3 654.6,247.2 652.3,249.1 650,250.8 647.6,252.5 645.1,254.1 642.6,255.6 640.1,257.1 637.4,258.4 634.8,259.6 
		632.1,260.8 629.4,261.8 626.6,262.8 623.8,263.6 621,264.4 618.1,265.1 615.2,265.6 612.3,266.1 609.4,266.4 606.5,266.7 
		603.6,266.8 600.6,266.9 597.7,266.8 594.8,266.7 591.8,266.4 588.9,266.1 586,265.6 583.2,265.1 580.3,264.4 577.5,263.6 
		574.7,262.8 571.9,261.8 569.2,260.8 566.5,259.6 563.8,258.4 561.2,257.1 558.6,255.6 556.1,254.1 553.7,252.5 551.3,250.8 
		548.9,249.1 546.6,247.2 544.4,245.3 542.3,243.3 540.2,241.2 538.2,239.1 536.3,236.9 534.4,234.6 532.7,232.3 531,229.9 
		529.4,227.4 527.9,224.9 526.5,222.3 525.1,219.7 523.9,217.1 522.7,214.4 521.7,211.6 520.7,208.8 519.9,206 519.1,203.2 
		518.5,200.4 517.9,197.5 517.4,194.6 517.1,191.7 516.8,188.7 516.7,185.8 516.6,182.9 516.7,180 516.8,177 517.1,174.1 
		517.4,171.2 517.9,168.3 518.5,165.4 519.1,162.6 519.9,159.7 520.7,156.9 521.7,154.2 522.7,151.4 523.9,148.7 525.1,146.1 
		526.5,143.5 527.9,140.9 529.4,138.4 531,135.9 532.7,133.5 534.4,131.2 536.3,128.9 538.2,126.7 540.2,124.5 542.3,122.5 
		544.4,120.5 546.6,118.5 548.9,116.7 551.3,114.9 553.7,113.3 556.1,111.6 558.6,110.1 561.2,108.7 563.8,107.4 566.5,106.2 
		569.2,105 571.9,104 574.7,103 577.5,102.1 580.3,101.4 583.2,100.7 586,100.2 588.9,99.7 591.8,99.3 594.8,99.1 597.7,98.9 
		600.6,98.9 	"/>
	<use xlink:href="#SVGID_19_"  style="overflow:visible;fill:none;stroke:#D9D9D9;stroke-width:2;stroke-miterlimit:10;"/>
</g>
<path class="st3" d="M600.6,182.9L600.6,182.9"/>
<g>
	<circle class="st14" cx="486.6" cy="247.9" r="18.5"/>
	<g>
		<path class="st1" d="M486.6,234.8c-4.1,4.1-17.3,16.6,0,26.2"/>
		<path class="st15" d="M486.6,234.8c4.1,4.1,17.3,16.6,0,26.2"/>
	</g>
</g>
<g>
	<circle class="st14" cx="714.8" cy="247.9" r="18.5"/>
	<g>
		<g>
			<rect x="706.3" y="241.5" class="st1" width="3.7" height="14.8"/>
			<rect x="713.1" y="241.5" class="st1" width="3.7" height="14.8"/>
			<rect x="719.9" y="241.5" class="st1" width="3.7" height="14.8"/>
		</g>
		<polygon class="st15" points="715,234.3 702.4,241.5 727.5,241.5 		"/>
		<rect x="702.4" y="255.6" class="st15" width="25.1" height="3.9"/>
	</g>
</g>
<g>
	<circle class="st14" cx="600.7" cy="51.3" r="18.5"/>
	<rect x="589" y="39.3" class="st15" width="23.4" height="24.1"/>
	<rect x="591.6" y="45.6" class="st1" width="18" height="14.9"/>
	
		<rect x="590.8" y="39.2" transform="matrix(-1.836970e-16 1 -1 -1.836970e-16 633.6925 -552.5898)" class="st1" width="4.7" height="2.6"/>
	
		<rect x="598.3" y="39.2" transform="matrix(-1.836970e-16 1 -1 -1.836970e-16 641.2202 -560.1175)" class="st1" width="4.7" height="2.6"/>
	
		<rect x="605.8" y="39.2" transform="matrix(-1.836970e-16 1 -1 -1.836970e-16 648.7479 -567.6452)" class="st1" width="4.7" height="2.6"/>
	<polygon class="st15" points="600.7,46.6 602.6,50.6 607,51.2 603.8,54.3 604.6,58.6 600.7,56.6 596.7,58.6 597.5,54.3 594.3,51.2 
		598.7,50.6 	"/>
</g>
<g>
	<circle class="st14" cx="486.6" cy="117.6" r="18.5"/>
	<g>
		<path class="st15" d="M499.2,120v-5h-3.4c-0.2-0.8-0.6-1.5-1-2.2l2.5-2.5l-3.5-3.5l-2.5,2.5c-0.7-0.4-1.5-0.8-2.2-1v-3.4h-5v3.3
			c-0.9,0.2-1.7,0.5-2.5,0.9l-2.2-2.2l-3.5,3.5l2,2c-0.5,0.8-1,1.7-1.2,2.6h-2.8v5h2.6c0.2,1,0.6,2,1.1,2.9l-1.8,1.8l3.5,3.5
			l1.8-1.8c0.9,0.5,1.9,0.9,2.9,1.1v2.6h5v-2.8c0.9-0.3,1.8-0.7,2.6-1.2l2,2l3.5-3.5l-2.2-2.2c0.4-0.8,0.7-1.6,0.9-2.5H499.2z"/>
		<circle class="st1" cx="486.2" cy="117.8" r="5.6"/>
	</g>
</g>
<g>
	<circle class="st14" cx="600.6" cy="314.5" r="18.5"/>
	<path class="st15" d="M594.2,304.7c-0.2-1.3-1.3-2.2-2.6-2.2c-1.5,0-2.7,1.2-2.7,2.7s1.2,2.7,2.7,2.7h6.9v-3.1H594.2z"/>
	<path class="st1" d="M591.5,302.4h15.2c1.7,0,3.1,1.4,3.1,3.1v21.1h-13.1c-1.7,0-3.1-1.4-3.1-3.1c0,0,0-13.7,0-18.3
		C593.6,304.4,593.8,302.4,591.5,302.4z"/>
	<path class="st15" d="M598.5,323.6h16.3v0.1c0,1.6-1.3,3-3,3H596C596,326.6,598.5,326.6,598.5,323.6z"/>
	<rect x="596" y="307.2" class="st15" width="12" height="2.2"/>
	<rect x="596" y="311.8" class="st15" width="12" height="2.2"/>
	<rect x="596" y="316.4" class="st15" width="8" height="2.2"/>
</g>
<text transform="matrix(1 0 0 1 603.6288 95.9573)"><tspan x="0" y="0" class="st14 st16 st17">0,4</tspan><tspan x="0" y="21.4" class="st14 st16 st17">0,3</tspan><tspan x="0" y="42.7" class="st14 st16 st17">0,2</tspan><tspan x="0" y="64.1" class="st14 st16 st17">0,1</tspan></text>
<g>
	<circle class="st14" cx="714.8" cy="117.1" r="18.5"/>
	<path class="st15" d="M725.8,115.1h-22v-4.6c0-1.8,1.5-3.3,3.3-3.3h15.4c1.8,0,3.3,1.5,3.3,3.3V115.1z"/>
	<g>
		<path class="st1" d="M712.1,116.6h-4.2c-0.9,0-1.6-0.7-1.6-1.6v-4.2c0-0.9,0.7-1.6,1.6-1.6h4.2c0.9,0,1.6,0.7,1.6,1.6v4.2
			C713.7,115.9,713,116.6,712.1,116.6z"/>
		<path class="st1" d="M721.8,116.6h-4.2c-0.9,0-1.6-0.7-1.6-1.6v-4.2c0-0.9,0.7-1.6,1.6-1.6h4.2c0.9,0,1.6,0.7,1.6,1.6v4.2
			C723.4,115.9,722.7,116.6,721.8,116.6z"/>
	</g>
	<path class="st15" d="M729.1,121.4h-28.5v-4.3c0-1.8,1.5-3.3,3.3-3.3h21.9c1.8,0,3.3,1.5,3.3,3.3V121.4z"/>
	<rect x="700.6" y="121.4" class="st1" width="3" height="4"/>
	<rect x="726.1" y="121.4" class="st1" width="3" height="4"/>
</g>
<g>
	<circle class="st14" cx="86.6" cy="247.9" r="18.5"/>
	<g>
		<path class="st1" d="M86.6,234.8c-4.1,4.1-17.3,16.6,0,26.2"/>
		<path class="st15" d="M86.6,234.8c4.1,4.1,17.3,16.6,0,26.2"/>
	</g>
</g>
<g>
	<circle class="st14" cx="314.8" cy="247.9" r="18.5"/>
	<g>
		<g>
			<rect x="306.3" y="241.5" class="st1" width="3.7" height="14.8"/>
			<rect x="313.1" y="241.5" class="st1" width="3.7" height="14.8"/>
			<rect x="319.9" y="241.5" class="st1" width="3.7" height="14.8"/>
		</g>
		<polygon class="st15" points="315,234.3 302.4,241.5 327.5,241.5 		"/>
		<rect x="302.4" y="255.6" class="st15" width="25.1" height="3.9"/>
	</g>
</g>
<g>
	<circle class="st14" cx="200.7" cy="51.3" r="18.5"/>
	<rect x="189" y="39.3" class="st15" width="23.4" height="24.1"/>
	<rect x="191.6" y="45.6" class="st1" width="18" height="14.9"/>
	
		<rect x="190.8" y="39.2" transform="matrix(-1.836970e-16 1 -1 -1.836970e-16 233.6925 -152.5898)" class="st1" width="4.7" height="2.6"/>
	
		<rect x="198.3" y="39.2" transform="matrix(-1.836970e-16 1 -1 -1.836970e-16 241.2202 -160.1175)" class="st1" width="4.7" height="2.6"/>
	
		<rect x="205.8" y="39.2" transform="matrix(-1.836970e-16 1 -1 -1.836970e-16 248.7479 -167.6452)" class="st1" width="4.7" height="2.6"/>
	<polygon class="st15" points="200.7,46.6 202.6,50.6 207,51.2 203.8,54.3 204.6,58.6 200.7,56.6 196.7,58.6 197.5,54.3 194.3,51.2 
		198.7,50.6 	"/>
</g>
<g>
	<circle class="st14" cx="86.6" cy="117.6" r="18.5"/>
	<g>
		<path class="st15" d="M99.2,120v-5h-3.4c-0.2-0.8-0.6-1.5-1-2.2l2.5-2.5l-3.5-3.5l-2.5,2.5c-0.7-0.4-1.5-0.8-2.2-1v-3.4h-5v3.3
			c-0.9,0.2-1.7,0.5-2.5,0.9l-2.2-2.2l-3.5,3.5l2,2c-0.5,0.8-1,1.7-1.2,2.6h-2.8v5h2.6c0.2,1,0.6,2,1.1,2.9l-1.8,1.8l3.5,3.5
			l1.8-1.8c0.9,0.5,1.9,0.9,2.9,1.1v2.6h5v-2.8c0.9-0.3,1.8-0.7,2.6-1.2l2,2l3.5-3.5l-2.2-2.2c0.4-0.8,0.7-1.6,0.9-2.5H99.2z"/>
		<circle class="st1" cx="86.2" cy="117.8" r="5.6"/>
	</g>
</g>
<g>
	<circle class="st14" cx="200.6" cy="314.5" r="18.5"/>
	<path class="st15" d="M194.2,304.7c-0.2-1.3-1.3-2.2-2.6-2.2c-1.5,0-2.7,1.2-2.7,2.7s1.2,2.7,2.7,2.7h6.9v-3.1H194.2z"/>
	<path class="st1" d="M191.5,302.4h15.2c1.7,0,3.1,1.4,3.1,3.1v21.1h-13.1c-1.7,0-3.1-1.4-3.1-3.1c0,0,0-13.7,0-18.3
		C193.6,304.4,193.8,302.4,191.5,302.4z"/>
	<path class="st15" d="M198.5,323.6h16.3v0.1c0,1.6-1.3,3-3,3H196C196,326.6,198.5,326.6,198.5,323.6z"/>
	<rect x="196" y="307.2" class="st15" width="12" height="2.2"/>
	<rect x="196" y="311.8" class="st15" width="12" height="2.2"/>
	<rect x="196" y="316.4" class="st15" width="8" height="2.2"/>
</g>
<g>
	<circle class="st14" cx="314.8" cy="117.1" r="18.5"/>
	<path class="st15" d="M325.8,115.1h-22v-4.6c0-1.8,1.5-3.3,3.3-3.3h15.4c1.8,0,3.3,1.5,3.3,3.3V115.1z"/>
	<g>
		<path class="st1" d="M312.1,116.6h-4.2c-0.9,0-1.6-0.7-1.6-1.6v-4.2c0-0.9,0.7-1.6,1.6-1.6h4.2c0.9,0,1.6,0.7,1.6,1.6v4.2
			C313.7,115.9,313,116.6,312.1,116.6z"/>
		<path class="st1" d="M321.8,116.6h-4.2c-0.9,0-1.6-0.7-1.6-1.6v-4.2c0-0.9,0.7-1.6,1.6-1.6h4.2c0.9,0,1.6,0.7,1.6,1.6v4.2
			C323.4,115.9,322.7,116.6,321.8,116.6z"/>
	</g>
	<path class="st15" d="M329.1,121.4h-28.5v-4.3c0-1.8,1.5-3.3,3.3-3.3h21.9c1.8,0,3.3,1.5,3.3,3.3V121.4z"/>
	<rect x="300.6" y="121.4" class="st1" width="3" height="4"/>
	<rect x="326.1" y="121.4" class="st1" width="3" height="4"/>
</g>
<path class="st18" d="M600.2,171.5l87.1-39.6l-52,70.5l-35.1,39.4l-77.5-14.9l77.5-44.7V171.5z"/>
<g>
	<path class="st19" d="M200.3,183.4V288"/>
</g>
<g>
	<path id="B_3_" class="st2" d="M200.2,183L200.2,183 M305.2,183c0-13.8-2.7-27.4-8-40.2c-5.3-12.7-13-24.3-22.8-34.1
		c-9.8-9.7-21.3-17.5-34.1-22.8c-12.7-5.3-26.4-8-40.2-8c-13.8,0-27.4,2.7-40.2,8c-12.7,5.3-24.3,13-34.1,22.8
		c-9.7,9.8-17.5,21.3-22.8,34.1c-5.3,12.7-8,26.4-8,40.2s2.7,27.4,8,40.2c5.3,12.7,13,24.3,22.8,34.1c9.8,9.7,21.3,17.5,34.1,22.8
		c12.7,5.3,26.4,8,40.2,8s27.4-2.7,40.2-8s24.3-13,34.1-22.8c9.7-9.8,17.5-21.3,22.8-34.1C302.4,210.4,305.2,196.8,305.2,183"/>
</g>
<g>
	<path class="st19" d="M200.6,136.2l3.5,0.1l3.5,0.4l3.4,0.6l3.4,0.8l3.3,1.1l3.2,1.3l3.1,1.5l3,1.8l2.9,1.9l2.8,2.2l2.6,2.3
		l2.4,2.5l2.2,2.7l2.1,2.8l1.9,2.9l1.6,3.1l1.4,3.2l1.2,3.3l1,3.4l0.7,3.4l0.5,3.4l0.2,3.5v3.5l-0.2,3.5l-0.5,3.5l-0.7,3.4l-1,3.4
		l-1.2,3.3l-1.4,3.2l-1.6,3.1l-1.9,3L240,217l-2.2,2.7l-2.4,2.5l-2.6,2.3l-2.8,2.1l-2.9,1.9l-3,1.8l-3.1,1.5l-3.2,1.3l-3.3,1.1
		l-3.4,0.8l-3.4,0.6l-3.5,0.4l-3.5,0.1l-3.5-0.1l-3.5-0.4l-3.4-0.6l-3.4-0.8l-3.3-1.1l-3.2-1.3l-3.1-1.5l-3-1.8l-2.9-1.9l-2.7-2.1
		l-2.6-2.3l-2.4-2.5l-2.2-2.7l-2-2.8l-1.9-3l-1.6-3.1l-1.4-3.2l-1.2-3.3l-1-3.4l-0.7-3.4l-0.5-3.5l-0.2-3.5v-3.5l0.2-3.5l0.5-3.4
		l0.7-3.4l1-3.4l1.2-3.3l1.4-3.2l1.6-3.1l1.9-2.9l2-2.8l2.2-2.7l2.4-2.5l2.6-2.3l2.7-2.2l2.9-1.9l3-1.8l3.1-1.5l3.2-1.3l3.3-1.1
		l3.4-0.8l3.4-0.6l3.5-0.4L200.6,136.2"/>
	<path class="st19" d="M200.6,107.4l2.8,0.1l2.8,0.1l2.7,0.2l2.7,0.3l2.7,0.4l2.7,0.5l2.7,0.6l2.7,0.7l2.6,0.8l2.6,0.9l2.6,1
		l2.5,1.1l2.5,1.2l2.4,1.2l2.4,1.3l2.4,1.4l2.3,1.5l2.3,1.6l2.2,1.7l2.1,1.7l2.1,1.8l2,1.9l1.9,1.9l1.9,2l1.8,2.1l1.7,2.1l1.7,2.2
		l1.6,2.2l1.5,2.3l1.4,2.4l1.3,2.4l1.2,2.5l1.2,2.5l1.1,2.5l1,2.6l0.9,2.6l0.8,2.6l0.7,2.7l0.6,2.7l0.5,2.7l0.4,2.7l0.3,2.7l0.2,2.8
		l0.1,2.8l0,2.8l0,2.8l-0.1,2.8l-0.2,2.7l-0.3,2.7l-0.4,2.7l-0.5,2.7l-0.6,2.7l-0.7,2.7l-0.8,2.6l-0.9,2.6l-1,2.6l-1.1,2.5l-1.2,2.5
		l-1.2,2.4l-1.3,2.4l-1.4,2.4l-1.5,2.3l-1.6,2.3l-1.7,2.2l-1.7,2.1l-1.8,2.1l-1.9,2l-1.9,1.9l-2,1.9l-2.1,1.8l-2.1,1.7l-2.2,1.6
		l-2.3,1.6l-2.3,1.5l-2.4,1.4l-2.4,1.3l-2.4,1.2l-2.5,1.2l-2.5,1.1l-2.6,1l-2.6,0.9l-2.6,0.8l-2.7,0.7l-2.7,0.6l-2.7,0.5l-2.7,0.4
		l-2.7,0.3l-2.7,0.2l-2.8,0.1l-2.8,0l-2.8,0l-2.7-0.1l-2.7-0.2l-2.7-0.3l-2.7-0.4l-2.7-0.5l-2.7-0.6l-2.6-0.7l-2.6-0.8l-2.6-0.9
		l-2.6-1l-2.5-1.1l-2.5-1.2l-2.4-1.2l-2.4-1.3l-2.4-1.4l-2.3-1.5l-2.3-1.6l-2.2-1.6l-2.1-1.7l-2.1-1.8l-2-1.9l-1.9-1.9l-1.9-2
		l-1.8-2.1l-1.7-2.1l-1.6-2.2l-1.6-2.3l-1.5-2.3l-1.4-2.4l-1.3-2.4l-1.2-2.4l-1.2-2.5l-1.1-2.5l-1-2.6l-0.9-2.6l-0.8-2.6l-0.7-2.7
		l-0.6-2.7l-0.5-2.7l-0.4-2.7l-0.3-2.7l-0.2-2.7l-0.2-2.8l0-2.8l0-2.8l0.2-2.8l0.2-2.8l0.3-2.7l0.4-2.7l0.5-2.7l0.6-2.7l0.7-2.7
		l0.8-2.6l0.9-2.6l1-2.6l1.1-2.5l1.2-2.5l1.2-2.5l1.3-2.4l1.4-2.4l1.5-2.3l1.6-2.2l1.6-2.2l1.7-2.1l1.8-2.1l1.9-2l1.9-1.9l2-1.9
		l2.1-1.8l2.1-1.7l2.2-1.7l2.3-1.6l2.3-1.5l2.4-1.4l2.4-1.3l2.4-1.2l2.5-1.2l2.5-1.1l2.6-1l2.6-0.9l2.6-0.8l2.6-0.7l2.7-0.6l2.7-0.5
		l2.7-0.4l2.7-0.3l2.7-0.2l2.7-0.1L200.6,107.4"/>
</g>
<text transform="matrix(1 0 0 1 204.8961 99.268)" class="st14 st16 st17">1200</text>
<text transform="matrix(1 0 0 1 204.8961 130.268)" class="st14 st16 st17">800</text>
<text transform="matrix(1 0 0 1 204.8961 161.268)" class="st14 st16 st17">400</text>
<g>
	<path id="B_2_" class="st3" d="M200.2,183L200.2,183 M305.2,183c0-13.8-2.7-27.4-8-40.2c-5.3-12.7-13-24.3-22.8-34.1
		c-9.8-9.7-21.3-17.5-34.1-22.8c-12.7-5.3-26.4-8-40.2-8c-13.8,0-27.4,2.7-40.2,8c-12.7,5.3-24.3,13-34.1,22.8
		c-9.7,9.8-17.5,21.3-22.8,34.1c-5.3,12.7-8,26.4-8,40.2s2.7,27.4,8,40.2c5.3,12.7,13,24.3,22.8,34.1c9.8,9.7,21.3,17.5,34.1,22.8
		c12.7,5.3,26.4,8,40.2,8s27.4-2.7,40.2-8s24.3-13,34.1-22.8c9.7-9.8,17.5-21.3,22.8-34.1C302.4,210.4,305.2,196.8,305.2,183"/>
</g>
<g>
	<g>
		<defs>
			<path id="SVGID_21_" d="M200.2,183L200.2,183 M305.2,183c0-13.8-2.7-27.4-8-40.2c-5.3-12.7-13-24.3-22.8-34.1
				c-9.8-9.7-21.3-17.5-34.1-22.8c-12.7-5.3-26.4-8-40.2-8c-13.8,0-27.4,2.7-40.2,8c-12.7,5.3-24.3,13-34.1,22.8
				c-9.7,9.8-17.5,21.3-22.8,34.1c-5.3,12.7-8,26.4-8,40.2s2.7,27.4,8,40.2c5.3,12.7,13,24.3,22.8,34.1c9.8,9.7,21.3,17.5,34.1,22.8
				c12.7,5.3,26.4,8,40.2,8s27.4-2.7,40.2-8s24.3-13,34.1-22.8c9.7-9.8,17.5-21.3,22.8-34.1C302.4,210.4,305.2,196.8,305.2,183"/>
		</defs>
		<clipPath id="SVGID_22_">
			<use xlink:href="#SVGID_21_"  style="overflow:visible;"/>
		</clipPath>
		<path class="st20" d="M200.2,183V78"/>
	</g>
	<g>
		<path id="f_1_" class="st3" d="M200.2,183L200.2,183 M305.2,183c0-13.8-2.7-27.4-8-40.2c-5.3-12.7-13-24.3-22.8-34.1
			c-9.8-9.7-21.3-17.5-34.1-22.8c-12.7-5.3-26.4-8-40.2-8c-13.8,0-27.4,2.7-40.2,8c-12.7,5.3-24.3,13-34.1,22.8
			c-9.7,9.8-17.5,21.3-22.8,34.1c-5.3,12.7-8,26.4-8,40.2s2.7,27.4,8,40.2c5.3,12.7,13,24.3,22.8,34.1c9.8,9.7,21.3,17.5,34.1,22.8
			c12.7,5.3,26.4,8,40.2,8s27.4-2.7,40.2-8s24.3-13,34.1-22.8c9.7-9.8,17.5-21.3,22.8-34.1C302.4,210.4,305.2,196.8,305.2,183"/>
	</g>
</g>
<g>
	<g>
		<defs>
			<path id="SVGID_23_" d="M200.2,183L200.2,183 M305.2,183c0-13.8-2.7-27.4-8-40.2c-5.3-12.7-13-24.3-22.8-34.1
				c-9.8-9.7-21.3-17.5-34.1-22.8c-12.7-5.3-26.4-8-40.2-8c-13.8,0-27.4,2.7-40.2,8c-12.7,5.3-24.3,13-34.1,22.8
				c-9.7,9.8-17.5,21.3-22.8,34.1c-5.3,12.7-8,26.4-8,40.2s2.7,27.4,8,40.2c5.3,12.7,13,24.3,22.8,34.1c9.8,9.7,21.3,17.5,34.1,22.8
				c12.7,5.3,26.4,8,40.2,8s27.4-2.7,40.2-8s24.3-13,34.1-22.8c9.7-9.8,17.5-21.3,22.8-34.1C302.4,210.4,305.2,196.8,305.2,183"/>
		</defs>
		<clipPath id="SVGID_24_">
			<use xlink:href="#SVGID_23_"  style="overflow:visible;"/>
		</clipPath>
		<path class="st21" d="M200.2,183l90.9-52.5"/>
	</g>
	<g>
		<path id="h_1_" class="st3" d="M200.2,183L200.2,183 M305.2,183c0-13.8-2.7-27.4-8-40.2c-5.3-12.7-13-24.3-22.8-34.1
			c-9.8-9.7-21.3-17.5-34.1-22.8c-12.7-5.3-26.4-8-40.2-8c-13.8,0-27.4,2.7-40.2,8c-12.7,5.3-24.3,13-34.1,22.8
			c-9.7,9.8-17.5,21.3-22.8,34.1c-5.3,12.7-8,26.4-8,40.2s2.7,27.4,8,40.2c5.3,12.7,13,24.3,22.8,34.1c9.8,9.7,21.3,17.5,34.1,22.8
			c12.7,5.3,26.4,8,40.2,8s27.4-2.7,40.2-8s24.3-13,34.1-22.8c9.7-9.8,17.5-21.3,22.8-34.1C302.4,210.4,305.2,196.8,305.2,183"/>
	</g>
</g>
<g>
	<g>
		<defs>
			<path id="SVGID_25_" d="M200.2,183L200.2,183 M305.2,183c0-13.8-2.7-27.4-8-40.2c-5.3-12.7-13-24.3-22.8-34.1
				c-9.8-9.7-21.3-17.5-34.1-22.8c-12.7-5.3-26.4-8-40.2-8c-13.8,0-27.4,2.7-40.2,8c-12.7,5.3-24.3,13-34.1,22.8
				c-9.7,9.8-17.5,21.3-22.8,34.1c-5.3,12.7-8,26.4-8,40.2s2.7,27.4,8,40.2c5.3,12.7,13,24.3,22.8,34.1c9.8,9.7,21.3,17.5,34.1,22.8
				c12.7,5.3,26.4,8,40.2,8s27.4-2.7,40.2-8s24.3-13,34.1-22.8c9.7-9.8,17.5-21.3,22.8-34.1C302.4,210.4,305.2,196.8,305.2,183"/>
		</defs>
		<clipPath id="SVGID_26_">
			<use xlink:href="#SVGID_25_"  style="overflow:visible;"/>
		</clipPath>
		<path class="st22" d="M200.2,183l90.9,52.5"/>
	</g>
	<g>
		<path id="j_1_" class="st3" d="M200.2,183L200.2,183 M305.2,183c0-13.8-2.7-27.4-8-40.2c-5.3-12.7-13-24.3-22.8-34.1
			c-9.8-9.7-21.3-17.5-34.1-22.8c-12.7-5.3-26.4-8-40.2-8c-13.8,0-27.4,2.7-40.2,8c-12.7,5.3-24.3,13-34.1,22.8
			c-9.7,9.8-17.5,21.3-22.8,34.1c-5.3,12.7-8,26.4-8,40.2s2.7,27.4,8,40.2c5.3,12.7,13,24.3,22.8,34.1c9.8,9.7,21.3,17.5,34.1,22.8
			c12.7,5.3,26.4,8,40.2,8s27.4-2.7,40.2-8s24.3-13,34.1-22.8c9.7-9.8,17.5-21.3,22.8-34.1C302.4,210.4,305.2,196.8,305.2,183"/>
	</g>
</g>
<g>
	<g>
		<defs>
			<path id="SVGID_27_" d="M200.2,183L200.2,183 M305.2,183c0-13.8-2.7-27.4-8-40.2c-5.3-12.7-13-24.3-22.8-34.1
				c-9.8-9.7-21.3-17.5-34.1-22.8c-12.7-5.3-26.4-8-40.2-8c-13.8,0-27.4,2.7-40.2,8c-12.7,5.3-24.3,13-34.1,22.8
				c-9.7,9.8-17.5,21.3-22.8,34.1c-5.3,12.7-8,26.4-8,40.2s2.7,27.4,8,40.2c5.3,12.7,13,24.3,22.8,34.1c9.8,9.7,21.3,17.5,34.1,22.8
				c12.7,5.3,26.4,8,40.2,8s27.4-2.7,40.2-8s24.3-13,34.1-22.8c9.7-9.8,17.5-21.3,22.8-34.1C302.4,210.4,305.2,196.8,305.2,183"/>
		</defs>
		<clipPath id="SVGID_28_">
			<use xlink:href="#SVGID_27_"  style="overflow:visible;"/>
		</clipPath>
		<path class="st23" d="M200.2,183v105"/>
	</g>
	<g>
		<path id="l_1_" class="st3" d="M200.2,183L200.2,183 M305.2,183c0-13.8-2.7-27.4-8-40.2c-5.3-12.7-13-24.3-22.8-34.1
			c-9.8-9.7-21.3-17.5-34.1-22.8c-12.7-5.3-26.4-8-40.2-8c-13.8,0-27.4,2.7-40.2,8c-12.7,5.3-24.3,13-34.1,22.8
			c-9.7,9.8-17.5,21.3-22.8,34.1c-5.3,12.7-8,26.4-8,40.2s2.7,27.4,8,40.2c5.3,12.7,13,24.3,22.8,34.1c9.8,9.7,21.3,17.5,34.1,22.8
			c12.7,5.3,26.4,8,40.2,8s27.4-2.7,40.2-8s24.3-13,34.1-22.8c9.7-9.8,17.5-21.3,22.8-34.1C302.4,210.4,305.2,196.8,305.2,183"/>
	</g>
</g>
<g>
	<g>
		<defs>
			<path id="SVGID_29_" d="M200.2,183L200.2,183 M305.2,183c0-13.8-2.7-27.4-8-40.2c-5.3-12.7-13-24.3-22.8-34.1
				c-9.8-9.7-21.3-17.5-34.1-22.8c-12.7-5.3-26.4-8-40.2-8c-13.8,0-27.4,2.7-40.2,8c-12.7,5.3-24.3,13-34.1,22.8
				c-9.7,9.8-17.5,21.3-22.8,34.1c-5.3,12.7-8,26.4-8,40.2s2.7,27.4,8,40.2c5.3,12.7,13,24.3,22.8,34.1c9.8,9.7,21.3,17.5,34.1,22.8
				c12.7,5.3,26.4,8,40.2,8s27.4-2.7,40.2-8s24.3-13,34.1-22.8c9.7-9.8,17.5-21.3,22.8-34.1C302.4,210.4,305.2,196.8,305.2,183"/>
		</defs>
		<clipPath id="SVGID_30_">
			<use xlink:href="#SVGID_29_"  style="overflow:visible;"/>
		</clipPath>
		<path class="st24" d="M200.2,183l-90.9,52.5"/>
	</g>
	<g>
		<path id="n_1_" class="st3" d="M200.2,183L200.2,183 M305.2,183c0-13.8-2.7-27.4-8-40.2c-5.3-12.7-13-24.3-22.8-34.1
			c-9.8-9.7-21.3-17.5-34.1-22.8c-12.7-5.3-26.4-8-40.2-8c-13.8,0-27.4,2.7-40.2,8c-12.7,5.3-24.3,13-34.1,22.8
			c-9.7,9.8-17.5,21.3-22.8,34.1c-5.3,12.7-8,26.4-8,40.2s2.7,27.4,8,40.2c5.3,12.7,13,24.3,22.8,34.1c9.8,9.7,21.3,17.5,34.1,22.8
			c12.7,5.3,26.4,8,40.2,8s27.4-2.7,40.2-8s24.3-13,34.1-22.8c9.7-9.8,17.5-21.3,22.8-34.1C302.4,210.4,305.2,196.8,305.2,183"/>
	</g>
</g>
<g>
	<g>
		<defs>
			<path id="SVGID_31_" d="M200.2,183L200.2,183 M305.2,183c0-13.8-2.7-27.4-8-40.2c-5.3-12.7-13-24.3-22.8-34.1
				c-9.8-9.7-21.3-17.5-34.1-22.8c-12.7-5.3-26.4-8-40.2-8c-13.8,0-27.4,2.7-40.2,8c-12.7,5.3-24.3,13-34.1,22.8
				c-9.7,9.8-17.5,21.3-22.8,34.1c-5.3,12.7-8,26.4-8,40.2s2.7,27.4,8,40.2c5.3,12.7,13,24.3,22.8,34.1c9.8,9.7,21.3,17.5,34.1,22.8
				c12.7,5.3,26.4,8,40.2,8s27.4-2.7,40.2-8s24.3-13,34.1-22.8c9.7-9.8,17.5-21.3,22.8-34.1C302.4,210.4,305.2,196.8,305.2,183"/>
		</defs>
		<clipPath id="SVGID_32_">
			<use xlink:href="#SVGID_31_"  style="overflow:visible;"/>
		</clipPath>
		<path class="st25" d="M200.2,183l-90.9-52.5"/>
	</g>
	<g>
		<path id="p_1_" class="st3" d="M200.2,183L200.2,183 M305.2,183c0-13.8-2.7-27.4-8-40.2c-5.3-12.7-13-24.3-22.8-34.1
			c-9.8-9.7-21.3-17.5-34.1-22.8c-12.7-5.3-26.4-8-40.2-8c-13.8,0-27.4,2.7-40.2,8c-12.7,5.3-24.3,13-34.1,22.8
			c-9.7,9.8-17.5,21.3-22.8,34.1c-5.3,12.7-8,26.4-8,40.2s2.7,27.4,8,40.2c5.3,12.7,13,24.3,22.8,34.1c9.8,9.7,21.3,17.5,34.1,22.8
			c12.7,5.3,26.4,8,40.2,8s27.4-2.7,40.2-8s24.3-13,34.1-22.8c9.7-9.8,17.5-21.3,22.8-34.1C302.4,210.4,305.2,196.8,305.2,183"/>
	</g>
</g>
<g>
	<g>
		<defs>
			<path id="SVGID_33_" d="M200.2,183L200.2,183 M305.2,183c0-13.8-2.7-27.4-8-40.2c-5.3-12.7-13-24.3-22.8-34.1
				c-9.8-9.7-21.3-17.5-34.1-22.8c-12.7-5.3-26.4-8-40.2-8c-13.8,0-27.4,2.7-40.2,8c-12.7,5.3-24.3,13-34.1,22.8
				c-9.7,9.8-17.5,21.3-22.8,34.1c-5.3,12.7-8,26.4-8,40.2s2.7,27.4,8,40.2c5.3,12.7,13,24.3,22.8,34.1c9.8,9.7,21.3,17.5,34.1,22.8
				c12.7,5.3,26.4,8,40.2,8s27.4-2.7,40.2-8s24.3-13,34.1-22.8c9.7-9.8,17.5-21.3,22.8-34.1C302.4,210.4,305.2,196.8,305.2,183"/>
		</defs>
		<clipPath id="SVGID_34_">
			<use xlink:href="#SVGID_33_"  style="overflow:visible;"/>
		</clipPath>
		<path class="st26" d="M200.2,162l1.5,0.1l1.4,0.1l1.4,0.3l1.4,0.4l1.4,0.5l1.4,0.5l1.3,0.6l1.3,0.7l1.2,0.8l1.2,0.9l1.1,1l1,1.1
			l0.9,1.1l0.9,1.2l0.8,1.2l0.7,1.3l0.6,1.3l0.5,1.4l0.4,1.4l0.3,1.4l0.2,1.4l0.1,1.5v1.5l-0.1,1.5l-0.2,1.4l-0.3,1.4l-0.4,1.4
			l-0.5,1.4l-0.6,1.3l-0.7,1.3l-0.8,1.2l-0.9,1.2l-0.9,1.1l-1,1.1l-1.1,1l-1.2,0.9l-1.2,0.8l-1.3,0.7l-1.3,0.6l-1.4,0.6l-1.4,0.5
			l-1.4,0.4l-1.4,0.2l-1.4,0.2l-1.5,0.1l-1.5-0.1l-1.4-0.2l-1.4-0.2l-1.4-0.4l-1.4-0.5l-1.4-0.6l-1.3-0.6l-1.3-0.7l-1.2-0.8
			l-1.1-0.9l-1.1-1l-1-1.1l-0.9-1.1l-0.9-1.2l-0.8-1.2l-0.7-1.3l-0.6-1.3l-0.5-1.4l-0.4-1.4l-0.3-1.4l-0.2-1.4l-0.1-1.5v-1.5
			l0.1-1.5l0.2-1.4l0.3-1.4l0.4-1.4l0.5-1.4l0.6-1.3l0.7-1.3l0.8-1.2l0.9-1.2l0.9-1.1l1-1.1l1.1-1l1.1-0.9l1.2-0.8l1.3-0.7l1.3-0.6
			l1.4-0.5l1.4-0.5l1.4-0.4l1.4-0.3l1.4-0.1L200.2,162"/>
	</g>
	<g>
		<path id="r_1_" class="st3" d="M200.2,183L200.2,183 M305.2,183c0-13.8-2.7-27.4-8-40.2c-5.3-12.7-13-24.3-22.8-34.1
			c-9.8-9.7-21.3-17.5-34.1-22.8c-12.7-5.3-26.4-8-40.2-8c-13.8,0-27.4,2.7-40.2,8c-12.7,5.3-24.3,13-34.1,22.8
			c-9.7,9.8-17.5,21.3-22.8,34.1c-5.3,12.7-8,26.4-8,40.2s2.7,27.4,8,40.2c5.3,12.7,13,24.3,22.8,34.1c9.8,9.7,21.3,17.5,34.1,22.8
			c12.7,5.3,26.4,8,40.2,8s27.4-2.7,40.2-8s24.3-13,34.1-22.8c9.7-9.8,17.5-21.3,22.8-34.1C302.4,210.4,305.2,196.8,305.2,183"/>
	</g>
</g>
<g>
	<path id="t_1_" class="st3" d="M200.2,183L200.2,183 M305.2,183c0-13.8-2.7-27.4-8-40.2c-5.3-12.7-13-24.3-22.8-34.1
		c-9.8-9.7-21.3-17.5-34.1-22.8c-12.7-5.3-26.4-8-40.2-8c-13.8,0-27.4,2.7-40.2,8c-12.7,5.3-24.3,13-34.1,22.8
		c-9.7,9.8-17.5,21.3-22.8,34.1c-5.3,12.7-8,26.4-8,40.2s2.7,27.4,8,40.2c5.3,12.7,13,24.3,22.8,34.1c9.8,9.7,21.3,17.5,34.1,22.8
		c12.7,5.3,26.4,8,40.2,8s27.4-2.7,40.2-8s24.3-13,34.1-22.8c9.7-9.8,17.5-21.3,22.8-34.1C302.4,210.4,305.2,196.8,305.2,183"/>
</g>
<g>
	<path id="v_1_" class="st3" d="M200.2,183L200.2,183 M305.2,183c0-13.8-2.7-27.4-8-40.2c-5.3-12.7-13-24.3-22.8-34.1
		c-9.8-9.7-21.3-17.5-34.1-22.8c-12.7-5.3-26.4-8-40.2-8c-13.8,0-27.4,2.7-40.2,8c-12.7,5.3-24.3,13-34.1,22.8
		c-9.7,9.8-17.5,21.3-22.8,34.1c-5.3,12.7-8,26.4-8,40.2s2.7,27.4,8,40.2c5.3,12.7,13,24.3,22.8,34.1c9.8,9.7,21.3,17.5,34.1,22.8
		c12.7,5.3,26.4,8,40.2,8s27.4-2.7,40.2-8s24.3-13,34.1-22.8c9.7-9.8,17.5-21.3,22.8-34.1C302.4,210.4,305.2,196.8,305.2,183"/>
</g>
<g>
	<path id="x_1_" class="st3" d="M200.2,183L200.2,183 M274.4,108.8c-9.8-9.7-21.3-17.5-34.1-22.8c-12.7-5.3-26.4-8-40.2-8
		c-13.8,0-27.4,2.7-40.2,8c-12.7,5.3-24.3,13-34.1,22.8c-9.7,9.8-17.5,21.3-22.8,34.1c-5.3,12.7-8,26.4-8,40.2s2.7,27.4,8,40.2
		c5.3,12.7,13,24.3,22.8,34.1c9.8,9.7,21.3,17.5,34.1,22.8c12.7,5.3,26.4,8,40.2,8s27.4-2.7,40.2-8s24.3-13,34.1-22.8
		c9.7-9.8,17.5-21.3,22.8-34.1c5.3-12.7,8-26.4,8-40.2"/>
</g>
<path class="st27" d="M199.3,86.8l36.4,74.4l38.2,64.1l-74.6,48.2l-10.9-85.1l10.9-6.3L199.3,86.8z"/>
<path class="st28" d="M600.2,182.2l38.8,22.4l-38.8,5.3"/>
<path class="st1" d="M423.9,347.8H250.3c-10.4,0-18.9-8.5-18.9-18.9v-28.8c0-10.5,8.5-18.9,18.9-18.9h173.5
	c10.5,0,18.9,8.5,18.9,18.9v28.8C442.8,339.3,434.3,347.8,423.9,347.8L423.9,347.8z"/>
<text transform="matrix(1 0 0 1 243.3991 297.175)" class="st15 st16 st29">Наследие епископа </text>
<text transform="matrix(1 0 0 1 243.3991 311.175)" class="st15 st16 st29">Арсения Тверского; </text>
<text transform="matrix(1 0 0 1 243.3991 325.175)" class="st15 st16 st29">История Тверского княжества;</text>
<text transform="matrix(1 0 0 1 243.3991 339.175)" class="st15 st16 st29">Культура тверских карел</text>
<path class="st1" d="M486.6,267.8l-7.1,12.2h14.1L486.6,267.8z M362.3,72.4h-109c-10.4,0-18.9-8.5-18.9-18.9v-4.2
	c0-10.5,8.5-18.9,18.9-18.9h109.1c10.5,0,18.9,8.5,18.9,18.9v4.2C381.2,63.9,372.7,72.4,362.3,72.4L362.3,72.4z"/>
<path class="st1" d="M223.2,51.1l12.2,7.1V44L223.2,51.1z"/>
<path class="st1" d="M220.4,316.2l12.2,7.1v-14.1L220.4,316.2z"/>
<path class="st30" d="M357.3,217h-57.5c-10.5,0-18.9-8.5-18.9-18.9v-3.3c0-10.4,8.5-18.9,18.9-18.9h57.5c10.5,0,18.9,8.5,18.9,18.9
	v3.3C376.2,208.5,367.7,217,357.3,217z"/>
<path class="st1" d="M314.1,228.6l7.1-12.2H307L314.1,228.6z"/>
<text transform="matrix(1 0 0 1 292.486 193.167)" class="st15 st31 st29">Ржевский </text>
<text transform="matrix(1 0 0 1 292.486 207.167)" class="st15 st31 st29">мемориал</text>
<text transform="matrix(1 0 0 1 243.0002 48.041)" class="st15 st16 st29">Фестиваль </text>
<text transform="matrix(1 0 0 1 243.0002 62.041)" class="st15 st16 st29">«Карельский пирог»</text>
<path class="st1" d="M558.3,318h-85.1c-10.5,0-18.9-8.5-18.9-18.9l0,0c0-10.5,8.5-18.9,18.9-18.9h85.1c10.5,0,18.9,8.5,18.9,18.9
	l0,0C577.3,309.6,568.8,318,558.3,318z"/>
<text transform="matrix(1 0 0 1 466.8942 303.708)" class="st32 st16 st29">Озеро Селигер</text>
</svg>
