<?xml version="1.0" encoding="utf-8"?>
<!-- Generator: Adobe Illustrator 25.0.0, SVG Export Plug-In . SVG Version: 6.00 Build 0)  -->
<svg version="1.1" id="Layer_1" xmlns="http://www.w3.org/2000/svg" xmlns:xlink="http://www.w3.org/1999/xlink" x="0px" y="0px"
	 viewBox="0 0 800 365" style="enable-background:new 0 0 800 365;" xml:space="preserve">
<style type="text/css">
	.st0{fill:#D9D9D9;}
	.st1{fill:#FFFFFF;stroke:#D9D9D9;stroke-width:2;stroke-miterlimit:10;}
	.st2{fill:none;stroke:#D9D9D9;stroke-width:2;stroke-miterlimit:10;}
	
		.st3{clip-path:url(#SVGID_2_);fill:none;stroke:#D9D9D9;stroke-width:2;stroke-linecap:square;stroke-linejoin:round;stroke-miterlimit:10;}
	
		.st4{clip-path:url(#SVGID_4_);fill:none;stroke:#D9D9D9;stroke-width:2;stroke-linecap:square;stroke-linejoin:round;stroke-miterlimit:10;}
	
		.st5{clip-path:url(#SVGID_6_);fill:none;stroke:#D9D9D9;stroke-width:2;stroke-linecap:square;stroke-linejoin:round;stroke-miterlimit:10;}
	
		.st6{clip-path:url(#SVGID_8_);fill:none;stroke:#D9D9D9;stroke-width:2;stroke-linecap:square;stroke-linejoin:round;stroke-miterlimit:10;}
	
		.st7{clip-path:url(#SVGID_10_);fill:none;stroke:#D9D9D9;stroke-width:2;stroke-linecap:square;stroke-linejoin:round;stroke-miterlimit:10;}
	
		.st8{clip-path:url(#SVGID_12_);fill:none;stroke:#D9D9D9;stroke-width:2;stroke-linecap:square;stroke-linejoin:round;stroke-miterlimit:10;}
	
		.st9{clip-path:url(#SVGID_14_);fill:none;stroke:#D9D9D9;stroke-width:2;stroke-linecap:square;stroke-linejoin:round;stroke-miterlimit:10;}
	
		.st10{clip-path:url(#SVGID_16_);fill:none;stroke:#D9D9D9;stroke-width:2;stroke-linecap:square;stroke-linejoin:round;stroke-miterlimit:10;}
	
		.st11{clip-path:url(#SVGID_18_);fill:none;stroke:#D9D9D9;stroke-width:2;stroke-linecap:square;stroke-linejoin:round;stroke-miterlimit:10;}
	
		.st12{clip-path:url(#SVGID_20_);fill:none;stroke:#D9D9D9;stroke-width:2;stroke-linecap:square;stroke-linejoin:round;stroke-miterlimit:10;}
	.st13{fill:none;stroke:#D9D9D9;stroke-width:2;stroke-linecap:square;stroke-linejoin:round;stroke-miterlimit:10;}
	
		.st14{clip-path:url(#SVGID_22_);fill:none;stroke:#D9D9D9;stroke-width:2;stroke-linecap:square;stroke-linejoin:round;stroke-miterlimit:10;}
	
		.st15{clip-path:url(#SVGID_24_);fill:none;stroke:#D9D9D9;stroke-width:2;stroke-linecap:square;stroke-linejoin:round;stroke-miterlimit:10;}
	
		.st16{clip-path:url(#SVGID_26_);fill:none;stroke:#D9D9D9;stroke-width:2;stroke-linecap:square;stroke-linejoin:round;stroke-miterlimit:10;}
	
		.st17{clip-path:url(#SVGID_28_);fill:none;stroke:#D9D9D9;stroke-width:2;stroke-linecap:square;stroke-linejoin:round;stroke-miterlimit:10;}
	
		.st18{clip-path:url(#SVGID_30_);fill:none;stroke:#D9D9D9;stroke-width:2;stroke-linecap:square;stroke-linejoin:round;stroke-miterlimit:10;}
	
		.st19{clip-path:url(#SVGID_34_);fill:none;stroke:#D9D9D9;stroke-width:2;stroke-linecap:square;stroke-linejoin:round;stroke-miterlimit:10;}
	
		.st20{clip-path:url(#SVGID_42_);fill:none;stroke:#D9D9D9;stroke-width:2;stroke-linecap:square;stroke-linejoin:round;stroke-miterlimit:10;}
	
		.st21{clip-path:url(#SVGID_44_);fill:none;stroke:#D9D9D9;stroke-width:2;stroke-linecap:square;stroke-linejoin:round;stroke-miterlimit:10;}
	
		.st22{clip-path:url(#SVGID_46_);fill:none;stroke:#D9D9D9;stroke-width:2;stroke-linecap:square;stroke-linejoin:round;stroke-miterlimit:10;}
	
		.st23{clip-path:url(#SVGID_48_);fill:none;stroke:#D9D9D9;stroke-width:2;stroke-linecap:square;stroke-linejoin:round;stroke-miterlimit:10;}
	
		.st24{clip-path:url(#SVGID_50_);fill:none;stroke:#D9D9D9;stroke-width:2;stroke-linecap:square;stroke-linejoin:round;stroke-miterlimit:10;}
	
		.st25{clip-path:url(#SVGID_52_);fill:none;stroke:#D9D9D9;stroke-width:2;stroke-linecap:square;stroke-linejoin:round;stroke-miterlimit:10;}
	
		.st26{clip-path:url(#SVGID_54_);fill:none;stroke:#D9D9D9;stroke-width:2;stroke-linecap:square;stroke-linejoin:round;stroke-miterlimit:10;}
	
		.st27{clip-path:url(#SVGID_56_);fill:none;stroke:#D9D9D9;stroke-width:2;stroke-linecap:square;stroke-linejoin:round;stroke-miterlimit:10;}
	
		.st28{clip-path:url(#SVGID_58_);fill:none;stroke:#D9D9D9;stroke-width:2;stroke-linecap:square;stroke-linejoin:round;stroke-miterlimit:10;}
	
		.st29{clip-path:url(#SVGID_60_);fill:none;stroke:#D9D9D9;stroke-width:2;stroke-linecap:square;stroke-linejoin:round;stroke-miterlimit:10;}
	.st30{fill:#0D2B40;}
	.st31{font-family:'AtlasGroteskLC-Regular', Helvetica,Arial,sans-serif;}
	.st32{font-size:12.8587px;}
	.st33{fill:#FFFFFF;}
	.st34{fill:#4A92A5;}
	.st35{opacity:0.7;fill:#4A92A5;enable-background:new    ;}
	.st36{opacity:0.7;fill:#5E88C1;enable-background:new    ;}
	.st37{opacity:0.7;fill:#ED715D;enable-background:new    ;}
	.st38{fill:#ED715D;}
	.st39{font-size:13px;}
	.st40{fill:#FFFFFF;stroke:#D9D9D9;stroke-miterlimit:10;}
	.st41{fill:none;}
	.st42{enable-background:new    ;}
</style>
<rect x="0" y="0" class="st0" width="800" height="365"/>
<path class="st1" d="M600.6,182.9L600.6,182.9 M705.6,182.9c0-13.8-2.7-27.4-8-40.2c-5.3-12.7-13-24.3-22.8-34.1
	c-9.7-9.7-21.3-17.5-34.1-22.8c-12.7-5.3-26.4-8-40.2-8c-13.8,0-27.4,2.7-40.2,8c-12.7,5.3-24.3,13-34.1,22.8
	c-9.7,9.7-17.5,21.3-22.8,34.1c-5.3,12.7-8,26.4-8,40.2s2.7,27.4,8,40.2c5.3,12.7,13,24.3,22.8,34.1c9.7,9.7,21.3,17.5,34.1,22.8
	c12.7,5.3,26.4,8,40.2,8c13.8,0,27.4-2.7,40.2-8c12.7-5.3,24.3-13,34.1-22.8c9.7-9.7,17.5-21.3,22.8-34.1
	C702.9,210.3,705.6,196.7,705.6,182.9"/>
<path class="st2" d="M600.6,182.9L600.6,182.9 M705.6,182.9c0-13.8-2.7-27.4-8-40.2c-5.3-12.7-13-24.3-22.8-34.1
	c-9.7-9.7-21.3-17.5-34.1-22.8c-12.7-5.3-26.4-8-40.2-8c-13.8,0-27.4,2.7-40.2,8c-12.7,5.3-24.3,13-34.1,22.8
	c-9.7,9.7-17.5,21.3-22.8,34.1c-5.3,12.7-8,26.4-8,40.2s2.7,27.4,8,40.2c5.3,12.7,13,24.3,22.8,34.1c9.7,9.7,21.3,17.5,34.1,22.8
	c12.7,5.3,26.4,8,40.2,8c13.8,0,27.4-2.7,40.2-8c12.7-5.3,24.3-13,34.1-22.8c9.7-9.7,17.5-21.3,22.8-34.1
	C702.9,210.3,705.6,196.7,705.6,182.9"/>
<g>
	<defs>
		<path id="SVGID_1_" d="M600.6,182.9L600.6,182.9 M705.6,182.9c0-13.8-2.7-27.4-8-40.2c-5.3-12.7-13-24.3-22.8-34.1
			c-9.7-9.7-21.3-17.5-34.1-22.8c-12.7-5.3-26.4-8-40.2-8c-13.8,0-27.4,2.7-40.2,8c-12.7,5.3-24.3,13-34.1,22.8
			c-9.7,9.7-17.5,21.3-22.8,34.1c-5.3,12.7-8,26.4-8,40.2s2.7,27.4,8,40.2c5.3,12.7,13,24.3,22.8,34.1c9.7,9.7,21.3,17.5,34.1,22.8
			c12.7,5.3,26.4,8,40.2,8c13.8,0,27.4-2.7,40.2-8c12.7-5.3,24.3-13,34.1-22.8c9.7-9.7,17.5-21.3,22.8-34.1
			C702.9,210.3,705.6,196.7,705.6,182.9"/>
	</defs>
	<clipPath id="SVGID_2_">
		<use xlink:href="#SVGID_1_"  style="overflow:visible;"/>
	</clipPath>
	<line class="st3" x1="600.6" y1="182.9" x2="600.6" y2="77.9"/>
	<use xlink:href="#SVGID_1_"  style="overflow:visible;fill:none;stroke:#D9D9D9;stroke-width:2;stroke-miterlimit:10;"/>
</g>
<g>
	<defs>
		<path id="SVGID_3_" d="M600.6,182.9L600.6,182.9 M705.6,182.9c0-13.8-2.7-27.4-8-40.2c-5.3-12.7-13-24.3-22.8-34.1
			c-9.7-9.7-21.3-17.5-34.1-22.8c-12.7-5.3-26.4-8-40.2-8c-13.8,0-27.4,2.7-40.2,8c-12.7,5.3-24.3,13-34.1,22.8
			c-9.7,9.7-17.5,21.3-22.8,34.1c-5.3,12.7-8,26.4-8,40.2s2.7,27.4,8,40.2c5.3,12.7,13,24.3,22.8,34.1c9.7,9.7,21.3,17.5,34.1,22.8
			c12.7,5.3,26.4,8,40.2,8c13.8,0,27.4-2.7,40.2-8c12.7-5.3,24.3-13,34.1-22.8c9.7-9.7,17.5-21.3,22.8-34.1
			C702.9,210.3,705.6,196.7,705.6,182.9"/>
	</defs>
	<clipPath id="SVGID_4_">
		<use xlink:href="#SVGID_3_"  style="overflow:visible;"/>
	</clipPath>
	<line class="st4" x1="600.6" y1="182.9" x2="691.6" y2="130.4"/>
	<use xlink:href="#SVGID_3_"  style="overflow:visible;fill:none;stroke:#D9D9D9;stroke-width:2;stroke-miterlimit:10;"/>
</g>
<g>
	<defs>
		<path id="SVGID_5_" d="M600.6,182.9L600.6,182.9 M705.6,182.9c0-13.8-2.7-27.4-8-40.2c-5.3-12.7-13-24.3-22.8-34.1
			c-9.7-9.7-21.3-17.5-34.1-22.8c-12.7-5.3-26.4-8-40.2-8c-13.8,0-27.4,2.7-40.2,8c-12.7,5.3-24.3,13-34.1,22.8
			c-9.7,9.7-17.5,21.3-22.8,34.1c-5.3,12.7-8,26.4-8,40.2s2.7,27.4,8,40.2c5.3,12.7,13,24.3,22.8,34.1c9.7,9.7,21.3,17.5,34.1,22.8
			c12.7,5.3,26.4,8,40.2,8c13.8,0,27.4-2.7,40.2-8c12.7-5.3,24.3-13,34.1-22.8c9.7-9.7,17.5-21.3,22.8-34.1
			C702.9,210.3,705.6,196.7,705.6,182.9"/>
	</defs>
	<clipPath id="SVGID_6_">
		<use xlink:href="#SVGID_5_"  style="overflow:visible;"/>
	</clipPath>
	<line class="st5" x1="600.6" y1="182.9" x2="691.6" y2="235.4"/>
	<use xlink:href="#SVGID_5_"  style="overflow:visible;fill:none;stroke:#D9D9D9;stroke-width:2;stroke-miterlimit:10;"/>
</g>
<g>
	<defs>
		<path id="SVGID_7_" d="M600.6,182.9L600.6,182.9 M705.6,182.9c0-13.8-2.7-27.4-8-40.2c-5.3-12.7-13-24.3-22.8-34.1
			c-9.7-9.7-21.3-17.5-34.1-22.8c-12.7-5.3-26.4-8-40.2-8c-13.8,0-27.4,2.7-40.2,8c-12.7,5.3-24.3,13-34.1,22.8
			c-9.7,9.7-17.5,21.3-22.8,34.1c-5.3,12.7-8,26.4-8,40.2s2.7,27.4,8,40.2c5.3,12.7,13,24.3,22.8,34.1c9.7,9.7,21.3,17.5,34.1,22.8
			c12.7,5.3,26.4,8,40.2,8c13.8,0,27.4-2.7,40.2-8c12.7-5.3,24.3-13,34.1-22.8c9.7-9.7,17.5-21.3,22.8-34.1
			C702.9,210.3,705.6,196.7,705.6,182.9"/>
	</defs>
	<clipPath id="SVGID_8_">
		<use xlink:href="#SVGID_7_"  style="overflow:visible;"/>
	</clipPath>
	<line class="st6" x1="600.6" y1="182.9" x2="600.6" y2="287.9"/>
	<use xlink:href="#SVGID_7_"  style="overflow:visible;fill:none;stroke:#D9D9D9;stroke-width:2;stroke-miterlimit:10;"/>
</g>
<g>
	<defs>
		<path id="SVGID_9_" d="M600.6,182.9L600.6,182.9 M705.6,182.9c0-13.8-2.7-27.4-8-40.2c-5.3-12.7-13-24.3-22.8-34.1
			c-9.7-9.7-21.3-17.5-34.1-22.8c-12.7-5.3-26.4-8-40.2-8c-13.8,0-27.4,2.7-40.2,8c-12.7,5.3-24.3,13-34.1,22.8
			c-9.7,9.7-17.5,21.3-22.8,34.1c-5.3,12.7-8,26.4-8,40.2s2.7,27.4,8,40.2c5.3,12.7,13,24.3,22.8,34.1c9.7,9.7,21.3,17.5,34.1,22.8
			c12.7,5.3,26.4,8,40.2,8c13.8,0,27.4-2.7,40.2-8c12.7-5.3,24.3-13,34.1-22.8c9.7-9.7,17.5-21.3,22.8-34.1
			C702.9,210.3,705.6,196.7,705.6,182.9"/>
	</defs>
	<clipPath id="SVGID_10_">
		<use xlink:href="#SVGID_9_"  style="overflow:visible;"/>
	</clipPath>
	<line class="st7" x1="600.6" y1="182.9" x2="509.7" y2="235.4"/>
	<use xlink:href="#SVGID_9_"  style="overflow:visible;fill:none;stroke:#D9D9D9;stroke-width:2;stroke-miterlimit:10;"/>
</g>
<g>
	<defs>
		<path id="SVGID_11_" d="M600.6,182.9L600.6,182.9 M705.6,182.9c0-13.8-2.7-27.4-8-40.2c-5.3-12.7-13-24.3-22.8-34.1
			c-9.7-9.7-21.3-17.5-34.1-22.8c-12.7-5.3-26.4-8-40.2-8c-13.8,0-27.4,2.7-40.2,8c-12.7,5.3-24.3,13-34.1,22.8
			c-9.7,9.7-17.5,21.3-22.8,34.1c-5.3,12.7-8,26.4-8,40.2s2.7,27.4,8,40.2c5.3,12.7,13,24.3,22.8,34.1c9.7,9.7,21.3,17.5,34.1,22.8
			c12.7,5.3,26.4,8,40.2,8c13.8,0,27.4-2.7,40.2-8c12.7-5.3,24.3-13,34.1-22.8c9.7-9.7,17.5-21.3,22.8-34.1
			C702.9,210.3,705.6,196.7,705.6,182.9"/>
	</defs>
	<clipPath id="SVGID_12_">
		<use xlink:href="#SVGID_11_"  style="overflow:visible;"/>
	</clipPath>
	<line class="st8" x1="600.6" y1="182.9" x2="509.7" y2="130.4"/>
	<use xlink:href="#SVGID_11_"  style="overflow:visible;fill:none;stroke:#D9D9D9;stroke-width:2;stroke-miterlimit:10;"/>
</g>
<g>
	<defs>
		<path id="SVGID_13_" d="M600.6,182.9L600.6,182.9 M705.6,182.9c0-13.8-2.7-27.4-8-40.2c-5.3-12.7-13-24.3-22.8-34.1
			c-9.7-9.7-21.3-17.5-34.1-22.8c-12.7-5.3-26.4-8-40.2-8c-13.8,0-27.4,2.7-40.2,8c-12.7,5.3-24.3,13-34.1,22.8
			c-9.7,9.7-17.5,21.3-22.8,34.1c-5.3,12.7-8,26.4-8,40.2s2.7,27.4,8,40.2c5.3,12.7,13,24.3,22.8,34.1c9.7,9.7,21.3,17.5,34.1,22.8
			c12.7,5.3,26.4,8,40.2,8c13.8,0,27.4-2.7,40.2-8c12.7-5.3,24.3-13,34.1-22.8c9.7-9.7,17.5-21.3,22.8-34.1
			C702.9,210.3,705.6,196.7,705.6,182.9"/>
	</defs>
	<clipPath id="SVGID_14_">
		<use xlink:href="#SVGID_13_"  style="overflow:visible;"/>
	</clipPath>
	<polyline class="st9" points="600.6,161.9 602.1,161.9 603.6,162.1 605,162.3 606.4,162.7 607.8,163.2 609.2,163.7 610.5,164.3 
		611.8,165.1 613,165.9 614.1,166.8 615.2,167.8 616.2,168.8 617.2,170 618,171.1 618.8,172.4 619.5,173.7 620.1,175 620.6,176.4 
		621,177.8 621.3,179.2 621.5,180.7 621.6,182.2 621.6,183.6 621.5,185.1 621.3,186.5 621,188 620.6,189.4 620.1,190.8 619.5,192.1 
		618.8,193.4 618,194.6 617.2,195.8 616.2,196.9 615.2,198 614.1,199 613,199.9 611.8,200.7 610.5,201.4 609.2,202.1 607.8,202.6 
		606.4,203.1 605,203.4 603.6,203.7 602.1,203.8 600.6,203.9 599.2,203.8 597.7,203.7 596.3,203.4 594.8,203.1 593.4,202.6 
		592.1,202.1 590.8,201.4 589.5,200.7 588.3,199.9 587.1,199 586,198 585,196.9 584.1,195.8 583.2,194.6 582.4,193.4 581.8,192.1 
		581.2,190.8 580.7,189.4 580.3,188 579.9,186.5 579.7,185.1 579.6,183.6 579.6,182.2 579.7,180.7 579.9,179.2 580.3,177.8 
		580.7,176.4 581.2,175 581.8,173.7 582.4,172.4 583.2,171.1 584.1,170 585,168.8 586,167.8 587.1,166.8 588.3,165.9 589.5,165.1 
		590.8,164.3 592.1,163.7 593.4,163.2 594.8,162.7 596.3,162.3 597.7,162.1 599.2,161.9 600.6,161.9 	"/>
	<use xlink:href="#SVGID_13_"  style="overflow:visible;fill:none;stroke:#D9D9D9;stroke-width:2;stroke-miterlimit:10;"/>
</g>
<g>
	<defs>
		<path id="SVGID_15_" d="M600.6,182.9L600.6,182.9 M705.6,182.9c0-13.8-2.7-27.4-8-40.2c-5.3-12.7-13-24.3-22.8-34.1
			c-9.7-9.7-21.3-17.5-34.1-22.8c-12.7-5.3-26.4-8-40.2-8c-13.8,0-27.4,2.7-40.2,8c-12.7,5.3-24.3,13-34.1,22.8
			c-9.7,9.7-17.5,21.3-22.8,34.1c-5.3,12.7-8,26.4-8,40.2s2.7,27.4,8,40.2c5.3,12.7,13,24.3,22.8,34.1c9.7,9.7,21.3,17.5,34.1,22.8
			c12.7,5.3,26.4,8,40.2,8c13.8,0,27.4-2.7,40.2-8c12.7-5.3,24.3-13,34.1-22.8c9.7-9.7,17.5-21.3,22.8-34.1
			C702.9,210.3,705.6,196.7,705.6,182.9"/>
	</defs>
	<clipPath id="SVGID_16_">
		<use xlink:href="#SVGID_15_"  style="overflow:visible;"/>
	</clipPath>
	<polyline class="st10" points="600.6,140.9 603.6,141 606.5,141.3 609.4,141.8 612.2,142.5 615,143.4 617.7,144.5 620.3,145.8 
		622.9,147.3 625.3,148.9 627.6,150.7 629.8,152.7 631.8,154.8 633.7,157 635.4,159.4 637,161.9 638.4,164.5 639.6,167.2 
		640.6,169.9 641.4,172.7 642,175.6 642.4,178.5 642.6,181.4 642.6,184.4 642.4,187.3 642,190.2 641.4,193.1 640.6,195.9 
		639.6,198.6 638.4,201.3 637,203.9 635.4,206.4 633.7,208.7 631.8,211 629.8,213.1 627.6,215.1 625.3,216.9 622.9,218.5 620.3,220 
		617.7,221.3 615,222.4 612.2,223.3 609.4,224 606.5,224.5 603.6,224.8 600.6,224.9 597.7,224.8 594.8,224.5 591.9,224 589,223.3 
		586.3,222.4 583.5,221.3 580.9,220 578.4,218.5 575.9,216.9 573.6,215.1 571.5,213.1 569.4,211 567.5,208.7 565.8,206.4 
		564.3,203.9 562.9,201.3 561.7,198.6 560.7,195.9 559.9,193.1 559.3,190.2 558.9,187.3 558.7,184.4 558.7,181.4 558.9,178.5 
		559.3,175.6 559.9,172.7 560.7,169.9 561.7,167.2 562.9,164.5 564.3,161.9 565.8,159.4 567.5,157 569.4,154.8 571.5,152.7 
		573.6,150.7 575.9,148.9 578.4,147.3 580.9,145.8 583.5,144.5 586.3,143.4 589,142.5 591.9,141.8 594.8,141.3 597.7,141 
		600.6,140.9 	"/>
	<use xlink:href="#SVGID_15_"  style="overflow:visible;fill:none;stroke:#D9D9D9;stroke-width:2;stroke-miterlimit:10;"/>
</g>
<g>
	<defs>
		<path id="SVGID_17_" d="M600.6,182.9L600.6,182.9 M705.6,182.9c0-13.8-2.7-27.4-8-40.2c-5.3-12.7-13-24.3-22.8-34.1
			c-9.7-9.7-21.3-17.5-34.1-22.8c-12.7-5.3-26.4-8-40.2-8c-13.8,0-27.4,2.7-40.2,8c-12.7,5.3-24.3,13-34.1,22.8
			c-9.7,9.7-17.5,21.3-22.8,34.1c-5.3,12.7-8,26.4-8,40.2s2.7,27.4,8,40.2c5.3,12.7,13,24.3,22.8,34.1c9.7,9.7,21.3,17.5,34.1,22.8
			c12.7,5.3,26.4,8,40.2,8c13.8,0,27.4-2.7,40.2-8c12.7-5.3,24.3-13,34.1-22.8c9.7-9.7,17.5-21.3,22.8-34.1
			C702.9,210.3,705.6,196.7,705.6,182.9"/>
	</defs>
	<clipPath id="SVGID_18_">
		<use xlink:href="#SVGID_17_"  style="overflow:visible;"/>
	</clipPath>
	<polyline class="st11" points="600.6,119.9 602.8,119.9 605,120 607.2,120.2 609.4,120.5 611.6,120.8 613.7,121.3 615.9,121.8 
		618,122.3 620.1,123 622.2,123.7 624.2,124.5 626.3,125.3 628.2,126.3 630.2,127.3 632.1,128.3 634,129.5 635.9,130.7 637.7,131.9 
		639.4,133.2 641.1,134.6 642.8,136.1 644.4,137.6 646,139.1 647.4,140.7 648.9,142.4 650.3,144.1 651.6,145.9 652.9,147.7 
		654.1,149.5 655.2,151.4 656.3,153.3 657.3,155.3 658.2,157.3 659,159.3 659.8,161.3 660.5,163.4 661.2,165.5 661.8,167.6 
		662.3,169.8 662.7,171.9 663,174.1 663.3,176.3 663.5,178.5 663.6,180.7 663.6,182.9 663.6,185.1 663.5,187.3 663.3,189.5 
		663,191.7 662.7,193.8 662.3,196 661.8,198.1 661.2,200.3 660.5,202.4 659.8,204.4 659,206.5 658.2,208.5 657.3,210.5 656.3,212.5 
		655.2,214.4 654.1,216.3 652.9,218.1 651.6,219.9 650.3,221.7 648.9,223.4 647.4,225 646,226.7 644.4,228.2 642.8,229.7 
		641.1,231.2 639.4,232.5 637.7,233.9 635.9,235.1 634,236.3 632.1,237.4 630.2,238.5 628.2,239.5 626.3,240.4 624.2,241.3 
		622.2,242.1 620.1,242.8 618,243.4 615.9,244 613.7,244.5 611.6,244.9 609.4,245.3 607.2,245.5 605,245.7 602.8,245.8 600.6,245.9 
		598.4,245.8 596.2,245.7 594,245.5 591.9,245.3 589.7,244.9 587.5,244.5 585.4,244 583.3,243.4 581.2,242.8 579.1,242.1 577,241.3 
		575,240.4 573,239.5 571.1,238.5 569.1,237.4 567.2,236.3 565.4,235.1 563.6,233.9 561.8,232.5 560.1,231.2 558.5,229.7 
		556.9,228.2 555.3,226.7 553.8,225 552.4,223.4 551,221.7 549.7,219.9 548.4,218.1 547.2,216.3 546.1,214.4 545,212.5 544,210.5 
		543.1,208.5 542.2,206.5 541.4,204.4 540.7,202.4 540.1,200.3 539.5,198.1 539,196 538.6,193.8 538.2,191.7 538,189.5 537.8,187.3 
		537.7,185.1 537.6,182.9 537.7,180.7 537.8,178.5 538,176.3 538.2,174.1 538.6,171.9 539,169.8 539.5,167.6 540.1,165.5 
		540.7,163.4 541.4,161.3 542.2,159.3 543.1,157.3 544,155.3 545,153.3 546.1,151.4 547.2,149.5 548.4,147.7 549.7,145.9 551,144.1 
		552.4,142.4 553.8,140.7 555.3,139.1 556.9,137.6 558.5,136.1 560.1,134.6 561.8,133.2 563.6,131.9 565.4,130.7 567.2,129.5 
		569.1,128.3 571.1,127.3 573,126.3 575,125.3 577,124.5 579.1,123.7 581.2,123 583.3,122.3 585.4,121.8 587.5,121.3 589.7,120.8 
		591.9,120.5 594,120.2 596.2,120 598.4,119.9 600.6,119.9 	"/>
	<use xlink:href="#SVGID_17_"  style="overflow:visible;fill:none;stroke:#D9D9D9;stroke-width:2;stroke-miterlimit:10;"/>
</g>
<g>
	<defs>
		<path id="SVGID_19_" d="M600.6,182.9L600.6,182.9 M674.9,108.6c-9.7-9.7-21.3-17.5-34.1-22.8c-12.7-5.3-26.4-8-40.2-8
			c-13.8,0-27.4,2.7-40.2,8c-12.7,5.3-24.3,13-34.1,22.8c-9.7,9.7-17.5,21.3-22.8,34.1c-5.3,12.7-8,26.4-8,40.2s2.7,27.4,8,40.2
			c5.3,12.7,13,24.3,22.8,34.1c9.7,9.7,21.3,17.5,34.1,22.8c12.7,5.3,26.4,8,40.2,8c13.8,0,27.4-2.7,40.2-8
			c12.7-5.3,24.3-13,34.1-22.8c9.7-9.7,17.5-21.3,22.8-34.1c5.3-12.7,8-26.4,8-40.2 M705.6,182.9"/>
	</defs>
	<clipPath id="SVGID_20_">
		<use xlink:href="#SVGID_19_"  style="overflow:visible;"/>
	</clipPath>
	<polyline class="st12" points="600.6,98.9 603.6,98.9 606.5,99.1 609.4,99.3 612.3,99.7 615.2,100.2 618.1,100.7 621,101.4 
		623.8,102.1 626.6,103 629.4,104 632.1,105 634.8,106.2 637.4,107.4 640.1,108.7 642.6,110.1 645.1,111.6 647.6,113.3 650,114.9 
		652.3,116.7 654.6,118.5 656.8,120.5 659,122.5 661.1,124.5 663.1,126.7 665,128.9 666.8,131.2 668.6,133.5 670.3,135.9 
		671.9,138.4 673.4,140.9 674.8,143.5 676.1,146.1 677.4,148.7 678.5,151.4 679.6,154.2 680.5,156.9 681.4,159.7 682.1,162.6 
		682.8,165.4 683.4,168.3 683.8,171.2 684.2,174.1 684.4,177 684.6,180 684.6,182.9 684.6,185.8 684.4,188.7 684.2,191.7 
		683.8,194.6 683.4,197.5 682.8,200.4 682.1,203.2 681.4,206 680.5,208.8 679.6,211.6 678.5,214.4 677.4,217.1 676.1,219.7 
		674.8,222.3 673.4,224.9 671.9,227.4 670.3,229.9 668.6,232.3 666.8,234.6 665,236.9 663.1,239.1 661.1,241.2 659,243.3 
		656.8,245.3 654.6,247.2 652.3,249.1 650,250.8 647.6,252.5 645.1,254.1 642.6,255.6 640.1,257.1 637.4,258.4 634.8,259.6 
		632.1,260.8 629.4,261.8 626.6,262.8 623.8,263.6 621,264.4 618.1,265.1 615.2,265.6 612.3,266.1 609.4,266.4 606.5,266.7 
		603.6,266.8 600.6,266.9 597.7,266.8 594.8,266.7 591.8,266.4 588.9,266.1 586,265.6 583.2,265.1 580.3,264.4 577.5,263.6 
		574.7,262.8 571.9,261.8 569.2,260.8 566.5,259.6 563.8,258.4 561.2,257.1 558.6,255.6 556.1,254.1 553.7,252.5 551.3,250.8 
		548.9,249.1 546.6,247.2 544.4,245.3 542.3,243.3 540.2,241.2 538.2,239.1 536.3,236.9 534.4,234.6 532.7,232.3 531,229.9 
		529.4,227.4 527.9,224.9 526.5,222.3 525.1,219.7 523.9,217.1 522.7,214.4 521.7,211.6 520.7,208.8 519.9,206 519.1,203.2 
		518.5,200.4 517.9,197.5 517.4,194.6 517.1,191.7 516.8,188.7 516.7,185.8 516.6,182.9 516.7,180 516.8,177 517.1,174.1 
		517.4,171.2 517.9,168.3 518.5,165.4 519.1,162.6 519.9,159.7 520.7,156.9 521.7,154.2 522.7,151.4 523.9,148.7 525.1,146.1 
		526.5,143.5 527.9,140.9 529.4,138.4 531,135.9 532.7,133.5 534.4,131.2 536.3,128.9 538.2,126.7 540.2,124.5 542.3,122.5 
		544.4,120.5 546.6,118.5 548.9,116.7 551.3,114.9 553.7,113.3 556.1,111.6 558.6,110.1 561.2,108.7 563.8,107.4 566.5,106.2 
		569.2,105 571.9,104 574.7,103 577.5,102.1 580.3,101.4 583.2,100.7 586,100.2 588.9,99.7 591.8,99.3 594.8,99.1 597.7,98.9 
		600.6,98.9 	"/>
	<use xlink:href="#SVGID_19_"  style="overflow:visible;fill:none;stroke:#D9D9D9;stroke-width:2;stroke-miterlimit:10;"/>
</g>
<g>
	<path class="st13" d="M200.3,183.4V288"/>
</g>
<g>
	<g>
		<defs>
			<path id="SVGID_21_" d="M600.2,183L600.2,183"/>
		</defs>
		<clipPath id="SVGID_22_">
			<use xlink:href="#SVGID_21_"  style="overflow:visible;"/>
		</clipPath>
		<path class="st14" d="M600.2,183V78"/>
	</g>
	<g>
		<path id="A_1_" class="st2" d="M600.2,183L600.2,183"/>
	</g>
</g>
<g>
	<g>
		<defs>
			<path id="SVGID_23_" d="M600.2,183L600.2,183"/>
		</defs>
		<clipPath id="SVGID_24_">
			<use xlink:href="#SVGID_23_"  style="overflow:visible;"/>
		</clipPath>
		<path class="st15" d="M600.2,183l90.9-52.5"/>
	</g>
	<g>
		<path id="N_1_" class="st2" d="M600.2,183L600.2,183"/>
	</g>
</g>
<g>
	<g>
		<defs>
			<path id="SVGID_25_" d="M600.2,183L600.2,183"/>
		</defs>
		<clipPath id="SVGID_26_">
			<use xlink:href="#SVGID_25_"  style="overflow:visible;"/>
		</clipPath>
		<path class="st16" d="M600.2,183l90.9,52.5"/>
	</g>
	<g>
		<path id="P_1_" class="st2" d="M600.2,183L600.2,183"/>
	</g>
</g>
<g>
	<g>
		<defs>
			<path id="SVGID_27_" d="M600.2,183L600.2,183"/>
		</defs>
		<clipPath id="SVGID_28_">
			<use xlink:href="#SVGID_27_"  style="overflow:visible;"/>
		</clipPath>
		<path class="st17" d="M600.2,183v105"/>
	</g>
	<g>
		<path id="R_1_" class="st2" d="M600.2,183L600.2,183"/>
	</g>
</g>
<g>
	<g>
		<defs>
			<path id="SVGID_29_" d="M600.2,183L600.2,183"/>
		</defs>
		<clipPath id="SVGID_30_">
			<use xlink:href="#SVGID_29_"  style="overflow:visible;"/>
		</clipPath>
		<path class="st18" d="M600.2,183l-90.9,52.5"/>
	</g>
	<g>
		<path id="T_1_" class="st2" d="M600.2,183L600.2,183"/>
	</g>
</g>
<g>
	<g>
		<defs>
			<path id="SVGID_31_" d="M600.2,183L600.2,183"/>
		</defs>
		<clipPath id="SVGID_32_">
			<use xlink:href="#SVGID_31_"  style="overflow:visible;"/>
		</clipPath>
	</g>
	<g>
		<path id="V_1_" class="st2" d="M600.2,183L600.2,183"/>
	</g>
</g>
<g>
	<g>
		<defs>
			<path id="SVGID_33_" d="M600.2,183L600.2,183"/>
		</defs>
		<clipPath id="SVGID_34_">
			<use xlink:href="#SVGID_33_"  style="overflow:visible;"/>
		</clipPath>
		<path class="st19" d="M600.2,162l1.5,0.1l1.5,0.1l1.5,0.3l1.4,0.4l1.4,0.5l1.4,0.5l1.3,0.6l1.3,0.7l1.2,0.8l1.2,0.9l1.1,1l1,1.1
			l1,1.1l0.9,1.2l0.8,1.2l0.7,1.3l0.6,1.3l0.5,1.4l0.4,1.4l0.3,1.4l0.2,1.4l0.1,1.5v1.5l-0.1,1.5l-0.2,1.4l-0.3,1.4l-0.4,1.4
			l-0.5,1.4l-0.6,1.3l-0.7,1.3l-0.8,1.2l-0.9,1.2l-1,1.1l-1,1.1l-1.1,1l-1.2,0.9l-1.2,0.8l-1.3,0.7l-1.3,0.6l-1.4,0.6l-1.4,0.5
			l-1.4,0.4l-1.5,0.2l-1.5,0.2l-1.5,0.1l-1.5-0.1l-1.5-0.2l-1.4-0.2l-1.4-0.4l-1.4-0.5l-1.4-0.6l-1.3-0.6l-1.3-0.7l-1.2-0.8
			l-1.2-0.9l-1.1-1l-1-1.1l-0.9-1.1l-0.9-1.2l-0.8-1.2l-0.7-1.3l-0.6-1.3l-0.5-1.4l-0.4-1.4l-0.3-1.4l-0.2-1.4l-0.1-1.5v-1.5
			l0.1-1.5l0.2-1.4l0.3-1.4l0.4-1.4l0.5-1.4l0.6-1.3l0.7-1.3l0.8-1.2l0.9-1.2l0.9-1.1l1-1.1l1.1-1l1.2-0.9l1.2-0.8l1.3-0.7l1.3-0.6
			l1.4-0.5l1.4-0.5l1.4-0.4l1.4-0.3l1.5-0.1L600.2,162"/>
	</g>
	<g>
		<path id="X_1_" class="st2" d="M600.2,183L600.2,183"/>
	</g>
</g>
<g>
	<g>
		<defs>
			<path id="SVGID_35_" d="M600.2,183L600.2,183"/>
		</defs>
		<clipPath id="SVGID_36_">
			<use xlink:href="#SVGID_35_"  style="overflow:visible;"/>
		</clipPath>
	</g>
	<g>
		<path id="Z_1_" class="st2" d="M600.2,183L600.2,183"/>
	</g>
</g>
<g>
	<g>
		<defs>
			<path id="SVGID_37_" d="M600.2,183L600.2,183"/>
		</defs>
		<clipPath id="SVGID_38_">
			<use xlink:href="#SVGID_37_"  style="overflow:visible;"/>
		</clipPath>
	</g>
	<g>
		<path id="b_1_" class="st2" d="M600.2,183L600.2,183"/>
	</g>
</g>
<g>
	<g>
		<defs>
			<path id="SVGID_39_" d="M600.2,183L600.2,183"/>
		</defs>
		<clipPath id="SVGID_40_">
			<use xlink:href="#SVGID_39_"  style="overflow:visible;"/>
		</clipPath>
	</g>
	<g>
		<path id="d_1_" class="st2" d="M600.2,183L600.2,183"/>
	</g>
</g>
<g>
	<path id="B_4_" class="st1" d="M200.2,183L200.2,183 M305.2,183c0-13.8-2.7-27.4-8-40.2c-5.3-12.7-13-24.3-22.8-34.1
		c-9.8-9.7-21.3-17.5-34.1-22.8c-12.7-5.3-26.4-8-40.2-8c-13.8,0-27.4,2.7-40.2,8c-12.7,5.3-24.3,13-34.1,22.8
		c-9.7,9.8-17.5,21.3-22.8,34.1c-5.3,12.7-8,26.4-8,40.2s2.7,27.4,8,40.2c5.3,12.7,13,24.3,22.8,34.1c9.8,9.7,21.3,17.5,34.1,22.8
		c12.7,5.3,26.4,8,40.2,8s27.4-2.7,40.2-8s24.3-13,34.1-22.8c9.7-9.8,17.5-21.3,22.8-34.1C302.4,210.4,305.2,196.8,305.2,183"/>
</g>
<g>
	<path id="B_1_" class="st2" d="M200.2,183L200.2,183 M305.2,183c0-13.8-2.7-27.4-8-40.2c-5.3-12.7-13-24.3-22.8-34.1
		c-9.8-9.7-21.3-17.5-34.1-22.8c-12.7-5.3-26.4-8-40.2-8c-13.8,0-27.4,2.7-40.2,8c-12.7,5.3-24.3,13-34.1,22.8
		c-9.7,9.8-17.5,21.3-22.8,34.1c-5.3,12.7-8,26.4-8,40.2s2.7,27.4,8,40.2c5.3,12.7,13,24.3,22.8,34.1c9.8,9.7,21.3,17.5,34.1,22.8
		c12.7,5.3,26.4,8,40.2,8s27.4-2.7,40.2-8s24.3-13,34.1-22.8c9.7-9.8,17.5-21.3,22.8-34.1C302.4,210.4,305.2,196.8,305.2,183"/>
</g>
<g>
	<g>
		<defs>
			<path id="SVGID_41_" d="M200.2,183L200.2,183 M305.2,183c0-13.8-2.7-27.4-8-40.2c-5.3-12.7-13-24.3-22.8-34.1
				c-9.8-9.7-21.3-17.5-34.1-22.8c-12.7-5.3-26.4-8-40.2-8c-13.8,0-27.4,2.7-40.2,8c-12.7,5.3-24.3,13-34.1,22.8
				c-9.7,9.8-17.5,21.3-22.8,34.1c-5.3,12.7-8,26.4-8,40.2s2.7,27.4,8,40.2c5.3,12.7,13,24.3,22.8,34.1c9.8,9.7,21.3,17.5,34.1,22.8
				c12.7,5.3,26.4,8,40.2,8s27.4-2.7,40.2-8s24.3-13,34.1-22.8c9.7-9.8,17.5-21.3,22.8-34.1C302.4,210.4,305.2,196.8,305.2,183"/>
		</defs>
		<clipPath id="SVGID_42_">
			<use xlink:href="#SVGID_41_"  style="overflow:visible;"/>
		</clipPath>
		<path class="st20" d="M200.2,183V78"/>
	</g>
	<g>
		<path id="f_2_" class="st2" d="M200.2,183L200.2,183 M305.2,183c0-13.8-2.7-27.4-8-40.2c-5.3-12.7-13-24.3-22.8-34.1
			c-9.8-9.7-21.3-17.5-34.1-22.8c-12.7-5.3-26.4-8-40.2-8c-13.8,0-27.4,2.7-40.2,8c-12.7,5.3-24.3,13-34.1,22.8
			c-9.7,9.8-17.5,21.3-22.8,34.1c-5.3,12.7-8,26.4-8,40.2s2.7,27.4,8,40.2c5.3,12.7,13,24.3,22.8,34.1c9.8,9.7,21.3,17.5,34.1,22.8
			c12.7,5.3,26.4,8,40.2,8s27.4-2.7,40.2-8s24.3-13,34.1-22.8c9.7-9.8,17.5-21.3,22.8-34.1C302.4,210.4,305.2,196.8,305.2,183"/>
	</g>
</g>
<g>
	<g>
		<defs>
			<path id="SVGID_43_" d="M200.2,183L200.2,183 M305.2,183c0-13.8-2.7-27.4-8-40.2c-5.3-12.7-13-24.3-22.8-34.1
				c-9.8-9.7-21.3-17.5-34.1-22.8c-12.7-5.3-26.4-8-40.2-8c-13.8,0-27.4,2.7-40.2,8c-12.7,5.3-24.3,13-34.1,22.8
				c-9.7,9.8-17.5,21.3-22.8,34.1c-5.3,12.7-8,26.4-8,40.2s2.7,27.4,8,40.2c5.3,12.7,13,24.3,22.8,34.1c9.8,9.7,21.3,17.5,34.1,22.8
				c12.7,5.3,26.4,8,40.2,8s27.4-2.7,40.2-8s24.3-13,34.1-22.8c9.7-9.8,17.5-21.3,22.8-34.1C302.4,210.4,305.2,196.8,305.2,183"/>
		</defs>
		<clipPath id="SVGID_44_">
			<use xlink:href="#SVGID_43_"  style="overflow:visible;"/>
		</clipPath>
		<path class="st21" d="M200.2,183l90.9-52.5"/>
	</g>
	<g>
		<path id="h_2_" class="st2" d="M200.2,183L200.2,183 M305.2,183c0-13.8-2.7-27.4-8-40.2c-5.3-12.7-13-24.3-22.8-34.1
			c-9.8-9.7-21.3-17.5-34.1-22.8c-12.7-5.3-26.4-8-40.2-8c-13.8,0-27.4,2.7-40.2,8c-12.7,5.3-24.3,13-34.1,22.8
			c-9.7,9.8-17.5,21.3-22.8,34.1c-5.3,12.7-8,26.4-8,40.2s2.7,27.4,8,40.2c5.3,12.7,13,24.3,22.8,34.1c9.8,9.7,21.3,17.5,34.1,22.8
			c12.7,5.3,26.4,8,40.2,8s27.4-2.7,40.2-8s24.3-13,34.1-22.8c9.7-9.8,17.5-21.3,22.8-34.1C302.4,210.4,305.2,196.8,305.2,183"/>
	</g>
</g>
<g>
	<g>
		<defs>
			<path id="SVGID_45_" d="M200.2,183L200.2,183 M305.2,183c0-13.8-2.7-27.4-8-40.2c-5.3-12.7-13-24.3-22.8-34.1
				c-9.8-9.7-21.3-17.5-34.1-22.8c-12.7-5.3-26.4-8-40.2-8c-13.8,0-27.4,2.7-40.2,8c-12.7,5.3-24.3,13-34.1,22.8
				c-9.7,9.8-17.5,21.3-22.8,34.1c-5.3,12.7-8,26.4-8,40.2s2.7,27.4,8,40.2c5.3,12.7,13,24.3,22.8,34.1c9.8,9.7,21.3,17.5,34.1,22.8
				c12.7,5.3,26.4,8,40.2,8s27.4-2.7,40.2-8s24.3-13,34.1-22.8c9.7-9.8,17.5-21.3,22.8-34.1C302.4,210.4,305.2,196.8,305.2,183"/>
		</defs>
		<clipPath id="SVGID_46_">
			<use xlink:href="#SVGID_45_"  style="overflow:visible;"/>
		</clipPath>
		<path class="st22" d="M200.2,183l90.9,52.5"/>
	</g>
	<g>
		<path id="j_2_" class="st2" d="M200.2,183L200.2,183 M305.2,183c0-13.8-2.7-27.4-8-40.2c-5.3-12.7-13-24.3-22.8-34.1
			c-9.8-9.7-21.3-17.5-34.1-22.8c-12.7-5.3-26.4-8-40.2-8c-13.8,0-27.4,2.7-40.2,8c-12.7,5.3-24.3,13-34.1,22.8
			c-9.7,9.8-17.5,21.3-22.8,34.1c-5.3,12.7-8,26.4-8,40.2s2.7,27.4,8,40.2c5.3,12.7,13,24.3,22.8,34.1c9.8,9.7,21.3,17.5,34.1,22.8
			c12.7,5.3,26.4,8,40.2,8s27.4-2.7,40.2-8s24.3-13,34.1-22.8c9.7-9.8,17.5-21.3,22.8-34.1C302.4,210.4,305.2,196.8,305.2,183"/>
	</g>
</g>
<g>
	<g>
		<defs>
			<path id="SVGID_47_" d="M200.2,183L200.2,183 M305.2,183c0-13.8-2.7-27.4-8-40.2c-5.3-12.7-13-24.3-22.8-34.1
				c-9.8-9.7-21.3-17.5-34.1-22.8c-12.7-5.3-26.4-8-40.2-8c-13.8,0-27.4,2.7-40.2,8c-12.7,5.3-24.3,13-34.1,22.8
				c-9.7,9.8-17.5,21.3-22.8,34.1c-5.3,12.7-8,26.4-8,40.2s2.7,27.4,8,40.2c5.3,12.7,13,24.3,22.8,34.1c9.8,9.7,21.3,17.5,34.1,22.8
				c12.7,5.3,26.4,8,40.2,8s27.4-2.7,40.2-8s24.3-13,34.1-22.8c9.7-9.8,17.5-21.3,22.8-34.1C302.4,210.4,305.2,196.8,305.2,183"/>
		</defs>
		<clipPath id="SVGID_48_">
			<use xlink:href="#SVGID_47_"  style="overflow:visible;"/>
		</clipPath>
		<path class="st23" d="M200.2,183v105"/>
	</g>
	<g>
		<path id="l_2_" class="st2" d="M200.2,183L200.2,183 M305.2,183c0-13.8-2.7-27.4-8-40.2c-5.3-12.7-13-24.3-22.8-34.1
			c-9.8-9.7-21.3-17.5-34.1-22.8c-12.7-5.3-26.4-8-40.2-8c-13.8,0-27.4,2.7-40.2,8c-12.7,5.3-24.3,13-34.1,22.8
			c-9.7,9.8-17.5,21.3-22.8,34.1c-5.3,12.7-8,26.4-8,40.2s2.7,27.4,8,40.2c5.3,12.7,13,24.3,22.8,34.1c9.8,9.7,21.3,17.5,34.1,22.8
			c12.7,5.3,26.4,8,40.2,8s27.4-2.7,40.2-8s24.3-13,34.1-22.8c9.7-9.8,17.5-21.3,22.8-34.1C302.4,210.4,305.2,196.8,305.2,183"/>
	</g>
</g>
<g>
	<g>
		<defs>
			<path id="SVGID_49_" d="M200.2,183L200.2,183 M305.2,183c0-13.8-2.7-27.4-8-40.2c-5.3-12.7-13-24.3-22.8-34.1
				c-9.8-9.7-21.3-17.5-34.1-22.8c-12.7-5.3-26.4-8-40.2-8c-13.8,0-27.4,2.7-40.2,8c-12.7,5.3-24.3,13-34.1,22.8
				c-9.7,9.8-17.5,21.3-22.8,34.1c-5.3,12.7-8,26.4-8,40.2s2.7,27.4,8,40.2c5.3,12.7,13,24.3,22.8,34.1c9.8,9.7,21.3,17.5,34.1,22.8
				c12.7,5.3,26.4,8,40.2,8s27.4-2.7,40.2-8s24.3-13,34.1-22.8c9.7-9.8,17.5-21.3,22.8-34.1C302.4,210.4,305.2,196.8,305.2,183"/>
		</defs>
		<clipPath id="SVGID_50_">
			<use xlink:href="#SVGID_49_"  style="overflow:visible;"/>
		</clipPath>
		<path class="st24" d="M200.2,183l-90.9,52.5"/>
	</g>
	<g>
		<path id="n_2_" class="st2" d="M200.2,183L200.2,183 M305.2,183c0-13.8-2.7-27.4-8-40.2c-5.3-12.7-13-24.3-22.8-34.1
			c-9.8-9.7-21.3-17.5-34.1-22.8c-12.7-5.3-26.4-8-40.2-8c-13.8,0-27.4,2.7-40.2,8c-12.7,5.3-24.3,13-34.1,22.8
			c-9.7,9.8-17.5,21.3-22.8,34.1c-5.3,12.7-8,26.4-8,40.2s2.7,27.4,8,40.2c5.3,12.7,13,24.3,22.8,34.1c9.8,9.7,21.3,17.5,34.1,22.8
			c12.7,5.3,26.4,8,40.2,8s27.4-2.7,40.2-8s24.3-13,34.1-22.8c9.7-9.8,17.5-21.3,22.8-34.1C302.4,210.4,305.2,196.8,305.2,183"/>
	</g>
</g>
<g>
	<g>
		<defs>
			<path id="SVGID_51_" d="M200.2,183L200.2,183 M305.2,183c0-13.8-2.7-27.4-8-40.2c-5.3-12.7-13-24.3-22.8-34.1
				c-9.8-9.7-21.3-17.5-34.1-22.8c-12.7-5.3-26.4-8-40.2-8c-13.8,0-27.4,2.7-40.2,8c-12.7,5.3-24.3,13-34.1,22.8
				c-9.7,9.8-17.5,21.3-22.8,34.1c-5.3,12.7-8,26.4-8,40.2s2.7,27.4,8,40.2c5.3,12.7,13,24.3,22.8,34.1c9.8,9.7,21.3,17.5,34.1,22.8
				c12.7,5.3,26.4,8,40.2,8s27.4-2.7,40.2-8s24.3-13,34.1-22.8c9.7-9.8,17.5-21.3,22.8-34.1C302.4,210.4,305.2,196.8,305.2,183"/>
		</defs>
		<clipPath id="SVGID_52_">
			<use xlink:href="#SVGID_51_"  style="overflow:visible;"/>
		</clipPath>
		<path class="st25" d="M200.2,183l-90.9-52.5"/>
	</g>
	<g>
		<path id="p_2_" class="st2" d="M200.2,183L200.2,183 M305.2,183c0-13.8-2.7-27.4-8-40.2c-5.3-12.7-13-24.3-22.8-34.1
			c-9.8-9.7-21.3-17.5-34.1-22.8c-12.7-5.3-26.4-8-40.2-8c-13.8,0-27.4,2.7-40.2,8c-12.7,5.3-24.3,13-34.1,22.8
			c-9.7,9.8-17.5,21.3-22.8,34.1c-5.3,12.7-8,26.4-8,40.2s2.7,27.4,8,40.2c5.3,12.7,13,24.3,22.8,34.1c9.8,9.7,21.3,17.5,34.1,22.8
			c12.7,5.3,26.4,8,40.2,8s27.4-2.7,40.2-8s24.3-13,34.1-22.8c9.7-9.8,17.5-21.3,22.8-34.1C302.4,210.4,305.2,196.8,305.2,183"/>
	</g>
</g>
<g>
	<g>
		<defs>
			<path id="SVGID_53_" d="M200.2,183L200.2,183 M305.2,183c0-13.8-2.7-27.4-8-40.2c-5.3-12.7-13-24.3-22.8-34.1
				c-9.8-9.7-21.3-17.5-34.1-22.8c-12.7-5.3-26.4-8-40.2-8c-13.8,0-27.4,2.7-40.2,8c-12.7,5.3-24.3,13-34.1,22.8
				c-9.7,9.8-17.5,21.3-22.8,34.1c-5.3,12.7-8,26.4-8,40.2s2.7,27.4,8,40.2c5.3,12.7,13,24.3,22.8,34.1c9.8,9.7,21.3,17.5,34.1,22.8
				c12.7,5.3,26.4,8,40.2,8s27.4-2.7,40.2-8s24.3-13,34.1-22.8c9.7-9.8,17.5-21.3,22.8-34.1C302.4,210.4,305.2,196.8,305.2,183"/>
		</defs>
		<clipPath id="SVGID_54_">
			<use xlink:href="#SVGID_53_"  style="overflow:visible;"/>
		</clipPath>
		<path class="st26" d="M200.2,162l1.5,0.1l1.4,0.1l1.4,0.3l1.4,0.4l1.4,0.5l1.4,0.5l1.3,0.6l1.3,0.7l1.2,0.8l1.2,0.9l1.1,1l1,1.1
			l0.9,1.1l0.9,1.2l0.8,1.2l0.7,1.3l0.6,1.3l0.5,1.4l0.4,1.4l0.3,1.4l0.2,1.4l0.1,1.5v1.5l-0.1,1.5l-0.2,1.4l-0.3,1.4l-0.4,1.4
			l-0.5,1.4l-0.6,1.3l-0.7,1.3l-0.8,1.2l-0.9,1.2l-0.9,1.1l-1,1.1l-1.1,1l-1.2,0.9l-1.2,0.8l-1.3,0.7l-1.3,0.6l-1.4,0.6l-1.4,0.5
			l-1.4,0.4l-1.4,0.2l-1.4,0.2l-1.5,0.1l-1.5-0.1l-1.4-0.2l-1.4-0.2l-1.4-0.4l-1.4-0.5l-1.4-0.6l-1.3-0.6l-1.3-0.7l-1.2-0.8
			l-1.1-0.9l-1.1-1l-1-1.1l-0.9-1.1l-0.9-1.2l-0.8-1.2l-0.7-1.3l-0.6-1.3l-0.5-1.4l-0.4-1.4l-0.3-1.4l-0.2-1.4l-0.1-1.5v-1.5
			l0.1-1.5l0.2-1.4l0.3-1.4l0.4-1.4l0.5-1.4l0.6-1.3l0.7-1.3l0.8-1.2l0.9-1.2l0.9-1.1l1-1.1l1.1-1l1.1-0.9l1.2-0.8l1.3-0.7l1.3-0.6
			l1.4-0.5l1.4-0.5l1.4-0.4l1.4-0.3l1.4-0.1L200.2,162"/>
	</g>
	<g>
		<path id="r_2_" class="st2" d="M200.2,183L200.2,183 M305.2,183c0-13.8-2.7-27.4-8-40.2c-5.3-12.7-13-24.3-22.8-34.1
			c-9.8-9.7-21.3-17.5-34.1-22.8c-12.7-5.3-26.4-8-40.2-8c-13.8,0-27.4,2.7-40.2,8c-12.7,5.3-24.3,13-34.1,22.8
			c-9.7,9.8-17.5,21.3-22.8,34.1c-5.3,12.7-8,26.4-8,40.2s2.7,27.4,8,40.2c5.3,12.7,13,24.3,22.8,34.1c9.8,9.7,21.3,17.5,34.1,22.8
			c12.7,5.3,26.4,8,40.2,8s27.4-2.7,40.2-8s24.3-13,34.1-22.8c9.7-9.8,17.5-21.3,22.8-34.1C302.4,210.4,305.2,196.8,305.2,183"/>
	</g>
</g>
<g>
	<g>
		<defs>
			<path id="SVGID_55_" d="M200.2,183L200.2,183 M305.2,183c0-13.8-2.7-27.4-8-40.2c-5.3-12.7-13-24.3-22.8-34.1
				c-9.8-9.7-21.3-17.5-34.1-22.8c-12.7-5.3-26.4-8-40.2-8c-13.8,0-27.4,2.7-40.2,8c-12.7,5.3-24.3,13-34.1,22.8
				c-9.7,9.8-17.5,21.3-22.8,34.1c-5.3,12.7-8,26.4-8,40.2s2.7,27.4,8,40.2c5.3,12.7,13,24.3,22.8,34.1c9.8,9.7,21.3,17.5,34.1,22.8
				c12.7,5.3,26.4,8,40.2,8s27.4-2.7,40.2-8s24.3-13,34.1-22.8c9.7-9.8,17.5-21.3,22.8-34.1C302.4,210.4,305.2,196.8,305.2,183"/>
		</defs>
		<clipPath id="SVGID_56_">
			<use xlink:href="#SVGID_55_"  style="overflow:visible;"/>
		</clipPath>
		<path class="st27" d="M200.2,141l2.9,0.1l2.9,0.3l2.9,0.5l2.9,0.7l2.8,0.9l2.7,1.1l2.6,1.3l2.5,1.5l2.4,1.6l2.3,1.8l2.2,1.9l2,2.1
			l1.9,2.2l1.7,2.4l1.6,2.5l1.4,2.6l1.2,2.7l1,2.8l0.8,2.8l0.6,2.9l0.4,2.9l0.2,2.9v2.9l-0.2,2.9l-0.4,2.9l-0.6,2.9l-0.8,2.8l-1,2.8
			l-1.2,2.7l-1.4,2.6l-1.6,2.5l-1.7,2.4l-1.9,2.2l-2,2.1l-2.2,2l-2.3,1.8l-2.4,1.6l-2.5,1.5l-2.6,1.3l-2.7,1.1l-2.8,0.9l-2.9,0.7
			l-2.9,0.5l-2.9,0.3l-2.9,0.1l-2.9-0.1l-2.9-0.3l-2.9-0.5l-2.9-0.7l-2.8-0.9l-2.7-1.1l-2.6-1.3l-2.5-1.5l-2.4-1.6l-2.3-1.8l-2.2-2
			l-2-2.1l-1.9-2.2l-1.7-2.4l-1.6-2.5l-1.4-2.6l-1.2-2.7l-1-2.8l-0.8-2.8l-0.6-2.9l-0.4-2.9l-0.2-2.9v-2.9l0.2-2.9l0.4-2.9l0.6-2.9
			l0.8-2.8l1-2.8l1.2-2.7l1.4-2.6l1.6-2.5l1.7-2.4l1.9-2.2l2-2.1l2.2-1.9l2.3-1.8l2.4-1.6l2.5-1.5l2.6-1.3l2.7-1.1l2.8-0.9l2.9-0.7
			l2.9-0.5l2.9-0.3L200.2,141"/>
	</g>
	<g>
		<path id="t_2_" class="st2" d="M200.2,183L200.2,183 M305.2,183c0-13.8-2.7-27.4-8-40.2c-5.3-12.7-13-24.3-22.8-34.1
			c-9.8-9.7-21.3-17.5-34.1-22.8c-12.7-5.3-26.4-8-40.2-8c-13.8,0-27.4,2.7-40.2,8c-12.7,5.3-24.3,13-34.1,22.8
			c-9.7,9.8-17.5,21.3-22.8,34.1c-5.3,12.7-8,26.4-8,40.2s2.7,27.4,8,40.2c5.3,12.7,13,24.3,22.8,34.1c9.8,9.7,21.3,17.5,34.1,22.8
			c12.7,5.3,26.4,8,40.2,8s27.4-2.7,40.2-8s24.3-13,34.1-22.8c9.7-9.8,17.5-21.3,22.8-34.1C302.4,210.4,305.2,196.8,305.2,183"/>
	</g>
</g>
<g>
	<g>
		<defs>
			<path id="SVGID_57_" d="M200.2,183L200.2,183 M305.2,183c0-13.8-2.7-27.4-8-40.2c-5.3-12.7-13-24.3-22.8-34.1
				c-9.8-9.7-21.3-17.5-34.1-22.8c-12.7-5.3-26.4-8-40.2-8c-13.8,0-27.4,2.7-40.2,8c-12.7,5.3-24.3,13-34.1,22.8
				c-9.7,9.8-17.5,21.3-22.8,34.1c-5.3,12.7-8,26.4-8,40.2s2.7,27.4,8,40.2c5.3,12.7,13,24.3,22.8,34.1c9.8,9.7,21.3,17.5,34.1,22.8
				c12.7,5.3,26.4,8,40.2,8s27.4-2.7,40.2-8s24.3-13,34.1-22.8c9.7-9.8,17.5-21.3,22.8-34.1C302.4,210.4,305.2,196.8,305.2,183"/>
		</defs>
		<clipPath id="SVGID_58_">
			<use xlink:href="#SVGID_57_"  style="overflow:visible;"/>
		</clipPath>
		<path class="st28" d="M200.2,120l2.2,0l2.2,0.1l2.2,0.2l2.2,0.3l2.2,0.3l2.2,0.4l2.1,0.5l2.1,0.6l2.1,0.6l2.1,0.7l2.1,0.8l2,0.8
			l2,0.9l2,1l1.9,1.1l1.9,1.1l1.8,1.2l1.8,1.3l1.8,1.3l1.7,1.4l1.6,1.4l1.6,1.5l1.6,1.6l1.5,1.6l1.4,1.7l1.4,1.7l1.3,1.8l1.3,1.8
			l1.2,1.8l1.1,1.9l1.1,1.9l1,2l0.9,2l0.9,2l0.8,2.1l0.7,2.1l0.6,2.1l0.6,2.1l0.5,2.1l0.4,2.2l0.3,2.2l0.3,2.2l0.2,2.2l0.1,2.2
			l0,2.2l0,2.2l-0.1,2.2l-0.2,2.2l-0.3,2.2l-0.3,2.2l-0.4,2.2l-0.5,2.1l-0.6,2.1l-0.6,2.1l-0.7,2.1l-0.8,2.1l-0.9,2l-0.9,2l-1,2
			l-1.1,1.9l-1.1,1.9l-1.2,1.8l-1.3,1.8l-1.3,1.8l-1.4,1.7l-1.4,1.7l-1.5,1.6l-1.6,1.6l-1.6,1.5l-1.6,1.4l-1.7,1.4l-1.8,1.3
			l-1.8,1.3l-1.8,1.2l-1.9,1.1l-1.9,1.1l-2,1l-2,0.9l-2,0.9l-2.1,0.8l-2.1,0.7l-2.1,0.6l-2.1,0.6l-2.1,0.5l-2.2,0.4l-2.2,0.4
			l-2.2,0.3l-2.2,0.2l-2.2,0.1l-2.2,0l-2.2,0l-2.2-0.1l-2.2-0.2l-2.2-0.3l-2.2-0.4l-2.2-0.4l-2.1-0.5l-2.1-0.6l-2.1-0.6l-2.1-0.7
			l-2.1-0.8l-2-0.9l-2-0.9l-1.9-1l-1.9-1.1l-1.9-1.1l-1.9-1.2l-1.8-1.3l-1.8-1.3l-1.7-1.4l-1.6-1.4l-1.6-1.5l-1.6-1.6l-1.5-1.6
			l-1.4-1.7l-1.4-1.7l-1.3-1.8l-1.3-1.8l-1.2-1.8l-1.1-1.9l-1.1-1.9l-1-2l-0.9-2l-0.9-2l-0.8-2.1l-0.7-2.1l-0.6-2.1l-0.6-2.1
			l-0.5-2.1l-0.4-2.2l-0.4-2.2l-0.3-2.2l-0.2-2.2l-0.1-2.2l0-2.2l0-2.2l0.1-2.2l0.2-2.2l0.3-2.2l0.4-2.2l0.4-2.2l0.5-2.1l0.6-2.1
			l0.6-2.1l0.7-2.1l0.8-2.1l0.9-2l0.9-2l1-2l1.1-1.9l1.1-1.9l1.2-1.8l1.3-1.8l1.3-1.8l1.4-1.7l1.4-1.7l1.5-1.6l1.6-1.6l1.6-1.5
			l1.6-1.4l1.7-1.4l1.8-1.3l1.8-1.3l1.9-1.2l1.9-1.1l1.9-1.1l1.9-1l2-0.9l2-0.8l2.1-0.8l2.1-0.7l2.1-0.6l2.1-0.6l2.1-0.5l2.2-0.4
			l2.2-0.3l2.2-0.3l2.2-0.2l2.2-0.1L200.2,120"/>
	</g>
	<g>
		<path id="v_2_" class="st2" d="M200.2,183L200.2,183 M305.2,183c0-13.8-2.7-27.4-8-40.2c-5.3-12.7-13-24.3-22.8-34.1
			c-9.8-9.7-21.3-17.5-34.1-22.8c-12.7-5.3-26.4-8-40.2-8c-13.8,0-27.4,2.7-40.2,8c-12.7,5.3-24.3,13-34.1,22.8
			c-9.7,9.8-17.5,21.3-22.8,34.1c-5.3,12.7-8,26.4-8,40.2s2.7,27.4,8,40.2c5.3,12.7,13,24.3,22.8,34.1c9.8,9.7,21.3,17.5,34.1,22.8
			c12.7,5.3,26.4,8,40.2,8s27.4-2.7,40.2-8s24.3-13,34.1-22.8c9.7-9.8,17.5-21.3,22.8-34.1C302.4,210.4,305.2,196.8,305.2,183"/>
	</g>
</g>
<g>
	<g>
		<defs>
			<path id="SVGID_59_" d="M200.2,183L200.2,183 M274.4,108.8c-9.8-9.7-21.3-17.5-34.1-22.8c-12.7-5.3-26.4-8-40.2-8
				c-13.8,0-27.4,2.7-40.2,8c-12.7,5.3-24.3,13-34.1,22.8c-9.7,9.8-17.5,21.3-22.8,34.1c-5.3,12.7-8,26.4-8,40.2s2.7,27.4,8,40.2
				c5.3,12.7,13,24.3,22.8,34.1c9.8,9.7,21.3,17.5,34.1,22.8c12.7,5.3,26.4,8,40.2,8s27.4-2.7,40.2-8s24.3-13,34.1-22.8
				c9.7-9.8,17.5-21.3,22.8-34.1c5.3-12.7,8-26.4,8-40.2"/>
		</defs>
		<clipPath id="SVGID_60_">
			<use xlink:href="#SVGID_59_"  style="overflow:visible;"/>
		</clipPath>
		<path class="st29" d="M200.2,99l2.9,0.1l2.9,0.2l2.9,0.3l2.9,0.4l2.9,0.4l2.9,0.6l2.9,0.7l2.8,0.8l2.8,0.9l2.8,1l2.7,1l2.7,1.2
			l2.6,1.2l2.6,1.3l2.6,1.4l2.5,1.5l2.5,1.6l2.4,1.7l2.4,1.8l2.3,1.8l2.2,1.9l2.1,2l2.1,2.1l2,2.1l1.9,2.2l1.8,2.3l1.8,2.3l1.7,2.4
			l1.6,2.4l1.5,2.5l1.4,2.6l1.3,2.6l1.2,2.7l1.1,2.7l1.1,2.7l1,2.8l0.9,2.8l0.8,2.8l0.7,2.9l0.6,2.9l0.5,2.9l0.4,2.9l0.2,2.9
			l0.2,2.9l0,2.9l0,2.9l-0.2,2.9l-0.2,2.9l-0.4,2.9l-0.5,2.9l-0.6,2.9l-0.7,2.9l-0.8,2.8l-0.9,2.8l-1,2.8l-1.1,2.7l-1.1,2.7
			l-1.2,2.6l-1.3,2.6l-1.4,2.6l-1.5,2.5l-1.6,2.5l-1.7,2.4l-1.8,2.3l-1.8,2.3l-1.9,2.2l-2,2.1l-2.1,2.1l-2.1,2l-2.2,1.9l-2.3,1.8
			l-2.4,1.8l-2.4,1.7l-2.5,1.6l-2.5,1.5l-2.6,1.4l-2.6,1.3l-2.6,1.2l-2.7,1.1l-2.7,1l-2.8,1l-2.8,0.9l-2.8,0.8l-2.9,0.6l-2.9,0.6
			l-2.9,0.5l-2.9,0.4l-2.9,0.3l-2.9,0.1l-2.9,0l-2.9,0l-2.9-0.1l-2.9-0.3l-2.9-0.4l-2.9-0.5l-2.9-0.6l-2.9-0.6l-2.8-0.8l-2.8-0.9
			l-2.8-1l-2.7-1l-2.7-1.1l-2.7-1.2l-2.6-1.3l-2.6-1.4l-2.5-1.5l-2.5-1.6l-2.4-1.7l-2.3-1.8l-2.3-1.8l-2.2-1.9l-2.1-2l-2.1-2.1
			l-2-2.1l-1.9-2.2l-1.8-2.3l-1.8-2.3l-1.7-2.4l-1.6-2.5l-1.5-2.5l-1.4-2.6l-1.3-2.6l-1.2-2.6l-1.2-2.7l-1.1-2.7l-0.9-2.8l-0.9-2.8
			l-0.8-2.8l-0.7-2.9l-0.6-2.9l-0.5-2.9l-0.3-2.9l-0.3-2.9l-0.2-2.9l-0.1-2.9l0.1-2.9l0.2-2.9l0.3-2.9l0.3-2.9l0.5-2.9l0.6-2.9
			l0.7-2.9l0.8-2.8l0.9-2.8l0.9-2.8l1.1-2.7l1.2-2.7l1.2-2.7l1.3-2.6l1.4-2.6l1.5-2.5l1.6-2.4l1.7-2.4l1.8-2.3l1.8-2.3l1.9-2.2
			l2-2.1l2.1-2.1l2.1-2l2.2-1.9l2.3-1.8l2.3-1.8l2.4-1.7l2.5-1.6l2.5-1.5l2.6-1.4l2.6-1.3l2.7-1.2l2.7-1.2l2.7-1l2.8-1l2.8-0.9
			l2.8-0.8l2.9-0.7l2.9-0.6l2.9-0.4l2.9-0.4l2.9-0.3l2.9-0.2L200.2,99"/>
	</g>
	<g>
		<path id="x_2_" class="st2" d="M200.2,183L200.2,183 M274.4,108.8c-9.8-9.7-21.3-17.5-34.1-22.8c-12.7-5.3-26.4-8-40.2-8
			c-13.8,0-27.4,2.7-40.2,8c-12.7,5.3-24.3,13-34.1,22.8c-9.7,9.8-17.5,21.3-22.8,34.1c-5.3,12.7-8,26.4-8,40.2s2.7,27.4,8,40.2
			c5.3,12.7,13,24.3,22.8,34.1c9.8,9.7,21.3,17.5,34.1,22.8c12.7,5.3,26.4,8,40.2,8s27.4-2.7,40.2-8s24.3-13,34.1-22.8
			c9.7-9.8,17.5-21.3,22.8-34.1c5.3-12.7,8-26.4,8-40.2"/>
	</g>
</g>
<text transform="matrix(1 0 0 1 204.4981 96.068)" class="st30 st31 st32">200</text>
<text transform="matrix(1 0 0 1 204.4981 117.438)" class="st30 st31 st32">150</text>
<text transform="matrix(1 0 0 1 204.4981 138.798)" class="st30 st31 st32">100</text>
<text transform="matrix(1 0 0 1 204.4981 160.168)" class="st30 st31 st32">50</text>
<circle class="st30" cx="486.1" cy="248" r="18.5"/>
<path class="st33" d="M486.1,234.9c-4.1,4.1-17.3,16.6,0,26.2"/>
<path class="st34" d="M486.1,234.9c4.1,4.1,17.3,16.6,0,26.2"/>
<circle class="st30" cx="714.4" cy="248" r="18.5"/>
<path class="st33" d="M705.8,241.6h3.7v14.8h-3.7V241.6z M712.6,241.6h3.7v14.8h-3.7V241.6z M719.5,241.6h3.7v14.8h-3.7V241.6z"/>
<path class="st34" d="M714.5,234.4l-12.6,7.1h25.1L714.5,234.4z M701.9,255.7h25.1v3.9h-25.1V255.7z"/>
<circle class="st30" cx="600.2" cy="51.4" r="18.5"/>
<path class="st34" d="M588.5,39.4h23.4v24.1h-23.4V39.4z"/>
<path class="st33" d="M591.2,45.7h18v14.9h-18V45.7z M594,38.3V43h-2.6v-4.7H594z M601.5,38.3V43h-2.6v-4.7H601.5z M609,38.3V43
	h-2.6v-4.7H609z"/>
<g>
	<path id="C_3_" class="st34" d="M600.2,46.7l2,4l4.4,0.6l-3.2,3.1l0.8,4.3l-3.9-2l-3.9,2l0.8-4.3l-3.2-3.1l4.4-0.6L600.2,46.7z"/>
</g>
<circle class="st30" cx="486.1" cy="117.7" r="18.5"/>
<g>
	<path id="D_3_" class="st34" d="M498.8,120.1v-5h-3.4c-0.2-0.8-0.6-1.5-1-2.2l2.5-2.5l-3.5-3.5l-2.5,2.5c-0.7-0.4-1.5-0.8-2.2-1
		v-3.4h-5v3.3c-0.9,0.2-1.7,0.5-2.5,0.9l-2.2-2.2l-3.5,3.5l2,2c-0.5,0.8-0.9,1.7-1.2,2.6h-2.8v5h2.6c0.2,1,0.6,2,1.1,2.9l-1.8,1.8
		l3.5,3.5l1.8-1.8c0.9,0.5,1.9,0.9,2.9,1.1v2.6h5v-2.8c0.9-0.3,1.8-0.7,2.6-1.2l2,2l3.5-3.5l-2.2-2.2c0.4-0.8,0.7-1.6,0.9-2.5
		L498.8,120.1L498.8,120.1z"/>
</g>
<circle class="st33" cx="485.8" cy="117.9" r="5.6"/>
<circle class="st30" cx="600.2" cy="314.6" r="18.5"/>
<g>
	<path id="E_3_" class="st34" d="M593.7,304.8c-0.2-1.3-1.3-2.2-2.6-2.2c-1.5,0-2.7,1.2-2.7,2.7c0,1.5,1.2,2.7,2.7,2.7c0,0,0,0,0,0
		h6.9v-3.1L593.7,304.8L593.7,304.8z"/>
</g>
<g>
	<path id="F_3_" class="st33" d="M591,302.6h15.2c1.7,0,3.1,1.4,3.1,3.1l0,0v21.1h-13.1c-1.7,0-3.1-1.4-3.1-3.1l0,0v-18.3
		C593.2,304.5,593.3,302.6,591,302.6L591,302.6z"/>
</g>
<g>
	<g>
		<path id="G_3_" class="st34" d="M598,323.7h16.2v0.1c0,1.6-1.3,3-3,3h-15.8C595.5,326.8,598,326.8,598,323.7z"/>
	</g>
	<g>
		<path id="H_7_" class="st34" d="M595.5,307.3h12v2.2h-12V307.3z"/>
	</g>
	<g>
		<path id="H_6_" class="st34" d="M595.5,311.9h12v2.2h-12V311.9z"/>
	</g>
	<path class="st34" d="M595.5,316.5h8v2.2h-8V316.5z"/>
</g>
<text transform="matrix(1 0 0 1 603.1611 96.067)" class="st30 st31 st32">0,4</text>
<text transform="matrix(1 0 0 1 603.1611 117.437)" class="st30 st31 st32">0,3</text>
<text transform="matrix(1 0 0 1 603.1611 138.797)" class="st30 st31 st32">0,2</text>
<text transform="matrix(1 0 0 1 603.1611 160.167)" class="st30 st31 st32">0,1</text>
<circle class="st30" cx="714.4" cy="117.2" r="18.5"/>
<g>
	<path id="I_3_" class="st34" d="M725.4,115.2h-22v-4.6c0-1.8,1.5-3.3,3.3-3.3h15.4c1.8,0,3.3,1.5,3.3,3.3L725.4,115.2L725.4,115.2z
		"/>
</g>
<g>
	<g>
		<path id="J_7_" class="st33" d="M711.6,116.7h-4.2c-0.9,0-1.6-0.7-1.6-1.6v-4.2c0-0.9,0.7-1.6,1.6-1.6h4.2c0.9,0,1.6,0.7,1.6,1.6
			v4.2C713.2,116,712.5,116.7,711.6,116.7z"/>
	</g>
	<g>
		<path id="J_6_" class="st33" d="M721.3,116.7h-4.2c-0.9,0-1.6-0.7-1.6-1.6v-4.2c0-0.9,0.7-1.6,1.6-1.6h4.2c0.9,0,1.6,0.7,1.6,1.6
			v4.2C723,116,722.2,116.7,721.3,116.7z"/>
	</g>
</g>
<g>
	<path id="K_3_" class="st34" d="M728.6,121.5h-28.5v-4.3c0-1.8,1.5-3.3,3.3-3.3h21.9c1.8,0,3.3,1.5,3.3,3.3L728.6,121.5
		L728.6,121.5z"/>
</g>
<g>
	<g>
		<path id="L_7_" class="st33" d="M700.1,121.5h3v4h-3V121.5z"/>
	</g>
	<g>
		<path id="L_6_" class="st33" d="M725.6,121.5h3v4h-3V121.5z"/>
	</g>
</g>
<circle class="st30" cx="86.1" cy="248" r="18.4"/>
<path class="st33" d="M86.1,234.9c-4.1,4.1-17.3,16.6,0,26.2"/>
<path class="st34" d="M86.1,234.9c4.1,4.1,17.3,16.6,0,26.2"/>
<circle class="st30" cx="314.4" cy="248" r="18.5"/>
<path class="st33" d="M305.8,241.6h3.7v14.8h-3.7V241.6z M312.6,241.6h3.7v14.8h-3.7V241.6z M319.5,241.6h3.7v14.8h-3.7V241.6z"/>
<path class="st34" d="M314.5,234.4l-12.6,7.1h25.1L314.5,234.4z M301.9,255.7h25.1v3.9h-25.1V255.7z"/>
<circle class="st30" cx="200.2" cy="51.4" r="18.4"/>
<path class="st34" d="M188.5,39.4h23.4v24.1h-23.4V39.4z"/>
<path class="st33" d="M191.2,45.7h18v14.9h-18V45.7z M194,38.3V43h-2.6v-4.7H194z M201.5,38.3V43h-2.6v-4.7H201.5z M209,38.3V43
	h-2.6v-4.7H209z"/>
<g>
	<path id="C_2_" class="st34" d="M200.2,46.7l2,4l4.4,0.6l-3.2,3.1l0.8,4.3l-3.9-2l-3.9,2l0.8-4.3l-3.2-3.1l4.4-0.6L200.2,46.7z"/>
</g>
<circle class="st30" cx="86.1" cy="117.7" r="18.5"/>
<g>
	<path id="D_2_" class="st34" d="M98.8,120.1v-5h-3.4c-0.2-0.8-0.6-1.5-1-2.2l2.5-2.5l-3.5-3.5l-2.5,2.5c-0.7-0.4-1.5-0.8-2.2-1
		v-3.4h-5v3.3c-0.9,0.2-1.7,0.5-2.5,0.9l-2.2-2.2l-3.5,3.5l2,2c-0.5,0.8-0.9,1.7-1.2,2.6h-2.8v5H76c0.2,1,0.6,2,1.1,2.9l-1.8,1.8
		l3.5,3.5l1.8-1.8c0.9,0.5,1.9,0.9,2.9,1.1v2.6h5v-2.8c0.9-0.3,1.8-0.7,2.6-1.2l2,2l3.5-3.5l-2.2-2.2c0.4-0.8,0.7-1.6,0.9-2.5
		L98.8,120.1L98.8,120.1z"/>
</g>
<circle class="st33" cx="85.8" cy="117.9" r="5.6"/>
<circle class="st30" cx="200.2" cy="314.6" r="18.5"/>
<g>
	<path id="E_2_" class="st34" d="M193.7,304.8c-0.2-1.3-1.3-2.2-2.6-2.2c-1.5,0-2.7,1.2-2.7,2.7c0,1.5,1.2,2.7,2.7,2.7c0,0,0,0,0,0
		h6.9v-3.1L193.7,304.8L193.7,304.8z"/>
</g>
<g>
	<path id="F_2_" class="st33" d="M191,302.6h15.2c1.7,0,3.1,1.4,3.1,3.1l0,0v21.1h-13.1c-1.7,0-3.1-1.4-3.1-3.1l0,0v-18.3
		C193.2,304.5,193.3,302.6,191,302.6L191,302.6z"/>
</g>
<g>
	<g>
		<path id="G_2_" class="st34" d="M198,323.7h16.2v0.1c0,1.6-1.3,3-3,3h-15.8C195.5,326.8,198,326.8,198,323.7z"/>
	</g>
	<g>
		<path id="H_5_" class="st34" d="M195.5,307.3h12v2.2h-12V307.3z"/>
	</g>
	<g>
		<path id="H_4_" class="st34" d="M195.5,311.9h12v2.2h-12V311.9z"/>
	</g>
	<path class="st34" d="M195.5,316.5h8v2.2h-8V316.5z"/>
</g>
<circle class="st30" cx="314.4" cy="117.2" r="18.5"/>
<g>
	<path id="I_2_" class="st34" d="M325.4,115.2h-22v-4.6c0-1.8,1.5-3.3,3.3-3.3h15.4c1.8,0,3.3,1.5,3.3,3.3L325.4,115.2L325.4,115.2z
		"/>
</g>
<g>
	<g>
		<path id="J_5_" class="st33" d="M311.6,116.7h-4.2c-0.9,0-1.6-0.7-1.6-1.6v-4.2c0-0.9,0.7-1.6,1.6-1.6h4.2c0.9,0,1.6,0.7,1.6,1.6
			v4.2C313.2,116,312.5,116.7,311.6,116.7z"/>
	</g>
	<g>
		<path id="J_4_" class="st33" d="M321.3,116.7h-4.2c-0.9,0-1.6-0.7-1.6-1.6v-4.2c0-0.9,0.7-1.6,1.6-1.6h4.2c0.9,0,1.6,0.7,1.6,1.6
			v4.2C323,116,322.2,116.7,321.3,116.7z"/>
	</g>
</g>
<g>
	<path id="K_2_" class="st34" d="M328.6,121.5h-28.5v-4.3c0-1.8,1.5-3.3,3.3-3.3h21.9c1.8,0,3.3,1.5,3.3,3.3L328.6,121.5
		L328.6,121.5z"/>
</g>
<g>
	<g>
		<path id="L_5_" class="st33" d="M300.1,121.5h3v4h-3V121.5z"/>
	</g>
	<g>
		<path id="L_4_" class="st33" d="M325.6,121.5h3v4h-3V121.5z"/>
	</g>
</g>
<path class="st35" d="M200,139.6l27.3,27.3l53.9,62.6L200,211.6l-29.9-11.7l29.9-17.2L200,139.6z"/>
<path class="st36" d="M600.2,177.8v4.3l7.4,4.3l-7.4,63.9l-31.4-50.1l31.4-18.1V177.8z"/>
<path class="st37" d="M601,150.5l0.2,32.1l82.1,47.4l-83,45.8l-1-93.9v-31.5L601,150.5z"/>
<path class="st33" d="M149.9,84.1H36.5c-10.5,0-18.9-8.5-18.9-18.9V35.9c0-10.4,8.5-18.9,18.9-18.9h113.3c10.4,0,18.9,8.5,18.9,18.9
	v29.2C168.8,75.6,160.3,84.1,149.9,84.1L149.9,84.1z"/>
<g>
	<path class="st33" d="M180.7,52L168.5,59V44.9L180.7,52z M581.7,316.5l-12.2,7.1v-14.1L581.7,316.5z"/>
	<path class="st33" d="M552.6,345.6H416c-10.5,0-18.9-8.5-18.9-18.9v-18.5c0-10.5,8.5-18.9,18.9-18.9h136.6
		c10.5,0,18.9,8.5,18.9,18.9v18.5C571.5,337.1,563.1,345.6,552.6,345.6z"/>
</g>
<text transform="matrix(1 0 0 1 409.6548 308.595)" class="st38 st31 st39">Вологодский фольклор; </text>
<text transform="matrix(1 0 0 1 409.6548 322.595)" class="st38 st31 st39">Вологодский </text>
<text transform="matrix(1 0 0 1 409.6548 336.595)" class="st38 st31 st39">драматический театр</text>
<path class="st40" d="M434.3,217H296.5c-8.6,0-15.7-7-15.7-15.7v-23.7c0-8.6,7-15.7,15.7-15.7h137.8c8.6,0,15.7,7,15.7,15.7v23.7
	C450,210,443,217,434.3,217L434.3,217z"/>
<rect x="292.6" y="315" class="st41" width="4.4" height="4"/>
<g>
	<path class="st33" d="M314.1,228.6l7.1-12.2H307L314.1,228.6z"/>
	<path class="st40" d="M101.2,317.2H70.5c-10.5,0-18.9-8.5-18.9-18.9l0,0c0-10.5,8.5-18.9,18.9-18.9h30.7c10.4,0,18.9,8.5,18.9,18.9
		l0,0C120.1,308.7,111.6,317.2,101.2,317.2z"/>
</g>
<text transform="matrix(1 0 0 1 64.189 302.595)" class="st34 st31 st39">Озера</text>
<g>
	<path class="st33" d="M85.9,267.8L78.8,280h14.1L85.9,267.8z"/>
	<path class="st40" d="M354.2,87H246.1c-10.4,0-18.9-8.5-18.9-18.9v-8c0-10.5,8.5-18.9,18.9-18.9h108.1c10.5,0,18.9,8.5,18.9,18.9v8
		C373.1,78.5,364.6,87,354.2,87z"/>
</g>
<text transform="matrix(1 0 0 1 238.814 62.186)" class="st34 st31 st39">Железнодорожное </text>
<text transform="matrix(1 0 0 1 238.814 76.186)" class="st34 st31 st39">сообщение</text>
<path class="st33" d="M314.1,98.6l7.1-12.2H307L314.1,98.6z"/>
<text transform="matrix(1 0 0 1 27.6089 33.916)" class="st34 st31 st39">Межрегиональный </text>
<text transform="matrix(1 0 0 1 27.6089 47.916)" class="st34 st31 st39">фольклорный </text>
<text transform="matrix(1 0 0 1 27.6089 61.916)" class="st34 st31 st39">фестиваль «Деревня —</text>
<text transform="matrix(1 0 0 1 27.6089 75.916)" class="st34 st31 st39">душа России»</text>
<path class="st33" d="M343.6,335.5h-91.1c-9.1,0-16.4-7.3-16.4-16.4V309c0-9.1,7.3-16.4,16.4-16.4H351c9.1,0,16.4,7.3,16.4,16.4
	v10.1c0,9.1-7.3,16.4-16.4,16.4H343.6z"/>
<path class="st33" d="M225,314l12.2,7.1V307L225,314z"/>
<text transform="matrix(1 0 0 1 245.4409 311.3983)" class="st42"><tspan x="0" y="0" class="st34 st31 st39">Традиции </tspan><tspan x="0" y="14" class="st34 st31 st39">кружевоплетения</tspan></text>
<text transform="matrix(1 0 0 1 288 179.0001)" class="st34 st31 st39">Архитектурно- </text>
<text transform="matrix(1 0 0 1 288 193.0001)" class="st34 st31 st39">этнографический музей </text>
<text transform="matrix(1 0 0 1 288 207.0001)" class="st34 st31 st39">«Семёнково»; </text>
</svg>
