<svg width="62" height="62" viewBox="0 0 62 62" fill="none" xmlns="http://www.w3.org/2000/svg">
<circle cx="31" cy="31" r="31" fill="#001520"/>
<path d="M22.3938 25L22.7938 25.4H25.9938L26.3938 25V24.2C26.3938 21 28.5938 19.24 31.1938 19.24C33.7938 19.24 36.1938 21 36.1938 24.2C36.1938 26.6 34.9938 28.08 33.5938 29.4C28.7938 34 21.9938 37.6 21.9938 43V44.6L22.3938 45H39.6338L39.9938 44.6V41.4L39.6338 41H26.8338C26.8738 38.8 31.3537 36.36 36.3938 31.8C38.1538 30.2 40.1938 27.6 40.1938 24.2C40.1938 18.8 35.9938 15.4 31.1938 15.4C26.1938 15.4 22.3938 19 22.3938 24.2V25Z" fill="#F3B26F"/>
</svg>
