<svg width="62" height="62" viewBox="0 0 62 62" fill="none" xmlns="http://www.w3.org/2000/svg">
<circle cx="31" cy="31" r="31" fill="#001520"/>
<path d="M39.9938 16.2L39.5938 15.8H22.3938L21.9938 16.2V19.4L22.3938 19.8H34.4338L26.7938 26.6V29.8L27.1938 30.2H30.1938C33.5938 30.2 36.3938 32.4 36.3938 36C36.3938 39 34.1938 41.6 30.9938 41.6C27.7938 41.6 25.5538 39.2 25.5538 36.2L25.1938 35.8H21.9938L21.5938 36.2C21.5938 41 25.3938 45.4 30.9938 45.4C36.7938 45.4 40.3938 40.6 40.3938 36C40.3938 30.92 37.0338 27 31.9938 26.68L39.9938 19.8V16.2Z" fill="#8ECEBD"/>
</svg>
