<svg width="66" height="83" viewBox="0 0 66 83" fill="none" xmlns="http://www.w3.org/2000/svg">
<g clip-path="url(#clip0)">
<path d="M0.771172 35.252L21.9756 35.252L21.9756 19.8545L0.771173 19.8545L0.771172 35.252Z" fill="white"/>
<path d="M0.771588 35.2521L21.976 35.2521L21.976 49.9443C21.976 56.1738 27.0415 61.228 33.285 61.228C39.5285 61.228 44.594 56.1738 44.5941 49.9443L44.5941 35.2521L65.6807 35.2521L65.6807 49.9443C65.6807 67.8101 51.0732 82.3848 33.1672 82.3848C15.2613 82.3848 0.653779 67.8101 0.653781 49.9443L0.653782 35.2521L0.771588 35.2521Z" fill="#35A2B7"/>
<path d="M44.4762 35.252L65.6807 35.252L65.6807 19.8545L44.4762 19.8545L44.4762 35.252Z" fill="white"/>
</g>
<rect x="8.26074" width="6.24126" height="12.4825" fill="#35A2B7"/>
<rect x="51.9502" width="6.24126" height="12.4825" fill="#35A2B7"/>
<defs>
<clipPath id="clip0">
<rect width="64.9091" height="62.4126" fill="white" transform="translate(65.6807 82.3848) rotate(-180)"/>
</clipPath>
</defs>
</svg>
